<?xml version="1.0" encoding="utf-8" standalone="no"?>
<!DOCTYPE svg PUBLIC "-//W3C//DTD SVG 1.1//EN"
  "http://www.w3.org/Graphics/SVG/1.1/DTD/svg11.dtd">
<!-- Created with matplotlib (http://matplotlib.org/) -->
<svg height="720pt" version="1.1" viewBox="0 0 1152 720" width="1152pt" xmlns="http://www.w3.org/2000/svg" xmlns:xlink="http://www.w3.org/1999/xlink">
 <defs>
  <style type="text/css">
*{stroke-linecap:butt;stroke-linejoin:round;}
  </style>
 </defs>
 <g id="figure_1">
  <g id="patch_1">
   <path d="M 0 720 
L 1152 720 
L 1152 0 
L 0 0 
z
" style="fill:#ffffff;"/>
  </g>
  <g id="axes_1">
   <g id="patch_2">
    <path d="M 144 630 
L 1036.8 630 
L 1036.8 86.4 
L 144 86.4 
z
" style="fill:#ffffff;"/>
   </g>
   <g id="matplotlib.axis_1">
    <g id="xtick_1">
     <g id="line2d_1">
      <defs>
       <path d="M 0 0 
L 0 3.5 
" id="mb3c86fa7ed" style="stroke:#000000;stroke-width:0.8;"/>
      </defs>
      <g>
       <use style="stroke:#000000;stroke-width:0.8;" x="184.581818" xlink:href="#mb3c86fa7ed" y="630"/>
      </g>
     </g>
     <g id="text_1">
      <!-- 0 -->
      <defs>
       <path d="M 31.78125 66.40625 
Q 24.171875 66.40625 20.328125 58.90625 
Q 16.5 51.421875 16.5 36.375 
Q 16.5 21.390625 20.328125 13.890625 
Q 24.171875 6.390625 31.78125 6.390625 
Q 39.453125 6.390625 43.28125 13.890625 
Q 47.125 21.390625 47.125 36.375 
Q 47.125 51.421875 43.28125 58.90625 
Q 39.453125 66.40625 31.78125 66.40625 
z
M 31.78125 74.21875 
Q 44.046875 74.21875 50.515625 64.515625 
Q 56.984375 54.828125 56.984375 36.375 
Q 56.984375 17.96875 50.515625 8.265625 
Q 44.046875 -1.421875 31.78125 -1.421875 
Q 19.53125 -1.421875 13.0625 8.265625 
Q 6.59375 17.96875 6.59375 36.375 
Q 6.59375 54.828125 13.0625 64.515625 
Q 19.53125 74.21875 31.78125 74.21875 
z
" id="DejaVuSans-30"/>
      </defs>
      <g transform="translate(181.400568 644.598438)scale(0.1 -0.1)">
       <use xlink:href="#DejaVuSans-30"/>
      </g>
     </g>
    </g>
    <g id="xtick_2">
     <g id="line2d_2">
      <g>
       <use style="stroke:#000000;stroke-width:0.8;" x="347.071581" xlink:href="#mb3c86fa7ed" y="630"/>
      </g>
     </g>
     <g id="text_2">
      <!-- 200 -->
      <defs>
       <path d="M 19.1875 8.296875 
L 53.609375 8.296875 
L 53.609375 0 
L 7.328125 0 
L 7.328125 8.296875 
Q 12.9375 14.109375 22.625 23.890625 
Q 32.328125 33.6875 34.8125 36.53125 
Q 39.546875 41.84375 41.421875 45.53125 
Q 43.3125 49.21875 43.3125 52.78125 
Q 43.3125 58.59375 39.234375 62.25 
Q 35.15625 65.921875 28.609375 65.921875 
Q 23.96875 65.921875 18.8125 64.3125 
Q 13.671875 62.703125 7.8125 59.421875 
L 7.8125 69.390625 
Q 13.765625 71.78125 18.9375 73 
Q 24.125 74.21875 28.421875 74.21875 
Q 39.75 74.21875 46.484375 68.546875 
Q 53.21875 62.890625 53.21875 53.421875 
Q 53.21875 48.921875 51.53125 44.890625 
Q 49.859375 40.875 45.40625 35.40625 
Q 44.1875 33.984375 37.640625 27.21875 
Q 31.109375 20.453125 19.1875 8.296875 
z
" id="DejaVuSans-32"/>
      </defs>
      <g transform="translate(337.527831 644.598438)scale(0.1 -0.1)">
       <use xlink:href="#DejaVuSans-32"/>
       <use x="63.623047" xlink:href="#DejaVuSans-30"/>
       <use x="127.246094" xlink:href="#DejaVuSans-30"/>
      </g>
     </g>
    </g>
    <g id="xtick_3">
     <g id="line2d_3">
      <g>
       <use style="stroke:#000000;stroke-width:0.8;" x="509.561343" xlink:href="#mb3c86fa7ed" y="630"/>
      </g>
     </g>
     <g id="text_3">
      <!-- 400 -->
      <defs>
       <path d="M 37.796875 64.3125 
L 12.890625 25.390625 
L 37.796875 25.390625 
z
M 35.203125 72.90625 
L 47.609375 72.90625 
L 47.609375 25.390625 
L 58.015625 25.390625 
L 58.015625 17.1875 
L 47.609375 17.1875 
L 47.609375 0 
L 37.796875 0 
L 37.796875 17.1875 
L 4.890625 17.1875 
L 4.890625 26.703125 
z
" id="DejaVuSans-34"/>
      </defs>
      <g transform="translate(500.017593 644.598438)scale(0.1 -0.1)">
       <use xlink:href="#DejaVuSans-34"/>
       <use x="63.623047" xlink:href="#DejaVuSans-30"/>
       <use x="127.246094" xlink:href="#DejaVuSans-30"/>
      </g>
     </g>
    </g>
    <g id="xtick_4">
     <g id="line2d_4">
      <g>
       <use style="stroke:#000000;stroke-width:0.8;" x="672.051106" xlink:href="#mb3c86fa7ed" y="630"/>
      </g>
     </g>
     <g id="text_4">
      <!-- 600 -->
      <defs>
       <path d="M 33.015625 40.375 
Q 26.375 40.375 22.484375 35.828125 
Q 18.609375 31.296875 18.609375 23.390625 
Q 18.609375 15.53125 22.484375 10.953125 
Q 26.375 6.390625 33.015625 6.390625 
Q 39.65625 6.390625 43.53125 10.953125 
Q 47.40625 15.53125 47.40625 23.390625 
Q 47.40625 31.296875 43.53125 35.828125 
Q 39.65625 40.375 33.015625 40.375 
z
M 52.59375 71.296875 
L 52.59375 62.3125 
Q 48.875 64.0625 45.09375 64.984375 
Q 41.3125 65.921875 37.59375 65.921875 
Q 27.828125 65.921875 22.671875 59.328125 
Q 17.53125 52.734375 16.796875 39.40625 
Q 19.671875 43.65625 24.015625 45.921875 
Q 28.375 48.1875 33.59375 48.1875 
Q 44.578125 48.1875 50.953125 41.515625 
Q 57.328125 34.859375 57.328125 23.390625 
Q 57.328125 12.15625 50.6875 5.359375 
Q 44.046875 -1.421875 33.015625 -1.421875 
Q 20.359375 -1.421875 13.671875 8.265625 
Q 6.984375 17.96875 6.984375 36.375 
Q 6.984375 53.65625 15.1875 63.9375 
Q 23.390625 74.21875 37.203125 74.21875 
Q 40.921875 74.21875 44.703125 73.484375 
Q 48.484375 72.75 52.59375 71.296875 
z
" id="DejaVuSans-36"/>
      </defs>
      <g transform="translate(662.507356 644.598438)scale(0.1 -0.1)">
       <use xlink:href="#DejaVuSans-36"/>
       <use x="63.623047" xlink:href="#DejaVuSans-30"/>
       <use x="127.246094" xlink:href="#DejaVuSans-30"/>
      </g>
     </g>
    </g>
    <g id="xtick_5">
     <g id="line2d_5">
      <g>
       <use style="stroke:#000000;stroke-width:0.8;" x="834.540868" xlink:href="#mb3c86fa7ed" y="630"/>
      </g>
     </g>
     <g id="text_5">
      <!-- 800 -->
      <defs>
       <path d="M 31.78125 34.625 
Q 24.75 34.625 20.71875 30.859375 
Q 16.703125 27.09375 16.703125 20.515625 
Q 16.703125 13.921875 20.71875 10.15625 
Q 24.75 6.390625 31.78125 6.390625 
Q 38.8125 6.390625 42.859375 10.171875 
Q 46.921875 13.96875 46.921875 20.515625 
Q 46.921875 27.09375 42.890625 30.859375 
Q 38.875 34.625 31.78125 34.625 
z
M 21.921875 38.8125 
Q 15.578125 40.375 12.03125 44.71875 
Q 8.5 49.078125 8.5 55.328125 
Q 8.5 64.0625 14.71875 69.140625 
Q 20.953125 74.21875 31.78125 74.21875 
Q 42.671875 74.21875 48.875 69.140625 
Q 55.078125 64.0625 55.078125 55.328125 
Q 55.078125 49.078125 51.53125 44.71875 
Q 48 40.375 41.703125 38.8125 
Q 48.828125 37.15625 52.796875 32.3125 
Q 56.78125 27.484375 56.78125 20.515625 
Q 56.78125 9.90625 50.3125 4.234375 
Q 43.84375 -1.421875 31.78125 -1.421875 
Q 19.734375 -1.421875 13.25 4.234375 
Q 6.78125 9.90625 6.78125 20.515625 
Q 6.78125 27.484375 10.78125 32.3125 
Q 14.796875 37.15625 21.921875 38.8125 
z
M 18.3125 54.390625 
Q 18.3125 48.734375 21.84375 45.5625 
Q 25.390625 42.390625 31.78125 42.390625 
Q 38.140625 42.390625 41.71875 45.5625 
Q 45.3125 48.734375 45.3125 54.390625 
Q 45.3125 60.0625 41.71875 63.234375 
Q 38.140625 66.40625 31.78125 66.40625 
Q 25.390625 66.40625 21.84375 63.234375 
Q 18.3125 60.0625 18.3125 54.390625 
z
" id="DejaVuSans-38"/>
      </defs>
      <g transform="translate(824.997118 644.598438)scale(0.1 -0.1)">
       <use xlink:href="#DejaVuSans-38"/>
       <use x="63.623047" xlink:href="#DejaVuSans-30"/>
       <use x="127.246094" xlink:href="#DejaVuSans-30"/>
      </g>
     </g>
    </g>
    <g id="xtick_6">
     <g id="line2d_6">
      <g>
       <use style="stroke:#000000;stroke-width:0.8;" x="997.030631" xlink:href="#mb3c86fa7ed" y="630"/>
      </g>
     </g>
     <g id="text_6">
      <!-- 1000 -->
      <defs>
       <path d="M 12.40625 8.296875 
L 28.515625 8.296875 
L 28.515625 63.921875 
L 10.984375 60.40625 
L 10.984375 69.390625 
L 28.421875 72.90625 
L 38.28125 72.90625 
L 38.28125 8.296875 
L 54.390625 8.296875 
L 54.390625 0 
L 12.40625 0 
z
" id="DejaVuSans-31"/>
      </defs>
      <g transform="translate(984.305631 644.598438)scale(0.1 -0.1)">
       <use xlink:href="#DejaVuSans-31"/>
       <use x="63.623047" xlink:href="#DejaVuSans-30"/>
       <use x="127.246094" xlink:href="#DejaVuSans-30"/>
       <use x="190.869141" xlink:href="#DejaVuSans-30"/>
      </g>
     </g>
    </g>
    <g id="text_7">
     <!-- Iteration -->
     <defs>
      <path d="M 9.8125 72.90625 
L 19.671875 72.90625 
L 19.671875 0 
L 9.8125 0 
z
" id="DejaVuSans-49"/>
      <path d="M 18.3125 70.21875 
L 18.3125 54.6875 
L 36.8125 54.6875 
L 36.8125 47.703125 
L 18.3125 47.703125 
L 18.3125 18.015625 
Q 18.3125 11.328125 20.140625 9.421875 
Q 21.96875 7.515625 27.59375 7.515625 
L 36.8125 7.515625 
L 36.8125 0 
L 27.59375 0 
Q 17.1875 0 13.234375 3.875 
Q 9.28125 7.765625 9.28125 18.015625 
L 9.28125 47.703125 
L 2.6875 47.703125 
L 2.6875 54.6875 
L 9.28125 54.6875 
L 9.28125 70.21875 
z
" id="DejaVuSans-74"/>
      <path d="M 56.203125 29.59375 
L 56.203125 25.203125 
L 14.890625 25.203125 
Q 15.484375 15.921875 20.484375 11.0625 
Q 25.484375 6.203125 34.421875 6.203125 
Q 39.59375 6.203125 44.453125 7.46875 
Q 49.3125 8.734375 54.109375 11.28125 
L 54.109375 2.78125 
Q 49.265625 0.734375 44.1875 -0.34375 
Q 39.109375 -1.421875 33.890625 -1.421875 
Q 20.796875 -1.421875 13.15625 6.1875 
Q 5.515625 13.8125 5.515625 26.8125 
Q 5.515625 40.234375 12.765625 48.109375 
Q 20.015625 56 32.328125 56 
Q 43.359375 56 49.78125 48.890625 
Q 56.203125 41.796875 56.203125 29.59375 
z
M 47.21875 32.234375 
Q 47.125 39.59375 43.09375 43.984375 
Q 39.0625 48.390625 32.421875 48.390625 
Q 24.90625 48.390625 20.390625 44.140625 
Q 15.875 39.890625 15.1875 32.171875 
z
" id="DejaVuSans-65"/>
      <path d="M 41.109375 46.296875 
Q 39.59375 47.171875 37.8125 47.578125 
Q 36.03125 48 33.890625 48 
Q 26.265625 48 22.1875 43.046875 
Q 18.109375 38.09375 18.109375 28.8125 
L 18.109375 0 
L 9.078125 0 
L 9.078125 54.6875 
L 18.109375 54.6875 
L 18.109375 46.1875 
Q 20.953125 51.171875 25.484375 53.578125 
Q 30.03125 56 36.53125 56 
Q 37.453125 56 38.578125 55.875 
Q 39.703125 55.765625 41.0625 55.515625 
z
" id="DejaVuSans-72"/>
      <path d="M 34.28125 27.484375 
Q 23.390625 27.484375 19.1875 25 
Q 14.984375 22.515625 14.984375 16.5 
Q 14.984375 11.71875 18.140625 8.90625 
Q 21.296875 6.109375 26.703125 6.109375 
Q 34.1875 6.109375 38.703125 11.40625 
Q 43.21875 16.703125 43.21875 25.484375 
L 43.21875 27.484375 
z
M 52.203125 31.203125 
L 52.203125 0 
L 43.21875 0 
L 43.21875 8.296875 
Q 40.140625 3.328125 35.546875 0.953125 
Q 30.953125 -1.421875 24.3125 -1.421875 
Q 15.921875 -1.421875 10.953125 3.296875 
Q 6 8.015625 6 15.921875 
Q 6 25.140625 12.171875 29.828125 
Q 18.359375 34.515625 30.609375 34.515625 
L 43.21875 34.515625 
L 43.21875 35.40625 
Q 43.21875 41.609375 39.140625 45 
Q 35.0625 48.390625 27.6875 48.390625 
Q 23 48.390625 18.546875 47.265625 
Q 14.109375 46.140625 10.015625 43.890625 
L 10.015625 52.203125 
Q 14.9375 54.109375 19.578125 55.046875 
Q 24.21875 56 28.609375 56 
Q 40.484375 56 46.34375 49.84375 
Q 52.203125 43.703125 52.203125 31.203125 
z
" id="DejaVuSans-61"/>
      <path d="M 9.421875 54.6875 
L 18.40625 54.6875 
L 18.40625 0 
L 9.421875 0 
z
M 9.421875 75.984375 
L 18.40625 75.984375 
L 18.40625 64.59375 
L 9.421875 64.59375 
z
" id="DejaVuSans-69"/>
      <path d="M 30.609375 48.390625 
Q 23.390625 48.390625 19.1875 42.75 
Q 14.984375 37.109375 14.984375 27.296875 
Q 14.984375 17.484375 19.15625 11.84375 
Q 23.34375 6.203125 30.609375 6.203125 
Q 37.796875 6.203125 41.984375 11.859375 
Q 46.1875 17.53125 46.1875 27.296875 
Q 46.1875 37.015625 41.984375 42.703125 
Q 37.796875 48.390625 30.609375 48.390625 
z
M 30.609375 56 
Q 42.328125 56 49.015625 48.375 
Q 55.71875 40.765625 55.71875 27.296875 
Q 55.71875 13.875 49.015625 6.21875 
Q 42.328125 -1.421875 30.609375 -1.421875 
Q 18.84375 -1.421875 12.171875 6.21875 
Q 5.515625 13.875 5.515625 27.296875 
Q 5.515625 40.765625 12.171875 48.375 
Q 18.84375 56 30.609375 56 
z
" id="DejaVuSans-6f"/>
      <path d="M 54.890625 33.015625 
L 54.890625 0 
L 45.90625 0 
L 45.90625 32.71875 
Q 45.90625 40.484375 42.875 44.328125 
Q 39.84375 48.1875 33.796875 48.1875 
Q 26.515625 48.1875 22.3125 43.546875 
Q 18.109375 38.921875 18.109375 30.90625 
L 18.109375 0 
L 9.078125 0 
L 9.078125 54.6875 
L 18.109375 54.6875 
L 18.109375 46.1875 
Q 21.34375 51.125 25.703125 53.5625 
Q 30.078125 56 35.796875 56 
Q 45.21875 56 50.046875 50.171875 
Q 54.890625 44.34375 54.890625 33.015625 
z
" id="DejaVuSans-6e"/>
     </defs>
     <g transform="translate(553.75155 663.808225)scale(0.1728 -0.1728)">
      <use xlink:href="#DejaVuSans-49"/>
      <use x="29.492188" xlink:href="#DejaVuSans-74"/>
      <use x="68.701172" xlink:href="#DejaVuSans-65"/>
      <use x="130.224609" xlink:href="#DejaVuSans-72"/>
      <use x="171.337891" xlink:href="#DejaVuSans-61"/>
      <use x="232.617188" xlink:href="#DejaVuSans-74"/>
      <use x="271.826172" xlink:href="#DejaVuSans-69"/>
      <use x="299.609375" xlink:href="#DejaVuSans-6f"/>
      <use x="360.791016" xlink:href="#DejaVuSans-6e"/>
     </g>
    </g>
   </g>
   <g id="matplotlib.axis_2">
    <g id="ytick_1">
     <g id="line2d_7">
      <defs>
       <path d="M 0 0 
L -3.5 0 
" id="md9ac5b2ff4" style="stroke:#000000;stroke-width:0.8;"/>
      </defs>
      <g>
       <use style="stroke:#000000;stroke-width:0.8;" x="144" xlink:href="#md9ac5b2ff4" y="629.742445"/>
      </g>
     </g>
     <g id="text_8">
      <!-- 0.45 -->
      <defs>
       <path d="M 10.6875 12.40625 
L 21 12.40625 
L 21 0 
L 10.6875 0 
z
" id="DejaVuSans-2e"/>
       <path d="M 10.796875 72.90625 
L 49.515625 72.90625 
L 49.515625 64.59375 
L 19.828125 64.59375 
L 19.828125 46.734375 
Q 21.96875 47.46875 24.109375 47.828125 
Q 26.265625 48.1875 28.421875 48.1875 
Q 40.625 48.1875 47.75 41.5 
Q 54.890625 34.8125 54.890625 23.390625 
Q 54.890625 11.625 47.5625 5.09375 
Q 40.234375 -1.421875 26.90625 -1.421875 
Q 22.3125 -1.421875 17.546875 -0.640625 
Q 12.796875 0.140625 7.71875 1.703125 
L 7.71875 11.625 
Q 12.109375 9.234375 16.796875 8.0625 
Q 21.484375 6.890625 26.703125 6.890625 
Q 35.15625 6.890625 40.078125 11.328125 
Q 45.015625 15.765625 45.015625 23.390625 
Q 45.015625 31 40.078125 35.4375 
Q 35.15625 39.890625 26.703125 39.890625 
Q 22.75 39.890625 18.8125 39.015625 
Q 14.890625 38.140625 10.796875 36.28125 
z
" id="DejaVuSans-35"/>
      </defs>
      <g transform="translate(114.734375 633.541663)scale(0.1 -0.1)">
       <use xlink:href="#DejaVuSans-30"/>
       <use x="63.623047" xlink:href="#DejaVuSans-2e"/>
       <use x="95.410156" xlink:href="#DejaVuSans-34"/>
       <use x="159.033203" xlink:href="#DejaVuSans-35"/>
      </g>
     </g>
    </g>
    <g id="ytick_2">
     <g id="line2d_8">
      <g>
       <use style="stroke:#000000;stroke-width:0.8;" x="144" xlink:href="#md9ac5b2ff4" y="555.562002"/>
      </g>
     </g>
     <g id="text_9">
      <!-- 0.50 -->
      <g transform="translate(114.734375 559.361221)scale(0.1 -0.1)">
       <use xlink:href="#DejaVuSans-30"/>
       <use x="63.623047" xlink:href="#DejaVuSans-2e"/>
       <use x="95.410156" xlink:href="#DejaVuSans-35"/>
       <use x="159.033203" xlink:href="#DejaVuSans-30"/>
      </g>
     </g>
    </g>
    <g id="ytick_3">
     <g id="line2d_9">
      <g>
       <use style="stroke:#000000;stroke-width:0.8;" x="144" xlink:href="#md9ac5b2ff4" y="481.38156"/>
      </g>
     </g>
     <g id="text_10">
      <!-- 0.55 -->
      <g transform="translate(114.734375 485.180779)scale(0.1 -0.1)">
       <use xlink:href="#DejaVuSans-30"/>
       <use x="63.623047" xlink:href="#DejaVuSans-2e"/>
       <use x="95.410156" xlink:href="#DejaVuSans-35"/>
       <use x="159.033203" xlink:href="#DejaVuSans-35"/>
      </g>
     </g>
    </g>
    <g id="ytick_4">
     <g id="line2d_10">
      <g>
       <use style="stroke:#000000;stroke-width:0.8;" x="144" xlink:href="#md9ac5b2ff4" y="407.201118"/>
      </g>
     </g>
     <g id="text_11">
      <!-- 0.60 -->
      <g transform="translate(114.734375 411.000337)scale(0.1 -0.1)">
       <use xlink:href="#DejaVuSans-30"/>
       <use x="63.623047" xlink:href="#DejaVuSans-2e"/>
       <use x="95.410156" xlink:href="#DejaVuSans-36"/>
       <use x="159.033203" xlink:href="#DejaVuSans-30"/>
      </g>
     </g>
    </g>
    <g id="ytick_5">
     <g id="line2d_11">
      <g>
       <use style="stroke:#000000;stroke-width:0.8;" x="144" xlink:href="#md9ac5b2ff4" y="333.020676"/>
      </g>
     </g>
     <g id="text_12">
      <!-- 0.65 -->
      <g transform="translate(114.734375 336.819895)scale(0.1 -0.1)">
       <use xlink:href="#DejaVuSans-30"/>
       <use x="63.623047" xlink:href="#DejaVuSans-2e"/>
       <use x="95.410156" xlink:href="#DejaVuSans-36"/>
       <use x="159.033203" xlink:href="#DejaVuSans-35"/>
      </g>
     </g>
    </g>
    <g id="ytick_6">
     <g id="line2d_12">
      <g>
       <use style="stroke:#000000;stroke-width:0.8;" x="144" xlink:href="#md9ac5b2ff4" y="258.840234"/>
      </g>
     </g>
     <g id="text_13">
      <!-- 0.70 -->
      <defs>
       <path d="M 8.203125 72.90625 
L 55.078125 72.90625 
L 55.078125 68.703125 
L 28.609375 0 
L 18.3125 0 
L 43.21875 64.59375 
L 8.203125 64.59375 
z
" id="DejaVuSans-37"/>
      </defs>
      <g transform="translate(114.734375 262.639453)scale(0.1 -0.1)">
       <use xlink:href="#DejaVuSans-30"/>
       <use x="63.623047" xlink:href="#DejaVuSans-2e"/>
       <use x="95.410156" xlink:href="#DejaVuSans-37"/>
       <use x="159.033203" xlink:href="#DejaVuSans-30"/>
      </g>
     </g>
    </g>
    <g id="ytick_7">
     <g id="line2d_13">
      <g>
       <use style="stroke:#000000;stroke-width:0.8;" x="144" xlink:href="#md9ac5b2ff4" y="184.659792"/>
      </g>
     </g>
     <g id="text_14">
      <!-- 0.75 -->
      <g transform="translate(114.734375 188.45901)scale(0.1 -0.1)">
       <use xlink:href="#DejaVuSans-30"/>
       <use x="63.623047" xlink:href="#DejaVuSans-2e"/>
       <use x="95.410156" xlink:href="#DejaVuSans-37"/>
       <use x="159.033203" xlink:href="#DejaVuSans-35"/>
      </g>
     </g>
    </g>
    <g id="ytick_8">
     <g id="line2d_14">
      <g>
       <use style="stroke:#000000;stroke-width:0.8;" x="144" xlink:href="#md9ac5b2ff4" y="110.47935"/>
      </g>
     </g>
     <g id="text_15">
      <!-- 0.80 -->
      <g transform="translate(114.734375 114.278568)scale(0.1 -0.1)">
       <use xlink:href="#DejaVuSans-30"/>
       <use x="63.623047" xlink:href="#DejaVuSans-2e"/>
       <use x="95.410156" xlink:href="#DejaVuSans-38"/>
       <use x="159.033203" xlink:href="#DejaVuSans-30"/>
      </g>
     </g>
    </g>
    <g id="text_16">
     <!-- Loss -->
     <defs>
      <path d="M 9.8125 72.90625 
L 19.671875 72.90625 
L 19.671875 8.296875 
L 55.171875 8.296875 
L 55.171875 0 
L 9.8125 0 
z
" id="DejaVuSans-4c"/>
      <path d="M 44.28125 53.078125 
L 44.28125 44.578125 
Q 40.484375 46.53125 36.375 47.5 
Q 32.28125 48.484375 27.875 48.484375 
Q 21.1875 48.484375 17.84375 46.4375 
Q 14.5 44.390625 14.5 40.28125 
Q 14.5 37.15625 16.890625 35.375 
Q 19.28125 33.59375 26.515625 31.984375 
L 29.59375 31.296875 
Q 39.15625 29.25 43.1875 25.515625 
Q 47.21875 21.78125 47.21875 15.09375 
Q 47.21875 7.46875 41.1875 3.015625 
Q 35.15625 -1.421875 24.609375 -1.421875 
Q 20.21875 -1.421875 15.453125 -0.5625 
Q 10.6875 0.296875 5.421875 2 
L 5.421875 11.28125 
Q 10.40625 8.6875 15.234375 7.390625 
Q 20.0625 6.109375 24.8125 6.109375 
Q 31.15625 6.109375 34.5625 8.28125 
Q 37.984375 10.453125 37.984375 14.40625 
Q 37.984375 18.0625 35.515625 20.015625 
Q 33.0625 21.96875 24.703125 23.78125 
L 21.578125 24.515625 
Q 13.234375 26.265625 9.515625 29.90625 
Q 5.8125 33.546875 5.8125 39.890625 
Q 5.8125 47.609375 11.28125 51.796875 
Q 16.75 56 26.8125 56 
Q 31.78125 56 36.171875 55.265625 
Q 40.578125 54.546875 44.28125 53.078125 
z
" id="DejaVuSans-73"/>
     </defs>
     <g transform="translate(107.140675 377.30115)rotate(-90)scale(0.1728 -0.1728)">
      <use xlink:href="#DejaVuSans-4c"/>
      <use x="55.697266" xlink:href="#DejaVuSans-6f"/>
      <use x="116.878906" xlink:href="#DejaVuSans-73"/>
      <use x="168.978516" xlink:href="#DejaVuSans-73"/>
     </g>
    </g>
   </g>
   <g id="line2d_15">
    <path clip-path="url(#p53f7982437)" d="M 184.581818 324.319756 
L 186.206716 349.583033 
L 187.019165 357.842946 
L 187.831613 362.942521 
L 189.456511 374.743831 
L 191.081409 383.311089 
L 192.706306 390.899264 
L 193.518755 393.386431 
L 194.331204 397.630711 
L 195.143653 400.269228 
L 195.956102 400.583629 
L 196.76855 404.721828 
L 197.580999 407.623101 
L 198.393448 409.749076 
L 199.205897 410.971184 
L 200.018346 413.978347 
L 200.830794 415.180836 
L 201.643243 416.683822 
L 202.455692 419.192147 
L 203.268141 420.31119 
L 204.08059 421.957337 
L 204.893038 424.240268 
L 205.705487 425.256302 
L 206.517936 427.065089 
L 207.330385 427.655174 
L 208.142834 429.876047 
L 208.955283 431.302205 
L 209.767731 430.780438 
L 210.58018 433.609606 
L 211.392629 435.172095 
L 212.205078 435.020751 
L 213.017527 436.686412 
L 213.829975 437.39339 
L 214.642424 439.479774 
L 215.454873 440.907123 
L 216.267322 441.53769 
L 217.079771 442.569356 
L 218.704668 441.190027 
L 219.517117 445.152634 
L 220.329566 446.042056 
L 221.142015 445.952246 
L 221.954464 447.728014 
L 222.766912 448.781489 
L 223.579361 449.484923 
L 224.39181 450.464971 
L 225.204259 449.257308 
L 226.016708 447.097029 
L 226.829156 451.910136 
L 228.454054 453.577105 
L 229.266503 453.467414 
L 230.078952 454.655821 
L 230.8914 454.784096 
L 231.703849 455.534401 
L 232.516298 455.93304 
L 233.328747 454.735273 
L 234.141196 455.894755 
L 234.953645 457.538847 
L 235.766093 454.959883 
L 236.578542 456.580384 
L 237.390991 458.802617 
L 238.20344 458.393065 
L 239.015889 460.034958 
L 239.828337 461.348243 
L 240.640786 459.749016 
L 241.453235 461.005116 
L 242.265684 462.983703 
L 243.078133 463.135753 
L 243.890581 462.997882 
L 244.70303 464.620963 
L 246.327928 464.168008 
L 247.140377 464.147927 
L 247.952826 466.554052 
L 248.765274 466.681742 
L 249.577723 467.188 
L 250.390172 468.138154 
L 251.202621 468.259769 
L 252.01507 468.810984 
L 252.827518 468.681826 
L 253.639967 469.201726 
L 254.452416 466.322263 
L 255.264865 464.701595 
L 256.077314 469.25323 
L 256.889762 469.510541 
L 257.702211 471.225118 
L 258.51466 471.091374 
L 259.327109 469.285512 
L 260.139558 472.498694 
L 260.952007 472.121686 
L 261.764455 472.442494 
L 262.576904 471.485118 
L 263.389353 473.287106 
L 264.201802 472.746405 
L 265.014251 473.598686 
L 265.826699 472.151113 
L 266.639148 474.080939 
L 267.451597 474.979447 
L 269.076495 475.391239 
L 269.888943 475.396332 
L 270.701392 475.875205 
L 271.513841 475.072202 
L 272.32629 477.391351 
L 273.138739 477.862995 
L 273.951188 476.368519 
L 274.763636 478.035609 
L 275.576085 478.454195 
L 276.388534 478.667369 
L 277.200983 478.009936 
L 278.013432 478.605464 
L 278.82588 479.405597 
L 279.638329 474.156051 
L 281.263227 481.003543 
L 282.075676 481.110741 
L 282.888124 480.213556 
L 283.700573 480.137431 
L 284.513022 482.277504 
L 285.325471 481.575603 
L 286.13792 482.161185 
L 286.950369 482.967592 
L 288.575266 483.357834 
L 289.387715 481.939954 
L 290.200164 483.760371 
L 291.012613 483.771788 
L 291.825061 484.026233 
L 292.63751 484.816642 
L 293.449959 482.821355 
L 294.262408 484.415637 
L 295.074857 484.669572 
L 296.699754 484.890541 
L 297.512203 485.571005 
L 298.324652 485.857657 
L 299.137101 486.016736 
L 299.94955 485.540524 
L 300.761998 486.449096 
L 301.574447 486.584485 
L 303.199345 486.477605 
L 304.011794 486.688548 
L 304.824242 486.732032 
L 305.636691 487.566584 
L 309.698935 488.96754 
L 310.511384 489.070124 
L 311.323833 487.739182 
L 312.136282 487.436279 
L 313.761179 489.216259 
L 314.573628 490.580828 
L 315.386077 490.197663 
L 316.198526 490.50512 
L 317.010975 491.157758 
L 317.823423 491.545968 
L 318.635872 491.300028 
L 319.448321 490.737528 
L 321.073219 492.098199 
L 321.885667 492.489345 
L 323.510565 490.654009 
L 324.323014 492.96399 
L 325.135463 493.405449 
L 325.947912 493.626264 
L 326.76036 493.70556 
L 327.572809 493.959515 
L 328.385258 493.948173 
L 329.197707 493.752551 
L 330.010156 492.596049 
L 330.822604 491.746605 
L 331.635053 494.315196 
L 332.447502 493.793401 
L 333.259951 494.700583 
L 334.0724 492.759455 
L 334.884848 495.186138 
L 335.697297 493.881332 
L 336.509746 493.125567 
L 337.322195 495.16467 
L 338.134644 495.308417 
L 338.947093 495.861209 
L 339.759541 495.663624 
L 340.57199 496.335324 
L 341.384439 496.830288 
L 342.196888 496.204624 
L 343.009337 496.503027 
L 343.821785 497.311222 
L 344.634234 497.617632 
L 345.446683 497.451549 
L 346.259132 497.946615 
L 347.071581 497.817297 
L 347.884029 497.862449 
L 348.696478 498.164394 
L 349.508927 497.879515 
L 350.321376 498.104078 
L 351.133825 498.61895 
L 351.946274 498.952581 
L 352.758722 498.830666 
L 353.571171 498.595276 
L 354.38362 498.765727 
L 355.196069 498.801817 
L 356.008518 499.476073 
L 356.820966 499.469539 
L 357.633415 499.582124 
L 358.445864 500.087679 
L 359.258313 500.051373 
L 360.070762 499.378151 
L 360.88321 500.245453 
L 361.695659 500.444668 
L 363.320557 501.124493 
L 364.133006 500.503085 
L 364.945455 500.828295 
L 365.757903 501.374033 
L 366.570352 500.746559 
L 367.382801 495.933774 
L 368.19525 499.69216 
L 369.007699 502.104926 
L 369.820147 502.296358 
L 370.632596 501.736267 
L 372.257494 502.441505 
L 373.069943 502.084975 
L 373.882391 501.916749 
L 374.69484 503.246914 
L 375.507289 502.835064 
L 376.319738 502.719425 
L 377.132187 503.008004 
L 377.944636 503.867358 
L 378.757084 503.978345 
L 379.569533 503.396988 
L 380.381982 503.410903 
L 381.194431 504.420831 
L 382.00688 504.444617 
L 382.819328 503.931002 
L 383.631777 504.382746 
L 384.444226 503.96899 
L 386.069124 504.809253 
L 386.881572 504.968574 
L 387.694021 504.46021 
L 388.50647 505.413811 
L 389.318919 505.731675 
L 390.131368 505.79911 
L 390.943817 506.064384 
L 393.381163 505.920872 
L 394.193612 506.123413 
L 395.006061 505.708337 
L 395.818509 505.810832 
L 396.630958 506.173131 
L 397.443407 505.204004 
L 398.255856 506.272895 
L 399.068305 506.717206 
L 400.693202 506.068033 
L 401.505651 505.315577 
L 402.3181 507.173698 
L 403.130549 507.670653 
L 403.942998 507.209054 
L 404.755446 507.20749 
L 405.567895 507.957487 
L 406.380344 508.360265 
L 407.192793 508.449309 
L 408.005242 508.413436 
L 408.81769 508.19959 
L 409.630139 508.864201 
L 410.442588 508.917303 
L 411.255037 508.836996 
L 412.067486 507.406681 
L 412.879934 507.697121 
L 413.692383 507.288676 
L 414.504832 509.570881 
L 415.317281 509.011179 
L 416.12973 509.668235 
L 416.942179 509.134328 
L 417.754627 509.398319 
L 418.567076 509.890755 
L 419.379525 510.016908 
L 420.191974 509.177514 
L 421.004423 506.417672 
L 421.816871 506.844684 
L 422.62932 507.610562 
L 423.441769 507.94533 
L 424.254218 510.694 
L 425.879115 510.815644 
L 426.691564 510.175127 
L 427.504013 511.127908 
L 428.316462 510.964114 
L 429.128911 510.555681 
L 431.566257 511.691653 
L 432.378706 511.640863 
L 433.191155 511.757972 
L 434.003604 512.265707 
L 434.816052 512.410708 
L 436.44095 512.340849 
L 438.065848 510.090811 
L 438.878296 511.314984 
L 439.690745 512.278561 
L 440.503194 512.251192 
L 442.128092 512.852088 
L 442.940541 511.868701 
L 443.752989 512.164011 
L 444.565438 513.543796 
L 445.377887 511.02639 
L 446.190336 512.500608 
L 447.002785 512.294427 
L 447.815233 513.672061 
L 448.627682 512.774333 
L 449.440131 513.935851 
L 450.25258 514.357008 
L 451.877477 514.568431 
L 452.689926 514.735582 
L 453.502375 514.016156 
L 454.314824 514.413085 
L 455.127273 514.035598 
L 455.939722 514.696229 
L 456.75217 514.56889 
L 457.564619 515.290486 
L 458.377068 514.763251 
L 459.189517 515.274822 
L 460.001966 514.713546 
L 460.814414 515.572674 
L 461.626863 515.822041 
L 463.251761 515.906667 
L 464.06421 515.755024 
L 465.689107 515.814359 
L 466.501556 515.300234 
L 467.314005 515.856616 
L 468.126454 516.093928 
L 468.938903 515.624879 
L 469.751351 516.283487 
L 470.5638 515.337213 
L 471.376249 515.674539 
L 472.188698 515.403537 
L 473.001147 516.528299 
L 473.813595 516.678824 
L 474.626044 516.668147 
L 475.438493 516.81783 
L 476.250942 517.527762 
L 477.875839 517.594829 
L 478.688288 517.27335 
L 479.500737 517.21093 
L 481.125635 516.025528 
L 481.938084 516.05759 
L 482.750532 517.113172 
L 483.562981 517.100166 
L 484.37543 518.030515 
L 485.187879 518.435974 
L 486.000328 518.152907 
L 486.812776 518.649911 
L 487.625225 518.66417 
L 488.437674 518.390262 
L 489.250123 518.675105 
L 490.062572 518.387254 
L 490.87502 518.515437 
L 492.499918 517.611889 
L 493.312367 518.462831 
L 494.124816 518.756923 
L 494.937265 517.462415 
L 495.749713 518.684356 
L 496.562162 519.644377 
L 497.374611 519.730621 
L 498.18706 519.066513 
L 498.999509 519.608613 
L 499.811957 519.694762 
L 500.624406 519.93372 
L 501.436855 518.8522 
L 502.249304 519.680616 
L 503.061753 518.469728 
L 503.874201 517.867879 
L 504.68665 519.922082 
L 505.499099 520.594879 
L 506.311548 520.490869 
L 507.123997 520.184243 
L 507.936446 513.301245 
L 508.748894 515.554577 
L 510.373792 518.092331 
L 511.186241 519.966159 
L 511.99869 520.212228 
L 512.811138 520.190201 
L 513.623587 516.243029 
L 514.436036 516.182634 
L 515.248485 520.406145 
L 516.060934 520.792485 
L 516.873382 519.854297 
L 517.685831 519.665496 
L 518.49828 521.627494 
L 519.310729 514.932376 
L 520.123178 519.76188 
L 521.748075 521.834433 
L 522.560524 522.301484 
L 523.372973 522.237019 
L 524.997871 522.489361 
L 525.810319 521.900819 
L 526.622768 522.499877 
L 527.435217 520.662256 
L 528.247666 519.375923 
L 529.060115 521.04518 
L 529.872563 522.039493 
L 531.497461 522.862281 
L 532.30991 521.576699 
L 533.122359 522.832607 
L 533.934808 522.810387 
L 535.559705 523.395067 
L 536.372154 521.479877 
L 537.184603 523.03411 
L 537.997052 523.162507 
L 538.8095 523.821602 
L 539.621949 523.565051 
L 540.434398 524.165173 
L 541.246847 524.251447 
L 543.684193 523.927843 
L 544.496642 524.276732 
L 545.309091 524.368369 
L 546.12154 523.776823 
L 546.933989 523.77518 
L 547.746437 518.426551 
L 548.558886 522.589585 
L 549.371335 523.803019 
L 550.183784 524.091237 
L 550.996233 524.616942 
L 551.808681 524.817734 
L 552.62113 524.848852 
L 553.433579 524.566148 
L 554.246028 525.403391 
L 555.058477 525.446069 
L 555.870925 524.982703 
L 556.683374 524.810272 
L 557.495823 522.143504 
L 558.308272 522.028026 
L 559.120721 525.57191 
L 559.93317 526.12147 
L 560.745618 526.253355 
L 561.558067 526.123007 
L 562.370516 526.225214 
L 563.182965 526.474322 
L 563.995414 526.585424 
L 564.807862 525.515418 
L 565.620311 526.418012 
L 566.43276 526.487523 
L 567.245209 526.111067 
L 568.057658 526.656752 
L 568.870106 526.6879 
L 569.682555 526.855799 
L 570.495004 526.094617 
L 571.307453 527.334294 
L 572.119902 527.115931 
L 572.932351 526.712686 
L 573.744799 525.865552 
L 574.557248 526.631903 
L 575.369697 526.574697 
L 576.182146 527.649163 
L 576.994595 527.34954 
L 577.807043 527.8887 
L 578.619492 527.189269 
L 579.431941 527.2351 
L 580.24439 525.515983 
L 581.056839 526.829432 
L 581.869287 526.845019 
L 582.681736 523.933433 
L 583.494185 527.594451 
L 584.306634 527.824593 
L 585.119083 526.113617 
L 586.74398 527.986945 
L 587.556429 527.743025 
L 588.368878 528.569232 
L 589.181327 528.320722 
L 589.993776 527.851239 
L 590.806224 528.551495 
L 591.618673 528.590088 
L 592.431122 527.733701 
L 593.243571 526.015949 
L 594.05602 526.482304 
L 594.868468 527.332523 
L 595.680917 527.611134 
L 596.493366 528.459305 
L 597.305815 528.230448 
L 598.118264 528.14105 
L 598.930713 529.040593 
L 599.743161 528.903317 
L 600.55561 529.439484 
L 601.368059 529.7135 
L 603.805405 529.718697 
L 604.617854 529.355225 
L 605.430303 529.153305 
L 606.242752 529.765469 
L 607.055201 529.245427 
L 607.867649 529.525877 
L 608.680098 521.439033 
L 611.117445 528.83323 
L 611.929894 528.554741 
L 612.742342 528.853663 
L 613.554791 530.502522 
L 614.36724 528.439581 
L 615.179689 524.967352 
L 615.992138 529.613914 
L 616.804586 528.679732 
L 617.617035 530.846227 
L 618.429484 531.209303 
L 619.241933 531.401681 
L 620.054382 529.749108 
L 620.86683 530.972272 
L 622.491728 531.466419 
L 623.304177 531.146994 
L 624.116626 531.332494 
L 625.741523 531.007025 
L 626.553972 530.591405 
L 627.366421 531.453103 
L 628.17887 531.781799 
L 628.991319 530.210114 
L 629.803767 531.125013 
L 630.616216 530.806446 
L 632.241114 531.962714 
L 633.053563 531.464953 
L 633.866011 532.013732 
L 634.67846 532.152148 
L 635.490909 532.60538 
L 636.303358 532.595148 
L 637.115807 531.667257 
L 637.928256 531.566357 
L 638.740704 532.735765 
L 640.365602 532.546937 
L 641.178051 531.674147 
L 641.9905 526.315552 
L 642.802948 522.325972 
L 643.615397 524.425134 
L 644.427846 530.157792 
L 645.240295 531.908075 
L 646.052744 532.845517 
L 646.865192 533.261532 
L 648.49009 526.214061 
L 649.302539 529.979266 
L 650.114988 532.513194 
L 650.927437 533.117812 
L 651.739885 532.948575 
L 652.552334 533.743399 
L 653.364783 532.160931 
L 654.177232 533.835828 
L 654.989681 532.502578 
L 655.802129 533.78478 
L 656.614578 534.038185 
L 657.427027 534.171159 
L 658.239476 533.531814 
L 659.051925 533.975705 
L 660.676822 534.21697 
L 661.489271 534.080029 
L 662.30172 534.492738 
L 663.114169 534.14086 
L 663.926618 534.732042 
L 664.739066 534.771641 
L 665.551515 534.67049 
L 666.363964 534.719632 
L 667.176413 534.323577 
L 667.988862 535.045143 
L 668.80131 534.904722 
L 669.613759 535.107936 
L 670.426208 534.119817 
L 671.238657 533.742517 
L 672.051106 534.035224 
L 672.863554 534.756926 
L 673.676003 534.656221 
L 674.488452 535.35446 
L 675.300901 535.267963 
L 676.11335 534.223321 
L 676.925799 534.735993 
L 677.738247 535.455397 
L 679.363145 535.296845 
L 680.175594 532.765205 
L 680.988043 533.713654 
L 681.800491 533.483569 
L 682.61294 535.227796 
L 683.425389 533.438445 
L 684.237838 535.570574 
L 685.050287 535.543804 
L 685.862735 531.825418 
L 686.675184 534.725107 
L 688.300082 536.156418 
L 689.112531 536.230874 
L 689.92498 535.660271 
L 690.737428 535.972724 
L 691.549877 534.190844 
L 692.362326 536.492272 
L 693.174775 535.237502 
L 693.987224 534.691519 
L 694.799672 535.749387 
L 695.612121 535.926766 
L 696.42457 536.46184 
L 697.237019 536.437485 
L 698.049468 536.769259 
L 698.861916 536.686741 
L 699.674365 536.8919 
L 700.486814 535.544573 
L 701.299263 536.449336 
L 702.111712 535.991444 
L 702.924161 537.410771 
L 703.736609 537.11776 
L 704.549058 537.042307 
L 705.361507 537.630727 
L 706.173956 537.576598 
L 706.986405 537.149952 
L 707.798853 538.044994 
L 708.611302 534.25895 
L 709.423751 537.731577 
L 710.2362 536.67001 
L 711.048649 536.737587 
L 711.861097 536.644661 
L 713.485995 538.360193 
L 715.110893 538.136336 
L 715.923342 536.092714 
L 716.73579 537.397957 
L 717.548239 536.345589 
L 718.360688 533.943954 
L 719.173137 534.556242 
L 719.985586 538.091287 
L 720.798034 537.208381 
L 722.422932 538.435458 
L 723.235381 538.560612 
L 724.860278 538.541485 
L 725.672727 538.617992 
L 726.485176 535.961593 
L 728.110074 539.159344 
L 728.922523 538.842143 
L 729.734971 539.359376 
L 730.54742 538.042947 
L 731.359869 539.4761 
L 732.984767 539.116215 
L 733.797215 539.444246 
L 735.422113 537.457817 
L 736.234562 539.870905 
L 737.047011 539.464389 
L 737.859459 539.480574 
L 738.671908 539.730998 
L 739.484357 539.222346 
L 740.296806 539.108042 
L 741.109255 540.189207 
L 741.921704 538.955625 
L 742.734152 538.922245 
L 743.546601 539.89658 
L 745.171499 539.188492 
L 747.608845 540.024573 
L 748.421294 540.108973 
L 749.233743 537.280466 
L 750.046192 537.752785 
L 750.85864 539.514955 
L 751.671089 540.116187 
L 752.483538 540.15524 
L 753.295987 539.516924 
L 754.108436 540.105126 
L 754.920885 540.137809 
L 755.733333 540.488379 
L 756.545782 539.815954 
L 757.358231 539.423019 
L 758.17068 539.730393 
L 758.983129 540.521849 
L 759.795577 540.31585 
L 760.608026 539.733271 
L 761.420475 539.420076 
L 762.232924 540.506302 
L 763.045373 540.697636 
L 763.857821 540.773121 
L 765.482719 540.653987 
L 767.107617 541.044295 
L 767.920066 540.811476 
L 769.544963 541.037198 
L 770.357412 541.027469 
L 771.169861 538.069989 
L 771.98231 538.654813 
L 772.794758 537.649382 
L 773.607207 537.36252 
L 774.419656 539.877077 
L 775.232105 541.399033 
L 776.857002 541.472311 
L 777.669451 541.11484 
L 778.4819 542.053782 
L 779.294349 542.283874 
L 780.106798 541.808204 
L 781.731695 541.693608 
L 782.544144 541.259791 
L 783.356593 541.986144 
L 784.169042 542.003196 
L 784.981491 540.427858 
L 785.793939 542.454297 
L 786.606388 542.604064 
L 787.418837 542.138787 
L 789.043735 542.480994 
L 789.856183 542.252611 
L 790.668632 542.143968 
L 791.481081 542.846994 
L 792.29353 542.029984 
L 793.105979 542.231732 
L 793.918428 543.155861 
L 794.730876 543.051619 
L 795.543325 543.267455 
L 796.355774 542.562405 
L 797.168223 543.384479 
L 797.980672 543.334161 
L 798.79312 542.486045 
L 799.605569 543.617874 
L 800.418018 543.6615 
L 801.230467 542.697561 
L 802.042916 543.323958 
L 802.855364 543.449088 
L 803.667813 543.987803 
L 804.480262 543.69309 
L 805.292711 543.651885 
L 806.10516 543.870828 
L 807.730057 541.968589 
L 808.542506 543.970933 
L 809.354955 543.843737 
L 810.167404 543.446547 
L 810.979853 543.959045 
L 811.792301 544.074936 
L 813.417199 544.004731 
L 814.229648 542.632258 
L 815.042097 540.775153 
L 815.854545 543.536426 
L 816.666994 543.978331 
L 817.479443 543.869479 
L 818.291892 543.250489 
L 819.104341 544.137397 
L 819.91679 543.700751 
L 821.541687 543.959314 
L 822.354136 543.031302 
L 823.166585 543.283275 
L 823.979034 544.05425 
L 824.791482 541.101026 
L 825.603931 542.104162 
L 826.41638 543.894889 
L 827.228829 543.083545 
L 828.041278 544.257783 
L 828.853726 544.888713 
L 829.666175 543.103523 
L 830.478624 543.591142 
L 831.291073 545.180314 
L 832.103522 545.172578 
L 832.915971 545.029706 
L 833.728419 545.275167 
L 834.540868 544.906105 
L 835.353317 544.099892 
L 836.165766 543.986019 
L 836.978215 545.2482 
L 837.790663 544.973349 
L 838.603112 545.171755 
L 839.415561 545.556562 
L 840.22801 545.369275 
L 841.040459 545.688941 
L 841.852907 544.990502 
L 842.665356 544.867051 
L 843.477805 542.461874 
L 844.290254 540.458659 
L 845.102703 544.285383 
L 845.915152 544.630052 
L 846.7276 545.495404 
L 847.540049 544.934755 
L 848.352498 543.411209 
L 849.164947 545.804716 
L 849.977396 545.374919 
L 850.789844 545.225846 
L 851.602293 544.140393 
L 852.414742 545.527494 
L 853.227191 544.784611 
L 854.03964 545.210055 
L 854.852088 544.14033 
L 855.664537 545.274388 
L 856.476986 545.941009 
L 857.289435 545.757317 
L 858.101884 546.02142 
L 858.914333 545.934764 
L 859.726781 545.606005 
L 860.53923 544.226851 
L 861.351679 546.435669 
L 862.164128 546.687346 
L 862.976577 545.245735 
L 863.789025 546.590177 
L 865.413923 546.468456 
L 866.226372 545.867544 
L 867.851269 546.399072 
L 868.663718 542.34349 
L 870.288616 547.003498 
L 871.101065 546.966564 
L 871.913514 545.63013 
L 872.725962 544.972633 
L 873.538411 547.184118 
L 874.35086 546.26767 
L 875.163309 547.26897 
L 876.788206 547.521335 
L 877.600655 547.275965 
L 878.413104 545.612138 
L 879.225553 547.060414 
L 880.85045 547.26258 
L 881.662899 547.801157 
L 882.475348 546.099341 
L 883.287797 547.326966 
L 884.100246 547.326117 
L 885.725143 547.083443 
L 888.16249 547.779235 
L 888.974939 547.368423 
L 889.787387 547.761334 
L 892.224734 547.420687 
L 893.037183 547.422378 
L 893.849631 547.271459 
L 894.66208 547.669084 
L 895.474529 547.668017 
L 896.286978 547.965948 
L 897.099427 547.972435 
L 897.911876 548.125456 
L 899.536773 548.099934 
L 900.349222 547.103986 
L 901.161671 546.675399 
L 903.599017 548.696819 
L 904.411466 548.55967 
L 905.223915 548.545441 
L 906.848812 549.141375 
L 907.661261 548.800989 
L 908.47371 547.634311 
L 909.286159 548.479979 
L 910.911057 549.167489 
L 911.723505 548.554412 
L 912.535954 546.862723 
L 913.348403 549.27861 
L 914.160852 549.607733 
L 917.410647 549.513761 
L 918.223096 549.140604 
L 919.847993 546.733895 
L 920.660442 549.103119 
L 921.472891 548.689156 
L 922.28534 549.479904 
L 923.097789 547.767125 
L 923.910238 549.435494 
L 925.535135 547.15941 
L 926.347584 549.153612 
L 927.160033 549.020845 
L 927.972482 549.366485 
L 928.78493 549.27436 
L 930.409828 550.148438 
L 931.222277 549.690701 
L 933.659623 550.243193 
L 934.472072 549.884388 
L 935.284521 550.352907 
L 936.09697 550.093855 
L 936.909419 550.027772 
L 937.721867 550.167316 
L 938.534316 549.826249 
L 939.346765 549.941138 
L 940.159214 550.38889 
L 940.971663 550.509388 
L 941.784111 550.257762 
L 942.59656 549.886553 
L 944.221458 550.123089 
L 945.033907 550.548594 
L 945.846355 550.311093 
L 946.658804 550.422593 
L 947.471253 550.773081 
L 948.283702 550.75998 
L 949.096151 550.051937 
L 949.9086 550.803898 
L 951.533497 550.930573 
L 952.345946 551.089559 
L 953.158395 550.478846 
L 953.970844 550.610782 
L 954.783292 551.025568 
L 955.595741 550.629465 
L 956.40819 546.715393 
L 957.220639 549.145209 
L 958.033088 551.157866 
L 958.845536 551.336507 
L 959.657985 550.762645 
L 960.470434 550.904503 
L 961.282883 550.826851 
L 962.095332 551.023881 
L 962.907781 550.844693 
L 963.720229 551.609745 
L 964.532678 551.192792 
L 966.157576 550.880819 
L 966.970025 551.684173 
L 967.782473 551.66517 
L 968.594922 551.178305 
L 969.407371 550.963916 
L 970.21982 551.686266 
L 971.032269 551.626789 
L 971.844717 550.972745 
L 972.657166 551.400241 
L 973.469615 550.795836 
L 974.282064 551.612797 
L 975.906962 551.737555 
L 976.71941 551.39862 
L 977.531859 551.957333 
L 978.344308 552.131841 
L 979.156757 552.134346 
L 979.969206 552.319271 
L 982.406552 552.040669 
L 983.219001 552.187708 
L 984.03145 551.690134 
L 984.843898 551.650062 
L 985.656347 551.916964 
L 986.468796 551.016102 
L 987.281245 552.036906 
L 988.093694 552.24643 
L 989.718591 551.338832 
L 990.53104 550.894934 
L 991.343489 552.325422 
L 992.155938 552.699256 
L 993.780835 552.273721 
L 994.593284 552.793702 
L 995.405733 552.97421 
L 996.218182 553.036528 
L 996.218182 553.036528 
" style="fill:none;stroke:#1f77b4;stroke-linecap:square;stroke-width:1.5;"/>
   </g>
   <g id="line2d_16">
    <path clip-path="url(#p53f7982437)" d="M 184.581818 419.599473 
L 185.394267 340.488181 
L 186.206716 292.030022 
L 187.019165 466.138376 
L 187.831613 246.616311 
L 188.644062 491.817412 
L 189.456511 380.782096 
L 190.26896 453.468179 
L 191.081409 473.157778 
L 191.893857 457.617291 
L 192.706306 419.24022 
L 193.518755 499.987221 
L 194.331204 483.209209 
L 195.143653 408.53663 
L 195.956102 507.682569 
L 196.76855 554.728793 
L 197.580999 494.296688 
L 198.393448 409.942658 
L 199.205897 502.465021 
L 200.018346 490.532542 
L 200.830794 514.168818 
L 201.643243 519.123323 
L 202.455692 518.327876 
L 203.268141 474.262957 
L 204.08059 416.808319 
L 204.893038 504.718341 
L 205.705487 496.838014 
L 206.517936 556.502958 
L 207.330385 397.05341 
L 208.142834 538.896116 
L 208.955283 546.140632 
L 209.767731 544.20563 
L 210.58018 554.391435 
L 211.392629 497.127683 
L 212.205078 381.583156 
L 213.017527 329.813046 
L 213.829975 453.05968 
L 214.642424 444.622256 
L 215.454873 491.449165 
L 216.267322 334.511001 
L 217.079771 539.538065 
L 217.892219 511.504804 
L 218.704668 473.150956 
L 219.517117 503.24742 
L 220.329566 416.032442 
L 221.142015 443.693345 
L 221.954464 548.802773 
L 222.766912 573.718697 
L 223.579361 493.489299 
L 224.39181 441.990449 
L 225.204259 444.585685 
L 226.016708 424.66707 
L 226.829156 530.008393 
L 228.454054 568.934658 
L 229.266503 581.965723 
L 230.078952 497.34026 
L 230.8914 327.039663 
L 231.703849 372.992082 
L 232.516298 544.477238 
L 233.328747 515.928601 
L 234.141196 529.253437 
L 234.953645 531.040051 
L 235.766093 386.427165 
L 236.578542 509.302173 
L 237.390991 547.979491 
L 238.20344 431.143197 
L 239.015889 549.195739 
L 239.828337 538.664167 
L 240.640786 504.126186 
L 241.453235 386.322029 
L 242.265684 567.583601 
L 243.078133 305.338046 
L 243.890581 587.162124 
L 244.70303 579.852951 
L 245.515479 502.735532 
L 246.327928 532.189101 
L 247.140377 453.466767 
L 247.952826 574.041005 
L 248.765274 436.990512 
L 249.577723 360.121813 
L 250.390172 543.949452 
L 251.202621 415.127521 
L 252.01507 397.756428 
L 252.827518 579.755197 
L 253.639967 480.222545 
L 254.452416 536.940989 
L 255.264865 564.325751 
L 256.077314 567.350988 
L 256.889762 510.403016 
L 257.702211 524.934772 
L 258.51466 542.100459 
L 259.327109 563.670196 
L 260.139558 547.667418 
L 261.764455 464.916462 
L 262.576904 558.952978 
L 263.389353 486.6453 
L 264.201802 532.112717 
L 265.014251 549.582715 
L 265.826699 481.696137 
L 266.639148 556.227475 
L 267.451597 480.916817 
L 268.264046 435.681369 
L 269.076495 315.317574 
L 269.888943 564.58327 
L 270.701392 472.320002 
L 271.513841 570.509247 
L 272.32629 566.642912 
L 273.138739 567.62605 
L 273.951188 505.596697 
L 274.763636 581.71686 
L 275.576085 562.60969 
L 276.388534 446.587039 
L 277.200983 575.848106 
L 278.013432 502.708216 
L 278.82588 536.690254 
L 279.638329 424.665551 
L 280.450778 548.19844 
L 281.263227 583.511059 
L 282.075676 484.929179 
L 282.888124 506.831112 
L 283.700573 551.781295 
L 284.513022 586.282736 
L 285.325471 548.05412 
L 286.13792 533.440253 
L 286.950369 579.077552 
L 287.762817 462.219887 
L 288.575266 504.023309 
L 289.387715 435.781212 
L 290.200164 477.029693 
L 291.012613 506.758089 
L 291.825061 515.765385 
L 292.63751 566.629034 
L 293.449959 475.535633 
L 294.262408 500.655692 
L 295.074857 545.143608 
L 295.887305 476.462082 
L 296.699754 468.40362 
L 297.512203 566.363563 
L 298.324652 568.043095 
L 299.137101 440.695427 
L 299.94955 536.80971 
L 300.761998 566.235329 
L 301.574447 561.203069 
L 302.386896 496.594722 
L 303.199345 446.141011 
L 304.011794 467.825461 
L 304.824242 591.673786 
L 305.636691 554.549437 
L 306.44914 559.855565 
L 307.261589 500.792454 
L 308.074038 530.508004 
L 308.886486 536.803125 
L 309.698935 442.560616 
L 310.511384 461.640481 
L 311.323833 455.776379 
L 312.136282 565.48483 
L 312.948731 533.74194 
L 313.761179 522.648218 
L 314.573628 518.001279 
L 315.386077 580.365824 
L 316.198526 512.340608 
L 317.010975 512.253336 
L 317.823423 493.193936 
L 318.635872 346.493003 
L 319.448321 468.997128 
L 320.26077 494.167307 
L 321.073219 572.984913 
L 321.885667 546.290627 
L 322.698116 533.255424 
L 323.510565 555.951224 
L 324.323014 544.078951 
L 325.135463 479.28246 
L 325.947912 464.99268 
L 326.76036 533.13282 
L 327.572809 586.031222 
L 328.385258 490.107271 
L 329.197707 535.699274 
L 330.010156 551.505867 
L 330.822604 443.650181 
L 332.447502 578.308214 
L 333.259951 578.288484 
L 334.0724 500.447479 
L 334.884848 498.133228 
L 335.697297 505.524647 
L 336.509746 438.014295 
L 337.322195 554.434781 
L 338.134644 435.483558 
L 338.947093 554.238358 
L 339.759541 603.68385 
L 340.57199 483.304306 
L 341.384439 557.483774 
L 342.196888 576.104446 
L 343.009337 559.828039 
L 343.821785 364.929536 
L 344.634234 479.358855 
L 345.446683 505.575844 
L 346.259132 554.849838 
L 347.071581 498.80946 
L 347.884029 535.182378 
L 348.696478 588.839578 
L 349.508927 544.353091 
L 350.321376 530.379685 
L 351.133825 419.151572 
L 351.946274 386.609312 
L 352.758722 505.224007 
L 353.571171 495.111957 
L 354.38362 421.09611 
L 355.196069 332.438646 
L 356.008518 578.336883 
L 356.820966 463.754761 
L 357.633415 487.574946 
L 358.445864 579.643086 
L 359.258313 528.997446 
L 360.070762 501.60974 
L 360.88321 548.956288 
L 361.695659 548.12499 
L 362.508108 594.113647 
L 363.320557 555.951641 
L 364.133006 500.36264 
L 364.945455 536.403839 
L 365.757903 550.985025 
L 366.570352 458.120464 
L 367.382801 427.466496 
L 368.19525 545.300738 
L 369.007699 536.785791 
L 369.820147 594.33812 
L 370.632596 502.140325 
L 371.445045 468.837765 
L 372.257494 589.98812 
L 373.069943 534.915568 
L 373.882391 501.481417 
L 374.69484 447.655792 
L 375.507289 539.04723 
L 376.319738 432.024363 
L 377.132187 576.003909 
L 377.944636 483.841963 
L 378.757084 581.086221 
L 379.569533 478.853536 
L 380.381982 425.777907 
L 381.194431 471.46071 
L 382.00688 569.116733 
L 382.819328 507.633237 
L 383.631777 587.24793 
L 384.444226 519.84579 
L 385.256675 568.497577 
L 386.069124 573.005457 
L 386.881572 554.463783 
L 387.694021 555.919606 
L 388.50647 527.46255 
L 389.318919 509.176711 
L 390.131368 535.905448 
L 390.943817 580.24256 
L 391.756265 538.026352 
L 392.568714 371.905583 
L 393.381163 558.636193 
L 394.193612 579.901597 
L 395.006061 520.037567 
L 395.818509 561.802492 
L 396.630958 499.910642 
L 397.443407 530.739328 
L 398.255856 522.0661 
L 399.068305 415.704742 
L 399.880753 347.416103 
L 400.693202 483.775759 
L 401.505651 457.4651 
L 402.3181 483.871413 
L 403.130549 592.889443 
L 403.942998 544.310999 
L 404.755446 443.019074 
L 405.567895 394.513202 
L 406.380344 552.859994 
L 407.192793 497.958331 
L 408.005242 536.578515 
L 408.81769 588.665912 
L 409.630139 536.59298 
L 410.442588 476.999717 
L 411.255037 473.82474 
L 412.067486 514.758991 
L 412.879934 575.540066 
L 413.692383 468.786526 
L 414.504832 409.44986 
L 415.317281 444.71023 
L 416.12973 311.645236 
L 416.942179 336.870893 
L 417.754627 573.476208 
L 418.567076 550.591258 
L 419.379525 473.072535 
L 420.191974 582.052027 
L 421.004423 558.359538 
L 423.441769 528.080243 
L 424.254218 539.006046 
L 425.066667 507.671976 
L 425.879115 513.409513 
L 426.691564 571.247504 
L 427.504013 508.410378 
L 428.316462 506.870097 
L 429.128911 448.050233 
L 429.94136 520.808801 
L 430.753808 570.551341 
L 431.566257 567.897184 
L 432.378706 520.822599 
L 433.191155 494.637157 
L 434.003604 524.714891 
L 435.628501 465.434591 
L 436.44095 583.127934 
L 437.253399 529.787752 
L 438.065848 441.423238 
L 438.878296 556.525634 
L 439.690745 526.329686 
L 440.503194 418.014885 
L 441.315643 521.698897 
L 442.128092 553.405827 
L 442.940541 466.221389 
L 443.752989 561.703621 
L 445.377887 489.953782 
L 446.190336 585.938914 
L 447.002785 587.214409 
L 447.815233 541.978675 
L 448.627682 444.660627 
L 449.440131 468.137457 
L 450.25258 536.68713 
L 451.065029 486.412967 
L 451.877477 572.693223 
L 452.689926 528.962288 
L 453.502375 577.362981 
L 454.314824 436.207699 
L 455.127273 467.143986 
L 455.939722 530.540444 
L 456.75217 477.848318 
L 457.564619 591.079436 
L 458.377068 458.174649 
L 459.189517 480.847444 
L 460.001966 603.856784 
L 460.814414 571.24889 
L 461.626863 445.665835 
L 462.439312 571.994062 
L 463.251761 553.661649 
L 464.06421 526.602002 
L 464.876658 562.580248 
L 465.689107 567.315859 
L 466.501556 461.603777 
L 467.314005 269.220776 
L 468.126454 574.548827 
L 468.938903 379.510674 
L 469.751351 560.545534 
L 470.5638 555.248188 
L 471.376249 566.493078 
L 472.188698 565.140536 
L 473.001147 420.219632 
L 473.813595 543.025648 
L 474.626044 474.294247 
L 475.438493 543.726257 
L 476.250942 455.877191 
L 477.063391 589.463326 
L 477.875839 558.994712 
L 478.688288 590.619028 
L 479.500737 580.462663 
L 480.313186 556.214138 
L 481.125635 463.589686 
L 481.938084 547.355486 
L 482.750532 563.276616 
L 483.562981 572.700611 
L 484.37543 487.300761 
L 485.187879 556.590063 
L 486.000328 547.951112 
L 486.812776 560.497218 
L 487.625225 578.527691 
L 488.437674 482.306455 
L 489.250123 551.076685 
L 490.062572 589.733258 
L 490.87502 544.534047 
L 491.687469 558.175121 
L 492.499918 548.765212 
L 493.312367 546.5229 
L 494.124816 559.443933 
L 495.749713 464.799451 
L 497.374611 588.174633 
L 498.18706 474.73722 
L 498.999509 535.105495 
L 499.811957 547.137922 
L 500.624406 585.035618 
L 501.436855 503.865191 
L 502.249304 564.071398 
L 503.061753 400.23603 
L 503.874201 477.62852 
L 504.68665 594.177448 
L 505.499099 545.635793 
L 506.311548 579.64714 
L 507.123997 249.134229 
L 507.936446 450.066891 
L 508.748894 563.065744 
L 509.561343 522.218725 
L 510.373792 542.742344 
L 511.186241 593.101834 
L 511.99869 541.295234 
L 512.811138 538.06098 
L 513.623587 287.788952 
L 514.436036 573.792592 
L 515.248485 561.573709 
L 516.060934 457.496346 
L 516.873382 555.78473 
L 517.685831 582.935878 
L 518.49828 577.486435 
L 519.310729 527.849189 
L 520.123178 593.186101 
L 520.935627 516.818808 
L 521.748075 540.829728 
L 522.560524 535.186259 
L 523.372973 509.880804 
L 524.185422 504.402448 
L 524.997871 538.689717 
L 526.622768 420.533462 
L 527.435217 547.505791 
L 528.247666 540.628613 
L 529.060115 568.985334 
L 529.872563 574.671548 
L 530.685012 535.710804 
L 531.497461 581.065151 
L 532.30991 455.577341 
L 533.122359 537.092513 
L 533.934808 494.17496 
L 534.747256 551.69046 
L 535.559705 575.015824 
L 536.372154 482.147298 
L 537.184603 484.245112 
L 537.997052 575.430467 
L 538.8095 536.51478 
L 539.621949 539.63275 
L 540.434398 497.625711 
L 541.246847 561.41067 
L 542.059296 555.118318 
L 542.871744 553.448927 
L 543.684193 584.881615 
L 544.496642 515.465394 
L 545.309091 472.416461 
L 546.12154 535.022022 
L 546.933989 547.912282 
L 547.746437 464.651578 
L 548.558886 534.102635 
L 549.371335 484.574104 
L 550.183784 559.378193 
L 550.996233 488.004802 
L 551.808681 483.521663 
L 552.62113 529.546693 
L 553.433579 526.183913 
L 554.246028 586.579581 
L 555.058477 501.047191 
L 555.870925 521.610465 
L 556.683374 562.659728 
L 557.495823 326.747737 
L 558.308272 567.779958 
L 559.120721 488.762331 
L 559.93317 451.839573 
L 560.745618 600.710638 
L 561.558067 586.862755 
L 562.370516 522.991733 
L 563.182965 602.353133 
L 563.995414 604.908537 
L 564.807862 574.708559 
L 565.620311 549.635125 
L 566.43276 535.873033 
L 567.245209 550.558539 
L 568.057658 555.59666 
L 568.870106 585.436003 
L 569.682555 553.185148 
L 571.307453 496.097351 
L 572.119902 559.261092 
L 572.932351 404.700709 
L 573.744799 463.929285 
L 574.557248 585.866535 
L 575.369697 599.631789 
L 576.182146 473.181037 
L 577.807043 584.533282 
L 578.619492 436.991753 
L 579.431941 460.54817 
L 580.24439 462.950812 
L 581.056839 488.678755 
L 581.869287 553.40789 
L 582.681736 327.947741 
L 583.494185 474.902931 
L 584.306634 587.058431 
L 585.119083 524.2827 
L 586.74398 595.261495 
L 587.556429 572.398108 
L 589.181327 427.510242 
L 589.993776 559.689663 
L 590.806224 521.64417 
L 591.618673 565.747354 
L 592.431122 479.721062 
L 593.243571 551.530511 
L 594.05602 588.220046 
L 594.868468 578.277962 
L 595.680917 401.245348 
L 596.493366 330.114196 
L 597.305815 416.610828 
L 598.118264 570.397984 
L 598.930713 524.672928 
L 599.743161 542.644978 
L 600.55561 558.130405 
L 601.368059 576.097498 
L 602.180508 451.190204 
L 602.992957 541.191413 
L 603.805405 506.903213 
L 604.617854 508.779472 
L 605.430303 491.459039 
L 606.242752 499.600638 
L 607.055201 535.019294 
L 607.867649 382.129891 
L 608.680098 277.816075 
L 609.492547 546.93044 
L 610.304996 588.510497 
L 611.117445 570.815753 
L 611.929894 513.804297 
L 612.742342 494.904182 
L 613.554791 542.855199 
L 614.36724 458.094083 
L 615.179689 430.606228 
L 615.992138 558.164847 
L 616.804586 604.825255 
L 617.617035 521.791987 
L 618.429484 595.040076 
L 619.241933 508.902733 
L 620.054382 524.694238 
L 620.86683 571.26289 
L 621.679279 566.950233 
L 622.491728 505.556684 
L 623.304177 539.64739 
L 624.116626 558.572585 
L 624.929075 542.219703 
L 625.741523 519.977928 
L 626.553972 450.825089 
L 628.17887 585.243062 
L 628.991319 356.059127 
L 629.803767 579.191755 
L 630.616216 414.472499 
L 631.428665 467.187754 
L 632.241114 318.608882 
L 633.053563 561.595281 
L 633.866011 485.048018 
L 634.67846 559.058526 
L 635.490909 535.814889 
L 636.303358 433.341885 
L 637.928256 553.813187 
L 638.740704 360.176741 
L 639.553153 543.256439 
L 640.365602 512.308561 
L 641.178051 273.001468 
L 641.9905 324.966746 
L 642.802948 568.857412 
L 643.615397 451.913461 
L 644.427846 582.819201 
L 645.240295 478.857283 
L 646.052744 562.302918 
L 647.677641 472.227507 
L 648.49009 450.246442 
L 649.302539 542.016597 
L 650.114988 549.624846 
L 650.927437 548.467979 
L 651.739885 605.257629 
L 652.552334 442.61123 
L 653.364783 476.870134 
L 654.177232 390.004677 
L 654.989681 566.162451 
L 655.802129 570.395702 
L 656.614578 500.683351 
L 657.427027 519.587657 
L 658.239476 525.68414 
L 659.051925 556.063473 
L 659.864373 576.560009 
L 660.676822 540.467736 
L 661.489271 568.069602 
L 662.30172 548.701062 
L 663.114169 552.389474 
L 663.926618 577.686619 
L 664.739066 542.889203 
L 665.551515 533.162258 
L 666.363964 532.448684 
L 667.176413 566.799085 
L 667.988862 537.497178 
L 668.80131 367.088335 
L 669.613759 343.073786 
L 670.426208 459.745129 
L 671.238657 472.693366 
L 672.051106 509.478571 
L 672.863554 530.444912 
L 673.676003 540.728667 
L 674.488452 588.495014 
L 675.300901 586.483511 
L 676.11335 485.501711 
L 676.925799 549.131368 
L 677.738247 525.434109 
L 678.550696 447.244664 
L 679.363145 567.219701 
L 680.175594 348.76695 
L 680.988043 471.06054 
L 681.800491 495.100183 
L 682.61294 511.971349 
L 683.425389 465.993679 
L 684.237838 512.193779 
L 685.050287 592.415377 
L 685.862735 478.085362 
L 687.487633 511.8134 
L 688.300082 495.34371 
L 689.112531 493.50554 
L 689.92498 551.738893 
L 690.737428 576.325348 
L 691.549877 372.994063 
L 692.362326 541.737251 
L 693.174775 518.31119 
L 693.987224 583.317402 
L 694.799672 590.553656 
L 695.612121 531.361592 
L 697.237019 591.020212 
L 698.049468 330.802779 
L 698.861916 582.457552 
L 699.674365 585.34004 
L 700.486814 337.719902 
L 701.299263 529.572693 
L 702.111712 554.075941 
L 702.924161 552.621399 
L 703.736609 538.811784 
L 704.549058 521.558555 
L 705.361507 537.806895 
L 706.173956 557.382177 
L 706.986405 587.101211 
L 707.798853 542.308151 
L 708.611302 491.21723 
L 709.423751 542.921118 
L 710.2362 527.857758 
L 711.048649 529.829209 
L 711.861097 572.04602 
L 712.673546 463.634451 
L 713.485995 537.291735 
L 714.298444 459.160846 
L 715.110893 357.687599 
L 715.923342 583.068537 
L 716.73579 506.884049 
L 717.548239 562.084492 
L 718.360688 514.921972 
L 719.173137 280.922162 
L 719.985586 511.032447 
L 720.798034 543.803654 
L 721.610483 433.182079 
L 722.422932 525.666505 
L 723.235381 491.911952 
L 724.04783 523.360829 
L 724.860278 511.124221 
L 725.672727 564.420543 
L 726.485176 162.273744 
L 727.297625 546.121201 
L 728.110074 553.969238 
L 728.922523 504.774417 
L 729.734971 567.378252 
L 730.54742 598.223995 
L 731.359869 568.88512 
L 732.172318 566.280344 
L 732.984767 494.876574 
L 733.797215 471.678589 
L 734.609664 526.341547 
L 735.422113 347.431924 
L 736.234562 553.442117 
L 737.047011 477.215264 
L 737.859459 596.501423 
L 738.671908 453.972101 
L 739.484357 468.436815 
L 740.296806 535.194002 
L 741.109255 385.422062 
L 741.921704 366.724967 
L 742.734152 542.784142 
L 743.546601 514.602084 
L 744.35905 583.192429 
L 745.171499 546.404798 
L 745.983948 586.054438 
L 746.796396 544.155821 
L 747.608845 516.185707 
L 748.421294 443.221373 
L 749.233743 578.901488 
L 750.046192 542.149856 
L 750.85864 595.940005 
L 751.671089 556.319146 
L 752.483538 540.0419 
L 753.295987 421.014381 
L 754.108436 526.958299 
L 754.920885 587.635714 
L 755.733333 559.242417 
L 756.545782 560.654767 
L 757.358231 534.522459 
L 758.17068 527.523103 
L 758.983129 545.789599 
L 759.795577 487.686468 
L 760.608026 574.258153 
L 761.420475 584.379148 
L 762.232924 596.076801 
L 763.045373 508.625342 
L 763.857821 534.261304 
L 764.67027 555.085928 
L 765.482719 563.795855 
L 766.295168 524.674874 
L 767.107617 568.438576 
L 767.920066 501.945044 
L 768.732514 553.205053 
L 770.357412 529.127823 
L 771.169861 520.035721 
L 771.98231 580.67034 
L 772.794758 111.109091 
L 773.607207 540.398993 
L 774.419656 394.471552 
L 775.232105 458.055721 
L 776.044554 554.798753 
L 776.857002 186.545131 
L 777.669451 536.866906 
L 778.4819 444.843478 
L 779.294349 568.962386 
L 780.106798 538.927209 
L 780.919247 501.135863 
L 781.731695 516.648589 
L 782.544144 554.354966 
L 783.356593 514.403496 
L 784.169042 481.811517 
L 784.981491 549.840638 
L 785.793939 600.042978 
L 786.606388 559.610386 
L 787.418837 446.024615 
L 788.231286 507.659131 
L 789.043735 502.102089 
L 789.856183 521.340981 
L 790.668632 570.554511 
L 791.481081 551.260045 
L 792.29353 482.154076 
L 793.105979 512.342347 
L 793.918428 559.66456 
L 794.730876 476.363777 
L 795.543325 557.216968 
L 796.355774 304.473861 
L 797.168223 553.558442 
L 797.980672 599.52255 
L 798.79312 436.635095 
L 799.605569 541.796056 
L 801.230467 493.425778 
L 802.042916 408.56358 
L 802.855364 524.134986 
L 803.667813 464.668673 
L 804.480262 547.283941 
L 805.292711 330.458554 
L 806.10516 554.05468 
L 806.917609 597.208607 
L 807.730057 449.71384 
L 808.542506 561.793201 
L 809.354955 419.538686 
L 810.167404 490.399087 
L 810.979853 507.270298 
L 811.792301 575.988787 
L 812.60475 546.169587 
L 813.417199 449.022979 
L 814.229648 428.730719 
L 815.042097 522.616728 
L 815.854545 500.501318 
L 816.666994 558.533202 
L 817.479443 577.397744 
L 818.291892 591.571259 
L 819.104341 529.065844 
L 819.91679 302.382792 
L 820.729238 496.122887 
L 821.541687 567.660383 
L 822.354136 539.843939 
L 823.166585 546.674369 
L 823.979034 457.805165 
L 824.791482 441.089493 
L 825.603931 458.794138 
L 826.41638 575.397291 
L 827.228829 514.939015 
L 828.041278 573.793387 
L 828.853726 556.552626 
L 829.666175 560.404608 
L 830.478624 480.250608 
L 831.291073 539.44448 
L 832.103522 380.96623 
L 832.915971 598.45996 
L 833.728419 578.425156 
L 834.540868 519.812118 
L 835.353317 417.612014 
L 836.165766 518.507567 
L 836.978215 561.6328 
L 837.790663 469.701001 
L 838.603112 347.851594 
L 839.415561 587.972275 
L 840.22801 517.603924 
L 841.040459 356.858293 
L 841.852907 573.51264 
L 842.665356 558.713233 
L 843.477805 569.191983 
L 844.290254 522.38554 
L 845.102703 546.244689 
L 845.915152 497.429269 
L 846.7276 560.136886 
L 847.540049 539.144594 
L 848.352498 568.098698 
L 849.164947 473.858615 
L 849.977396 504.958483 
L 850.789844 452.715069 
L 851.602293 520.679497 
L 852.414742 508.3034 
L 853.227191 508.774791 
L 854.03964 582.150873 
L 854.852088 514.191617 
L 855.664537 553.016153 
L 856.476986 536.045038 
L 857.289435 454.595577 
L 858.101884 353.52999 
L 858.914333 536.013149 
L 859.726781 488.32124 
L 860.53923 568.898633 
L 861.351679 563.079634 
L 862.164128 570.871229 
L 862.976577 501.39079 
L 863.789025 539.08068 
L 864.601474 560.680153 
L 865.413923 497.206186 
L 867.038821 551.288621 
L 867.851269 521.381991 
L 868.663718 446.077999 
L 869.476167 523.700328 
L 870.288616 518.448558 
L 871.101065 522.923738 
L 871.913514 545.440813 
L 872.725962 493.931554 
L 873.538411 568.852922 
L 874.35086 581.420123 
L 875.163309 552.098708 
L 875.975758 566.203698 
L 876.788206 500.504336 
L 877.600655 456.621048 
L 878.413104 438.601005 
L 880.038002 568.075905 
L 880.85045 493.018977 
L 881.662899 566.038113 
L 882.475348 503.255373 
L 883.287797 517.697177 
L 884.100246 575.762195 
L 884.912695 532.432549 
L 885.725143 537.920604 
L 886.537592 578.614928 
L 887.350041 584.295634 
L 888.16249 446.008478 
L 888.974939 586.958599 
L 889.787387 561.295897 
L 890.599836 583.473219 
L 891.412285 561.64698 
L 892.224734 472.282699 
L 893.037183 485.372621 
L 893.849631 595.65611 
L 894.66208 577.958625 
L 895.474529 516.310695 
L 896.286978 507.554284 
L 897.099427 558.021421 
L 897.911876 467.581974 
L 898.724324 484.499964 
L 899.536773 480.172748 
L 900.349222 499.025592 
L 901.161671 567.00255 
L 901.97412 507.669277 
L 902.786568 529.011076 
L 903.599017 504.437788 
L 904.411466 583.720957 
L 905.223915 527.417515 
L 906.036364 504.499811 
L 906.848812 526.929474 
L 907.661261 421.249802 
L 908.47371 423.499367 
L 910.098608 549.894608 
L 910.911057 512.382686 
L 911.723505 538.652669 
L 912.535954 529.650786 
L 913.348403 588.471159 
L 914.160852 497.746966 
L 914.973301 353.712383 
L 915.785749 549.439372 
L 916.598198 592.314441 
L 917.410647 512.75116 
L 918.223096 578.755059 
L 919.035545 510.866547 
L 919.847993 518.780105 
L 920.660442 560.944562 
L 921.472891 559.231939 
L 922.28534 577.602048 
L 923.097789 525.169048 
L 923.910238 537.807665 
L 924.722686 481.20544 
L 925.535135 437.912762 
L 926.347584 522.513349 
L 927.160033 550.114085 
L 927.972482 544.199898 
L 928.78493 605.290909 
L 929.597379 423.816335 
L 930.409828 572.71461 
L 931.222277 565.535628 
L 932.034726 586.658572 
L 932.847174 423.365883 
L 933.659623 499.091589 
L 935.284521 568.650245 
L 936.09697 567.212793 
L 936.909419 557.012742 
L 937.721867 583.927452 
L 938.534316 585.777519 
L 939.346765 533.110876 
L 940.159214 359.3151 
L 940.971663 367.379656 
L 941.784111 492.41024 
L 942.59656 482.665732 
L 943.409009 433.636172 
L 944.221458 426.681654 
L 945.033907 491.786259 
L 945.846355 342.711167 
L 946.658804 543.083156 
L 947.471253 569.036406 
L 948.283702 539.211097 
L 949.096151 525.964846 
L 949.9086 554.238527 
L 950.721048 553.282675 
L 951.533497 494.638451 
L 952.345946 466.899755 
L 953.158395 460.345606 
L 953.970844 572.661374 
L 954.783292 583.175527 
L 955.595741 471.855733 
L 956.40819 395.893181 
L 957.220639 537.54154 
L 958.033088 540.415719 
L 958.845536 589.646869 
L 959.657985 506.015963 
L 960.470434 465.657579 
L 961.282883 563.988735 
L 962.095332 547.416229 
L 963.720229 477.916219 
L 964.532678 532.907836 
L 965.345127 391.830873 
L 966.157576 563.747197 
L 966.970025 524.602527 
L 967.782473 531.41573 
L 968.594922 491.893873 
L 969.407371 463.611135 
L 970.21982 461.636636 
L 971.032269 553.605079 
L 971.844717 515.092371 
L 972.657166 552.615608 
L 973.469615 485.025388 
L 974.282064 510.068996 
L 975.094513 579.200682 
L 975.906962 545.906148 
L 976.71941 503.268678 
L 977.531859 566.782172 
L 978.344308 560.424231 
L 979.156757 538.056046 
L 979.969206 557.075911 
L 980.781654 551.885947 
L 981.594103 370.924162 
L 982.406552 566.672267 
L 983.219001 592.829096 
L 984.03145 529.413173 
L 984.843898 563.929902 
L 985.656347 481.071523 
L 986.468796 488.127272 
L 987.281245 546.266344 
L 988.093694 417.19633 
L 988.906143 470.26293 
L 989.718591 486.615583 
L 990.53104 528.780593 
L 991.343489 554.649201 
L 992.155938 597.101683 
L 992.968387 491.664704 
L 993.780835 349.058441 
L 994.593284 448.933722 
L 995.405733 524.201222 
L 996.218182 496.351512 
L 996.218182 496.351512 
" style="fill:none;stroke:#ff7f0e;stroke-linecap:square;stroke-width:1.5;"/>
   </g>
   <g id="line2d_17">
    <path clip-path="url(#p53f7982437)" d="M 184.581818 269.427148 
L 197.580999 276.018313 
L 211.392629 282.769224 
L 225.204259 289.279696 
L 239.828337 295.930849 
L 255.264865 302.701723 
L 270.701392 309.235726 
L 286.950369 315.877431 
L 304.011794 322.610626 
L 321.885667 329.420827 
L 340.57199 336.295186 
L 360.070762 343.222364 
L 380.381982 350.192387 
L 401.505651 357.196483 
L 423.441769 364.226911 
L 446.190336 371.276783 
L 469.751351 378.339881 
L 494.124816 385.410486 
L 519.310729 392.483215 
L 545.309091 399.552869 
L 572.119902 406.614304 
L 599.743161 413.662328 
L 628.17887 420.691616 
L 657.427027 427.696659 
L 687.487633 434.671729 
L 718.360688 441.610874 
L 750.046192 448.507922 
L 782.544144 455.356511 
L 815.854545 462.150108 
L 849.977396 468.88205 
L 884.912695 475.545565 
L 920.660442 482.133799 
L 956.40819 488.49773 
L 992.968387 494.782446 
L 996.218182 495.330391 
L 996.218182 495.330391 
" style="fill:none;stroke:#2ca02c;stroke-linecap:square;stroke-width:1.5;"/>
   </g>
   <g id="line2d_18">
    <path clip-path="url(#p53f7982437)" d="M 184.581818 302.77721 
L 185.394267 320.28817 
L 186.206716 331.158438 
L 187.019165 338.528056 
L 187.831613 343.876907 
L 188.644062 348.001429 
L 189.456511 351.360428 
L 191.081409 356.774479 
L 192.706306 361.271907 
L 195.143653 367.185877 
L 197.580999 372.492365 
L 200.018346 377.309978 
L 202.455692 381.663093 
L 204.893038 385.563309 
L 207.330385 389.030879 
L 209.767731 392.100197 
L 212.205078 394.819329 
L 214.642424 397.246123 
L 217.892219 400.133379 
L 221.954464 403.367319 
L 226.829156 406.931617 
L 232.516298 410.818064 
L 238.20344 414.440155 
L 243.890581 417.789887 
L 249.577723 420.892667 
L 256.077314 424.194874 
L 263.389353 427.647496 
L 270.701392 430.850535 
L 278.82588 434.14497 
L 286.950369 437.192727 
L 295.887305 440.293168 
L 304.824242 443.151325 
L 314.573628 446.024609 
L 325.135463 448.889314 
L 336.509746 451.729692 
L 348.696478 454.525872 
L 360.88321 457.093816 
L 373.882391 459.610876 
L 388.50647 462.207245 
L 403.942998 464.720309 
L 421.004423 467.266274 
L 438.878296 469.706545 
L 458.377068 472.143866 
L 479.500737 474.559569 
L 502.249304 476.934565 
L 526.622768 479.253683 
L 552.62113 481.504525 
L 581.056839 483.739138 
L 611.929894 485.934156 
L 644.427846 488.020765 
L 679.363145 490.041877 
L 717.548239 492.023827 
L 760.608026 494.025892 
L 821.541687 496.615146 
L 892.224734 499.393757 
L 966.970025 502.105829 
L 996.218182 503.111396 
L 996.218182 503.111396 
" style="fill:none;stroke:#d62728;stroke-linecap:square;stroke-width:1.5;"/>
   </g>
   <g id="patch_3">
    <path d="M 144 630 
L 144 86.4 
" style="fill:none;stroke:#000000;stroke-linecap:square;stroke-linejoin:miter;stroke-width:0.8;"/>
   </g>
   <g id="patch_4">
    <path d="M 1036.8 630 
L 1036.8 86.4 
" style="fill:none;stroke:#000000;stroke-linecap:square;stroke-linejoin:miter;stroke-width:0.8;"/>
   </g>
   <g id="patch_5">
    <path d="M 144 630 
L 1036.8 630 
" style="fill:none;stroke:#000000;stroke-linecap:square;stroke-linejoin:miter;stroke-width:0.8;"/>
   </g>
   <g id="patch_6">
    <path d="M 144 86.4 
L 1036.8 86.4 
" style="fill:none;stroke:#000000;stroke-linecap:square;stroke-linejoin:miter;stroke-width:0.8;"/>
   </g>
   <g id="text_17">
    <!-- Retinopathy: All 4 implementations with the best params -->
    <defs>
     <path d="M 44.390625 34.1875 
Q 47.5625 33.109375 50.5625 29.59375 
Q 53.5625 26.078125 56.59375 19.921875 
L 66.609375 0 
L 56 0 
L 46.6875 18.703125 
Q 43.0625 26.03125 39.671875 28.421875 
Q 36.28125 30.8125 30.421875 30.8125 
L 19.671875 30.8125 
L 19.671875 0 
L 9.8125 0 
L 9.8125 72.90625 
L 32.078125 72.90625 
Q 44.578125 72.90625 50.734375 67.671875 
Q 56.890625 62.453125 56.890625 51.90625 
Q 56.890625 45.015625 53.6875 40.46875 
Q 50.484375 35.9375 44.390625 34.1875 
z
M 19.671875 64.796875 
L 19.671875 38.921875 
L 32.078125 38.921875 
Q 39.203125 38.921875 42.84375 42.21875 
Q 46.484375 45.515625 46.484375 51.90625 
Q 46.484375 58.296875 42.84375 61.546875 
Q 39.203125 64.796875 32.078125 64.796875 
z
" id="DejaVuSans-52"/>
     <path d="M 18.109375 8.203125 
L 18.109375 -20.796875 
L 9.078125 -20.796875 
L 9.078125 54.6875 
L 18.109375 54.6875 
L 18.109375 46.390625 
Q 20.953125 51.265625 25.265625 53.625 
Q 29.59375 56 35.59375 56 
Q 45.5625 56 51.78125 48.09375 
Q 58.015625 40.1875 58.015625 27.296875 
Q 58.015625 14.40625 51.78125 6.484375 
Q 45.5625 -1.421875 35.59375 -1.421875 
Q 29.59375 -1.421875 25.265625 0.953125 
Q 20.953125 3.328125 18.109375 8.203125 
z
M 48.6875 27.296875 
Q 48.6875 37.203125 44.609375 42.84375 
Q 40.53125 48.484375 33.40625 48.484375 
Q 26.265625 48.484375 22.1875 42.84375 
Q 18.109375 37.203125 18.109375 27.296875 
Q 18.109375 17.390625 22.1875 11.75 
Q 26.265625 6.109375 33.40625 6.109375 
Q 40.53125 6.109375 44.609375 11.75 
Q 48.6875 17.390625 48.6875 27.296875 
z
" id="DejaVuSans-70"/>
     <path d="M 54.890625 33.015625 
L 54.890625 0 
L 45.90625 0 
L 45.90625 32.71875 
Q 45.90625 40.484375 42.875 44.328125 
Q 39.84375 48.1875 33.796875 48.1875 
Q 26.515625 48.1875 22.3125 43.546875 
Q 18.109375 38.921875 18.109375 30.90625 
L 18.109375 0 
L 9.078125 0 
L 9.078125 75.984375 
L 18.109375 75.984375 
L 18.109375 46.1875 
Q 21.34375 51.125 25.703125 53.5625 
Q 30.078125 56 35.796875 56 
Q 45.21875 56 50.046875 50.171875 
Q 54.890625 44.34375 54.890625 33.015625 
z
" id="DejaVuSans-68"/>
     <path d="M 32.171875 -5.078125 
Q 28.375 -14.84375 24.75 -17.8125 
Q 21.140625 -20.796875 15.09375 -20.796875 
L 7.90625 -20.796875 
L 7.90625 -13.28125 
L 13.1875 -13.28125 
Q 16.890625 -13.28125 18.9375 -11.515625 
Q 21 -9.765625 23.484375 -3.21875 
L 25.09375 0.875 
L 2.984375 54.6875 
L 12.5 54.6875 
L 29.59375 11.921875 
L 46.6875 54.6875 
L 56.203125 54.6875 
z
" id="DejaVuSans-79"/>
     <path d="M 11.71875 12.40625 
L 22.015625 12.40625 
L 22.015625 0 
L 11.71875 0 
z
M 11.71875 51.703125 
L 22.015625 51.703125 
L 22.015625 39.3125 
L 11.71875 39.3125 
z
" id="DejaVuSans-3a"/>
     <path id="DejaVuSans-20"/>
     <path d="M 34.1875 63.1875 
L 20.796875 26.90625 
L 47.609375 26.90625 
z
M 28.609375 72.90625 
L 39.796875 72.90625 
L 67.578125 0 
L 57.328125 0 
L 50.6875 18.703125 
L 17.828125 18.703125 
L 11.1875 0 
L 0.78125 0 
z
" id="DejaVuSans-41"/>
     <path d="M 9.421875 75.984375 
L 18.40625 75.984375 
L 18.40625 0 
L 9.421875 0 
z
" id="DejaVuSans-6c"/>
     <path d="M 52 44.1875 
Q 55.375 50.25 60.0625 53.125 
Q 64.75 56 71.09375 56 
Q 79.640625 56 84.28125 50.015625 
Q 88.921875 44.046875 88.921875 33.015625 
L 88.921875 0 
L 79.890625 0 
L 79.890625 32.71875 
Q 79.890625 40.578125 77.09375 44.375 
Q 74.3125 48.1875 68.609375 48.1875 
Q 61.625 48.1875 57.5625 43.546875 
Q 53.515625 38.921875 53.515625 30.90625 
L 53.515625 0 
L 44.484375 0 
L 44.484375 32.71875 
Q 44.484375 40.625 41.703125 44.40625 
Q 38.921875 48.1875 33.109375 48.1875 
Q 26.21875 48.1875 22.15625 43.53125 
Q 18.109375 38.875 18.109375 30.90625 
L 18.109375 0 
L 9.078125 0 
L 9.078125 54.6875 
L 18.109375 54.6875 
L 18.109375 46.1875 
Q 21.1875 51.21875 25.484375 53.609375 
Q 29.78125 56 35.6875 56 
Q 41.65625 56 45.828125 52.96875 
Q 50 49.953125 52 44.1875 
z
" id="DejaVuSans-6d"/>
     <path d="M 4.203125 54.6875 
L 13.1875 54.6875 
L 24.421875 12.015625 
L 35.59375 54.6875 
L 46.1875 54.6875 
L 57.421875 12.015625 
L 68.609375 54.6875 
L 77.59375 54.6875 
L 63.28125 0 
L 52.6875 0 
L 40.921875 44.828125 
L 29.109375 0 
L 18.5 0 
z
" id="DejaVuSans-77"/>
     <path d="M 48.6875 27.296875 
Q 48.6875 37.203125 44.609375 42.84375 
Q 40.53125 48.484375 33.40625 48.484375 
Q 26.265625 48.484375 22.1875 42.84375 
Q 18.109375 37.203125 18.109375 27.296875 
Q 18.109375 17.390625 22.1875 11.75 
Q 26.265625 6.109375 33.40625 6.109375 
Q 40.53125 6.109375 44.609375 11.75 
Q 48.6875 17.390625 48.6875 27.296875 
z
M 18.109375 46.390625 
Q 20.953125 51.265625 25.265625 53.625 
Q 29.59375 56 35.59375 56 
Q 45.5625 56 51.78125 48.09375 
Q 58.015625 40.1875 58.015625 27.296875 
Q 58.015625 14.40625 51.78125 6.484375 
Q 45.5625 -1.421875 35.59375 -1.421875 
Q 29.59375 -1.421875 25.265625 0.953125 
Q 20.953125 3.328125 18.109375 8.203125 
L 18.109375 0 
L 9.078125 0 
L 9.078125 75.984375 
L 18.109375 75.984375 
z
" id="DejaVuSans-62"/>
    </defs>
    <g transform="translate(342.7506 80.4)scale(0.1728 -0.1728)">
     <use xlink:href="#DejaVuSans-52"/>
     <use x="69.419922" xlink:href="#DejaVuSans-65"/>
     <use x="130.943359" xlink:href="#DejaVuSans-74"/>
     <use x="170.152344" xlink:href="#DejaVuSans-69"/>
     <use x="197.935547" xlink:href="#DejaVuSans-6e"/>
     <use x="261.314453" xlink:href="#DejaVuSans-6f"/>
     <use x="322.496094" xlink:href="#DejaVuSans-70"/>
     <use x="385.972656" xlink:href="#DejaVuSans-61"/>
     <use x="447.251953" xlink:href="#DejaVuSans-74"/>
     <use x="486.460938" xlink:href="#DejaVuSans-68"/>
     <use x="549.839844" xlink:href="#DejaVuSans-79"/>
     <use x="608.910156" xlink:href="#DejaVuSans-3a"/>
     <use x="642.601562" xlink:href="#DejaVuSans-20"/>
     <use x="674.388672" xlink:href="#DejaVuSans-41"/>
     <use x="742.796875" xlink:href="#DejaVuSans-6c"/>
     <use x="770.580078" xlink:href="#DejaVuSans-6c"/>
     <use x="798.363281" xlink:href="#DejaVuSans-20"/>
     <use x="830.150391" xlink:href="#DejaVuSans-34"/>
     <use x="893.773438" xlink:href="#DejaVuSans-20"/>
     <use x="925.560547" xlink:href="#DejaVuSans-69"/>
     <use x="953.34375" xlink:href="#DejaVuSans-6d"/>
     <use x="1050.755859" xlink:href="#DejaVuSans-70"/>
     <use x="1114.232422" xlink:href="#DejaVuSans-6c"/>
     <use x="1142.015625" xlink:href="#DejaVuSans-65"/>
     <use x="1203.539062" xlink:href="#DejaVuSans-6d"/>
     <use x="1300.951172" xlink:href="#DejaVuSans-65"/>
     <use x="1362.474609" xlink:href="#DejaVuSans-6e"/>
     <use x="1425.853516" xlink:href="#DejaVuSans-74"/>
     <use x="1465.0625" xlink:href="#DejaVuSans-61"/>
     <use x="1526.341797" xlink:href="#DejaVuSans-74"/>
     <use x="1565.550781" xlink:href="#DejaVuSans-69"/>
     <use x="1593.333984" xlink:href="#DejaVuSans-6f"/>
     <use x="1654.515625" xlink:href="#DejaVuSans-6e"/>
     <use x="1717.894531" xlink:href="#DejaVuSans-73"/>
     <use x="1769.994141" xlink:href="#DejaVuSans-20"/>
     <use x="1801.78125" xlink:href="#DejaVuSans-77"/>
     <use x="1883.568359" xlink:href="#DejaVuSans-69"/>
     <use x="1911.351562" xlink:href="#DejaVuSans-74"/>
     <use x="1950.560547" xlink:href="#DejaVuSans-68"/>
     <use x="2013.939453" xlink:href="#DejaVuSans-20"/>
     <use x="2045.726562" xlink:href="#DejaVuSans-74"/>
     <use x="2084.935547" xlink:href="#DejaVuSans-68"/>
     <use x="2148.314453" xlink:href="#DejaVuSans-65"/>
     <use x="2209.837891" xlink:href="#DejaVuSans-20"/>
     <use x="2241.625" xlink:href="#DejaVuSans-62"/>
     <use x="2305.101562" xlink:href="#DejaVuSans-65"/>
     <use x="2366.625" xlink:href="#DejaVuSans-73"/>
     <use x="2418.724609" xlink:href="#DejaVuSans-74"/>
     <use x="2457.933594" xlink:href="#DejaVuSans-20"/>
     <use x="2489.720703" xlink:href="#DejaVuSans-70"/>
     <use x="2553.197266" xlink:href="#DejaVuSans-61"/>
     <use x="2614.476562" xlink:href="#DejaVuSans-72"/>
     <use x="2655.589844" xlink:href="#DejaVuSans-61"/>
     <use x="2716.869141" xlink:href="#DejaVuSans-6d"/>
     <use x="2814.28125" xlink:href="#DejaVuSans-73"/>
    </g>
   </g>
   <g id="legend_1">
    <g id="patch_7">
     <path d="M 967.792187 153.1125 
L 1029.8 153.1125 
Q 1031.8 153.1125 1031.8 151.1125 
L 1031.8 93.4 
Q 1031.8 91.4 1029.8 91.4 
L 967.792187 91.4 
Q 965.792187 91.4 965.792187 93.4 
L 965.792187 151.1125 
Q 965.792187 153.1125 967.792187 153.1125 
z
" style="fill:#ffffff;opacity:0.8;stroke:#cccccc;stroke-linejoin:miter;"/>
    </g>
    <g id="line2d_19">
     <path d="M 969.792187 99.498437 
L 989.792187 99.498437 
" style="fill:none;stroke:#1f77b4;stroke-linecap:square;stroke-width:1.5;"/>
    </g>
    <g id="line2d_20"/>
    <g id="text_18">
     <!-- GD -->
     <defs>
      <path d="M 59.515625 10.40625 
L 59.515625 29.984375 
L 43.40625 29.984375 
L 43.40625 38.09375 
L 69.28125 38.09375 
L 69.28125 6.78125 
Q 63.578125 2.734375 56.6875 0.65625 
Q 49.8125 -1.421875 42 -1.421875 
Q 24.90625 -1.421875 15.25 8.5625 
Q 5.609375 18.5625 5.609375 36.375 
Q 5.609375 54.25 15.25 64.234375 
Q 24.90625 74.21875 42 74.21875 
Q 49.125 74.21875 55.546875 72.453125 
Q 61.96875 70.703125 67.390625 67.28125 
L 67.390625 56.78125 
Q 61.921875 61.421875 55.765625 63.765625 
Q 49.609375 66.109375 42.828125 66.109375 
Q 29.4375 66.109375 22.71875 58.640625 
Q 16.015625 51.171875 16.015625 36.375 
Q 16.015625 21.625 22.71875 14.15625 
Q 29.4375 6.6875 42.828125 6.6875 
Q 48.046875 6.6875 52.140625 7.59375 
Q 56.25 8.5 59.515625 10.40625 
z
" id="DejaVuSans-47"/>
      <path d="M 19.671875 64.796875 
L 19.671875 8.109375 
L 31.59375 8.109375 
Q 46.6875 8.109375 53.6875 14.9375 
Q 60.6875 21.78125 60.6875 36.53125 
Q 60.6875 51.171875 53.6875 57.984375 
Q 46.6875 64.796875 31.59375 64.796875 
z
M 9.8125 72.90625 
L 30.078125 72.90625 
Q 51.265625 72.90625 61.171875 64.09375 
Q 71.09375 55.28125 71.09375 36.53125 
Q 71.09375 17.671875 61.125 8.828125 
Q 51.171875 0 30.078125 0 
L 9.8125 0 
z
" id="DejaVuSans-44"/>
     </defs>
     <g transform="translate(997.792187 102.998437)scale(0.1 -0.1)">
      <use xlink:href="#DejaVuSans-47"/>
      <use x="77.490234" xlink:href="#DejaVuSans-44"/>
     </g>
    </g>
    <g id="line2d_21">
     <path d="M 969.792187 114.176562 
L 989.792187 114.176562 
" style="fill:none;stroke:#ff7f0e;stroke-linecap:square;stroke-width:1.5;"/>
    </g>
    <g id="line2d_22"/>
    <g id="text_19">
     <!-- SGD -->
     <defs>
      <path d="M 53.515625 70.515625 
L 53.515625 60.890625 
Q 47.90625 63.578125 42.921875 64.890625 
Q 37.9375 66.21875 33.296875 66.21875 
Q 25.25 66.21875 20.875 63.09375 
Q 16.5 59.96875 16.5 54.203125 
Q 16.5 49.359375 19.40625 46.890625 
Q 22.3125 44.4375 30.421875 42.921875 
L 36.375 41.703125 
Q 47.40625 39.59375 52.65625 34.296875 
Q 57.90625 29 57.90625 20.125 
Q 57.90625 9.515625 50.796875 4.046875 
Q 43.703125 -1.421875 29.984375 -1.421875 
Q 24.8125 -1.421875 18.96875 -0.25 
Q 13.140625 0.921875 6.890625 3.21875 
L 6.890625 13.375 
Q 12.890625 10.015625 18.65625 8.296875 
Q 24.421875 6.59375 29.984375 6.59375 
Q 38.421875 6.59375 43.015625 9.90625 
Q 47.609375 13.234375 47.609375 19.390625 
Q 47.609375 24.75 44.3125 27.78125 
Q 41.015625 30.8125 33.5 32.328125 
L 27.484375 33.5 
Q 16.453125 35.6875 11.515625 40.375 
Q 6.59375 45.0625 6.59375 53.421875 
Q 6.59375 63.09375 13.40625 68.65625 
Q 20.21875 74.21875 32.171875 74.21875 
Q 37.3125 74.21875 42.625 73.28125 
Q 47.953125 72.359375 53.515625 70.515625 
z
" id="DejaVuSans-53"/>
     </defs>
     <g transform="translate(997.792187 117.676562)scale(0.1 -0.1)">
      <use xlink:href="#DejaVuSans-53"/>
      <use x="63.476562" xlink:href="#DejaVuSans-47"/>
      <use x="140.966797" xlink:href="#DejaVuSans-44"/>
     </g>
    </g>
    <g id="line2d_23">
     <path d="M 969.792187 128.854687 
L 989.792187 128.854687 
" style="fill:none;stroke:#2ca02c;stroke-linecap:square;stroke-width:1.5;"/>
    </g>
    <g id="line2d_24"/>
    <g id="text_20">
     <!-- IRLS -->
     <g transform="translate(997.792187 132.354687)scale(0.1 -0.1)">
      <use xlink:href="#DejaVuSans-49"/>
      <use x="29.492188" xlink:href="#DejaVuSans-52"/>
      <use x="98.974609" xlink:href="#DejaVuSans-4c"/>
      <use x="154.6875" xlink:href="#DejaVuSans-53"/>
     </g>
    </g>
    <g id="line2d_25">
     <path d="M 969.792187 143.532812 
L 989.792187 143.532812 
" style="fill:none;stroke:#d62728;stroke-linecap:square;stroke-width:1.5;"/>
    </g>
    <g id="line2d_26"/>
    <g id="text_21">
     <!-- ADAM -->
     <defs>
      <path d="M 9.8125 72.90625 
L 24.515625 72.90625 
L 43.109375 23.296875 
L 61.8125 72.90625 
L 76.515625 72.90625 
L 76.515625 0 
L 66.890625 0 
L 66.890625 64.015625 
L 48.09375 14.015625 
L 38.1875 14.015625 
L 19.390625 64.015625 
L 19.390625 0 
L 9.8125 0 
z
" id="DejaVuSans-4d"/>
     </defs>
     <g transform="translate(997.792187 147.032812)scale(0.1 -0.1)">
      <use xlink:href="#DejaVuSans-41"/>
      <use x="68.408203" xlink:href="#DejaVuSans-44"/>
      <use x="145.394531" xlink:href="#DejaVuSans-41"/>
      <use x="213.802734" xlink:href="#DejaVuSans-4d"/>
     </g>
    </g>
   </g>
  </g>
 </g>
 <defs>
  <clipPath id="p53f7982437">
   <rect height="543.6" width="892.8" x="144" y="86.4"/>
  </clipPath>
 </defs>
</svg>
