<?xml version="1.0" encoding="utf-8" standalone="no"?>
<!DOCTYPE svg PUBLIC "-//W3C//DTD SVG 1.1//EN"
  "http://www.w3.org/Graphics/SVG/1.1/DTD/svg11.dtd">
<!-- Created with matplotlib (http://matplotlib.org/) -->
<svg height="720pt" version="1.1" viewBox="0 0 1152 720" width="1152pt" xmlns="http://www.w3.org/2000/svg" xmlns:xlink="http://www.w3.org/1999/xlink">
 <defs>
  <style type="text/css">
*{stroke-linecap:butt;stroke-linejoin:round;}
  </style>
 </defs>
 <g id="figure_1">
  <g id="patch_1">
   <path d="M 0 720 
L 1152 720 
L 1152 0 
L 0 0 
z
" style="fill:#ffffff;"/>
  </g>
  <g id="axes_1">
   <g id="patch_2">
    <path d="M 144 630 
L 1036.8 630 
L 1036.8 86.4 
L 144 86.4 
z
" style="fill:#ffffff;"/>
   </g>
   <g id="matplotlib.axis_1">
    <g id="xtick_1">
     <g id="line2d_1">
      <defs>
       <path d="M 0 0 
L 0 3.5 
" id="m0f58fbb6bb" style="stroke:#000000;stroke-width:0.8;"/>
      </defs>
      <g>
       <use style="stroke:#000000;stroke-width:0.8;" x="184.581818" xlink:href="#m0f58fbb6bb" y="630"/>
      </g>
     </g>
     <g id="text_1">
      <!-- 0 -->
      <defs>
       <path d="M 31.78125 66.40625 
Q 24.171875 66.40625 20.328125 58.90625 
Q 16.5 51.421875 16.5 36.375 
Q 16.5 21.390625 20.328125 13.890625 
Q 24.171875 6.390625 31.78125 6.390625 
Q 39.453125 6.390625 43.28125 13.890625 
Q 47.125 21.390625 47.125 36.375 
Q 47.125 51.421875 43.28125 58.90625 
Q 39.453125 66.40625 31.78125 66.40625 
z
M 31.78125 74.21875 
Q 44.046875 74.21875 50.515625 64.515625 
Q 56.984375 54.828125 56.984375 36.375 
Q 56.984375 17.96875 50.515625 8.265625 
Q 44.046875 -1.421875 31.78125 -1.421875 
Q 19.53125 -1.421875 13.0625 8.265625 
Q 6.59375 17.96875 6.59375 36.375 
Q 6.59375 54.828125 13.0625 64.515625 
Q 19.53125 74.21875 31.78125 74.21875 
z
" id="DejaVuSans-30"/>
      </defs>
      <g transform="translate(181.400568 644.598438)scale(0.1 -0.1)">
       <use xlink:href="#DejaVuSans-30"/>
      </g>
     </g>
    </g>
    <g id="xtick_2">
     <g id="line2d_2">
      <g>
       <use style="stroke:#000000;stroke-width:0.8;" x="347.071581" xlink:href="#m0f58fbb6bb" y="630"/>
      </g>
     </g>
     <g id="text_2">
      <!-- 200 -->
      <defs>
       <path d="M 19.1875 8.296875 
L 53.609375 8.296875 
L 53.609375 0 
L 7.328125 0 
L 7.328125 8.296875 
Q 12.9375 14.109375 22.625 23.890625 
Q 32.328125 33.6875 34.8125 36.53125 
Q 39.546875 41.84375 41.421875 45.53125 
Q 43.3125 49.21875 43.3125 52.78125 
Q 43.3125 58.59375 39.234375 62.25 
Q 35.15625 65.921875 28.609375 65.921875 
Q 23.96875 65.921875 18.8125 64.3125 
Q 13.671875 62.703125 7.8125 59.421875 
L 7.8125 69.390625 
Q 13.765625 71.78125 18.9375 73 
Q 24.125 74.21875 28.421875 74.21875 
Q 39.75 74.21875 46.484375 68.546875 
Q 53.21875 62.890625 53.21875 53.421875 
Q 53.21875 48.921875 51.53125 44.890625 
Q 49.859375 40.875 45.40625 35.40625 
Q 44.1875 33.984375 37.640625 27.21875 
Q 31.109375 20.453125 19.1875 8.296875 
z
" id="DejaVuSans-32"/>
      </defs>
      <g transform="translate(337.527831 644.598438)scale(0.1 -0.1)">
       <use xlink:href="#DejaVuSans-32"/>
       <use x="63.623047" xlink:href="#DejaVuSans-30"/>
       <use x="127.246094" xlink:href="#DejaVuSans-30"/>
      </g>
     </g>
    </g>
    <g id="xtick_3">
     <g id="line2d_3">
      <g>
       <use style="stroke:#000000;stroke-width:0.8;" x="509.561343" xlink:href="#m0f58fbb6bb" y="630"/>
      </g>
     </g>
     <g id="text_3">
      <!-- 400 -->
      <defs>
       <path d="M 37.796875 64.3125 
L 12.890625 25.390625 
L 37.796875 25.390625 
z
M 35.203125 72.90625 
L 47.609375 72.90625 
L 47.609375 25.390625 
L 58.015625 25.390625 
L 58.015625 17.1875 
L 47.609375 17.1875 
L 47.609375 0 
L 37.796875 0 
L 37.796875 17.1875 
L 4.890625 17.1875 
L 4.890625 26.703125 
z
" id="DejaVuSans-34"/>
      </defs>
      <g transform="translate(500.017593 644.598438)scale(0.1 -0.1)">
       <use xlink:href="#DejaVuSans-34"/>
       <use x="63.623047" xlink:href="#DejaVuSans-30"/>
       <use x="127.246094" xlink:href="#DejaVuSans-30"/>
      </g>
     </g>
    </g>
    <g id="xtick_4">
     <g id="line2d_4">
      <g>
       <use style="stroke:#000000;stroke-width:0.8;" x="672.051106" xlink:href="#m0f58fbb6bb" y="630"/>
      </g>
     </g>
     <g id="text_4">
      <!-- 600 -->
      <defs>
       <path d="M 33.015625 40.375 
Q 26.375 40.375 22.484375 35.828125 
Q 18.609375 31.296875 18.609375 23.390625 
Q 18.609375 15.53125 22.484375 10.953125 
Q 26.375 6.390625 33.015625 6.390625 
Q 39.65625 6.390625 43.53125 10.953125 
Q 47.40625 15.53125 47.40625 23.390625 
Q 47.40625 31.296875 43.53125 35.828125 
Q 39.65625 40.375 33.015625 40.375 
z
M 52.59375 71.296875 
L 52.59375 62.3125 
Q 48.875 64.0625 45.09375 64.984375 
Q 41.3125 65.921875 37.59375 65.921875 
Q 27.828125 65.921875 22.671875 59.328125 
Q 17.53125 52.734375 16.796875 39.40625 
Q 19.671875 43.65625 24.015625 45.921875 
Q 28.375 48.1875 33.59375 48.1875 
Q 44.578125 48.1875 50.953125 41.515625 
Q 57.328125 34.859375 57.328125 23.390625 
Q 57.328125 12.15625 50.6875 5.359375 
Q 44.046875 -1.421875 33.015625 -1.421875 
Q 20.359375 -1.421875 13.671875 8.265625 
Q 6.984375 17.96875 6.984375 36.375 
Q 6.984375 53.65625 15.1875 63.9375 
Q 23.390625 74.21875 37.203125 74.21875 
Q 40.921875 74.21875 44.703125 73.484375 
Q 48.484375 72.75 52.59375 71.296875 
z
" id="DejaVuSans-36"/>
      </defs>
      <g transform="translate(662.507356 644.598438)scale(0.1 -0.1)">
       <use xlink:href="#DejaVuSans-36"/>
       <use x="63.623047" xlink:href="#DejaVuSans-30"/>
       <use x="127.246094" xlink:href="#DejaVuSans-30"/>
      </g>
     </g>
    </g>
    <g id="xtick_5">
     <g id="line2d_5">
      <g>
       <use style="stroke:#000000;stroke-width:0.8;" x="834.540868" xlink:href="#m0f58fbb6bb" y="630"/>
      </g>
     </g>
     <g id="text_5">
      <!-- 800 -->
      <defs>
       <path d="M 31.78125 34.625 
Q 24.75 34.625 20.71875 30.859375 
Q 16.703125 27.09375 16.703125 20.515625 
Q 16.703125 13.921875 20.71875 10.15625 
Q 24.75 6.390625 31.78125 6.390625 
Q 38.8125 6.390625 42.859375 10.171875 
Q 46.921875 13.96875 46.921875 20.515625 
Q 46.921875 27.09375 42.890625 30.859375 
Q 38.875 34.625 31.78125 34.625 
z
M 21.921875 38.8125 
Q 15.578125 40.375 12.03125 44.71875 
Q 8.5 49.078125 8.5 55.328125 
Q 8.5 64.0625 14.71875 69.140625 
Q 20.953125 74.21875 31.78125 74.21875 
Q 42.671875 74.21875 48.875 69.140625 
Q 55.078125 64.0625 55.078125 55.328125 
Q 55.078125 49.078125 51.53125 44.71875 
Q 48 40.375 41.703125 38.8125 
Q 48.828125 37.15625 52.796875 32.3125 
Q 56.78125 27.484375 56.78125 20.515625 
Q 56.78125 9.90625 50.3125 4.234375 
Q 43.84375 -1.421875 31.78125 -1.421875 
Q 19.734375 -1.421875 13.25 4.234375 
Q 6.78125 9.90625 6.78125 20.515625 
Q 6.78125 27.484375 10.78125 32.3125 
Q 14.796875 37.15625 21.921875 38.8125 
z
M 18.3125 54.390625 
Q 18.3125 48.734375 21.84375 45.5625 
Q 25.390625 42.390625 31.78125 42.390625 
Q 38.140625 42.390625 41.71875 45.5625 
Q 45.3125 48.734375 45.3125 54.390625 
Q 45.3125 60.0625 41.71875 63.234375 
Q 38.140625 66.40625 31.78125 66.40625 
Q 25.390625 66.40625 21.84375 63.234375 
Q 18.3125 60.0625 18.3125 54.390625 
z
" id="DejaVuSans-38"/>
      </defs>
      <g transform="translate(824.997118 644.598438)scale(0.1 -0.1)">
       <use xlink:href="#DejaVuSans-38"/>
       <use x="63.623047" xlink:href="#DejaVuSans-30"/>
       <use x="127.246094" xlink:href="#DejaVuSans-30"/>
      </g>
     </g>
    </g>
    <g id="xtick_6">
     <g id="line2d_6">
      <g>
       <use style="stroke:#000000;stroke-width:0.8;" x="997.030631" xlink:href="#m0f58fbb6bb" y="630"/>
      </g>
     </g>
     <g id="text_6">
      <!-- 1000 -->
      <defs>
       <path d="M 12.40625 8.296875 
L 28.515625 8.296875 
L 28.515625 63.921875 
L 10.984375 60.40625 
L 10.984375 69.390625 
L 28.421875 72.90625 
L 38.28125 72.90625 
L 38.28125 8.296875 
L 54.390625 8.296875 
L 54.390625 0 
L 12.40625 0 
z
" id="DejaVuSans-31"/>
      </defs>
      <g transform="translate(984.305631 644.598438)scale(0.1 -0.1)">
       <use xlink:href="#DejaVuSans-31"/>
       <use x="63.623047" xlink:href="#DejaVuSans-30"/>
       <use x="127.246094" xlink:href="#DejaVuSans-30"/>
       <use x="190.869141" xlink:href="#DejaVuSans-30"/>
      </g>
     </g>
    </g>
    <g id="text_7">
     <!-- Iteration -->
     <defs>
      <path d="M 9.8125 72.90625 
L 19.671875 72.90625 
L 19.671875 0 
L 9.8125 0 
z
" id="DejaVuSans-49"/>
      <path d="M 18.3125 70.21875 
L 18.3125 54.6875 
L 36.8125 54.6875 
L 36.8125 47.703125 
L 18.3125 47.703125 
L 18.3125 18.015625 
Q 18.3125 11.328125 20.140625 9.421875 
Q 21.96875 7.515625 27.59375 7.515625 
L 36.8125 7.515625 
L 36.8125 0 
L 27.59375 0 
Q 17.1875 0 13.234375 3.875 
Q 9.28125 7.765625 9.28125 18.015625 
L 9.28125 47.703125 
L 2.6875 47.703125 
L 2.6875 54.6875 
L 9.28125 54.6875 
L 9.28125 70.21875 
z
" id="DejaVuSans-74"/>
      <path d="M 56.203125 29.59375 
L 56.203125 25.203125 
L 14.890625 25.203125 
Q 15.484375 15.921875 20.484375 11.0625 
Q 25.484375 6.203125 34.421875 6.203125 
Q 39.59375 6.203125 44.453125 7.46875 
Q 49.3125 8.734375 54.109375 11.28125 
L 54.109375 2.78125 
Q 49.265625 0.734375 44.1875 -0.34375 
Q 39.109375 -1.421875 33.890625 -1.421875 
Q 20.796875 -1.421875 13.15625 6.1875 
Q 5.515625 13.8125 5.515625 26.8125 
Q 5.515625 40.234375 12.765625 48.109375 
Q 20.015625 56 32.328125 56 
Q 43.359375 56 49.78125 48.890625 
Q 56.203125 41.796875 56.203125 29.59375 
z
M 47.21875 32.234375 
Q 47.125 39.59375 43.09375 43.984375 
Q 39.0625 48.390625 32.421875 48.390625 
Q 24.90625 48.390625 20.390625 44.140625 
Q 15.875 39.890625 15.1875 32.171875 
z
" id="DejaVuSans-65"/>
      <path d="M 41.109375 46.296875 
Q 39.59375 47.171875 37.8125 47.578125 
Q 36.03125 48 33.890625 48 
Q 26.265625 48 22.1875 43.046875 
Q 18.109375 38.09375 18.109375 28.8125 
L 18.109375 0 
L 9.078125 0 
L 9.078125 54.6875 
L 18.109375 54.6875 
L 18.109375 46.1875 
Q 20.953125 51.171875 25.484375 53.578125 
Q 30.03125 56 36.53125 56 
Q 37.453125 56 38.578125 55.875 
Q 39.703125 55.765625 41.0625 55.515625 
z
" id="DejaVuSans-72"/>
      <path d="M 34.28125 27.484375 
Q 23.390625 27.484375 19.1875 25 
Q 14.984375 22.515625 14.984375 16.5 
Q 14.984375 11.71875 18.140625 8.90625 
Q 21.296875 6.109375 26.703125 6.109375 
Q 34.1875 6.109375 38.703125 11.40625 
Q 43.21875 16.703125 43.21875 25.484375 
L 43.21875 27.484375 
z
M 52.203125 31.203125 
L 52.203125 0 
L 43.21875 0 
L 43.21875 8.296875 
Q 40.140625 3.328125 35.546875 0.953125 
Q 30.953125 -1.421875 24.3125 -1.421875 
Q 15.921875 -1.421875 10.953125 3.296875 
Q 6 8.015625 6 15.921875 
Q 6 25.140625 12.171875 29.828125 
Q 18.359375 34.515625 30.609375 34.515625 
L 43.21875 34.515625 
L 43.21875 35.40625 
Q 43.21875 41.609375 39.140625 45 
Q 35.0625 48.390625 27.6875 48.390625 
Q 23 48.390625 18.546875 47.265625 
Q 14.109375 46.140625 10.015625 43.890625 
L 10.015625 52.203125 
Q 14.9375 54.109375 19.578125 55.046875 
Q 24.21875 56 28.609375 56 
Q 40.484375 56 46.34375 49.84375 
Q 52.203125 43.703125 52.203125 31.203125 
z
" id="DejaVuSans-61"/>
      <path d="M 9.421875 54.6875 
L 18.40625 54.6875 
L 18.40625 0 
L 9.421875 0 
z
M 9.421875 75.984375 
L 18.40625 75.984375 
L 18.40625 64.59375 
L 9.421875 64.59375 
z
" id="DejaVuSans-69"/>
      <path d="M 30.609375 48.390625 
Q 23.390625 48.390625 19.1875 42.75 
Q 14.984375 37.109375 14.984375 27.296875 
Q 14.984375 17.484375 19.15625 11.84375 
Q 23.34375 6.203125 30.609375 6.203125 
Q 37.796875 6.203125 41.984375 11.859375 
Q 46.1875 17.53125 46.1875 27.296875 
Q 46.1875 37.015625 41.984375 42.703125 
Q 37.796875 48.390625 30.609375 48.390625 
z
M 30.609375 56 
Q 42.328125 56 49.015625 48.375 
Q 55.71875 40.765625 55.71875 27.296875 
Q 55.71875 13.875 49.015625 6.21875 
Q 42.328125 -1.421875 30.609375 -1.421875 
Q 18.84375 -1.421875 12.171875 6.21875 
Q 5.515625 13.875 5.515625 27.296875 
Q 5.515625 40.765625 12.171875 48.375 
Q 18.84375 56 30.609375 56 
z
" id="DejaVuSans-6f"/>
      <path d="M 54.890625 33.015625 
L 54.890625 0 
L 45.90625 0 
L 45.90625 32.71875 
Q 45.90625 40.484375 42.875 44.328125 
Q 39.84375 48.1875 33.796875 48.1875 
Q 26.515625 48.1875 22.3125 43.546875 
Q 18.109375 38.921875 18.109375 30.90625 
L 18.109375 0 
L 9.078125 0 
L 9.078125 54.6875 
L 18.109375 54.6875 
L 18.109375 46.1875 
Q 21.34375 51.125 25.703125 53.5625 
Q 30.078125 56 35.796875 56 
Q 45.21875 56 50.046875 50.171875 
Q 54.890625 44.34375 54.890625 33.015625 
z
" id="DejaVuSans-6e"/>
     </defs>
     <g transform="translate(553.75155 663.808225)scale(0.1728 -0.1728)">
      <use xlink:href="#DejaVuSans-49"/>
      <use x="29.492188" xlink:href="#DejaVuSans-74"/>
      <use x="68.701172" xlink:href="#DejaVuSans-65"/>
      <use x="130.224609" xlink:href="#DejaVuSans-72"/>
      <use x="171.337891" xlink:href="#DejaVuSans-61"/>
      <use x="232.617188" xlink:href="#DejaVuSans-74"/>
      <use x="271.826172" xlink:href="#DejaVuSans-69"/>
      <use x="299.609375" xlink:href="#DejaVuSans-6f"/>
      <use x="360.791016" xlink:href="#DejaVuSans-6e"/>
     </g>
    </g>
   </g>
   <g id="matplotlib.axis_2">
    <g id="ytick_1">
     <g id="line2d_7">
      <defs>
       <path d="M 0 0 
L -3.5 0 
" id="m07e7a4b7a9" style="stroke:#000000;stroke-width:0.8;"/>
      </defs>
      <g>
       <use style="stroke:#000000;stroke-width:0.8;" x="144" xlink:href="#m07e7a4b7a9" y="623.306394"/>
      </g>
     </g>
     <g id="text_8">
      <!-- 0.0 -->
      <defs>
       <path d="M 10.6875 12.40625 
L 21 12.40625 
L 21 0 
L 10.6875 0 
z
" id="DejaVuSans-2e"/>
      </defs>
      <g transform="translate(121.096875 627.105612)scale(0.1 -0.1)">
       <use xlink:href="#DejaVuSans-30"/>
       <use x="63.623047" xlink:href="#DejaVuSans-2e"/>
       <use x="95.410156" xlink:href="#DejaVuSans-30"/>
      </g>
     </g>
    </g>
    <g id="ytick_2">
     <g id="line2d_8">
      <g>
       <use style="stroke:#000000;stroke-width:0.8;" x="144" xlink:href="#m07e7a4b7a9" y="551.861782"/>
      </g>
     </g>
     <g id="text_9">
      <!-- 2.5 -->
      <defs>
       <path d="M 10.796875 72.90625 
L 49.515625 72.90625 
L 49.515625 64.59375 
L 19.828125 64.59375 
L 19.828125 46.734375 
Q 21.96875 47.46875 24.109375 47.828125 
Q 26.265625 48.1875 28.421875 48.1875 
Q 40.625 48.1875 47.75 41.5 
Q 54.890625 34.8125 54.890625 23.390625 
Q 54.890625 11.625 47.5625 5.09375 
Q 40.234375 -1.421875 26.90625 -1.421875 
Q 22.3125 -1.421875 17.546875 -0.640625 
Q 12.796875 0.140625 7.71875 1.703125 
L 7.71875 11.625 
Q 12.109375 9.234375 16.796875 8.0625 
Q 21.484375 6.890625 26.703125 6.890625 
Q 35.15625 6.890625 40.078125 11.328125 
Q 45.015625 15.765625 45.015625 23.390625 
Q 45.015625 31 40.078125 35.4375 
Q 35.15625 39.890625 26.703125 39.890625 
Q 22.75 39.890625 18.8125 39.015625 
Q 14.890625 38.140625 10.796875 36.28125 
z
" id="DejaVuSans-35"/>
      </defs>
      <g transform="translate(121.096875 555.661)scale(0.1 -0.1)">
       <use xlink:href="#DejaVuSans-32"/>
       <use x="63.623047" xlink:href="#DejaVuSans-2e"/>
       <use x="95.410156" xlink:href="#DejaVuSans-35"/>
      </g>
     </g>
    </g>
    <g id="ytick_3">
     <g id="line2d_9">
      <g>
       <use style="stroke:#000000;stroke-width:0.8;" x="144" xlink:href="#m07e7a4b7a9" y="480.417169"/>
      </g>
     </g>
     <g id="text_10">
      <!-- 5.0 -->
      <g transform="translate(121.096875 484.216388)scale(0.1 -0.1)">
       <use xlink:href="#DejaVuSans-35"/>
       <use x="63.623047" xlink:href="#DejaVuSans-2e"/>
       <use x="95.410156" xlink:href="#DejaVuSans-30"/>
      </g>
     </g>
    </g>
    <g id="ytick_4">
     <g id="line2d_10">
      <g>
       <use style="stroke:#000000;stroke-width:0.8;" x="144" xlink:href="#m07e7a4b7a9" y="408.972557"/>
      </g>
     </g>
     <g id="text_11">
      <!-- 7.5 -->
      <defs>
       <path d="M 8.203125 72.90625 
L 55.078125 72.90625 
L 55.078125 68.703125 
L 28.609375 0 
L 18.3125 0 
L 43.21875 64.59375 
L 8.203125 64.59375 
z
" id="DejaVuSans-37"/>
      </defs>
      <g transform="translate(121.096875 412.771776)scale(0.1 -0.1)">
       <use xlink:href="#DejaVuSans-37"/>
       <use x="63.623047" xlink:href="#DejaVuSans-2e"/>
       <use x="95.410156" xlink:href="#DejaVuSans-35"/>
      </g>
     </g>
    </g>
    <g id="ytick_5">
     <g id="line2d_11">
      <g>
       <use style="stroke:#000000;stroke-width:0.8;" x="144" xlink:href="#m07e7a4b7a9" y="337.527945"/>
      </g>
     </g>
     <g id="text_12">
      <!-- 10.0 -->
      <g transform="translate(114.734375 341.327164)scale(0.1 -0.1)">
       <use xlink:href="#DejaVuSans-31"/>
       <use x="63.623047" xlink:href="#DejaVuSans-30"/>
       <use x="127.246094" xlink:href="#DejaVuSans-2e"/>
       <use x="159.033203" xlink:href="#DejaVuSans-30"/>
      </g>
     </g>
    </g>
    <g id="ytick_6">
     <g id="line2d_12">
      <g>
       <use style="stroke:#000000;stroke-width:0.8;" x="144" xlink:href="#m07e7a4b7a9" y="266.083333"/>
      </g>
     </g>
     <g id="text_13">
      <!-- 12.5 -->
      <g transform="translate(114.734375 269.882552)scale(0.1 -0.1)">
       <use xlink:href="#DejaVuSans-31"/>
       <use x="63.623047" xlink:href="#DejaVuSans-32"/>
       <use x="127.246094" xlink:href="#DejaVuSans-2e"/>
       <use x="159.033203" xlink:href="#DejaVuSans-35"/>
      </g>
     </g>
    </g>
    <g id="ytick_7">
     <g id="line2d_13">
      <g>
       <use style="stroke:#000000;stroke-width:0.8;" x="144" xlink:href="#m07e7a4b7a9" y="194.638721"/>
      </g>
     </g>
     <g id="text_14">
      <!-- 15.0 -->
      <g transform="translate(114.734375 198.43794)scale(0.1 -0.1)">
       <use xlink:href="#DejaVuSans-31"/>
       <use x="63.623047" xlink:href="#DejaVuSans-35"/>
       <use x="127.246094" xlink:href="#DejaVuSans-2e"/>
       <use x="159.033203" xlink:href="#DejaVuSans-30"/>
      </g>
     </g>
    </g>
    <g id="ytick_8">
     <g id="line2d_14">
      <g>
       <use style="stroke:#000000;stroke-width:0.8;" x="144" xlink:href="#m07e7a4b7a9" y="123.194109"/>
      </g>
     </g>
     <g id="text_15">
      <!-- 17.5 -->
      <g transform="translate(114.734375 126.993327)scale(0.1 -0.1)">
       <use xlink:href="#DejaVuSans-31"/>
       <use x="63.623047" xlink:href="#DejaVuSans-37"/>
       <use x="127.246094" xlink:href="#DejaVuSans-2e"/>
       <use x="159.033203" xlink:href="#DejaVuSans-35"/>
      </g>
     </g>
    </g>
    <g id="text_16">
     <!-- Loss -->
     <defs>
      <path d="M 9.8125 72.90625 
L 19.671875 72.90625 
L 19.671875 8.296875 
L 55.171875 8.296875 
L 55.171875 0 
L 9.8125 0 
z
" id="DejaVuSans-4c"/>
      <path d="M 44.28125 53.078125 
L 44.28125 44.578125 
Q 40.484375 46.53125 36.375 47.5 
Q 32.28125 48.484375 27.875 48.484375 
Q 21.1875 48.484375 17.84375 46.4375 
Q 14.5 44.390625 14.5 40.28125 
Q 14.5 37.15625 16.890625 35.375 
Q 19.28125 33.59375 26.515625 31.984375 
L 29.59375 31.296875 
Q 39.15625 29.25 43.1875 25.515625 
Q 47.21875 21.78125 47.21875 15.09375 
Q 47.21875 7.46875 41.1875 3.015625 
Q 35.15625 -1.421875 24.609375 -1.421875 
Q 20.21875 -1.421875 15.453125 -0.5625 
Q 10.6875 0.296875 5.421875 2 
L 5.421875 11.28125 
Q 10.40625 8.6875 15.234375 7.390625 
Q 20.0625 6.109375 24.8125 6.109375 
Q 31.15625 6.109375 34.5625 8.28125 
Q 37.984375 10.453125 37.984375 14.40625 
Q 37.984375 18.0625 35.515625 20.015625 
Q 33.0625 21.96875 24.703125 23.78125 
L 21.578125 24.515625 
Q 13.234375 26.265625 9.515625 29.90625 
Q 5.8125 33.546875 5.8125 39.890625 
Q 5.8125 47.609375 11.28125 51.796875 
Q 16.75 56 26.8125 56 
Q 31.78125 56 36.171875 55.265625 
Q 40.578125 54.546875 44.28125 53.078125 
z
" id="DejaVuSans-73"/>
     </defs>
     <g transform="translate(107.140675 377.30115)rotate(-90)scale(0.1728 -0.1728)">
      <use xlink:href="#DejaVuSans-4c"/>
      <use x="55.697266" xlink:href="#DejaVuSans-6f"/>
      <use x="116.878906" xlink:href="#DejaVuSans-73"/>
      <use x="168.978516" xlink:href="#DejaVuSans-73"/>
     </g>
    </g>
   </g>
   <g id="line2d_15">
    <path clip-path="url(#p100a2786cd)" d="M 184.581818 594.910812 
L 185.394267 534.81047 
L 186.206716 584.276634 
L 187.019165 280.930942 
L 187.831613 293.772899 
L 188.644062 244.747315 
L 189.456511 420.677328 
L 190.26896 534.258953 
L 191.081409 532.369495 
L 191.893857 261.604432 
L 192.706306 384.606347 
L 193.518755 560.193359 
L 194.331204 409.377603 
L 195.143653 499.328152 
L 195.956102 242.894681 
L 196.76855 569.826585 
L 197.580999 254.805205 
L 198.393448 481.226328 
L 199.205897 358.08569 
L 200.018346 580.039305 
L 200.830794 292.579527 
L 201.643243 583.704813 
L 202.455692 584.932769 
L 203.268141 397.714066 
L 204.08059 583.613209 
L 204.893038 432.521694 
L 205.705487 572.918508 
L 206.517936 227.725604 
L 207.330385 542.920465 
L 208.142834 535.099645 
L 208.955283 567.353903 
L 209.767731 437.624687 
L 210.58018 363.331941 
L 211.392629 503.358833 
L 212.205078 545.738481 
L 213.017527 465.734843 
L 213.829975 539.388918 
L 214.642424 337.643854 
L 215.454873 522.849626 
L 216.267322 533.980767 
L 217.079771 497.991533 
L 217.892219 429.896561 
L 218.704668 474.028703 
L 219.517117 331.494247 
L 220.329566 568.8582 
L 221.142015 266.4368 
L 221.954464 457.773246 
L 222.766912 334.244978 
L 223.579361 283.728969 
L 224.39181 255.427739 
L 225.204259 193.326121 
L 226.016708 496.844633 
L 226.829156 468.009699 
L 227.641605 584.114807 
L 228.454054 496.77307 
L 229.266503 550.038631 
L 230.078952 571.436781 
L 230.8914 536.288729 
L 231.703849 533.871485 
L 232.516298 270.454744 
L 233.328747 211.100177 
L 234.141196 577.021268 
L 234.953645 469.690175 
L 235.766093 519.250972 
L 236.578542 491.721523 
L 237.390991 577.986257 
L 238.20344 466.403763 
L 239.015889 558.709637 
L 239.828337 487.900772 
L 240.640786 316.145529 
L 241.453235 324.828817 
L 242.265684 561.264633 
L 243.078133 480.222034 
L 243.890581 500.215525 
L 244.70303 508.919274 
L 245.515479 294.944128 
L 246.327928 487.896878 
L 247.140377 279.987977 
L 247.952826 576.938471 
L 248.765274 571.308295 
L 249.577723 189.930422 
L 250.390172 505.667196 
L 251.202621 495.311354 
L 252.01507 553.735083 
L 252.827518 508.733097 
L 253.639967 478.056524 
L 254.452416 300.399523 
L 255.264865 443.223662 
L 256.077314 300.605606 
L 256.889762 552.5185 
L 257.702211 566.093209 
L 258.51466 573.588237 
L 259.327109 545.71108 
L 260.139558 445.124821 
L 260.952007 279.041936 
L 262.576904 445.736709 
L 264.201802 554.970994 
L 265.826699 291.140552 
L 266.639148 517.392606 
L 267.451597 335.763122 
L 268.264046 184.567111 
L 269.076495 544.896934 
L 269.888943 185.203681 
L 270.701392 332.086215 
L 271.513841 250.333875 
L 272.32629 532.671179 
L 273.138739 567.489721 
L 273.951188 576.658501 
L 274.763636 304.393695 
L 275.576085 583.996613 
L 276.388534 573.609068 
L 277.200983 581.142108 
L 278.013432 570.745617 
L 278.82588 584.285216 
L 279.638329 470.363711 
L 280.450778 384.832839 
L 281.263227 569.664893 
L 282.075676 291.883971 
L 282.888124 195.140678 
L 283.700573 363.516374 
L 284.513022 450.819927 
L 285.325471 321.509375 
L 286.13792 259.333154 
L 286.950369 568.945866 
L 287.762817 560.944748 
L 288.575266 496.709576 
L 289.387715 200.327808 
L 290.200164 509.887195 
L 291.012613 207.055559 
L 291.825061 329.332906 
L 292.63751 552.875528 
L 293.449959 541.397469 
L 295.074857 383.867849 
L 295.887305 571.298774 
L 296.699754 411.399788 
L 297.512203 308.292196 
L 298.324652 232.732994 
L 299.137101 254.524836 
L 299.94955 540.288445 
L 300.761998 503.993679 
L 301.574447 445.806274 
L 302.386896 265.675668 
L 303.199345 159.940222 
L 304.011794 312.950527 
L 304.824242 574.638442 
L 305.636691 496.133142 
L 306.44914 557.29826 
L 307.261589 258.959321 
L 308.074038 345.623891 
L 308.886486 488.089229 
L 309.698935 573.323084 
L 310.511384 360.595932 
L 311.323833 288.917047 
L 312.136282 517.274908 
L 312.948731 460.195306 
L 313.761179 439.705077 
L 314.573628 386.047079 
L 315.386077 300.711489 
L 316.198526 497.035968 
L 317.010975 509.684151 
L 317.823423 558.036628 
L 318.635872 443.095181 
L 319.448321 530.225387 
L 320.26077 572.001935 
L 321.073219 554.69056 
L 321.885667 465.593594 
L 322.698116 317.89332 
L 323.510565 503.909387 
L 324.323014 524.399448 
L 325.135463 564.942059 
L 325.947912 252.842357 
L 326.76036 329.274084 
L 327.572809 421.900231 
L 328.385258 500.916038 
L 329.197707 471.930391 
L 330.010156 541.846161 
L 330.822604 493.1876 
L 331.635053 255.112336 
L 332.447502 561.040118 
L 333.259951 294.876775 
L 334.0724 309.163176 
L 334.884848 581.355529 
L 335.697297 373.217453 
L 336.509746 581.910201 
L 337.322195 492.084021 
L 338.134644 562.489382 
L 338.947093 372.845632 
L 339.759541 523.412483 
L 340.57199 565.27282 
L 341.384439 508.871142 
L 342.196888 332.418727 
L 343.009337 563.403088 
L 343.821785 507.601536 
L 344.634234 542.391438 
L 345.446683 193.370837 
L 346.259132 533.405867 
L 347.071581 316.173481 
L 347.884029 377.84028 
L 348.696478 490.8788 
L 349.508927 438.834046 
L 350.321376 203.599948 
L 351.133825 556.642669 
L 351.946274 566.229238 
L 352.758722 571.917288 
L 353.571171 373.462331 
L 354.38362 418.278916 
L 355.196069 339.722467 
L 356.008518 517.06082 
L 356.820966 452.380615 
L 357.633415 286.1448 
L 358.445864 469.060798 
L 359.258313 559.784583 
L 360.88321 285.30366 
L 361.695659 554.278628 
L 362.508108 499.710852 
L 363.320557 572.787976 
L 364.133006 569.150092 
L 364.945455 410.903396 
L 365.757903 527.952671 
L 366.570352 531.93709 
L 367.382801 546.746767 
L 368.19525 523.989879 
L 369.007699 334.114114 
L 369.820147 532.665141 
L 370.632596 400.088675 
L 371.445045 542.576028 
L 372.257494 415.747167 
L 373.069943 415.687091 
L 373.882391 551.763791 
L 374.69484 500.12095 
L 375.507289 435.384328 
L 376.319738 474.673221 
L 377.132187 453.79096 
L 377.944636 370.692113 
L 378.757084 371.539438 
L 379.569533 548.055628 
L 380.381982 555.033208 
L 381.194431 515.263982 
L 382.00688 520.357886 
L 382.819328 568.937994 
L 383.631777 452.666292 
L 384.444226 432.983898 
L 385.256675 555.65356 
L 386.069124 326.824246 
L 386.881572 545.741152 
L 387.694021 329.363717 
L 388.50647 544.690668 
L 389.318919 388.049376 
L 390.131368 574.829836 
L 390.943817 526.274744 
L 391.756265 464.233401 
L 392.568714 540.47859 
L 393.381163 330.403427 
L 394.193612 516.436314 
L 395.006061 491.085483 
L 395.818509 550.222091 
L 396.630958 542.799397 
L 397.443407 376.511323 
L 398.255856 313.270555 
L 399.068305 306.210273 
L 399.880753 551.243021 
L 400.693202 544.510697 
L 401.505651 266.361346 
L 402.3181 348.823918 
L 403.130549 169.125147 
L 403.942998 533.723455 
L 404.755446 379.430394 
L 405.567895 561.628855 
L 406.380344 560.871173 
L 407.192793 327.260997 
L 408.005242 403.853467 
L 408.81769 564.669556 
L 409.630139 552.639866 
L 410.442588 529.591707 
L 411.255037 563.548563 
L 412.067486 260.685062 
L 412.879934 583.189462 
L 413.692383 276.551963 
L 414.504832 383.189186 
L 415.317281 256.59366 
L 416.12973 584.682567 
L 416.942179 393.366941 
L 417.754627 281.984659 
L 418.567076 237.284199 
L 419.379525 313.175598 
L 420.191974 353.365682 
L 421.004423 560.452658 
L 421.816871 560.144311 
L 422.62932 371.106265 
L 423.441769 369.941557 
L 424.254218 486.638849 
L 425.066667 304.806285 
L 425.879115 394.511778 
L 426.691564 323.48463 
L 427.504013 274.994362 
L 428.316462 536.026882 
L 429.94136 502.698431 
L 430.753808 353.220442 
L 431.566257 579.900795 
L 432.378706 577.449649 
L 433.191155 392.421131 
L 434.003604 580.609857 
L 434.816052 365.846612 
L 435.628501 411.6314 
L 436.44095 326.347604 
L 437.253399 267.268781 
L 438.065848 450.492562 
L 438.878296 565.36153 
L 439.690745 563.050567 
L 440.503194 360.28968 
L 441.315643 483.625282 
L 442.128092 484.803708 
L 442.940541 571.504029 
L 443.752989 461.622688 
L 444.565438 202.814101 
L 445.377887 304.922247 
L 446.190336 293.195495 
L 447.002785 292.591882 
L 447.815233 412.404399 
L 448.627682 438.16552 
L 449.440131 392.945493 
L 450.25258 579.500361 
L 451.065029 580.406756 
L 451.877477 236.944549 
L 452.689926 440.560903 
L 453.502375 552.56152 
L 454.314824 502.654147 
L 455.127273 570.801534 
L 455.939722 461.091778 
L 457.564619 575.953994 
L 458.377068 250.218506 
L 459.189517 537.776115 
L 460.001966 369.957764 
L 460.814414 278.031029 
L 461.626863 571.108346 
L 462.439312 324.068744 
L 463.251761 559.307585 
L 464.06421 575.214726 
L 464.876658 560.400138 
L 465.689107 571.135836 
L 466.501556 502.621352 
L 467.314005 533.466994 
L 468.126454 371.944195 
L 468.938903 571.264508 
L 469.751351 354.559894 
L 470.5638 332.875876 
L 471.376249 254.869208 
L 472.188698 565.175644 
L 473.001147 560.823772 
L 473.813595 480.085503 
L 474.626044 205.084286 
L 475.438493 540.25207 
L 476.250942 558.998827 
L 477.063391 365.050157 
L 477.875839 512.85818 
L 478.688288 171.539467 
L 479.500737 309.492827 
L 480.313186 469.304488 
L 481.125635 416.468967 
L 481.938084 542.704871 
L 482.750532 409.115958 
L 483.562981 571.418013 
L 484.37543 496.552514 
L 485.187879 457.023683 
L 486.000328 518.660461 
L 486.812776 488.975072 
L 487.625225 151.684147 
L 488.437674 206.479714 
L 489.250123 558.164818 
L 490.062572 543.134011 
L 490.87502 522.213462 
L 491.687469 415.323832 
L 492.499918 503.824054 
L 493.312367 553.236288 
L 494.124816 544.659228 
L 494.937265 508.108101 
L 495.749713 228.267304 
L 496.562162 561.466975 
L 497.374611 499.66187 
L 498.18706 486.251759 
L 498.999509 522.519459 
L 499.811957 266.206198 
L 500.624406 520.798351 
L 501.436855 202.513619 
L 502.249304 540.032686 
L 503.061753 449.74851 
L 503.874201 314.706407 
L 504.68665 572.134581 
L 505.499099 512.996946 
L 506.311548 551.068136 
L 507.123997 549.766994 
L 507.936446 485.818642 
L 508.748894 574.694249 
L 509.561343 563.291502 
L 510.373792 547.539932 
L 511.186241 448.178072 
L 511.99869 479.522243 
L 512.811138 376.626069 
L 513.623587 378.912093 
L 514.436036 300.447583 
L 515.248485 558.310314 
L 516.060934 322.474481 
L 516.873382 468.324807 
L 517.685831 544.712987 
L 518.49828 251.662405 
L 519.310729 525.115113 
L 520.123178 453.037517 
L 520.935627 275.141693 
L 521.748075 548.22204 
L 522.560524 512.429108 
L 523.372973 565.675052 
L 524.185422 378.25695 
L 524.997871 408.25699 
L 525.810319 372.328033 
L 526.622768 261.767662 
L 527.435217 336.881591 
L 528.247666 514.438946 
L 529.060115 466.187255 
L 529.872563 331.049479 
L 530.685012 554.165683 
L 531.497461 566.76071 
L 532.30991 511.973018 
L 533.122359 532.982018 
L 533.934808 575.524828 
L 534.747256 264.54258 
L 535.559705 373.041236 
L 536.372154 536.266333 
L 537.184603 537.950333 
L 537.997052 306.820163 
L 538.8095 569.948985 
L 539.621949 565.312631 
L 540.434398 456.837007 
L 541.246847 393.654202 
L 542.059296 354.791937 
L 542.871744 553.880349 
L 543.684193 403.338822 
L 544.496642 405.076042 
L 545.309091 566.076795 
L 546.12154 545.375298 
L 546.933989 307.272826 
L 547.746437 268.052107 
L 548.558886 482.121607 
L 549.371335 532.313421 
L 550.183784 326.815167 
L 550.996233 574.07115 
L 551.808681 573.129342 
L 552.62113 547.968069 
L 553.433579 286.117192 
L 554.246028 561.762414 
L 555.058477 577.861958 
L 555.870925 530.817914 
L 556.683374 500.852884 
L 557.495823 481.100526 
L 558.308272 566.491071 
L 559.120721 215.427117 
L 559.93317 220.41645 
L 560.745618 233.577185 
L 561.558067 368.101444 
L 562.370516 574.472772 
L 563.182965 508.051967 
L 563.995414 558.801514 
L 564.807862 414.870783 
L 565.620311 558.790005 
L 566.43276 395.44396 
L 567.245209 498.867091 
L 568.057658 426.258044 
L 568.870106 433.262046 
L 569.682555 531.820917 
L 570.495004 522.488189 
L 571.307453 503.718618 
L 572.119902 552.851081 
L 572.932351 551.94031 
L 573.744799 255.377488 
L 574.557248 335.688484 
L 575.369697 526.456688 
L 576.182146 562.971997 
L 576.994595 572.915361 
L 577.807043 253.98977 
L 578.619492 447.266718 
L 579.431941 259.062914 
L 580.24439 418.270471 
L 581.056839 448.28481 
L 581.869287 575.398807 
L 582.681736 512.837268 
L 583.494185 553.796847 
L 584.306634 576.034603 
L 585.119083 483.900551 
L 585.931532 436.325726 
L 586.74398 283.534255 
L 587.556429 440.589009 
L 588.368878 157.960799 
L 589.181327 458.211272 
L 589.993776 421.858812 
L 590.806224 571.891266 
L 591.618673 578.822087 
L 592.431122 258.97605 
L 593.243571 477.770421 
L 594.05602 384.698152 
L 594.868468 483.681352 
L 595.680917 444.88469 
L 596.493366 202.140988 
L 597.305815 547.71934 
L 598.118264 263.330132 
L 598.930713 576.816595 
L 599.743161 572.974361 
L 600.55561 472.938482 
L 601.368059 351.060275 
L 602.180508 561.298472 
L 602.992957 555.174261 
L 603.805405 507.984401 
L 604.617854 536.293243 
L 605.430303 269.488088 
L 606.242752 570.627313 
L 607.055201 510.905239 
L 607.867649 561.206486 
L 608.680098 571.585827 
L 609.492547 358.332818 
L 610.304996 540.053848 
L 611.117445 236.782345 
L 611.929894 558.169311 
L 612.742342 579.232837 
L 613.554791 340.249343 
L 615.179689 476.185562 
L 615.992138 488.804457 
L 616.804586 241.771227 
L 617.617035 565.693032 
L 618.429484 500.113759 
L 619.241933 522.176588 
L 620.054382 256.378473 
L 620.86683 583.754902 
L 621.679279 166.840866 
L 622.491728 451.921385 
L 623.304177 364.559142 
L 624.116626 551.090641 
L 624.929075 570.213948 
L 625.741523 233.624946 
L 626.553972 548.163266 
L 627.366421 331.069751 
L 628.17887 552.615676 
L 628.991319 550.884714 
L 629.803767 263.970602 
L 630.616216 556.446555 
L 631.428665 305.921431 
L 632.241114 566.072602 
L 633.053563 392.255531 
L 633.866011 539.532652 
L 634.67846 561.66436 
L 635.490909 520.361803 
L 636.303358 557.989906 
L 637.115807 575.674684 
L 637.928256 223.752584 
L 638.740704 573.272692 
L 639.553153 560.045882 
L 640.365602 570.027658 
L 641.178051 486.351033 
L 641.9905 241.792371 
L 642.802948 552.873851 
L 643.615397 568.614771 
L 644.427846 363.914485 
L 645.240295 417.754101 
L 646.052744 570.278473 
L 646.865192 527.274369 
L 647.677641 576.865736 
L 648.49009 227.444656 
L 649.302539 289.581273 
L 650.114988 247.739883 
L 650.927437 315.510914 
L 651.739885 552.640584 
L 652.552334 326.996526 
L 653.364783 554.76149 
L 654.177232 442.065765 
L 654.989681 576.450301 
L 655.802129 316.137077 
L 656.614578 572.635941 
L 657.427027 573.479709 
L 658.239476 516.010901 
L 659.051925 578.59329 
L 659.864373 540.338801 
L 660.676822 495.566998 
L 661.489271 238.074977 
L 662.30172 281.258483 
L 663.114169 480.080223 
L 663.926618 525.946142 
L 664.739066 305.679756 
L 665.551515 367.487581 
L 666.363964 571.43102 
L 667.176413 498.852958 
L 667.988862 575.117405 
L 668.80131 442.218635 
L 669.613759 360.251841 
L 670.426208 250.420951 
L 671.238657 457.974851 
L 672.051106 365.908146 
L 672.863554 557.472888 
L 673.676003 541.466299 
L 674.488452 385.951176 
L 675.300901 549.011254 
L 676.11335 557.103117 
L 676.925799 475.853345 
L 677.738247 512.821226 
L 678.550696 573.859548 
L 679.363145 311.076326 
L 680.175594 576.953779 
L 680.988043 567.412424 
L 681.800491 227.815931 
L 682.61294 577.703785 
L 683.425389 511.359302 
L 684.237838 323.700789 
L 685.050287 505.618212 
L 685.862735 554.627052 
L 686.675184 440.078908 
L 687.487633 404.060865 
L 688.300082 575.540967 
L 689.112531 474.116559 
L 689.92498 507.600142 
L 690.737428 573.622402 
L 691.549877 554.089356 
L 692.362326 378.223273 
L 693.174775 498.330904 
L 693.987224 476.012457 
L 694.799672 459.101944 
L 695.612121 546.120917 
L 696.42457 508.704224 
L 697.237019 252.343016 
L 698.049468 576.391497 
L 698.861916 562.668808 
L 699.674365 243.924921 
L 700.486814 508.288736 
L 701.299263 299.62953 
L 702.111712 350.421149 
L 702.924161 554.00039 
L 703.736609 523.912311 
L 704.549058 299.219268 
L 705.361507 295.272105 
L 706.173956 440.460921 
L 706.986405 540.699415 
L 707.798853 557.311381 
L 708.611302 512.494427 
L 709.423751 570.776618 
L 710.2362 564.314879 
L 711.048649 333.710009 
L 711.861097 433.961559 
L 712.673546 569.932277 
L 713.485995 454.556523 
L 714.298444 541.53284 
L 715.110893 476.197862 
L 715.923342 274.705181 
L 716.73579 526.094176 
L 717.548239 405.072756 
L 718.360688 536.666361 
L 719.173137 231.735759 
L 719.985586 555.931058 
L 720.798034 239.177629 
L 721.610483 581.372984 
L 722.422932 562.430199 
L 723.235381 558.853115 
L 724.04783 307.376524 
L 724.860278 579.481711 
L 725.672727 575.372154 
L 726.485176 519.133537 
L 727.297625 387.519326 
L 728.110074 580.101571 
L 728.922523 434.479461 
L 729.734971 380.092847 
L 730.54742 265.432046 
L 731.359869 536.711889 
L 732.172318 580.662565 
L 732.984767 189.903854 
L 733.797215 434.716025 
L 734.609664 542.721226 
L 735.422113 517.963391 
L 736.234562 564.786568 
L 737.047011 535.301128 
L 737.859459 514.825937 
L 738.671908 396.153626 
L 739.484357 396.054551 
L 740.296806 513.813032 
L 741.109255 398.286348 
L 741.921704 564.640746 
L 742.734152 320.883755 
L 743.546601 564.320709 
L 744.35905 329.911797 
L 745.171499 307.188549 
L 745.983948 290.598813 
L 746.796396 568.2733 
L 747.608845 505.976423 
L 748.421294 562.582129 
L 749.233743 344.78551 
L 750.046192 299.505779 
L 750.85864 351.827258 
L 751.671089 237.496578 
L 752.483538 486.987021 
L 753.295987 193.111115 
L 754.108436 362.657387 
L 754.920885 469.743089 
L 755.733333 548.25738 
L 756.545782 221.931873 
L 757.358231 575.899747 
L 758.17068 153.027722 
L 758.983129 318.137191 
L 759.795577 507.939112 
L 760.608026 331.948713 
L 761.420475 451.862989 
L 762.232924 391.715722 
L 763.045373 519.550087 
L 763.857821 237.205968 
L 764.67027 468.753776 
L 765.482719 201.313006 
L 767.107617 569.3742 
L 767.920066 571.460866 
L 768.732514 535.602097 
L 769.544963 487.91235 
L 770.357412 545.704868 
L 771.169861 557.98128 
L 771.98231 580.496379 
L 772.794758 501.135965 
L 773.607207 532.591591 
L 774.419656 511.31404 
L 775.232105 561.501108 
L 776.044554 490.044704 
L 776.857002 574.290313 
L 777.669451 282.317117 
L 778.4819 470.163074 
L 779.294349 531.189246 
L 780.106798 563.894299 
L 780.919247 263.501046 
L 781.731695 392.953181 
L 782.544144 555.724998 
L 783.356593 490.915544 
L 784.169042 459.239124 
L 784.981491 259.808527 
L 785.793939 444.898422 
L 786.606388 228.827468 
L 787.418837 429.273588 
L 788.231286 286.381148 
L 789.043735 275.522933 
L 789.856183 296.569695 
L 790.668632 568.878912 
L 791.481081 560.85165 
L 792.29353 441.817086 
L 793.105979 564.852668 
L 793.918428 503.422149 
L 794.730876 572.652655 
L 795.543325 222.407133 
L 796.355774 553.506182 
L 797.168223 541.178158 
L 797.980672 351.434235 
L 798.79312 395.315193 
L 799.605569 565.428737 
L 800.418018 482.149427 
L 801.230467 565.06259 
L 802.042916 530.897819 
L 802.855364 464.014483 
L 803.667813 564.751827 
L 804.480262 504.074097 
L 805.292711 284.697671 
L 806.10516 506.487872 
L 806.917609 505.398833 
L 807.730057 502.764473 
L 808.542506 336.461646 
L 809.354955 570.418115 
L 810.167404 472.079767 
L 810.979853 451.401185 
L 811.792301 557.449532 
L 812.60475 303.798533 
L 813.417199 261.54775 
L 814.229648 438.19485 
L 815.042097 528.238326 
L 815.854545 493.076033 
L 816.666994 434.122157 
L 817.479443 530.307346 
L 818.291892 515.065042 
L 819.104341 456.462901 
L 819.91679 462.180952 
L 820.729238 534.769576 
L 821.541687 306.386823 
L 822.354136 215.656197 
L 823.166585 581.123269 
L 823.979034 459.580913 
L 824.791482 542.664827 
L 825.603931 493.045091 
L 826.41638 494.770012 
L 827.228829 482.180234 
L 828.041278 561.677138 
L 829.666175 337.218153 
L 830.478624 446.878324 
L 831.291073 291.887619 
L 832.103522 519.695626 
L 832.915971 355.668138 
L 833.728419 563.679878 
L 834.540868 439.632719 
L 835.353317 482.704691 
L 836.165766 561.799676 
L 836.978215 567.589603 
L 837.790663 572.167594 
L 838.603112 526.886954 
L 839.415561 362.182288 
L 840.22801 237.727309 
L 841.040459 568.218991 
L 841.852907 568.709385 
L 842.665356 573.428729 
L 843.477805 311.358628 
L 844.290254 491.321087 
L 845.102703 552.648343 
L 845.915152 480.736448 
L 846.7276 363.602993 
L 847.540049 563.037628 
L 849.164947 465.38788 
L 849.977396 285.957218 
L 850.789844 380.561708 
L 851.602293 430.516643 
L 852.414742 522.207805 
L 853.227191 550.799438 
L 854.03964 458.309537 
L 854.852088 295.078383 
L 855.664537 509.871567 
L 856.476986 326.903211 
L 857.289435 181.748905 
L 858.101884 539.172968 
L 858.914333 174.289731 
L 859.726781 355.86137 
L 860.53923 340.921914 
L 861.351679 525.849901 
L 862.164128 561.839901 
L 862.976577 556.505896 
L 863.789025 290.835401 
L 864.601474 472.735907 
L 865.413923 574.730343 
L 866.226372 468.535281 
L 867.038821 495.639698 
L 867.851269 574.709063 
L 868.663718 478.891152 
L 869.476167 427.492078 
L 870.288616 570.939596 
L 871.101065 549.876322 
L 871.913514 475.82903 
L 872.725962 294.624007 
L 873.538411 484.062839 
L 874.35086 313.008139 
L 875.163309 487.167191 
L 875.975758 476.280461 
L 876.788206 553.239969 
L 877.600655 490.988937 
L 878.413104 195.859102 
L 879.225553 498.475311 
L 880.038002 536.384188 
L 880.85045 494.059543 
L 881.662899 218.127192 
L 882.475348 507.346071 
L 883.287797 343.922509 
L 884.100246 502.423843 
L 884.912695 397.640123 
L 885.725143 571.415756 
L 886.537592 492.725786 
L 887.350041 271.883006 
L 888.16249 245.42676 
L 888.974939 559.915726 
L 889.787387 552.96187 
L 890.599836 475.724467 
L 891.412285 501.691963 
L 892.224734 546.317077 
L 893.037183 271.552029 
L 893.849631 588.800772 
L 894.66208 386.579799 
L 895.474529 575.720085 
L 896.286978 252.14861 
L 897.099427 388.269826 
L 897.911876 575.166212 
L 898.724324 571.288607 
L 899.536773 354.676093 
L 900.349222 283.840177 
L 901.161671 504.048171 
L 901.97412 438.489696 
L 902.786568 421.996122 
L 903.599017 575.601424 
L 904.411466 302.291167 
L 905.223915 241.531339 
L 906.036364 481.334303 
L 906.848812 544.144108 
L 907.661261 464.797995 
L 908.47371 323.211172 
L 909.286159 442.464569 
L 910.098608 484.433027 
L 910.911057 448.012353 
L 911.723505 317.432243 
L 912.535954 498.490494 
L 913.348403 336.298841 
L 914.160852 553.285404 
L 914.973301 549.270196 
L 915.785749 336.910989 
L 916.598198 453.590398 
L 917.410647 531.838579 
L 918.223096 514.320669 
L 919.035545 561.378074 
L 919.847993 443.148513 
L 920.660442 343.760341 
L 921.472891 565.660719 
L 922.28534 298.3527 
L 923.097789 208.590229 
L 923.910238 552.156545 
L 924.722686 554.457696 
L 925.535135 479.4157 
L 926.347584 515.813407 
L 927.160033 563.843187 
L 927.972482 363.225046 
L 928.78493 542.889215 
L 929.597379 261.896571 
L 930.409828 572.036798 
L 931.222277 574.168598 
L 932.034726 562.20139 
L 932.847174 579.457704 
L 933.659623 563.114141 
L 934.472072 275.523424 
L 935.284521 530.701901 
L 936.09697 475.537819 
L 936.909419 441.154851 
L 937.721867 494.807331 
L 938.534316 574.345746 
L 939.346765 199.512518 
L 940.159214 552.743918 
L 940.971663 566.48168 
L 941.784111 576.353108 
L 942.59656 339.377458 
L 943.409009 512.059018 
L 944.221458 455.763415 
L 945.033907 543.914925 
L 945.846355 475.849791 
L 946.658804 574.631163 
L 947.471253 423.510038 
L 948.283702 373.006424 
L 949.096151 440.057636 
L 949.9086 267.563855 
L 950.721048 549.093879 
L 951.533497 514.89401 
L 952.345946 571.546504 
L 953.158395 575.64647 
L 953.970844 525.11991 
L 954.783292 566.720941 
L 955.595741 542.978922 
L 956.40819 498.745989 
L 957.220639 372.106554 
L 958.033088 356.530286 
L 958.845536 555.507868 
L 959.657985 569.587149 
L 960.470434 482.149884 
L 961.282883 431.361736 
L 962.095332 563.479125 
L 962.907781 567.942331 
L 963.720229 567.175615 
L 964.532678 299.951205 
L 965.345127 508.780704 
L 966.157576 446.901752 
L 966.970025 331.083271 
L 967.782473 360.419419 
L 968.594922 558.641792 
L 969.407371 556.461713 
L 970.21982 529.477055 
L 971.032269 509.641528 
L 971.844717 564.798251 
L 972.657166 469.442851 
L 973.469615 451.44725 
L 974.282064 526.783622 
L 975.094513 321.63084 
L 975.906962 550.2045 
L 976.71941 575.466623 
L 977.531859 470.87089 
L 978.344308 391.609067 
L 979.156757 570.312794 
L 979.969206 534.88104 
L 980.781654 481.549052 
L 981.594103 510.570362 
L 982.406552 345.833075 
L 983.219001 478.831513 
L 984.03145 531.5799 
L 984.843898 560.488873 
L 985.656347 450.753344 
L 986.468796 381.918649 
L 987.281245 373.851242 
L 988.093694 288.200615 
L 988.906143 448.173441 
L 989.718591 537.981705 
L 990.53104 277.053937 
L 991.343489 566.273695 
L 992.155938 488.674884 
L 992.968387 329.610423 
L 993.780835 394.621822 
L 994.593284 572.222744 
L 995.405733 577.636169 
L 996.218182 310.950401 
L 996.218182 310.950401 
" style="fill:none;stroke:#1f77b4;stroke-linecap:square;stroke-width:1.5;"/>
   </g>
   <g id="line2d_16">
    <path clip-path="url(#p100a2786cd)" d="M 184.581818 396.720452 
L 185.394267 408.856022 
L 186.206716 233.500286 
L 187.019165 149.967291 
L 187.831613 278.412746 
L 188.644062 223.677136 
L 189.456511 183.943596 
L 190.26896 457.827117 
L 191.081409 306.67196 
L 191.893857 269.719417 
L 192.706306 224.152692 
L 193.518755 272.61631 
L 194.331204 465.934939 
L 195.143653 350.738903 
L 195.956102 292.049008 
L 196.76855 198.692769 
L 197.580999 256.648216 
L 198.393448 442.861336 
L 199.205897 236.102007 
L 200.018346 179.759358 
L 200.830794 237.642882 
L 201.643243 457.518087 
L 202.455692 165.283249 
L 203.268141 214.475084 
L 204.08059 478.471819 
L 204.893038 271.056475 
L 205.705487 295.595273 
L 206.517936 411.543773 
L 207.330385 402.086264 
L 208.142834 359.240771 
L 208.955283 414.649564 
L 209.767731 210.447004 
L 210.58018 422.004134 
L 211.392629 218.978074 
L 212.205078 357.382955 
L 213.017527 308.624338 
L 213.829975 480.035002 
L 214.642424 214.1151 
L 215.454873 347.027938 
L 216.267322 440.817476 
L 217.079771 475.960453 
L 217.892219 419.190506 
L 218.704668 200.574665 
L 219.517117 296.588102 
L 220.329566 461.790066 
L 221.142015 353.775858 
L 222.766912 454.069572 
L 223.579361 427.140422 
L 224.39181 313.905904 
L 225.204259 396.906821 
L 226.016708 498.019033 
L 226.829156 197.772172 
L 227.641605 506.209544 
L 228.454054 197.467274 
L 229.266503 381.542792 
L 230.078952 244.227691 
L 230.8914 461.391628 
L 231.703849 454.370486 
L 232.516298 204.313899 
L 233.328747 182.924517 
L 234.141196 453.232291 
L 234.953645 234.797499 
L 235.766093 419.434533 
L 236.578542 277.372706 
L 237.390991 483.182569 
L 238.20344 504.088653 
L 239.015889 296.049678 
L 239.828337 320.693942 
L 240.640786 371.21432 
L 241.453235 284.713374 
L 242.265684 298.287848 
L 243.078133 486.726317 
L 243.890581 541.604114 
L 244.70303 446.300574 
L 245.515479 320.221438 
L 246.327928 263.84783 
L 247.140377 437.509217 
L 247.952826 496.706219 
L 248.765274 479.429495 
L 249.577723 184.061475 
L 250.390172 478.842703 
L 251.202621 194.179963 
L 252.01507 250.149477 
L 252.827518 152.618895 
L 253.639967 490.928908 
L 254.452416 463.430276 
L 255.264865 319.393099 
L 256.077314 465.222734 
L 256.889762 484.883882 
L 257.702211 347.509226 
L 258.51466 481.095161 
L 259.327109 426.024506 
L 260.139558 273.953003 
L 260.952007 174.046157 
L 261.764455 276.711251 
L 262.576904 326.190239 
L 263.389353 300.904405 
L 264.201802 418.683673 
L 265.014251 236.501504 
L 265.826699 281.070388 
L 266.639148 303.053464 
L 267.451597 134.086651 
L 268.264046 141.139843 
L 269.076495 350.419419 
L 269.888943 396.661244 
L 270.701392 182.726508 
L 271.513841 436.583472 
L 272.32629 238.681302 
L 273.138739 263.070193 
L 273.951188 485.758996 
L 274.763636 373.497553 
L 275.576085 348.844383 
L 276.388534 471.022899 
L 277.200983 447.553324 
L 278.013432 482.413689 
L 279.638329 363.644019 
L 280.450778 331.525283 
L 281.263227 445.314306 
L 282.075676 483.018519 
L 282.888124 472.418101 
L 283.700573 228.02454 
L 284.513022 341.358152 
L 285.325471 329.61107 
L 286.13792 210.406327 
L 286.950369 296.806551 
L 287.762817 202.222331 
L 288.575266 416.433768 
L 289.387715 282.939673 
L 290.200164 352.35532 
L 291.012613 268.287425 
L 291.825061 394.317119 
L 292.63751 251.953946 
L 293.449959 237.317003 
L 294.262408 408.586695 
L 295.074857 386.267377 
L 295.887305 312.23238 
L 296.699754 254.460207 
L 297.512203 422.283842 
L 298.324652 200.545122 
L 299.137101 254.702458 
L 299.94955 117.746642 
L 300.761998 242.354078 
L 301.574447 483.145411 
L 302.386896 518.558096 
L 303.199345 275.359732 
L 304.011794 408.509888 
L 304.824242 392.343335 
L 305.636691 500.102776 
L 306.44914 369.300783 
L 307.261589 204.312008 
L 308.074038 333.761354 
L 308.886486 392.286614 
L 309.698935 468.452816 
L 310.511384 317.791772 
L 311.323833 408.101619 
L 312.136282 304.848366 
L 312.948731 419.814714 
L 313.761179 326.72887 
L 314.573628 476.531867 
L 315.386077 208.803066 
L 316.198526 282.409338 
L 317.010975 226.617816 
L 317.823423 478.96448 
L 318.635872 360.375824 
L 319.448321 325.967269 
L 320.26077 239.027154 
L 321.073219 321.091641 
L 322.698116 512.834928 
L 323.510565 483.382888 
L 324.323014 445.600162 
L 325.135463 355.38326 
L 326.76036 212.473144 
L 327.572809 309.564455 
L 328.385258 493.728836 
L 329.197707 340.31027 
L 330.010156 515.665091 
L 330.822604 318.407873 
L 331.635053 210.753365 
L 332.447502 188.180208 
L 333.259951 242.399906 
L 334.0724 202.998868 
L 334.884848 256.285728 
L 335.697297 273.957025 
L 336.509746 451.309311 
L 337.322195 270.540161 
L 338.134644 441.542071 
L 338.947093 291.984022 
L 339.759541 441.906764 
L 340.57199 199.213152 
L 341.384439 499.572008 
L 342.196888 288.897481 
L 343.009337 490.258844 
L 343.821785 298.448636 
L 344.634234 428.619684 
L 345.446683 197.842369 
L 346.259132 481.022403 
L 347.071581 365.042236 
L 347.884029 398.660234 
L 348.696478 409.014357 
L 349.508927 212.048135 
L 350.321376 443.141296 
L 351.133825 321.252825 
L 351.946274 332.31763 
L 352.758722 403.021414 
L 353.571171 237.213503 
L 354.38362 361.929883 
L 355.196069 429.765366 
L 356.008518 475.210024 
L 356.820966 432.557041 
L 357.633415 451.583572 
L 358.445864 419.479512 
L 359.258313 154.715209 
L 360.070762 308.884947 
L 360.88321 489.020072 
L 361.695659 193.982278 
L 362.508108 358.812474 
L 363.320557 428.928621 
L 364.133006 275.112806 
L 364.945455 479.228378 
L 365.757903 415.858573 
L 366.570352 232.511051 
L 367.382801 206.856951 
L 368.19525 299.244722 
L 369.007699 186.875332 
L 369.820147 312.188295 
L 370.632596 518.4345 
L 371.445045 449.886976 
L 372.257494 473.728153 
L 373.069943 374.83581 
L 373.882391 436.028481 
L 374.69484 302.238769 
L 375.507289 193.322147 
L 376.319738 444.236805 
L 377.132187 283.47159 
L 377.944636 444.588313 
L 378.757084 493.796527 
L 379.569533 423.833178 
L 380.381982 490.985033 
L 382.00688 371.729577 
L 382.819328 247.32137 
L 383.631777 401.653661 
L 384.444226 284.760696 
L 385.256675 524.247776 
L 386.069124 390.036955 
L 386.881572 434.424161 
L 387.694021 253.338845 
L 388.50647 431.298547 
L 389.318919 494.523054 
L 390.943817 259.635477 
L 391.756265 464.976793 
L 392.568714 372.831698 
L 393.381163 358.430396 
L 394.193612 443.813472 
L 395.006061 258.047251 
L 395.818509 389.351647 
L 396.630958 331.327559 
L 397.443407 419.54503 
L 398.255856 342.558934 
L 399.068305 246.611264 
L 399.880753 211.095914 
L 400.693202 241.735573 
L 401.505651 153.596191 
L 402.3181 269.389973 
L 403.130549 328.08363 
L 403.942998 424.223355 
L 404.755446 376.587639 
L 405.567895 485.179208 
L 406.380344 450.944266 
L 407.192793 476.812298 
L 408.005242 312.382576 
L 408.81769 480.793472 
L 409.630139 285.122232 
L 410.442588 492.879632 
L 411.255037 453.185816 
L 412.067486 485.390714 
L 412.879934 237.79823 
L 413.692383 480.770018 
L 414.504832 325.034571 
L 415.317281 323.536512 
L 416.12973 341.922927 
L 416.942179 199.356552 
L 417.754627 314.917089 
L 418.567076 243.223785 
L 419.379525 354.309516 
L 420.191974 228.680441 
L 421.004423 375.074695 
L 421.816871 372.380925 
L 422.62932 370.246335 
L 423.441769 366.029826 
L 424.254218 340.685232 
L 425.066667 209.315917 
L 425.879115 336.982778 
L 426.691564 188.127212 
L 427.504013 478.26349 
L 428.316462 450.314747 
L 429.128911 304.542186 
L 429.94136 307.879456 
L 430.753808 178.625183 
L 431.566257 214.4168 
L 432.378706 235.878616 
L 433.191155 306.247136 
L 434.003604 199.24464 
L 434.816052 295.323747 
L 435.628501 303.885289 
L 436.44095 159.692734 
L 437.253399 403.79494 
L 438.065848 175.230241 
L 438.878296 468.405878 
L 439.690745 394.904376 
L 440.503194 409.951988 
L 441.315643 179.273314 
L 442.128092 233.79362 
L 442.940541 438.470731 
L 443.752989 283.838487 
L 444.565438 298.363783 
L 445.377887 220.413747 
L 446.190336 473.205232 
L 447.002785 313.983444 
L 447.815233 274.523257 
L 448.627682 347.744671 
L 449.440131 327.789156 
L 450.25258 451.581464 
L 451.065029 380.076788 
L 451.877477 238.135149 
L 452.689926 257.679994 
L 453.502375 491.341656 
L 454.314824 232.877965 
L 455.127273 468.885839 
L 455.939722 348.381783 
L 456.75217 347.738554 
L 457.564619 224.90507 
L 458.377068 182.745658 
L 459.189517 465.354838 
L 460.001966 246.979226 
L 460.814414 284.008432 
L 461.626863 407.932092 
L 462.439312 456.990589 
L 463.251761 326.087192 
L 464.06421 229.465429 
L 464.876658 280.489854 
L 465.689107 422.236073 
L 466.501556 476.164641 
L 467.314005 487.2581 
L 468.126454 146.601005 
L 468.938903 392.659197 
L 469.751351 455.728466 
L 470.5638 294.371492 
L 471.376249 183.480634 
L 472.188698 207.977083 
L 473.001147 181.602699 
L 473.813595 497.151576 
L 474.626044 215.542618 
L 475.438493 254.839251 
L 476.250942 486.454693 
L 477.063391 503.404651 
L 477.875839 271.846209 
L 478.688288 132.311166 
L 479.500737 438.688955 
L 480.313186 235.649 
L 481.125635 300.43393 
L 481.938084 393.926459 
L 482.750532 380.828016 
L 483.562981 415.831931 
L 484.37543 457.248223 
L 485.187879 402.577023 
L 486.000328 128.798975 
L 486.812776 476.799768 
L 487.625225 111.109091 
L 489.250123 389.771021 
L 490.87502 507.164127 
L 491.687469 226.460803 
L 492.499918 462.339856 
L 493.312367 179.603125 
L 494.124816 366.760586 
L 494.937265 453.208065 
L 495.749713 178.872315 
L 496.562162 443.731013 
L 497.374611 191.715429 
L 498.18706 217.821227 
L 498.999509 461.103936 
L 499.811957 194.869579 
L 500.624406 321.573863 
L 501.436855 210.459514 
L 502.249304 311.229907 
L 503.061753 199.686904 
L 503.874201 267.591601 
L 505.499099 373.285401 
L 506.311548 499.806291 
L 507.123997 171.560748 
L 507.936446 211.531017 
L 508.748894 426.57011 
L 509.561343 465.631425 
L 510.373792 418.025086 
L 511.186241 278.290594 
L 511.99869 413.745154 
L 512.811138 439.459495 
L 513.623587 380.917091 
L 514.436036 208.211321 
L 515.248485 538.322242 
L 516.060934 218.845846 
L 516.873382 208.192192 
L 517.685831 337.402434 
L 518.49828 332.4332 
L 519.310729 372.584813 
L 520.123178 258.905433 
L 520.935627 203.875498 
L 521.748075 167.631367 
L 522.560524 418.255274 
L 523.372973 488.127693 
L 524.185422 185.879815 
L 524.997871 311.68905 
L 525.810319 335.010474 
L 526.622768 405.515348 
L 527.435217 210.174589 
L 528.247666 292.238405 
L 529.060115 327.264089 
L 529.872563 403.226807 
L 530.685012 333.257724 
L 531.497461 486.89806 
L 532.30991 297.643794 
L 533.122359 467.033173 
L 533.934808 450.667652 
L 534.747256 425.630591 
L 535.559705 260.821314 
L 536.372154 453.652317 
L 537.184603 349.227045 
L 537.997052 431.704258 
L 538.8095 492.921325 
L 539.621949 511.758078 
L 540.434398 304.457314 
L 541.246847 395.574016 
L 542.059296 432.027732 
L 542.871744 299.999928 
L 543.684193 437.227196 
L 544.496642 419.765333 
L 545.309091 308.772633 
L 546.12154 234.714393 
L 546.933989 197.40567 
L 547.746437 185.511038 
L 548.558886 466.239646 
L 549.371335 275.568109 
L 550.183784 491.151982 
L 550.996233 486.768795 
L 552.62113 255.571015 
L 553.433579 202.063727 
L 554.246028 397.114209 
L 555.058477 322.169147 
L 555.870925 445.027862 
L 556.683374 188.231693 
L 557.495823 418.964684 
L 559.120721 181.830999 
L 559.93317 387.487151 
L 560.745618 153.149656 
L 561.558067 495.064837 
L 563.182965 439.171156 
L 563.995414 345.49181 
L 564.807862 399.177454 
L 565.620311 463.242052 
L 566.43276 289.987955 
L 567.245209 251.170945 
L 568.057658 499.503471 
L 568.870106 476.689748 
L 569.682555 320.447061 
L 570.495004 331.591414 
L 571.307453 227.810926 
L 572.119902 453.532643 
L 572.932351 488.833558 
L 573.744799 458.08695 
L 574.557248 332.125586 
L 575.369697 393.01828 
L 576.182146 441.225075 
L 576.994595 310.185721 
L 577.807043 326.318774 
L 578.619492 436.643956 
L 579.431941 196.227494 
L 580.24439 299.120558 
L 581.056839 359.188692 
L 581.869287 455.060884 
L 582.681736 330.275394 
L 583.494185 396.723252 
L 584.306634 492.087255 
L 585.119083 176.528964 
L 585.931532 277.764411 
L 586.74398 524.46496 
L 587.556429 456.867013 
L 588.368878 199.565303 
L 589.181327 426.835619 
L 589.993776 361.774509 
L 590.806224 393.358448 
L 591.618673 444.321922 
L 592.431122 186.630464 
L 593.243571 500.365143 
L 594.05602 449.510917 
L 594.868468 510.90775 
L 595.680917 443.183565 
L 596.493366 295.49226 
L 597.305815 435.568311 
L 598.118264 310.484964 
L 598.930713 203.205106 
L 599.743161 242.747613 
L 600.55561 305.125 
L 601.368059 258.227867 
L 602.180508 435.868918 
L 602.992957 482.092162 
L 603.805405 216.035519 
L 604.617854 469.585364 
L 605.430303 428.481676 
L 606.242752 371.962474 
L 607.055201 173.888727 
L 607.867649 191.69618 
L 608.680098 222.812811 
L 610.304996 456.820928 
L 611.117445 360.552442 
L 611.929894 503.29109 
L 612.742342 421.810575 
L 613.554791 367.304862 
L 614.36724 457.556861 
L 615.179689 443.502692 
L 615.992138 468.57602 
L 616.804586 523.982575 
L 617.617035 500.193262 
L 618.429484 119.79962 
L 619.241933 232.459351 
L 620.054382 166.993885 
L 620.86683 410.585478 
L 621.679279 147.677271 
L 622.491728 417.583766 
L 623.304177 337.480266 
L 624.116626 376.703226 
L 624.929075 392.930337 
L 625.741523 213.864088 
L 626.553972 374.146288 
L 627.366421 446.12668 
L 628.17887 377.679512 
L 628.991319 408.862888 
L 629.803767 223.88202 
L 630.616216 385.20652 
L 631.428665 436.945331 
L 632.241114 293.168407 
L 633.053563 393.205 
L 633.866011 397.069008 
L 634.67846 198.352885 
L 635.490909 465.648936 
L 636.303358 347.50316 
L 637.115807 392.738618 
L 637.928256 198.186197 
L 638.740704 284.062926 
L 639.553153 510.904149 
L 640.365602 467.767429 
L 641.178051 270.520424 
L 641.9905 209.164295 
L 642.802948 459.083541 
L 643.615397 426.323119 
L 644.427846 458.550311 
L 645.240295 239.346629 
L 646.052744 481.681563 
L 646.865192 219.979088 
L 647.677641 383.871094 
L 648.49009 207.132151 
L 649.302539 239.870261 
L 650.114988 401.142416 
L 650.927437 225.736276 
L 651.739885 482.465455 
L 652.552334 469.223798 
L 653.364783 504.891025 
L 654.177232 399.698819 
L 654.989681 419.881619 
L 655.802129 199.395576 
L 656.614578 466.287201 
L 657.427027 216.194706 
L 658.239476 367.544453 
L 659.051925 431.115375 
L 659.864373 355.242293 
L 660.676822 457.153694 
L 661.489271 277.05308 
L 662.30172 369.08133 
L 663.114169 393.257375 
L 663.926618 483.351886 
L 664.739066 151.045758 
L 666.363964 470.652639 
L 667.176413 386.046499 
L 667.988862 459.034668 
L 668.80131 474.810119 
L 669.613759 270.666144 
L 670.426208 467.498124 
L 671.238657 394.087549 
L 672.051106 428.8692 
L 672.863554 417.107334 
L 673.676003 268.281447 
L 674.488452 356.968484 
L 675.300901 344.368683 
L 676.11335 314.281319 
L 676.925799 474.58054 
L 677.738247 226.945593 
L 678.550696 479.226373 
L 679.363145 280.97683 
L 680.175594 175.368145 
L 680.988043 241.997484 
L 681.800491 177.113719 
L 682.61294 225.531156 
L 683.425389 488.067292 
L 684.237838 427.443151 
L 685.050287 213.145485 
L 685.862735 225.682047 
L 686.675184 386.378375 
L 687.487633 221.138804 
L 688.300082 473.189283 
L 689.112531 303.281695 
L 689.92498 444.321976 
L 690.737428 492.472756 
L 691.549877 375.590599 
L 692.362326 387.46421 
L 693.174775 450.61697 
L 693.987224 328.572359 
L 694.799672 458.78599 
L 695.612121 353.068139 
L 696.42457 351.218616 
L 697.237019 214.589939 
L 698.049468 497.338928 
L 698.861916 344.369938 
L 699.674365 262.276353 
L 700.486814 351.72847 
L 701.299263 221.321255 
L 702.111712 210.246741 
L 702.924161 394.85234 
L 703.736609 488.059087 
L 704.549058 278.812654 
L 705.361507 283.07902 
L 706.173956 423.274956 
L 706.986405 472.82206 
L 707.798853 370.958104 
L 708.611302 487.408725 
L 710.2362 319.796047 
L 711.048649 428.863833 
L 711.861097 348.105209 
L 712.673546 477.426247 
L 713.485995 496.251912 
L 714.298444 417.039133 
L 715.110893 308.761278 
L 715.923342 459.909173 
L 716.73579 399.69483 
L 717.548239 227.087528 
L 718.360688 397.937624 
L 719.173137 193.598246 
L 719.985586 372.35245 
L 720.798034 191.688044 
L 721.610483 284.642893 
L 722.422932 268.315269 
L 723.235381 481.650946 
L 724.04783 296.175459 
L 724.860278 271.978918 
L 725.672727 516.952666 
L 726.485176 414.560328 
L 727.297625 214.001574 
L 728.110074 451.665641 
L 728.922523 367.207972 
L 729.734971 456.331247 
L 730.54742 245.955368 
L 731.359869 293.08878 
L 732.172318 453.806129 
L 732.984767 370.614037 
L 733.797215 315.326688 
L 734.609664 202.742416 
L 735.422113 362.207416 
L 736.234562 480.747367 
L 737.047011 251.93978 
L 737.859459 258.464856 
L 738.671908 229.525109 
L 739.484357 327.269571 
L 740.296806 404.25369 
L 741.109255 365.942167 
L 741.921704 333.972825 
L 742.734152 209.049383 
L 743.546601 344.013672 
L 744.35905 384.036705 
L 745.171499 207.808832 
L 745.983948 162.537502 
L 746.796396 490.975137 
L 747.608845 248.110333 
L 748.421294 359.505353 
L 749.233743 180.450705 
L 750.046192 482.474324 
L 751.671089 128.702346 
L 752.483538 455.415783 
L 753.295987 163.2267 
L 754.108436 176.288951 
L 754.920885 453.725577 
L 755.733333 228.751653 
L 756.545782 376.126259 
L 757.358231 199.424115 
L 758.17068 368.557265 
L 758.983129 448.883862 
L 759.795577 384.975012 
L 760.608026 448.525952 
L 761.420475 399.363918 
L 762.232924 391.35023 
L 763.045373 287.042674 
L 763.857821 315.536328 
L 764.67027 222.821849 
L 765.482719 219.536412 
L 766.295168 463.176513 
L 767.107617 211.877095 
L 767.920066 457.748714 
L 768.732514 437.767876 
L 769.544963 486.850984 
L 770.357412 471.955397 
L 771.169861 475.800481 
L 771.98231 317.276928 
L 772.794758 265.491462 
L 773.607207 396.701811 
L 774.419656 463.10754 
L 775.232105 337.067604 
L 776.044554 316.827391 
L 776.857002 302.790159 
L 777.669451 336.736842 
L 778.4819 193.885758 
L 779.294349 455.403607 
L 780.106798 406.894177 
L 780.919247 349.154023 
L 781.731695 209.741169 
L 782.544144 285.64706 
L 783.356593 471.825736 
L 784.169042 332.015132 
L 784.981491 243.56336 
L 785.793939 223.804681 
L 786.606388 245.969247 
L 787.418837 477.578228 
L 788.231286 209.137763 
L 789.043735 447.726547 
L 789.856183 389.230705 
L 790.668632 313.485219 
L 791.481081 160.673049 
L 792.29353 188.10919 
L 793.105979 474.099877 
L 793.918428 360.354079 
L 794.730876 322.975994 
L 795.543325 158.970713 
L 796.355774 468.797693 
L 797.168223 327.498123 
L 797.980672 426.344072 
L 798.79312 227.801903 
L 799.605569 497.08089 
L 800.418018 194.023224 
L 801.230467 370.641682 
L 802.042916 354.696161 
L 802.855364 544.653202 
L 803.667813 476.314299 
L 804.480262 230.208323 
L 805.292711 279.897655 
L 806.10516 397.050478 
L 806.917609 348.750642 
L 807.730057 196.401137 
L 808.542506 278.924688 
L 809.354955 424.150087 
L 810.167404 469.794442 
L 810.979853 300.232499 
L 811.792301 481.39949 
L 812.60475 324.103042 
L 813.417199 248.11091 
L 814.229648 377.546555 
L 815.042097 410.07601 
L 815.854545 190.111616 
L 816.666994 511.061431 
L 817.479443 359.638621 
L 818.291892 439.290753 
L 819.104341 263.977955 
L 819.91679 407.107167 
L 820.729238 394.977812 
L 821.541687 189.918418 
L 822.354136 199.755883 
L 823.166585 353.991318 
L 823.979034 225.84926 
L 824.791482 434.753767 
L 825.603931 392.228164 
L 826.41638 298.822825 
L 827.228829 417.96378 
L 828.041278 385.5755 
L 828.853726 387.007795 
L 829.666175 273.478523 
L 830.478624 245.617867 
L 831.291073 228.762175 
L 832.103522 461.656306 
L 832.915971 482.740562 
L 833.728419 475.0498 
L 834.540868 487.771818 
L 835.353317 410.918051 
L 836.165766 482.320951 
L 836.978215 501.598902 
L 838.603112 179.180578 
L 839.415561 476.150299 
L 840.22801 394.435214 
L 841.040459 502.540792 
L 841.852907 428.716909 
L 842.665356 426.878425 
L 843.477805 516.975334 
L 844.290254 461.869956 
L 845.102703 290.034884 
L 845.915152 454.810389 
L 846.7276 374.0752 
L 847.540049 482.038339 
L 848.352498 274.526336 
L 849.164947 272.247531 
L 849.977396 260.028605 
L 850.789844 517.01429 
L 851.602293 543.110775 
L 852.414742 360.901105 
L 853.227191 486.626795 
L 854.03964 232.856596 
L 854.852088 312.714333 
L 855.664537 416.184094 
L 856.476986 193.276114 
L 857.289435 340.760743 
L 858.101884 337.280827 
L 858.914333 335.988164 
L 859.726781 247.588473 
L 860.53923 481.214701 
L 861.351679 231.149406 
L 862.164128 390.052724 
L 862.976577 496.694776 
L 863.789025 505.874867 
L 864.601474 300.277948 
L 865.413923 372.562634 
L 866.226372 357.480354 
L 867.038821 391.806896 
L 867.851269 486.839498 
L 868.663718 285.678931 
L 869.476167 282.084253 
L 870.288616 442.137596 
L 871.101065 378.022706 
L 871.913514 169.119532 
L 872.725962 352.322568 
L 874.35086 271.533136 
L 875.163309 297.304632 
L 875.975758 465.727113 
L 876.788206 494.133965 
L 877.600655 477.845049 
L 878.413104 182.488502 
L 879.225553 423.5715 
L 880.038002 249.433221 
L 880.85045 367.71537 
L 881.662899 195.600173 
L 882.475348 246.150266 
L 883.287797 267.62968 
L 884.100246 450.184602 
L 884.912695 224.342448 
L 885.725143 280.468273 
L 886.537592 510.292013 
L 887.350041 164.499 
L 888.16249 238.276448 
L 888.974939 119.262585 
L 890.599836 391.409303 
L 891.412285 465.962827 
L 892.224734 184.179471 
L 893.037183 376.410168 
L 893.849631 447.787699 
L 894.66208 439.191823 
L 895.474529 257.949404 
L 896.286978 252.975498 
L 897.099427 246.590396 
L 897.911876 328.825736 
L 898.724324 440.189762 
L 899.536773 348.493292 
L 900.349222 288.806935 
L 901.161671 471.50268 
L 901.97412 427.589777 
L 902.786568 482.067099 
L 903.599017 457.176651 
L 904.411466 197.661856 
L 905.223915 227.083904 
L 906.036364 244.978401 
L 906.848812 269.706766 
L 907.661261 234.959472 
L 909.286159 497.431935 
L 910.098608 323.75851 
L 910.911057 434.882472 
L 911.723505 281.442501 
L 912.535954 413.89752 
L 913.348403 410.779741 
L 914.160852 433.894892 
L 914.973301 231.295691 
L 915.785749 226.806249 
L 917.410647 466.644604 
L 918.223096 361.116081 
L 919.035545 334.385817 
L 919.847993 351.21532 
L 920.660442 480.950939 
L 922.28534 224.219385 
L 923.097789 430.273545 
L 923.910238 218.107114 
L 924.722686 267.532073 
L 925.535135 493.58547 
L 926.347584 476.512354 
L 927.160033 392.590677 
L 927.972482 404.463101 
L 928.78493 425.419538 
L 929.597379 480.689039 
L 930.409828 416.150455 
L 931.222277 283.640031 
L 932.034726 431.278863 
L 932.847174 364.61929 
L 933.659623 466.785474 
L 934.472072 355.565143 
L 935.284521 480.623573 
L 936.09697 290.69566 
L 936.909419 420.297737 
L 937.721867 370.114787 
L 938.534316 457.574461 
L 939.346765 472.379515 
L 940.159214 358.361394 
L 940.971663 268.22141 
L 941.784111 348.524884 
L 942.59656 388.945199 
L 943.409009 352.755548 
L 944.221458 435.424151 
L 945.033907 452.46857 
L 945.846355 355.08614 
L 946.658804 407.774788 
L 947.471253 442.947937 
L 948.283702 314.775845 
L 949.096151 349.699122 
L 949.9086 183.955372 
L 950.721048 424.749024 
L 951.533497 421.734346 
L 952.345946 485.015818 
L 953.158395 413.943008 
L 953.970844 530.150488 
L 955.595741 254.155 
L 956.40819 178.137148 
L 957.220639 346.969155 
L 958.033088 193.474053 
L 958.845536 295.419418 
L 959.657985 266.251015 
L 960.470434 441.99855 
L 961.282883 489.047991 
L 962.095332 392.757899 
L 962.907781 426.710656 
L 963.720229 313.549038 
L 964.532678 322.428209 
L 965.345127 456.371416 
L 966.157576 279.552512 
L 967.782473 426.691406 
L 968.594922 414.247993 
L 969.407371 488.916162 
L 970.21982 363.408047 
L 971.032269 453.466303 
L 971.844717 462.806695 
L 972.657166 305.768584 
L 973.469615 308.382976 
L 974.282064 535.728803 
L 975.094513 384.181788 
L 975.906962 489.198795 
L 976.71941 313.54226 
L 978.344308 491.706031 
L 979.156757 425.523015 
L 979.969206 383.977084 
L 980.781654 300.451916 
L 981.594103 332.392346 
L 982.406552 254.359508 
L 983.219001 360.409909 
L 984.03145 244.034426 
L 984.843898 505.763529 
L 985.656347 364.354089 
L 986.468796 397.782044 
L 987.281245 467.427783 
L 988.093694 204.271878 
L 988.906143 207.956509 
L 990.53104 349.945478 
L 991.343489 352.412268 
L 992.155938 328.80333 
L 992.968387 478.144981 
L 993.780835 359.95669 
L 994.593284 449.456597 
L 995.405733 460.854007 
L 996.218182 494.005779 
L 996.218182 494.005779 
" style="fill:none;stroke:#ff7f0e;stroke-linecap:square;stroke-width:1.5;"/>
   </g>
   <g id="line2d_17">
    <path clip-path="url(#p100a2786cd)" d="M 184.581818 603.501407 
L 329.197707 604.041937 
L 521.748075 604.527829 
L 785.793939 604.958537 
L 996.218182 605.192326 
L 996.218182 605.192326 
" style="fill:none;stroke:#2ca02c;stroke-linecap:square;stroke-width:1.5;"/>
   </g>
   <g id="line2d_18">
    <path clip-path="url(#p100a2786cd)" d="M 184.581818 599.633528 
L 185.394267 602.456051 
L 186.206716 603.802456 
L 187.019165 603.475641 
L 187.831613 602.929755 
L 188.644062 602.933863 
L 191.081409 604.05348 
L 191.893857 604.147761 
L 195.143653 603.914589 
L 200.830794 604.357409 
L 204.08059 604.369191 
L 208.955283 604.52896 
L 218.704668 604.634366 
L 295.887305 604.908461 
L 479.500737 605.096176 
L 855.664537 605.263764 
L 996.218182 605.290909 
L 996.218182 605.290909 
" style="fill:none;stroke:#d62728;stroke-linecap:square;stroke-width:1.5;"/>
   </g>
   <g id="patch_3">
    <path d="M 144 630 
L 144 86.4 
" style="fill:none;stroke:#000000;stroke-linecap:square;stroke-linejoin:miter;stroke-width:0.8;"/>
   </g>
   <g id="patch_4">
    <path d="M 1036.8 630 
L 1036.8 86.4 
" style="fill:none;stroke:#000000;stroke-linecap:square;stroke-linejoin:miter;stroke-width:0.8;"/>
   </g>
   <g id="patch_5">
    <path d="M 144 630 
L 1036.8 630 
" style="fill:none;stroke:#000000;stroke-linecap:square;stroke-linejoin:miter;stroke-width:0.8;"/>
   </g>
   <g id="patch_6">
    <path d="M 144 86.4 
L 1036.8 86.4 
" style="fill:none;stroke:#000000;stroke-linecap:square;stroke-linejoin:miter;stroke-width:0.8;"/>
   </g>
   <g id="text_17">
    <!-- Retinopathy: All 4 implementations -->
    <defs>
     <path d="M 44.390625 34.1875 
Q 47.5625 33.109375 50.5625 29.59375 
Q 53.5625 26.078125 56.59375 19.921875 
L 66.609375 0 
L 56 0 
L 46.6875 18.703125 
Q 43.0625 26.03125 39.671875 28.421875 
Q 36.28125 30.8125 30.421875 30.8125 
L 19.671875 30.8125 
L 19.671875 0 
L 9.8125 0 
L 9.8125 72.90625 
L 32.078125 72.90625 
Q 44.578125 72.90625 50.734375 67.671875 
Q 56.890625 62.453125 56.890625 51.90625 
Q 56.890625 45.015625 53.6875 40.46875 
Q 50.484375 35.9375 44.390625 34.1875 
z
M 19.671875 64.796875 
L 19.671875 38.921875 
L 32.078125 38.921875 
Q 39.203125 38.921875 42.84375 42.21875 
Q 46.484375 45.515625 46.484375 51.90625 
Q 46.484375 58.296875 42.84375 61.546875 
Q 39.203125 64.796875 32.078125 64.796875 
z
" id="DejaVuSans-52"/>
     <path d="M 18.109375 8.203125 
L 18.109375 -20.796875 
L 9.078125 -20.796875 
L 9.078125 54.6875 
L 18.109375 54.6875 
L 18.109375 46.390625 
Q 20.953125 51.265625 25.265625 53.625 
Q 29.59375 56 35.59375 56 
Q 45.5625 56 51.78125 48.09375 
Q 58.015625 40.1875 58.015625 27.296875 
Q 58.015625 14.40625 51.78125 6.484375 
Q 45.5625 -1.421875 35.59375 -1.421875 
Q 29.59375 -1.421875 25.265625 0.953125 
Q 20.953125 3.328125 18.109375 8.203125 
z
M 48.6875 27.296875 
Q 48.6875 37.203125 44.609375 42.84375 
Q 40.53125 48.484375 33.40625 48.484375 
Q 26.265625 48.484375 22.1875 42.84375 
Q 18.109375 37.203125 18.109375 27.296875 
Q 18.109375 17.390625 22.1875 11.75 
Q 26.265625 6.109375 33.40625 6.109375 
Q 40.53125 6.109375 44.609375 11.75 
Q 48.6875 17.390625 48.6875 27.296875 
z
" id="DejaVuSans-70"/>
     <path d="M 54.890625 33.015625 
L 54.890625 0 
L 45.90625 0 
L 45.90625 32.71875 
Q 45.90625 40.484375 42.875 44.328125 
Q 39.84375 48.1875 33.796875 48.1875 
Q 26.515625 48.1875 22.3125 43.546875 
Q 18.109375 38.921875 18.109375 30.90625 
L 18.109375 0 
L 9.078125 0 
L 9.078125 75.984375 
L 18.109375 75.984375 
L 18.109375 46.1875 
Q 21.34375 51.125 25.703125 53.5625 
Q 30.078125 56 35.796875 56 
Q 45.21875 56 50.046875 50.171875 
Q 54.890625 44.34375 54.890625 33.015625 
z
" id="DejaVuSans-68"/>
     <path d="M 32.171875 -5.078125 
Q 28.375 -14.84375 24.75 -17.8125 
Q 21.140625 -20.796875 15.09375 -20.796875 
L 7.90625 -20.796875 
L 7.90625 -13.28125 
L 13.1875 -13.28125 
Q 16.890625 -13.28125 18.9375 -11.515625 
Q 21 -9.765625 23.484375 -3.21875 
L 25.09375 0.875 
L 2.984375 54.6875 
L 12.5 54.6875 
L 29.59375 11.921875 
L 46.6875 54.6875 
L 56.203125 54.6875 
z
" id="DejaVuSans-79"/>
     <path d="M 11.71875 12.40625 
L 22.015625 12.40625 
L 22.015625 0 
L 11.71875 0 
z
M 11.71875 51.703125 
L 22.015625 51.703125 
L 22.015625 39.3125 
L 11.71875 39.3125 
z
" id="DejaVuSans-3a"/>
     <path id="DejaVuSans-20"/>
     <path d="M 34.1875 63.1875 
L 20.796875 26.90625 
L 47.609375 26.90625 
z
M 28.609375 72.90625 
L 39.796875 72.90625 
L 67.578125 0 
L 57.328125 0 
L 50.6875 18.703125 
L 17.828125 18.703125 
L 11.1875 0 
L 0.78125 0 
z
" id="DejaVuSans-41"/>
     <path d="M 9.421875 75.984375 
L 18.40625 75.984375 
L 18.40625 0 
L 9.421875 0 
z
" id="DejaVuSans-6c"/>
     <path d="M 52 44.1875 
Q 55.375 50.25 60.0625 53.125 
Q 64.75 56 71.09375 56 
Q 79.640625 56 84.28125 50.015625 
Q 88.921875 44.046875 88.921875 33.015625 
L 88.921875 0 
L 79.890625 0 
L 79.890625 32.71875 
Q 79.890625 40.578125 77.09375 44.375 
Q 74.3125 48.1875 68.609375 48.1875 
Q 61.625 48.1875 57.5625 43.546875 
Q 53.515625 38.921875 53.515625 30.90625 
L 53.515625 0 
L 44.484375 0 
L 44.484375 32.71875 
Q 44.484375 40.625 41.703125 44.40625 
Q 38.921875 48.1875 33.109375 48.1875 
Q 26.21875 48.1875 22.15625 43.53125 
Q 18.109375 38.875 18.109375 30.90625 
L 18.109375 0 
L 9.078125 0 
L 9.078125 54.6875 
L 18.109375 54.6875 
L 18.109375 46.1875 
Q 21.1875 51.21875 25.484375 53.609375 
Q 29.78125 56 35.6875 56 
Q 41.65625 56 45.828125 52.96875 
Q 50 49.953125 52 44.1875 
z
" id="DejaVuSans-6d"/>
    </defs>
    <g transform="translate(437.4747 80.4)scale(0.1728 -0.1728)">
     <use xlink:href="#DejaVuSans-52"/>
     <use x="69.419922" xlink:href="#DejaVuSans-65"/>
     <use x="130.943359" xlink:href="#DejaVuSans-74"/>
     <use x="170.152344" xlink:href="#DejaVuSans-69"/>
     <use x="197.935547" xlink:href="#DejaVuSans-6e"/>
     <use x="261.314453" xlink:href="#DejaVuSans-6f"/>
     <use x="322.496094" xlink:href="#DejaVuSans-70"/>
     <use x="385.972656" xlink:href="#DejaVuSans-61"/>
     <use x="447.251953" xlink:href="#DejaVuSans-74"/>
     <use x="486.460938" xlink:href="#DejaVuSans-68"/>
     <use x="549.839844" xlink:href="#DejaVuSans-79"/>
     <use x="608.910156" xlink:href="#DejaVuSans-3a"/>
     <use x="642.601562" xlink:href="#DejaVuSans-20"/>
     <use x="674.388672" xlink:href="#DejaVuSans-41"/>
     <use x="742.796875" xlink:href="#DejaVuSans-6c"/>
     <use x="770.580078" xlink:href="#DejaVuSans-6c"/>
     <use x="798.363281" xlink:href="#DejaVuSans-20"/>
     <use x="830.150391" xlink:href="#DejaVuSans-34"/>
     <use x="893.773438" xlink:href="#DejaVuSans-20"/>
     <use x="925.560547" xlink:href="#DejaVuSans-69"/>
     <use x="953.34375" xlink:href="#DejaVuSans-6d"/>
     <use x="1050.755859" xlink:href="#DejaVuSans-70"/>
     <use x="1114.232422" xlink:href="#DejaVuSans-6c"/>
     <use x="1142.015625" xlink:href="#DejaVuSans-65"/>
     <use x="1203.539062" xlink:href="#DejaVuSans-6d"/>
     <use x="1300.951172" xlink:href="#DejaVuSans-65"/>
     <use x="1362.474609" xlink:href="#DejaVuSans-6e"/>
     <use x="1425.853516" xlink:href="#DejaVuSans-74"/>
     <use x="1465.0625" xlink:href="#DejaVuSans-61"/>
     <use x="1526.341797" xlink:href="#DejaVuSans-74"/>
     <use x="1565.550781" xlink:href="#DejaVuSans-69"/>
     <use x="1593.333984" xlink:href="#DejaVuSans-6f"/>
     <use x="1654.515625" xlink:href="#DejaVuSans-6e"/>
     <use x="1717.894531" xlink:href="#DejaVuSans-73"/>
    </g>
   </g>
   <g id="legend_1">
    <g id="patch_7">
     <path d="M 967.792187 153.1125 
L 1029.8 153.1125 
Q 1031.8 153.1125 1031.8 151.1125 
L 1031.8 93.4 
Q 1031.8 91.4 1029.8 91.4 
L 967.792187 91.4 
Q 965.792187 91.4 965.792187 93.4 
L 965.792187 151.1125 
Q 965.792187 153.1125 967.792187 153.1125 
z
" style="fill:#ffffff;opacity:0.8;stroke:#cccccc;stroke-linejoin:miter;"/>
    </g>
    <g id="line2d_19">
     <path d="M 969.792187 99.498437 
L 989.792187 99.498437 
" style="fill:none;stroke:#1f77b4;stroke-linecap:square;stroke-width:1.5;"/>
    </g>
    <g id="line2d_20"/>
    <g id="text_18">
     <!-- GD -->
     <defs>
      <path d="M 59.515625 10.40625 
L 59.515625 29.984375 
L 43.40625 29.984375 
L 43.40625 38.09375 
L 69.28125 38.09375 
L 69.28125 6.78125 
Q 63.578125 2.734375 56.6875 0.65625 
Q 49.8125 -1.421875 42 -1.421875 
Q 24.90625 -1.421875 15.25 8.5625 
Q 5.609375 18.5625 5.609375 36.375 
Q 5.609375 54.25 15.25 64.234375 
Q 24.90625 74.21875 42 74.21875 
Q 49.125 74.21875 55.546875 72.453125 
Q 61.96875 70.703125 67.390625 67.28125 
L 67.390625 56.78125 
Q 61.921875 61.421875 55.765625 63.765625 
Q 49.609375 66.109375 42.828125 66.109375 
Q 29.4375 66.109375 22.71875 58.640625 
Q 16.015625 51.171875 16.015625 36.375 
Q 16.015625 21.625 22.71875 14.15625 
Q 29.4375 6.6875 42.828125 6.6875 
Q 48.046875 6.6875 52.140625 7.59375 
Q 56.25 8.5 59.515625 10.40625 
z
" id="DejaVuSans-47"/>
      <path d="M 19.671875 64.796875 
L 19.671875 8.109375 
L 31.59375 8.109375 
Q 46.6875 8.109375 53.6875 14.9375 
Q 60.6875 21.78125 60.6875 36.53125 
Q 60.6875 51.171875 53.6875 57.984375 
Q 46.6875 64.796875 31.59375 64.796875 
z
M 9.8125 72.90625 
L 30.078125 72.90625 
Q 51.265625 72.90625 61.171875 64.09375 
Q 71.09375 55.28125 71.09375 36.53125 
Q 71.09375 17.671875 61.125 8.828125 
Q 51.171875 0 30.078125 0 
L 9.8125 0 
z
" id="DejaVuSans-44"/>
     </defs>
     <g transform="translate(997.792187 102.998437)scale(0.1 -0.1)">
      <use xlink:href="#DejaVuSans-47"/>
      <use x="77.490234" xlink:href="#DejaVuSans-44"/>
     </g>
    </g>
    <g id="line2d_21">
     <path d="M 969.792187 114.176562 
L 989.792187 114.176562 
" style="fill:none;stroke:#ff7f0e;stroke-linecap:square;stroke-width:1.5;"/>
    </g>
    <g id="line2d_22"/>
    <g id="text_19">
     <!-- SGD -->
     <defs>
      <path d="M 53.515625 70.515625 
L 53.515625 60.890625 
Q 47.90625 63.578125 42.921875 64.890625 
Q 37.9375 66.21875 33.296875 66.21875 
Q 25.25 66.21875 20.875 63.09375 
Q 16.5 59.96875 16.5 54.203125 
Q 16.5 49.359375 19.40625 46.890625 
Q 22.3125 44.4375 30.421875 42.921875 
L 36.375 41.703125 
Q 47.40625 39.59375 52.65625 34.296875 
Q 57.90625 29 57.90625 20.125 
Q 57.90625 9.515625 50.796875 4.046875 
Q 43.703125 -1.421875 29.984375 -1.421875 
Q 24.8125 -1.421875 18.96875 -0.25 
Q 13.140625 0.921875 6.890625 3.21875 
L 6.890625 13.375 
Q 12.890625 10.015625 18.65625 8.296875 
Q 24.421875 6.59375 29.984375 6.59375 
Q 38.421875 6.59375 43.015625 9.90625 
Q 47.609375 13.234375 47.609375 19.390625 
Q 47.609375 24.75 44.3125 27.78125 
Q 41.015625 30.8125 33.5 32.328125 
L 27.484375 33.5 
Q 16.453125 35.6875 11.515625 40.375 
Q 6.59375 45.0625 6.59375 53.421875 
Q 6.59375 63.09375 13.40625 68.65625 
Q 20.21875 74.21875 32.171875 74.21875 
Q 37.3125 74.21875 42.625 73.28125 
Q 47.953125 72.359375 53.515625 70.515625 
z
" id="DejaVuSans-53"/>
     </defs>
     <g transform="translate(997.792187 117.676562)scale(0.1 -0.1)">
      <use xlink:href="#DejaVuSans-53"/>
      <use x="63.476562" xlink:href="#DejaVuSans-47"/>
      <use x="140.966797" xlink:href="#DejaVuSans-44"/>
     </g>
    </g>
    <g id="line2d_23">
     <path d="M 969.792187 128.854687 
L 989.792187 128.854687 
" style="fill:none;stroke:#2ca02c;stroke-linecap:square;stroke-width:1.5;"/>
    </g>
    <g id="line2d_24"/>
    <g id="text_20">
     <!-- IRLS -->
     <g transform="translate(997.792187 132.354687)scale(0.1 -0.1)">
      <use xlink:href="#DejaVuSans-49"/>
      <use x="29.492188" xlink:href="#DejaVuSans-52"/>
      <use x="98.974609" xlink:href="#DejaVuSans-4c"/>
      <use x="154.6875" xlink:href="#DejaVuSans-53"/>
     </g>
    </g>
    <g id="line2d_25">
     <path d="M 969.792187 143.532812 
L 989.792187 143.532812 
" style="fill:none;stroke:#d62728;stroke-linecap:square;stroke-width:1.5;"/>
    </g>
    <g id="line2d_26"/>
    <g id="text_21">
     <!-- ADAM -->
     <defs>
      <path d="M 9.8125 72.90625 
L 24.515625 72.90625 
L 43.109375 23.296875 
L 61.8125 72.90625 
L 76.515625 72.90625 
L 76.515625 0 
L 66.890625 0 
L 66.890625 64.015625 
L 48.09375 14.015625 
L 38.1875 14.015625 
L 19.390625 64.015625 
L 19.390625 0 
L 9.8125 0 
z
" id="DejaVuSans-4d"/>
     </defs>
     <g transform="translate(997.792187 147.032812)scale(0.1 -0.1)">
      <use xlink:href="#DejaVuSans-41"/>
      <use x="68.408203" xlink:href="#DejaVuSans-44"/>
      <use x="145.394531" xlink:href="#DejaVuSans-41"/>
      <use x="213.802734" xlink:href="#DejaVuSans-4d"/>
     </g>
    </g>
   </g>
  </g>
 </g>
 <defs>
  <clipPath id="p100a2786cd">
   <rect height="543.6" width="892.8" x="144" y="86.4"/>
  </clipPath>
 </defs>
</svg>
