<?xml version="1.0" encoding="utf-8" standalone="no"?>
<!DOCTYPE svg PUBLIC "-//W3C//DTD SVG 1.1//EN"
  "http://www.w3.org/Graphics/SVG/1.1/DTD/svg11.dtd">
<!-- Created with matplotlib (http://matplotlib.org/) -->
<svg height="720pt" version="1.1" viewBox="0 0 1152 720" width="1152pt" xmlns="http://www.w3.org/2000/svg" xmlns:xlink="http://www.w3.org/1999/xlink">
 <defs>
  <style type="text/css">
*{stroke-linecap:butt;stroke-linejoin:round;}
  </style>
 </defs>
 <g id="figure_1">
  <g id="patch_1">
   <path d="M 0 720 
L 1152 720 
L 1152 0 
L 0 0 
z
" style="fill:#ffffff;"/>
  </g>
  <g id="axes_1">
   <g id="patch_2">
    <path d="M 144 630 
L 1036.8 630 
L 1036.8 86.4 
L 144 86.4 
z
" style="fill:#ffffff;"/>
   </g>
   <g id="matplotlib.axis_1">
    <g id="xtick_1">
     <g id="line2d_1">
      <defs>
       <path d="M 0 0 
L 0 3.5 
" id="mc0c0f7e906" style="stroke:#000000;stroke-width:0.8;"/>
      </defs>
      <g>
       <use style="stroke:#000000;stroke-width:0.8;" x="184.581818" xlink:href="#mc0c0f7e906" y="630"/>
      </g>
     </g>
     <g id="text_1">
      <!-- 0 -->
      <defs>
       <path d="M 31.78125 66.40625 
Q 24.171875 66.40625 20.328125 58.90625 
Q 16.5 51.421875 16.5 36.375 
Q 16.5 21.390625 20.328125 13.890625 
Q 24.171875 6.390625 31.78125 6.390625 
Q 39.453125 6.390625 43.28125 13.890625 
Q 47.125 21.390625 47.125 36.375 
Q 47.125 51.421875 43.28125 58.90625 
Q 39.453125 66.40625 31.78125 66.40625 
z
M 31.78125 74.21875 
Q 44.046875 74.21875 50.515625 64.515625 
Q 56.984375 54.828125 56.984375 36.375 
Q 56.984375 17.96875 50.515625 8.265625 
Q 44.046875 -1.421875 31.78125 -1.421875 
Q 19.53125 -1.421875 13.0625 8.265625 
Q 6.59375 17.96875 6.59375 36.375 
Q 6.59375 54.828125 13.0625 64.515625 
Q 19.53125 74.21875 31.78125 74.21875 
z
" id="DejaVuSans-30"/>
      </defs>
      <g transform="translate(181.400568 644.598438)scale(0.1 -0.1)">
       <use xlink:href="#DejaVuSans-30"/>
      </g>
     </g>
    </g>
    <g id="xtick_2">
     <g id="line2d_2">
      <g>
       <use style="stroke:#000000;stroke-width:0.8;" x="347.071581" xlink:href="#mc0c0f7e906" y="630"/>
      </g>
     </g>
     <g id="text_2">
      <!-- 200 -->
      <defs>
       <path d="M 19.1875 8.296875 
L 53.609375 8.296875 
L 53.609375 0 
L 7.328125 0 
L 7.328125 8.296875 
Q 12.9375 14.109375 22.625 23.890625 
Q 32.328125 33.6875 34.8125 36.53125 
Q 39.546875 41.84375 41.421875 45.53125 
Q 43.3125 49.21875 43.3125 52.78125 
Q 43.3125 58.59375 39.234375 62.25 
Q 35.15625 65.921875 28.609375 65.921875 
Q 23.96875 65.921875 18.8125 64.3125 
Q 13.671875 62.703125 7.8125 59.421875 
L 7.8125 69.390625 
Q 13.765625 71.78125 18.9375 73 
Q 24.125 74.21875 28.421875 74.21875 
Q 39.75 74.21875 46.484375 68.546875 
Q 53.21875 62.890625 53.21875 53.421875 
Q 53.21875 48.921875 51.53125 44.890625 
Q 49.859375 40.875 45.40625 35.40625 
Q 44.1875 33.984375 37.640625 27.21875 
Q 31.109375 20.453125 19.1875 8.296875 
z
" id="DejaVuSans-32"/>
      </defs>
      <g transform="translate(337.527831 644.598438)scale(0.1 -0.1)">
       <use xlink:href="#DejaVuSans-32"/>
       <use x="63.623047" xlink:href="#DejaVuSans-30"/>
       <use x="127.246094" xlink:href="#DejaVuSans-30"/>
      </g>
     </g>
    </g>
    <g id="xtick_3">
     <g id="line2d_3">
      <g>
       <use style="stroke:#000000;stroke-width:0.8;" x="509.561343" xlink:href="#mc0c0f7e906" y="630"/>
      </g>
     </g>
     <g id="text_3">
      <!-- 400 -->
      <defs>
       <path d="M 37.796875 64.3125 
L 12.890625 25.390625 
L 37.796875 25.390625 
z
M 35.203125 72.90625 
L 47.609375 72.90625 
L 47.609375 25.390625 
L 58.015625 25.390625 
L 58.015625 17.1875 
L 47.609375 17.1875 
L 47.609375 0 
L 37.796875 0 
L 37.796875 17.1875 
L 4.890625 17.1875 
L 4.890625 26.703125 
z
" id="DejaVuSans-34"/>
      </defs>
      <g transform="translate(500.017593 644.598438)scale(0.1 -0.1)">
       <use xlink:href="#DejaVuSans-34"/>
       <use x="63.623047" xlink:href="#DejaVuSans-30"/>
       <use x="127.246094" xlink:href="#DejaVuSans-30"/>
      </g>
     </g>
    </g>
    <g id="xtick_4">
     <g id="line2d_4">
      <g>
       <use style="stroke:#000000;stroke-width:0.8;" x="672.051106" xlink:href="#mc0c0f7e906" y="630"/>
      </g>
     </g>
     <g id="text_4">
      <!-- 600 -->
      <defs>
       <path d="M 33.015625 40.375 
Q 26.375 40.375 22.484375 35.828125 
Q 18.609375 31.296875 18.609375 23.390625 
Q 18.609375 15.53125 22.484375 10.953125 
Q 26.375 6.390625 33.015625 6.390625 
Q 39.65625 6.390625 43.53125 10.953125 
Q 47.40625 15.53125 47.40625 23.390625 
Q 47.40625 31.296875 43.53125 35.828125 
Q 39.65625 40.375 33.015625 40.375 
z
M 52.59375 71.296875 
L 52.59375 62.3125 
Q 48.875 64.0625 45.09375 64.984375 
Q 41.3125 65.921875 37.59375 65.921875 
Q 27.828125 65.921875 22.671875 59.328125 
Q 17.53125 52.734375 16.796875 39.40625 
Q 19.671875 43.65625 24.015625 45.921875 
Q 28.375 48.1875 33.59375 48.1875 
Q 44.578125 48.1875 50.953125 41.515625 
Q 57.328125 34.859375 57.328125 23.390625 
Q 57.328125 12.15625 50.6875 5.359375 
Q 44.046875 -1.421875 33.015625 -1.421875 
Q 20.359375 -1.421875 13.671875 8.265625 
Q 6.984375 17.96875 6.984375 36.375 
Q 6.984375 53.65625 15.1875 63.9375 
Q 23.390625 74.21875 37.203125 74.21875 
Q 40.921875 74.21875 44.703125 73.484375 
Q 48.484375 72.75 52.59375 71.296875 
z
" id="DejaVuSans-36"/>
      </defs>
      <g transform="translate(662.507356 644.598438)scale(0.1 -0.1)">
       <use xlink:href="#DejaVuSans-36"/>
       <use x="63.623047" xlink:href="#DejaVuSans-30"/>
       <use x="127.246094" xlink:href="#DejaVuSans-30"/>
      </g>
     </g>
    </g>
    <g id="xtick_5">
     <g id="line2d_5">
      <g>
       <use style="stroke:#000000;stroke-width:0.8;" x="834.540868" xlink:href="#mc0c0f7e906" y="630"/>
      </g>
     </g>
     <g id="text_5">
      <!-- 800 -->
      <defs>
       <path d="M 31.78125 34.625 
Q 24.75 34.625 20.71875 30.859375 
Q 16.703125 27.09375 16.703125 20.515625 
Q 16.703125 13.921875 20.71875 10.15625 
Q 24.75 6.390625 31.78125 6.390625 
Q 38.8125 6.390625 42.859375 10.171875 
Q 46.921875 13.96875 46.921875 20.515625 
Q 46.921875 27.09375 42.890625 30.859375 
Q 38.875 34.625 31.78125 34.625 
z
M 21.921875 38.8125 
Q 15.578125 40.375 12.03125 44.71875 
Q 8.5 49.078125 8.5 55.328125 
Q 8.5 64.0625 14.71875 69.140625 
Q 20.953125 74.21875 31.78125 74.21875 
Q 42.671875 74.21875 48.875 69.140625 
Q 55.078125 64.0625 55.078125 55.328125 
Q 55.078125 49.078125 51.53125 44.71875 
Q 48 40.375 41.703125 38.8125 
Q 48.828125 37.15625 52.796875 32.3125 
Q 56.78125 27.484375 56.78125 20.515625 
Q 56.78125 9.90625 50.3125 4.234375 
Q 43.84375 -1.421875 31.78125 -1.421875 
Q 19.734375 -1.421875 13.25 4.234375 
Q 6.78125 9.90625 6.78125 20.515625 
Q 6.78125 27.484375 10.78125 32.3125 
Q 14.796875 37.15625 21.921875 38.8125 
z
M 18.3125 54.390625 
Q 18.3125 48.734375 21.84375 45.5625 
Q 25.390625 42.390625 31.78125 42.390625 
Q 38.140625 42.390625 41.71875 45.5625 
Q 45.3125 48.734375 45.3125 54.390625 
Q 45.3125 60.0625 41.71875 63.234375 
Q 38.140625 66.40625 31.78125 66.40625 
Q 25.390625 66.40625 21.84375 63.234375 
Q 18.3125 60.0625 18.3125 54.390625 
z
" id="DejaVuSans-38"/>
      </defs>
      <g transform="translate(824.997118 644.598438)scale(0.1 -0.1)">
       <use xlink:href="#DejaVuSans-38"/>
       <use x="63.623047" xlink:href="#DejaVuSans-30"/>
       <use x="127.246094" xlink:href="#DejaVuSans-30"/>
      </g>
     </g>
    </g>
    <g id="xtick_6">
     <g id="line2d_6">
      <g>
       <use style="stroke:#000000;stroke-width:0.8;" x="997.030631" xlink:href="#mc0c0f7e906" y="630"/>
      </g>
     </g>
     <g id="text_6">
      <!-- 1000 -->
      <defs>
       <path d="M 12.40625 8.296875 
L 28.515625 8.296875 
L 28.515625 63.921875 
L 10.984375 60.40625 
L 10.984375 69.390625 
L 28.421875 72.90625 
L 38.28125 72.90625 
L 38.28125 8.296875 
L 54.390625 8.296875 
L 54.390625 0 
L 12.40625 0 
z
" id="DejaVuSans-31"/>
      </defs>
      <g transform="translate(984.305631 644.598438)scale(0.1 -0.1)">
       <use xlink:href="#DejaVuSans-31"/>
       <use x="63.623047" xlink:href="#DejaVuSans-30"/>
       <use x="127.246094" xlink:href="#DejaVuSans-30"/>
       <use x="190.869141" xlink:href="#DejaVuSans-30"/>
      </g>
     </g>
    </g>
    <g id="text_7">
     <!-- Iteration -->
     <defs>
      <path d="M 9.8125 72.90625 
L 19.671875 72.90625 
L 19.671875 0 
L 9.8125 0 
z
" id="DejaVuSans-49"/>
      <path d="M 18.3125 70.21875 
L 18.3125 54.6875 
L 36.8125 54.6875 
L 36.8125 47.703125 
L 18.3125 47.703125 
L 18.3125 18.015625 
Q 18.3125 11.328125 20.140625 9.421875 
Q 21.96875 7.515625 27.59375 7.515625 
L 36.8125 7.515625 
L 36.8125 0 
L 27.59375 0 
Q 17.1875 0 13.234375 3.875 
Q 9.28125 7.765625 9.28125 18.015625 
L 9.28125 47.703125 
L 2.6875 47.703125 
L 2.6875 54.6875 
L 9.28125 54.6875 
L 9.28125 70.21875 
z
" id="DejaVuSans-74"/>
      <path d="M 56.203125 29.59375 
L 56.203125 25.203125 
L 14.890625 25.203125 
Q 15.484375 15.921875 20.484375 11.0625 
Q 25.484375 6.203125 34.421875 6.203125 
Q 39.59375 6.203125 44.453125 7.46875 
Q 49.3125 8.734375 54.109375 11.28125 
L 54.109375 2.78125 
Q 49.265625 0.734375 44.1875 -0.34375 
Q 39.109375 -1.421875 33.890625 -1.421875 
Q 20.796875 -1.421875 13.15625 6.1875 
Q 5.515625 13.8125 5.515625 26.8125 
Q 5.515625 40.234375 12.765625 48.109375 
Q 20.015625 56 32.328125 56 
Q 43.359375 56 49.78125 48.890625 
Q 56.203125 41.796875 56.203125 29.59375 
z
M 47.21875 32.234375 
Q 47.125 39.59375 43.09375 43.984375 
Q 39.0625 48.390625 32.421875 48.390625 
Q 24.90625 48.390625 20.390625 44.140625 
Q 15.875 39.890625 15.1875 32.171875 
z
" id="DejaVuSans-65"/>
      <path d="M 41.109375 46.296875 
Q 39.59375 47.171875 37.8125 47.578125 
Q 36.03125 48 33.890625 48 
Q 26.265625 48 22.1875 43.046875 
Q 18.109375 38.09375 18.109375 28.8125 
L 18.109375 0 
L 9.078125 0 
L 9.078125 54.6875 
L 18.109375 54.6875 
L 18.109375 46.1875 
Q 20.953125 51.171875 25.484375 53.578125 
Q 30.03125 56 36.53125 56 
Q 37.453125 56 38.578125 55.875 
Q 39.703125 55.765625 41.0625 55.515625 
z
" id="DejaVuSans-72"/>
      <path d="M 34.28125 27.484375 
Q 23.390625 27.484375 19.1875 25 
Q 14.984375 22.515625 14.984375 16.5 
Q 14.984375 11.71875 18.140625 8.90625 
Q 21.296875 6.109375 26.703125 6.109375 
Q 34.1875 6.109375 38.703125 11.40625 
Q 43.21875 16.703125 43.21875 25.484375 
L 43.21875 27.484375 
z
M 52.203125 31.203125 
L 52.203125 0 
L 43.21875 0 
L 43.21875 8.296875 
Q 40.140625 3.328125 35.546875 0.953125 
Q 30.953125 -1.421875 24.3125 -1.421875 
Q 15.921875 -1.421875 10.953125 3.296875 
Q 6 8.015625 6 15.921875 
Q 6 25.140625 12.171875 29.828125 
Q 18.359375 34.515625 30.609375 34.515625 
L 43.21875 34.515625 
L 43.21875 35.40625 
Q 43.21875 41.609375 39.140625 45 
Q 35.0625 48.390625 27.6875 48.390625 
Q 23 48.390625 18.546875 47.265625 
Q 14.109375 46.140625 10.015625 43.890625 
L 10.015625 52.203125 
Q 14.9375 54.109375 19.578125 55.046875 
Q 24.21875 56 28.609375 56 
Q 40.484375 56 46.34375 49.84375 
Q 52.203125 43.703125 52.203125 31.203125 
z
" id="DejaVuSans-61"/>
      <path d="M 9.421875 54.6875 
L 18.40625 54.6875 
L 18.40625 0 
L 9.421875 0 
z
M 9.421875 75.984375 
L 18.40625 75.984375 
L 18.40625 64.59375 
L 9.421875 64.59375 
z
" id="DejaVuSans-69"/>
      <path d="M 30.609375 48.390625 
Q 23.390625 48.390625 19.1875 42.75 
Q 14.984375 37.109375 14.984375 27.296875 
Q 14.984375 17.484375 19.15625 11.84375 
Q 23.34375 6.203125 30.609375 6.203125 
Q 37.796875 6.203125 41.984375 11.859375 
Q 46.1875 17.53125 46.1875 27.296875 
Q 46.1875 37.015625 41.984375 42.703125 
Q 37.796875 48.390625 30.609375 48.390625 
z
M 30.609375 56 
Q 42.328125 56 49.015625 48.375 
Q 55.71875 40.765625 55.71875 27.296875 
Q 55.71875 13.875 49.015625 6.21875 
Q 42.328125 -1.421875 30.609375 -1.421875 
Q 18.84375 -1.421875 12.171875 6.21875 
Q 5.515625 13.875 5.515625 27.296875 
Q 5.515625 40.765625 12.171875 48.375 
Q 18.84375 56 30.609375 56 
z
" id="DejaVuSans-6f"/>
      <path d="M 54.890625 33.015625 
L 54.890625 0 
L 45.90625 0 
L 45.90625 32.71875 
Q 45.90625 40.484375 42.875 44.328125 
Q 39.84375 48.1875 33.796875 48.1875 
Q 26.515625 48.1875 22.3125 43.546875 
Q 18.109375 38.921875 18.109375 30.90625 
L 18.109375 0 
L 9.078125 0 
L 9.078125 54.6875 
L 18.109375 54.6875 
L 18.109375 46.1875 
Q 21.34375 51.125 25.703125 53.5625 
Q 30.078125 56 35.796875 56 
Q 45.21875 56 50.046875 50.171875 
Q 54.890625 44.34375 54.890625 33.015625 
z
" id="DejaVuSans-6e"/>
     </defs>
     <g transform="translate(553.75155 663.808225)scale(0.1728 -0.1728)">
      <use xlink:href="#DejaVuSans-49"/>
      <use x="29.492188" xlink:href="#DejaVuSans-74"/>
      <use x="68.701172" xlink:href="#DejaVuSans-65"/>
      <use x="130.224609" xlink:href="#DejaVuSans-72"/>
      <use x="171.337891" xlink:href="#DejaVuSans-61"/>
      <use x="232.617188" xlink:href="#DejaVuSans-74"/>
      <use x="271.826172" xlink:href="#DejaVuSans-69"/>
      <use x="299.609375" xlink:href="#DejaVuSans-6f"/>
      <use x="360.791016" xlink:href="#DejaVuSans-6e"/>
     </g>
    </g>
   </g>
   <g id="matplotlib.axis_2">
    <g id="ytick_1">
     <g id="line2d_7">
      <defs>
       <path d="M 0 0 
L -3.5 0 
" id="m15c68b3e0e" style="stroke:#000000;stroke-width:0.8;"/>
      </defs>
      <g>
       <use style="stroke:#000000;stroke-width:0.8;" x="144" xlink:href="#m15c68b3e0e" y="630"/>
      </g>
     </g>
     <g id="text_8">
      <!-- 0.0 -->
      <defs>
       <path d="M 10.6875 12.40625 
L 21 12.40625 
L 21 0 
L 10.6875 0 
z
" id="DejaVuSans-2e"/>
      </defs>
      <g transform="translate(121.096875 633.799219)scale(0.1 -0.1)">
       <use xlink:href="#DejaVuSans-30"/>
       <use x="63.623047" xlink:href="#DejaVuSans-2e"/>
       <use x="95.410156" xlink:href="#DejaVuSans-30"/>
      </g>
     </g>
    </g>
    <g id="ytick_2">
     <g id="line2d_8">
      <g>
       <use style="stroke:#000000;stroke-width:0.8;" x="144" xlink:href="#m15c68b3e0e" y="539.4"/>
      </g>
     </g>
     <g id="text_9">
      <!-- 0.5 -->
      <defs>
       <path d="M 10.796875 72.90625 
L 49.515625 72.90625 
L 49.515625 64.59375 
L 19.828125 64.59375 
L 19.828125 46.734375 
Q 21.96875 47.46875 24.109375 47.828125 
Q 26.265625 48.1875 28.421875 48.1875 
Q 40.625 48.1875 47.75 41.5 
Q 54.890625 34.8125 54.890625 23.390625 
Q 54.890625 11.625 47.5625 5.09375 
Q 40.234375 -1.421875 26.90625 -1.421875 
Q 22.3125 -1.421875 17.546875 -0.640625 
Q 12.796875 0.140625 7.71875 1.703125 
L 7.71875 11.625 
Q 12.109375 9.234375 16.796875 8.0625 
Q 21.484375 6.890625 26.703125 6.890625 
Q 35.15625 6.890625 40.078125 11.328125 
Q 45.015625 15.765625 45.015625 23.390625 
Q 45.015625 31 40.078125 35.4375 
Q 35.15625 39.890625 26.703125 39.890625 
Q 22.75 39.890625 18.8125 39.015625 
Q 14.890625 38.140625 10.796875 36.28125 
z
" id="DejaVuSans-35"/>
      </defs>
      <g transform="translate(121.096875 543.199219)scale(0.1 -0.1)">
       <use xlink:href="#DejaVuSans-30"/>
       <use x="63.623047" xlink:href="#DejaVuSans-2e"/>
       <use x="95.410156" xlink:href="#DejaVuSans-35"/>
      </g>
     </g>
    </g>
    <g id="ytick_3">
     <g id="line2d_9">
      <g>
       <use style="stroke:#000000;stroke-width:0.8;" x="144" xlink:href="#m15c68b3e0e" y="448.8"/>
      </g>
     </g>
     <g id="text_10">
      <!-- 1.0 -->
      <g transform="translate(121.096875 452.599219)scale(0.1 -0.1)">
       <use xlink:href="#DejaVuSans-31"/>
       <use x="63.623047" xlink:href="#DejaVuSans-2e"/>
       <use x="95.410156" xlink:href="#DejaVuSans-30"/>
      </g>
     </g>
    </g>
    <g id="ytick_4">
     <g id="line2d_10">
      <g>
       <use style="stroke:#000000;stroke-width:0.8;" x="144" xlink:href="#m15c68b3e0e" y="358.2"/>
      </g>
     </g>
     <g id="text_11">
      <!-- 1.5 -->
      <g transform="translate(121.096875 361.999219)scale(0.1 -0.1)">
       <use xlink:href="#DejaVuSans-31"/>
       <use x="63.623047" xlink:href="#DejaVuSans-2e"/>
       <use x="95.410156" xlink:href="#DejaVuSans-35"/>
      </g>
     </g>
    </g>
    <g id="ytick_5">
     <g id="line2d_11">
      <g>
       <use style="stroke:#000000;stroke-width:0.8;" x="144" xlink:href="#m15c68b3e0e" y="267.6"/>
      </g>
     </g>
     <g id="text_12">
      <!-- 2.0 -->
      <g transform="translate(121.096875 271.399219)scale(0.1 -0.1)">
       <use xlink:href="#DejaVuSans-32"/>
       <use x="63.623047" xlink:href="#DejaVuSans-2e"/>
       <use x="95.410156" xlink:href="#DejaVuSans-30"/>
      </g>
     </g>
    </g>
    <g id="ytick_6">
     <g id="line2d_12">
      <g>
       <use style="stroke:#000000;stroke-width:0.8;" x="144" xlink:href="#m15c68b3e0e" y="177"/>
      </g>
     </g>
     <g id="text_13">
      <!-- 2.5 -->
      <g transform="translate(121.096875 180.799219)scale(0.1 -0.1)">
       <use xlink:href="#DejaVuSans-32"/>
       <use x="63.623047" xlink:href="#DejaVuSans-2e"/>
       <use x="95.410156" xlink:href="#DejaVuSans-35"/>
      </g>
     </g>
    </g>
    <g id="ytick_7">
     <g id="line2d_13">
      <g>
       <use style="stroke:#000000;stroke-width:0.8;" x="144" xlink:href="#m15c68b3e0e" y="86.4"/>
      </g>
     </g>
     <g id="text_14">
      <!-- 3.0 -->
      <defs>
       <path d="M 40.578125 39.3125 
Q 47.65625 37.796875 51.625 33 
Q 55.609375 28.21875 55.609375 21.1875 
Q 55.609375 10.40625 48.1875 4.484375 
Q 40.765625 -1.421875 27.09375 -1.421875 
Q 22.515625 -1.421875 17.65625 -0.515625 
Q 12.796875 0.390625 7.625 2.203125 
L 7.625 11.71875 
Q 11.71875 9.328125 16.59375 8.109375 
Q 21.484375 6.890625 26.8125 6.890625 
Q 36.078125 6.890625 40.9375 10.546875 
Q 45.796875 14.203125 45.796875 21.1875 
Q 45.796875 27.640625 41.28125 31.265625 
Q 36.765625 34.90625 28.71875 34.90625 
L 20.21875 34.90625 
L 20.21875 43.015625 
L 29.109375 43.015625 
Q 36.375 43.015625 40.234375 45.921875 
Q 44.09375 48.828125 44.09375 54.296875 
Q 44.09375 59.90625 40.109375 62.90625 
Q 36.140625 65.921875 28.71875 65.921875 
Q 24.65625 65.921875 20.015625 65.03125 
Q 15.375 64.15625 9.8125 62.3125 
L 9.8125 71.09375 
Q 15.4375 72.65625 20.34375 73.4375 
Q 25.25 74.21875 29.59375 74.21875 
Q 40.828125 74.21875 47.359375 69.109375 
Q 53.90625 64.015625 53.90625 55.328125 
Q 53.90625 49.265625 50.4375 45.09375 
Q 46.96875 40.921875 40.578125 39.3125 
z
" id="DejaVuSans-33"/>
      </defs>
      <g transform="translate(121.096875 90.199219)scale(0.1 -0.1)">
       <use xlink:href="#DejaVuSans-33"/>
       <use x="63.623047" xlink:href="#DejaVuSans-2e"/>
       <use x="95.410156" xlink:href="#DejaVuSans-30"/>
      </g>
     </g>
    </g>
    <g id="text_15">
     <!-- Loss -->
     <defs>
      <path d="M 9.8125 72.90625 
L 19.671875 72.90625 
L 19.671875 8.296875 
L 55.171875 8.296875 
L 55.171875 0 
L 9.8125 0 
z
" id="DejaVuSans-4c"/>
      <path d="M 44.28125 53.078125 
L 44.28125 44.578125 
Q 40.484375 46.53125 36.375 47.5 
Q 32.28125 48.484375 27.875 48.484375 
Q 21.1875 48.484375 17.84375 46.4375 
Q 14.5 44.390625 14.5 40.28125 
Q 14.5 37.15625 16.890625 35.375 
Q 19.28125 33.59375 26.515625 31.984375 
L 29.59375 31.296875 
Q 39.15625 29.25 43.1875 25.515625 
Q 47.21875 21.78125 47.21875 15.09375 
Q 47.21875 7.46875 41.1875 3.015625 
Q 35.15625 -1.421875 24.609375 -1.421875 
Q 20.21875 -1.421875 15.453125 -0.5625 
Q 10.6875 0.296875 5.421875 2 
L 5.421875 11.28125 
Q 10.40625 8.6875 15.234375 7.390625 
Q 20.0625 6.109375 24.8125 6.109375 
Q 31.15625 6.109375 34.5625 8.28125 
Q 37.984375 10.453125 37.984375 14.40625 
Q 37.984375 18.0625 35.515625 20.015625 
Q 33.0625 21.96875 24.703125 23.78125 
L 21.578125 24.515625 
Q 13.234375 26.265625 9.515625 29.90625 
Q 5.8125 33.546875 5.8125 39.890625 
Q 5.8125 47.609375 11.28125 51.796875 
Q 16.75 56 26.8125 56 
Q 31.78125 56 36.171875 55.265625 
Q 40.578125 54.546875 44.28125 53.078125 
z
" id="DejaVuSans-73"/>
     </defs>
     <g transform="translate(113.503175 377.30115)rotate(-90)scale(0.1728 -0.1728)">
      <use xlink:href="#DejaVuSans-4c"/>
      <use x="55.697266" xlink:href="#DejaVuSans-6f"/>
      <use x="116.878906" xlink:href="#DejaVuSans-73"/>
      <use x="168.978516" xlink:href="#DejaVuSans-73"/>
     </g>
    </g>
   </g>
   <g id="line2d_14">
    <path clip-path="url(#p358c0ad820)" d="M 184.581818 449.955652 
L 185.394267 68.88486 
L 186.206716 382.528841 
L 186.36872 -1 
M 190.194066 -1 
L 190.26896 65.387923 
L 191.081409 53.407671 
L 191.107156 -1 
M 193.350309 -1 
L 193.518755 229.827 
L 193.714868 -1 
M 196.654143 -1 
L 196.76855 290.907202 
L 196.887284 -1 
M 199.812443 -1 
L 200.018346 355.661729 
L 200.177327 -1 
M 201.476034 -1 
L 201.643243 378.903166 
L 202.455692 386.689111 
L 202.721031 -1 
M 203.819134 -1 
L 204.08059 378.32234 
L 204.402278 -1 
M 205.421182 -1 
L 205.705487 310.511775 
L 205.82112 -1 
M 207.281071 -1 
L 207.330385 120.306901 
L 208.142834 70.718394 
L 208.955283 275.228974 
L 209.228117 -1 
M 211.784283 -1 
L 212.205078 138.174745 
L 212.427982 -1 
M 213.657895 -1 
L 213.829975 97.914859 
L 213.892799 -1 
M 215.523409 -1 
L 216.267322 63.624069 
L 216.497407 -1 
M 220.175302 -1 
L 220.329566 284.767083 
L 220.450644 -1 
M 227.219471 -1 
L 227.641605 381.502763 
L 228.202757 -1 
M 228.866117 -1 
L 229.266503 165.440172 
L 230.078952 301.116773 
L 230.8914 78.257875 
L 231.703849 62.931153 
L 231.734948 -1 
M 234.023004 -1 
L 234.141196 336.525635 
L 234.544143 -1 
M 236.880553 -1 
L 237.390991 342.644226 
L 237.785612 -1 
M 238.708524 -1 
L 239.015889 220.419347 
L 239.416566 -1 
M 242.136908 -1 
L 242.265684 236.619493 
L 242.641379 -1 
M 247.807409 -1 
L 247.952826 336.000659 
L 248.765274 300.302097 
L 248.866505 -1 
M 251.59863 -1 
L 252.01507 188.877808 
L 252.555712 -1 
M 256.797105 -1 
L 256.889762 181.163973 
L 257.702211 267.235449 
L 258.51466 314.758245 
L 259.327109 138.001008 
L 259.50418 -1 
M 263.729129 -1 
L 264.201802 196.714196 
L 264.393674 -1 
M 269.028901 -1 
L 269.076495 132.838854 
L 269.124173 -1 
M 272.30073 -1 
L 272.32629 55.320527 
L 273.138739 276.090141 
L 273.951188 334.225485 
L 274.108953 -1 
M 275.401137 -1 
L 275.576085 380.753346 
L 276.388534 314.890324 
L 277.200983 362.654139 
L 278.013432 296.734393 
L 278.82588 382.583254 
L 279.257321 -1 
M 281.061573 -1 
L 281.263227 289.88198 
L 281.397405 -1 
M 286.831872 -1 
L 286.950369 285.322936 
L 287.762817 234.591239 
L 288.232769 -1 
M 292.531796 -1 
L 292.63751 183.427736 
L 293.449959 110.650231 
L 293.64121 -1 
M 295.681365 -1 
L 295.887305 300.241728 
L 296.128705 -1 
M 299.902639 -1 
L 299.94955 103.618381 
L 300.318894 -1 
M 304.666372 -1 
L 304.824242 321.417148 
L 305.350486 -1 
M 306.004036 -1 
L 306.44914 211.470402 
L 306.540395 -1 
M 309.226773 -1 
L 309.698935 313.077019 
L 309.888118 -1 
M 317.247967 -1 
L 317.823423 216.152081 
L 318.065501 -1 
M 319.388301 -1 
L 319.448321 39.812793 
L 320.26077 304.700175 
L 321.073219 194.936087 
L 321.355004 -1 
M 324.298794 -1 
L 324.323014 2.872986 
L 325.135463 259.936492 
L 325.242592 -1 
M 329.80032 -1 
L 330.010156 113.495197 
L 330.311661 -1 
M 332.348574 -1 
L 332.447502 235.195942 
L 332.56121 -1 
M 334.713021 -1 
L 334.884848 364.007353 
L 335.109556 -1 
M 336.283477 -1 
L 336.509746 367.52429 
L 337.035437 -1 
M 337.688053 -1 
L 338.134644 244.385106 
L 338.300441 -1 
M 339.766842 -1 
L 340.57199 262.033707 
L 341.169557 -1 
M 342.869999 -1 
L 343.009337 250.178532 
L 343.586108 -1 
M 344.199803 -1 
L 344.634234 116.952566 
L 344.677538 -1 
M 346.236153 -1 
L 346.259132 59.978869 
L 346.2951 -1 
M 351.058218 -1 
L 351.133825 207.313578 
L 351.946274 268.097948 
L 352.758722 304.163467 
L 352.955755 -1 
M 358.935962 -1 
L 359.258313 227.235124 
L 359.473585 -1 
M 361.603563 -1 
L 361.695659 192.324199 
L 362.149619 -1 
M 362.775797 -1 
L 363.320557 309.684128 
L 364.133006 286.617849 
L 364.365894 -1 
M 365.729 -1 
L 365.757903 25.402467 
L 366.570352 50.665979 
L 367.382801 144.567863 
L 368.196111 -1 
M 369.783826 -1 
L 369.820147 55.282238 
L 369.874544 -1 
M 371.337921 -1 
L 371.445045 118.122972 
L 371.565395 -1 
M 373.715365 -1 
L 373.882391 176.378683 
L 374.322499 -1 
M 379.45784 -1 
L 379.569533 152.866795 
L 380.381982 197.108672 
L 381.02028 -1 
M 382.064255 -1 
L 382.819328 285.273024 
L 383.13481 -1 
M 385.045631 -1 
L 385.256675 201.042061 
L 385.36981 -1 
M 386.800102 -1 
L 386.881572 138.191682 
L 386.963999 -1 
M 388.427605 -1 
L 388.50647 131.531008 
L 388.614882 -1 
M 389.909351 -1 
L 390.131368 322.630696 
L 390.976373 -1 
M 392.39087 -1 
L 392.568714 104.824006 
L 392.633261 -1 
M 395.455353 -1 
L 395.818509 166.603416 
L 396.630958 119.53926 
L 396.723841 -1 
M 399.789724 -1 
L 399.880753 173.0767 
L 400.693202 130.389889 
L 400.75373 -1 
M 403.920859 -1 
L 403.942998 61.99256 
L 403.995311 -1 
M 405.39916 -1 
L 405.567895 238.928875 
L 406.380344 234.124729 
L 406.50931 -1 
M 408.611158 -1 
L 408.81769 258.208668 
L 409.630139 181.933503 
L 410.442588 35.794895 
L 411.255037 251.100927 
L 411.361695 -1 
M 412.730293 -1 
L 412.879934 375.635538 
L 413.037319 -1 
M 415.978938 -1 
L 416.12973 385.102686 
L 416.388324 -1 
M 420.860581 -1 
L 421.004423 231.471104 
L 421.816871 229.516006 
L 421.973121 -1 
M 428.278371 -1 
L 428.316462 76.597616 
L 428.951742 -1 
M 431.365145 -1 
L 431.566257 354.783501 
L 432.378706 339.241823 
L 432.614328 -1 
M 433.758295 -1 
L 434.003604 359.279361 
L 434.218558 -1 
M 438.584258 -1 
L 438.878296 262.596185 
L 439.690745 247.943348 
L 439.848065 -1 
M 442.49341 -1 
L 442.940541 301.543166 
L 443.293342 -1 
M 450.009955 -1 
L 450.25258 352.244513 
L 451.065029 357.991583 
L 451.198957 -1 
M 453.293657 -1 
L 453.502375 181.436743 
L 453.970773 -1 
M 454.566788 -1 
L 455.127273 297.088941 
L 455.475424 -1 
M 456.846053 -1 
L 457.564619 329.758507 
L 457.69473 -1 
M 459.149997 -1 
L 459.189517 87.688758 
L 459.257234 -1 
M 461.495687 -1 
L 461.626863 299.034308 
L 461.782485 -1 
M 463.129088 -1 
L 463.251761 224.210681 
L 464.06421 325.071119 
L 464.876658 231.138101 
L 465.689107 299.208611 
L 466.250553 -1 
M 467.059085 -1 
L 467.314005 60.366451 
L 467.362686 -1 
M 468.745386 -1 
L 468.938903 300.024461 
L 469.116895 -1 
M 472.080338 -1 
L 472.188698 261.417555 
L 473.001147 233.824179 
L 473.373822 -1 
M 475.398586 -1 
L 475.438493 103.387737 
L 476.250942 222.252978 
L 476.398437 -1 
M 481.816339 -1 
L 481.938084 118.939912 
L 482.053127 -1 
M 483.324559 -1 
L 483.562981 300.99777 
L 484.079861 -1 
M 489.170708 -1 
L 489.250123 216.964884 
L 490.062572 121.660903 
L 490.813849 -1 
M 492.828181 -1 
L 493.312367 185.715161 
L 494.124816 131.331662 
L 494.588722 -1 
M 496.47029 -1 
L 496.562162 237.902459 
L 497.057457 -1 
M 502.210202 -1 
L 502.249304 101.996719 
L 502.395481 -1 
M 504.534069 -1 
L 504.68665 305.541229 
L 505.35084 -1 
M 505.729396 -1 
L 506.311548 171.967828 
L 507.123997 163.717837 
L 507.454046 -1 
M 508.283545 -1 
L 508.748894 321.770994 
L 509.561343 249.471014 
L 510.373792 149.596982 
L 510.567999 -1 
M 515.139717 -1 
L 515.248485 217.887407 
L 515.367411 -1 
M 517.463284 -1 
L 517.685831 131.672525 
L 517.743842 -1 
M 519.306788 -1 
L 519.310729 7.41071 
L 519.325681 -1 
M 521.675383 -1 
L 521.748075 153.92194 
L 522.302679 -1 
M 522.733852 -1 
L 523.372973 264.58409 
L 523.554549 -1 
M 530.574398 -1 
L 530.685012 191.608064 
L 531.497461 271.46779 
L 532.134696 -1 
M 532.766837 -1 
L 533.122359 57.291419 
L 533.934808 327.037345 
L 534.06997 -1 
M 536.310046 -1 
L 536.372154 78.115874 
L 537.184603 88.793403 
L 537.234383 -1 
M 538.666974 -1 
L 538.8095 291.683292 
L 539.621949 262.286136 
L 539.932951 -1 
M 542.748945 -1 
L 542.871744 189.798878 
L 543.034145 -1 
M 545.095695 -1 
L 545.309091 267.131372 
L 546.12154 135.87196 
L 546.195197 -1 
M 549.233345 -1 
L 549.371335 53.052134 
L 549.405038 -1 
M 550.831011 -1 
L 550.996233 317.82019 
L 551.808681 311.848584 
L 552.62113 152.311622 
L 552.696152 -1 
M 554.134102 -1 
L 554.246028 239.775715 
L 555.058477 341.856095 
L 556.061512 -1 
M 557.901979 -1 
L 558.308272 269.758122 
L 558.407096 -1 
M 562.170981 -1 
L 562.370516 320.366703 
L 562.990476 -1 
M 563.434893 -1 
L 563.995414 221.001899 
L 564.193052 -1 
M 565.422722 -1 
L 565.620311 220.928928 
L 565.794401 -1 
M 569.616343 -1 
L 569.682555 49.929371 
L 570.381797 -1 
M 571.639328 -1 
L 572.119902 183.272729 
L 572.932351 177.497914 
L 573.009473 -1 
M 575.358334 -1 
L 575.369697 15.917069 
L 576.182146 247.445168 
L 576.994595 310.491822 
L 577.119743 -1 
M 581.539421 -1 
L 581.869287 326.238304 
L 582.539518 -1 
M 582.898961 -1 
L 583.494185 189.26943 
L 584.306634 330.269614 
L 584.767345 -1 
M 590.545741 -1 
L 590.806224 303.998469 
L 591.618673 347.943867 
L 591.758465 -1 
M 597.249554 -1 
L 597.305815 150.734535 
L 597.374181 -1 
M 598.793282 -1 
L 598.930713 335.227893 
L 599.743161 310.865918 
L 600.142627 -1 
M 602.035554 -1 
L 602.180508 236.834051 
L 602.992957 198.003026 
L 603.53331 -1 
M 604.258978 -1 
L 604.617854 78.286494 
L 604.655932 -1 
M 606.116385 -1 
L 606.242752 295.984282 
L 606.879937 -1 
M 607.263289 -1 
L 607.867649 236.250809 
L 608.680098 302.061808 
L 608.862196 -1 
M 610.232276 -1 
L 610.304996 102.130896 
L 610.34857 -1 
M 611.842981 -1 
L 611.929894 216.99337 
L 612.742342 350.54826 
L 612.930831 -1 
M 617.511932 -1 
L 617.617035 264.698097 
L 618.136181 -1 
M 620.718012 -1 
L 620.86683 379.220754 
L 620.983688 -1 
M 623.99771 -1 
L 624.116626 172.110524 
L 624.929075 293.363305 
L 625.041135 -1 
M 626.491013 -1 
L 626.553972 153.549278 
L 626.645192 -1 
M 628.073156 -1 
L 628.17887 181.780124 
L 628.991319 170.804829 
L 629.068046 -1 
M 630.525498 -1 
L 630.616216 206.070107 
L 630.722125 -1 
M 632.109062 -1 
L 632.241114 267.104787 
L 632.438756 -1 
M 633.77916 -1 
L 633.866011 98.826217 
L 634.67846 239.153992 
L 635.423501 -1 
M 635.564899 -1 
L 636.303358 215.855836 
L 637.115807 327.987517 
L 637.235591 -1 
M 638.62568 -1 
L 638.740704 312.757509 
L 639.553153 228.891909 
L 640.365602 292.182122 
L 640.814555 -1 
M 642.726987 -1 
L 642.802948 183.417104 
L 643.615397 283.223603 
L 643.793311 -1 
M 645.805107 -1 
L 646.052744 293.772433 
L 646.865192 21.101637 
L 647.677641 335.539473 
L 647.801052 -1 
M 651.641033 -1 
L 651.739885 181.938055 
L 651.843769 -1 
M 653.254301 -1 
L 653.364783 195.385821 
L 653.588073 -1 
M 654.671304 -1 
L 654.989681 332.905378 
L 655.15404 -1 
M 656.459856 -1 
L 656.614578 308.720139 
L 657.427027 314.070117 
L 658.129521 -1 
M 658.340447 -1 
L 659.051925 346.493162 
L 660.1647 -1 
M 663.8884 -1 
L 663.926618 12.679914 
L 663.934575 -1 
M 666.174171 -1 
L 666.363964 301.080243 
L 666.89728 -1 
M 667.442054 -1 
L 667.988862 324.45405 
L 668.302649 -1 
M 672.720695 -1 
L 672.863554 212.577649 
L 673.676003 111.086653 
L 673.768356 -1 
M 675.175229 -1 
L 675.300901 158.926013 
L 676.11335 210.233086 
L 676.446475 -1 
M 677.884229 -1 
L 678.550696 316.478511 
L 678.705501 -1 
M 680.013136 -1 
L 680.175594 336.09772 
L 680.988043 275.600031 
L 681.092408 -1 
M 682.487748 -1 
L 682.61294 340.853188 
L 683.273181 -1 
M 685.351508 -1 
L 685.862735 194.533407 
L 686.081461 -1 
M 688.054887 -1 
L 688.300082 327.139675 
L 688.714638 -1 
M 690.12419 -1 
L 690.737428 314.974868 
L 691.549877 191.124105 
L 691.689857 -1 
M 695.403617 -1 
L 695.612121 140.599612 
L 696.097034 -1 
M 697.917583 -1 
L 698.049468 332.532527 
L 698.861916 245.522774 
L 698.961018 -1 
M 702.803591 -1 
L 702.924161 190.56001 
L 703.737057 -1 
M 706.84934 -1 
L 706.986405 106.224162 
L 707.798853 211.553602 
L 708.406559 -1 
M 708.768742 -1 
L 709.423751 296.930962 
L 710.2362 255.959812 
L 710.378979 -1 
M 712.39783 -1 
L 712.673546 291.577353 
L 712.998479 -1 
M 714.132695 -1 
L 714.298444 111.50856 
L 714.519096 -1 
M 716.728339 -1 
L 716.73579 13.618537 
L 716.751268 -1 
M 718.281182 -1 
L 718.360688 80.652281 
L 718.394999 -1 
M 719.905035 -1 
L 719.985586 202.801556 
L 720.068029 -1 
M 721.473765 -1 
L 721.610483 364.118021 
L 722.422932 244.009855 
L 723.235381 221.329083 
L 723.348664 -1 
M 724.693991 -1 
L 724.860278 352.126266 
L 725.672727 326.069305 
L 726.417927 -1 
M 727.872506 -1 
L 728.110074 356.056536 
L 728.424253 -1 
M 731.321165 -1 
L 731.359869 80.940951 
L 732.172318 359.613561 
L 732.290568 -1 
M 734.467247 -1 
L 734.609664 119.043613 
L 735.230953 -1 
M 735.523189 -1 
L 736.234562 258.950591 
L 737.047011 71.995918 
L 737.503823 -1 
M 741.722188 -1 
L 741.921704 258.025998 
L 742.057865 -1 
M 743.411329 -1 
L 743.546601 255.996779 
L 743.687083 -1 
M 746.666239 -1 
L 746.796396 281.058482 
L 747.376546 -1 
M 747.8645 -1 
L 748.421294 244.973179 
L 748.566006 -1 
M 755.480136 -1 
L 755.733333 154.146017 
L 755.794253 -1 
M 757.238622 -1 
L 757.358231 329.414548 
L 757.45835 -1 
M 766.905678 -1 
L 767.107617 288.038821 
L 767.920066 301.269487 
L 768.93377 -1 
M 770.049313 -1 
L 770.357412 137.961619 
L 771.169861 215.801147 
L 771.98231 358.559847 
L 772.562853 -1 
M 773.379841 -1 
L 773.607207 54.815891 
L 773.943334 -1 
M 774.6216 -1 
L 775.232105 238.118882 
L 775.66089 -1 
M 776.369974 -1 
L 776.857002 319.209809 
L 776.997529 -1 
M 779.195824 -1 
L 779.294349 45.924213 
L 780.106798 253.293095 
L 780.215268 -1 
M 782.384739 -1 
L 782.544144 201.49502 
L 782.944497 -1 
M 790.534103 -1 
L 790.668632 284.898412 
L 791.481081 234.000944 
L 791.734048 -1 
M 792.834818 -1 
L 793.105979 259.369701 
L 793.649071 -1 
M 794.157437 -1 
L 794.730876 308.826117 
L 794.844224 -1 
M 796.282853 -1 
L 796.355774 187.426447 
L 797.168223 109.259671 
L 797.242682 -1 
M 799.406699 -1 
L 799.605569 263.02231 
L 800.011798 -1 
M 800.826032 -1 
L 801.230467 260.700728 
L 802.129273 -1 
M 803.337444 -1 
L 803.667813 258.730317 
L 804.216293 -1 
M 809.193027 -1 
L 809.354955 294.657845 
L 809.740197 -1 
M 811.534421 -1 
L 811.792301 212.429555 
L 811.900118 -1 
M 815.001948 -1 
L 815.042097 27.213684 
L 815.14491 -1 
M 817.424381 -1 
L 817.479443 40.332458 
L 817.826906 -1 
M 820.606334 -1 
L 820.729238 68.625568 
L 820.768302 -1 
M 823.039127 -1 
L 823.166585 362.534689 
L 823.549838 -1 
M 824.606899 -1 
L 824.791482 118.686009 
L 825.100552 -1 
M 827.654062 -1 
L 828.041278 239.235017 
L 828.32273 -1 
M 833.572613 -1 
L 833.728419 251.933538 
L 833.989688 -1 
M 835.775323 -1 
L 836.165766 240.011977 
L 836.978215 276.723448 
L 837.790663 305.750551 
L 838.618396 -1 
M 840.931235 -1 
L 841.040459 280.714129 
L 841.852907 283.823512 
L 842.665356 313.746873 
L 842.819247 -1 
M 844.720376 -1 
L 845.102703 181.987254 
L 845.428755 -1 
M 847.380158 -1 
L 847.540049 247.861308 
L 848.200414 -1 
M 852.459662 -1 
L 853.227191 170.264132 
L 853.464459 -1 
M 858.066914 -1 
L 858.101884 96.545611 
L 858.136138 -1 
M 861.342623 -1 
L 861.351679 12.06969 
L 862.164128 240.267023 
L 862.976577 206.446364 
L 863.07663 -1 
M 865.008141 -1 
L 865.413923 321.999855 
L 865.803654 -1 
M 867.328055 -1 
L 867.851269 321.864923 
L 868.283029 -1 
M 870.021565 -1 
L 870.288616 297.964336 
L 871.101065 164.411044 
L 871.3873 -1 
M 876.477293 -1 
L 876.788206 185.7385 
L 877.172581 -1 
M 879.768058 -1 
L 880.038002 78.863138 
L 880.279782 -1 
M 885.502473 -1 
L 885.725143 300.983462 
L 886.216878 -1 
M 888.881608 -1 
L 888.974939 228.066648 
L 889.787387 183.975192 
L 890.094256 -1 
M 891.814579 -1 
L 892.224734 141.843379 
L 892.291348 -1 
M 893.683141 -1 
L 893.849631 411.214481 
L 894.110826 -1 
M 895.251458 -1 
L 895.474529 328.275388 
L 895.604923 -1 
M 897.688534 -1 
L 897.911876 324.763517 
L 898.724324 300.177268 
L 898.902483 -1 
M 903.324969 -1 
L 903.599017 327.523008 
L 903.753037 -1 
M 906.585513 -1 
L 906.848812 128.065502 
L 907.057238 -1 
M 914.050409 -1 
L 914.160852 186.026583 
L 914.973301 160.567856 
L 915.070789 -1 
M 917.327065 -1 
L 917.410647 50.041359 
L 917.783989 -1 
M 918.386561 -1 
L 919.035545 237.338777 
L 919.293851 -1 
M 921.319584 -1 
L 921.472891 264.493212 
L 921.600156 -1 
M 923.843154 -1 
L 923.910238 178.868972 
L 924.722686 193.459592 
L 925.054728 -1 
M 926.482489 -1 
L 927.160033 252.969014 
L 927.322243 -1 
M 928.698557 -1 
L 928.78493 120.108756 
L 928.840157 -1 
M 930.283436 -1 
L 930.409828 304.921227 
L 931.222277 318.438065 
L 932.034726 242.559075 
L 932.847174 351.974047 
L 933.659623 248.346441 
L 933.770719 -1 
M 935.26251 -1 
L 935.284521 42.834165 
L 935.386339 -1 
M 938.017898 -1 
L 938.534316 319.561289 
L 938.643898 -1 
M 940.092615 -1 
L 940.159214 182.593254 
L 940.971663 269.698578 
L 941.784111 332.289118 
L 941.964324 -1 
M 944.848412 -1 
L 945.033907 126.612351 
L 945.274141 -1 
M 946.240639 -1 
L 946.658804 321.370993 
L 946.932141 -1 
M 950.648022 -1 
L 950.721048 159.449904 
L 951.322198 -1 
M 951.661054 -1 
L 952.345946 301.81248 
L 953.158395 327.808627 
L 953.970844 7.44113 
L 954.783292 271.21563 
L 955.595741 120.677553 
L 955.948219 -1 
M 958.716023 -1 
L 958.845536 200.118286 
L 959.657985 289.389041 
L 960.083536 -1 
M 961.851257 -1 
L 962.095332 250.66065 
L 962.907781 278.959947 
L 963.720229 274.098523 
L 963.85214 -1 
M 968.45207 -1 
L 968.594922 219.989173 
L 969.407371 206.166212 
L 970.452814 -1 
M 971.240653 -1 
L 971.844717 259.024669 
L 972.194128 -1 
M 974.249765 -1 
L 974.282064 17.99002 
L 974.293925 -1 
M 975.813068 -1 
L 975.906962 166.491881 
L 976.71941 326.668295 
L 977.12082 -1 
M 978.945242 -1 
L 979.156757 293.990047 
L 980.138185 -1 
M 983.911446 -1 
L 984.03145 48.401187 
L 984.843898 231.700727 
L 985.115616 -1 
M 989.590194 -1 
L 989.718591 88.992319 
L 989.762784 -1 
M 991.224144 -1 
L 991.343489 268.379833 
L 991.788302 -1 
M 994.371719 -1 
L 994.593284 306.10023 
L 995.405733 340.424467 
L 995.569778 -1 
L 995.569778 -1 
" style="fill:none;opacity:0.3;stroke:#1f77b4;stroke-linecap:square;stroke-width:1.5;"/>
   </g>
   <g id="line2d_15">
    <path clip-path="url(#p358c0ad820)" d="M 243.626829 -1 
L 243.890581 111.960479 
L 244.042456 -1 
M 385.255117 -1 
L 385.256675 1.911298 
L 385.259454 -1 
M 515.212716 -1 
L 515.248485 91.151517 
L 515.285445 -1 
M 586.741753 -1 
L 586.74398 3.288366 
L 586.752109 -1 
M 616.801742 -1 
L 616.804586 0.229767 
L 616.81121 -1 
M 802.766126 -1 
L 802.855364 131.293449 
L 803.103414 -1 
M 851.000746 -1 
L 851.602293 121.513575 
L 851.688448 -1 
M 953.926365 -1 
L 953.970844 39.337888 
L 954.006894 -1 
M 974.239394 -1 
L 974.282064 74.707623 
L 974.346076 -1 
" style="fill:none;opacity:0.3;stroke:#ff7f0e;stroke-linecap:square;stroke-width:1.5;"/>
   </g>
   <g id="line2d_16">
    <path clip-path="url(#p358c0ad820)" d="M 184.581818 504.424974 
L 239.015889 505.868569 
L 299.94955 507.256791 
L 368.19525 508.584968 
L 445.377887 509.859571 
L 532.30991 511.069121 
L 631.428665 512.222356 
L 745.171499 513.319421 
L 876.788206 514.361545 
L 996.218182 515.146378 
L 996.218182 515.146378 
" style="fill:none;stroke:#2ca02c;stroke-linecap:square;stroke-width:1.5;"/>
   </g>
   <g id="line2d_17">
    <path clip-path="url(#p358c0ad820)" d="M 184.581818 479.900395 
L 185.394267 497.796816 
L 186.206716 506.333799 
L 187.019165 504.261605 
L 187.831613 500.800373 
L 188.644062 500.826416 
L 189.456511 503.222865 
L 190.26896 506.021616 
L 191.081409 507.925435 
L 191.893857 508.52323 
L 192.706306 508.148004 
L 193.518755 507.46138 
L 194.331204 507.01376 
L 195.143653 507.044786 
L 195.956102 507.517224 
L 198.393448 509.558567 
L 199.205897 509.875139 
L 200.018346 509.94256 
L 202.455692 509.674285 
L 203.268141 509.741974 
L 204.893038 510.185121 
L 206.517936 510.68276 
L 208.142834 510.917346 
L 213.017527 511.136735 
L 216.267322 511.512384 
L 227.641605 512.044907 
L 253.639967 512.759271 
L 282.888124 513.201553 
L 328.385258 513.638555 
L 411.255037 514.183735 
L 537.184603 514.786942 
L 683.425389 515.259352 
L 864.601474 515.612435 
L 996.218182 515.771449 
L 996.218182 515.771449 
" style="fill:none;stroke:#d62728;stroke-linecap:square;stroke-width:1.5;"/>
   </g>
   <g id="patch_3">
    <path d="M 144 630 
L 144 86.4 
" style="fill:none;stroke:#000000;stroke-linecap:square;stroke-linejoin:miter;stroke-width:0.8;"/>
   </g>
   <g id="patch_4">
    <path d="M 1036.8 630 
L 1036.8 86.4 
" style="fill:none;stroke:#000000;stroke-linecap:square;stroke-linejoin:miter;stroke-width:0.8;"/>
   </g>
   <g id="patch_5">
    <path d="M 144 630 
L 1036.8 630 
" style="fill:none;stroke:#000000;stroke-linecap:square;stroke-linejoin:miter;stroke-width:0.8;"/>
   </g>
   <g id="patch_6">
    <path d="M 144 86.4 
L 1036.8 86.4 
" style="fill:none;stroke:#000000;stroke-linecap:square;stroke-linejoin:miter;stroke-width:0.8;"/>
   </g>
   <g id="text_16">
    <!-- Retinopathy: All 4 implementations -->
    <defs>
     <path d="M 44.390625 34.1875 
Q 47.5625 33.109375 50.5625 29.59375 
Q 53.5625 26.078125 56.59375 19.921875 
L 66.609375 0 
L 56 0 
L 46.6875 18.703125 
Q 43.0625 26.03125 39.671875 28.421875 
Q 36.28125 30.8125 30.421875 30.8125 
L 19.671875 30.8125 
L 19.671875 0 
L 9.8125 0 
L 9.8125 72.90625 
L 32.078125 72.90625 
Q 44.578125 72.90625 50.734375 67.671875 
Q 56.890625 62.453125 56.890625 51.90625 
Q 56.890625 45.015625 53.6875 40.46875 
Q 50.484375 35.9375 44.390625 34.1875 
z
M 19.671875 64.796875 
L 19.671875 38.921875 
L 32.078125 38.921875 
Q 39.203125 38.921875 42.84375 42.21875 
Q 46.484375 45.515625 46.484375 51.90625 
Q 46.484375 58.296875 42.84375 61.546875 
Q 39.203125 64.796875 32.078125 64.796875 
z
" id="DejaVuSans-52"/>
     <path d="M 18.109375 8.203125 
L 18.109375 -20.796875 
L 9.078125 -20.796875 
L 9.078125 54.6875 
L 18.109375 54.6875 
L 18.109375 46.390625 
Q 20.953125 51.265625 25.265625 53.625 
Q 29.59375 56 35.59375 56 
Q 45.5625 56 51.78125 48.09375 
Q 58.015625 40.1875 58.015625 27.296875 
Q 58.015625 14.40625 51.78125 6.484375 
Q 45.5625 -1.421875 35.59375 -1.421875 
Q 29.59375 -1.421875 25.265625 0.953125 
Q 20.953125 3.328125 18.109375 8.203125 
z
M 48.6875 27.296875 
Q 48.6875 37.203125 44.609375 42.84375 
Q 40.53125 48.484375 33.40625 48.484375 
Q 26.265625 48.484375 22.1875 42.84375 
Q 18.109375 37.203125 18.109375 27.296875 
Q 18.109375 17.390625 22.1875 11.75 
Q 26.265625 6.109375 33.40625 6.109375 
Q 40.53125 6.109375 44.609375 11.75 
Q 48.6875 17.390625 48.6875 27.296875 
z
" id="DejaVuSans-70"/>
     <path d="M 54.890625 33.015625 
L 54.890625 0 
L 45.90625 0 
L 45.90625 32.71875 
Q 45.90625 40.484375 42.875 44.328125 
Q 39.84375 48.1875 33.796875 48.1875 
Q 26.515625 48.1875 22.3125 43.546875 
Q 18.109375 38.921875 18.109375 30.90625 
L 18.109375 0 
L 9.078125 0 
L 9.078125 75.984375 
L 18.109375 75.984375 
L 18.109375 46.1875 
Q 21.34375 51.125 25.703125 53.5625 
Q 30.078125 56 35.796875 56 
Q 45.21875 56 50.046875 50.171875 
Q 54.890625 44.34375 54.890625 33.015625 
z
" id="DejaVuSans-68"/>
     <path d="M 32.171875 -5.078125 
Q 28.375 -14.84375 24.75 -17.8125 
Q 21.140625 -20.796875 15.09375 -20.796875 
L 7.90625 -20.796875 
L 7.90625 -13.28125 
L 13.1875 -13.28125 
Q 16.890625 -13.28125 18.9375 -11.515625 
Q 21 -9.765625 23.484375 -3.21875 
L 25.09375 0.875 
L 2.984375 54.6875 
L 12.5 54.6875 
L 29.59375 11.921875 
L 46.6875 54.6875 
L 56.203125 54.6875 
z
" id="DejaVuSans-79"/>
     <path d="M 11.71875 12.40625 
L 22.015625 12.40625 
L 22.015625 0 
L 11.71875 0 
z
M 11.71875 51.703125 
L 22.015625 51.703125 
L 22.015625 39.3125 
L 11.71875 39.3125 
z
" id="DejaVuSans-3a"/>
     <path id="DejaVuSans-20"/>
     <path d="M 34.1875 63.1875 
L 20.796875 26.90625 
L 47.609375 26.90625 
z
M 28.609375 72.90625 
L 39.796875 72.90625 
L 67.578125 0 
L 57.328125 0 
L 50.6875 18.703125 
L 17.828125 18.703125 
L 11.1875 0 
L 0.78125 0 
z
" id="DejaVuSans-41"/>
     <path d="M 9.421875 75.984375 
L 18.40625 75.984375 
L 18.40625 0 
L 9.421875 0 
z
" id="DejaVuSans-6c"/>
     <path d="M 52 44.1875 
Q 55.375 50.25 60.0625 53.125 
Q 64.75 56 71.09375 56 
Q 79.640625 56 84.28125 50.015625 
Q 88.921875 44.046875 88.921875 33.015625 
L 88.921875 0 
L 79.890625 0 
L 79.890625 32.71875 
Q 79.890625 40.578125 77.09375 44.375 
Q 74.3125 48.1875 68.609375 48.1875 
Q 61.625 48.1875 57.5625 43.546875 
Q 53.515625 38.921875 53.515625 30.90625 
L 53.515625 0 
L 44.484375 0 
L 44.484375 32.71875 
Q 44.484375 40.625 41.703125 44.40625 
Q 38.921875 48.1875 33.109375 48.1875 
Q 26.21875 48.1875 22.15625 43.53125 
Q 18.109375 38.875 18.109375 30.90625 
L 18.109375 0 
L 9.078125 0 
L 9.078125 54.6875 
L 18.109375 54.6875 
L 18.109375 46.1875 
Q 21.1875 51.21875 25.484375 53.609375 
Q 29.78125 56 35.6875 56 
Q 41.65625 56 45.828125 52.96875 
Q 50 49.953125 52 44.1875 
z
" id="DejaVuSans-6d"/>
    </defs>
    <g transform="translate(437.4747 80.4)scale(0.1728 -0.1728)">
     <use xlink:href="#DejaVuSans-52"/>
     <use x="69.419922" xlink:href="#DejaVuSans-65"/>
     <use x="130.943359" xlink:href="#DejaVuSans-74"/>
     <use x="170.152344" xlink:href="#DejaVuSans-69"/>
     <use x="197.935547" xlink:href="#DejaVuSans-6e"/>
     <use x="261.314453" xlink:href="#DejaVuSans-6f"/>
     <use x="322.496094" xlink:href="#DejaVuSans-70"/>
     <use x="385.972656" xlink:href="#DejaVuSans-61"/>
     <use x="447.251953" xlink:href="#DejaVuSans-74"/>
     <use x="486.460938" xlink:href="#DejaVuSans-68"/>
     <use x="549.839844" xlink:href="#DejaVuSans-79"/>
     <use x="608.910156" xlink:href="#DejaVuSans-3a"/>
     <use x="642.601562" xlink:href="#DejaVuSans-20"/>
     <use x="674.388672" xlink:href="#DejaVuSans-41"/>
     <use x="742.796875" xlink:href="#DejaVuSans-6c"/>
     <use x="770.580078" xlink:href="#DejaVuSans-6c"/>
     <use x="798.363281" xlink:href="#DejaVuSans-20"/>
     <use x="830.150391" xlink:href="#DejaVuSans-34"/>
     <use x="893.773438" xlink:href="#DejaVuSans-20"/>
     <use x="925.560547" xlink:href="#DejaVuSans-69"/>
     <use x="953.34375" xlink:href="#DejaVuSans-6d"/>
     <use x="1050.755859" xlink:href="#DejaVuSans-70"/>
     <use x="1114.232422" xlink:href="#DejaVuSans-6c"/>
     <use x="1142.015625" xlink:href="#DejaVuSans-65"/>
     <use x="1203.539062" xlink:href="#DejaVuSans-6d"/>
     <use x="1300.951172" xlink:href="#DejaVuSans-65"/>
     <use x="1362.474609" xlink:href="#DejaVuSans-6e"/>
     <use x="1425.853516" xlink:href="#DejaVuSans-74"/>
     <use x="1465.0625" xlink:href="#DejaVuSans-61"/>
     <use x="1526.341797" xlink:href="#DejaVuSans-74"/>
     <use x="1565.550781" xlink:href="#DejaVuSans-69"/>
     <use x="1593.333984" xlink:href="#DejaVuSans-6f"/>
     <use x="1654.515625" xlink:href="#DejaVuSans-6e"/>
     <use x="1717.894531" xlink:href="#DejaVuSans-73"/>
    </g>
   </g>
   <g id="legend_1">
    <g id="patch_7">
     <path d="M 151 625 
L 213.007812 625 
Q 215.007812 625 215.007812 623 
L 215.007812 565.2875 
Q 215.007812 563.2875 213.007812 563.2875 
L 151 563.2875 
Q 149 563.2875 149 565.2875 
L 149 623 
Q 149 625 151 625 
z
" style="fill:#ffffff;opacity:0.8;stroke:#cccccc;stroke-linejoin:miter;"/>
    </g>
    <g id="line2d_18">
     <path d="M 153 571.385937 
L 173 571.385937 
" style="fill:none;opacity:0.3;stroke:#1f77b4;stroke-linecap:square;stroke-width:1.5;"/>
    </g>
    <g id="line2d_19"/>
    <g id="text_17">
     <!-- GD -->
     <defs>
      <path d="M 59.515625 10.40625 
L 59.515625 29.984375 
L 43.40625 29.984375 
L 43.40625 38.09375 
L 69.28125 38.09375 
L 69.28125 6.78125 
Q 63.578125 2.734375 56.6875 0.65625 
Q 49.8125 -1.421875 42 -1.421875 
Q 24.90625 -1.421875 15.25 8.5625 
Q 5.609375 18.5625 5.609375 36.375 
Q 5.609375 54.25 15.25 64.234375 
Q 24.90625 74.21875 42 74.21875 
Q 49.125 74.21875 55.546875 72.453125 
Q 61.96875 70.703125 67.390625 67.28125 
L 67.390625 56.78125 
Q 61.921875 61.421875 55.765625 63.765625 
Q 49.609375 66.109375 42.828125 66.109375 
Q 29.4375 66.109375 22.71875 58.640625 
Q 16.015625 51.171875 16.015625 36.375 
Q 16.015625 21.625 22.71875 14.15625 
Q 29.4375 6.6875 42.828125 6.6875 
Q 48.046875 6.6875 52.140625 7.59375 
Q 56.25 8.5 59.515625 10.40625 
z
" id="DejaVuSans-47"/>
      <path d="M 19.671875 64.796875 
L 19.671875 8.109375 
L 31.59375 8.109375 
Q 46.6875 8.109375 53.6875 14.9375 
Q 60.6875 21.78125 60.6875 36.53125 
Q 60.6875 51.171875 53.6875 57.984375 
Q 46.6875 64.796875 31.59375 64.796875 
z
M 9.8125 72.90625 
L 30.078125 72.90625 
Q 51.265625 72.90625 61.171875 64.09375 
Q 71.09375 55.28125 71.09375 36.53125 
Q 71.09375 17.671875 61.125 8.828125 
Q 51.171875 0 30.078125 0 
L 9.8125 0 
z
" id="DejaVuSans-44"/>
     </defs>
     <g transform="translate(181 574.885937)scale(0.1 -0.1)">
      <use xlink:href="#DejaVuSans-47"/>
      <use x="77.490234" xlink:href="#DejaVuSans-44"/>
     </g>
    </g>
    <g id="line2d_20">
     <path d="M 153 586.064062 
L 173 586.064062 
" style="fill:none;opacity:0.3;stroke:#ff7f0e;stroke-linecap:square;stroke-width:1.5;"/>
    </g>
    <g id="line2d_21"/>
    <g id="text_18">
     <!-- SGD -->
     <defs>
      <path d="M 53.515625 70.515625 
L 53.515625 60.890625 
Q 47.90625 63.578125 42.921875 64.890625 
Q 37.9375 66.21875 33.296875 66.21875 
Q 25.25 66.21875 20.875 63.09375 
Q 16.5 59.96875 16.5 54.203125 
Q 16.5 49.359375 19.40625 46.890625 
Q 22.3125 44.4375 30.421875 42.921875 
L 36.375 41.703125 
Q 47.40625 39.59375 52.65625 34.296875 
Q 57.90625 29 57.90625 20.125 
Q 57.90625 9.515625 50.796875 4.046875 
Q 43.703125 -1.421875 29.984375 -1.421875 
Q 24.8125 -1.421875 18.96875 -0.25 
Q 13.140625 0.921875 6.890625 3.21875 
L 6.890625 13.375 
Q 12.890625 10.015625 18.65625 8.296875 
Q 24.421875 6.59375 29.984375 6.59375 
Q 38.421875 6.59375 43.015625 9.90625 
Q 47.609375 13.234375 47.609375 19.390625 
Q 47.609375 24.75 44.3125 27.78125 
Q 41.015625 30.8125 33.5 32.328125 
L 27.484375 33.5 
Q 16.453125 35.6875 11.515625 40.375 
Q 6.59375 45.0625 6.59375 53.421875 
Q 6.59375 63.09375 13.40625 68.65625 
Q 20.21875 74.21875 32.171875 74.21875 
Q 37.3125 74.21875 42.625 73.28125 
Q 47.953125 72.359375 53.515625 70.515625 
z
" id="DejaVuSans-53"/>
     </defs>
     <g transform="translate(181 589.564062)scale(0.1 -0.1)">
      <use xlink:href="#DejaVuSans-53"/>
      <use x="63.476562" xlink:href="#DejaVuSans-47"/>
      <use x="140.966797" xlink:href="#DejaVuSans-44"/>
     </g>
    </g>
    <g id="line2d_22">
     <path d="M 153 600.742188 
L 173 600.742188 
" style="fill:none;stroke:#2ca02c;stroke-linecap:square;stroke-width:1.5;"/>
    </g>
    <g id="line2d_23"/>
    <g id="text_19">
     <!-- IRLS -->
     <g transform="translate(181 604.242188)scale(0.1 -0.1)">
      <use xlink:href="#DejaVuSans-49"/>
      <use x="29.492188" xlink:href="#DejaVuSans-52"/>
      <use x="98.974609" xlink:href="#DejaVuSans-4c"/>
      <use x="154.6875" xlink:href="#DejaVuSans-53"/>
     </g>
    </g>
    <g id="line2d_24">
     <path d="M 153 615.420313 
L 173 615.420313 
" style="fill:none;stroke:#d62728;stroke-linecap:square;stroke-width:1.5;"/>
    </g>
    <g id="line2d_25"/>
    <g id="text_20">
     <!-- ADAM -->
     <defs>
      <path d="M 9.8125 72.90625 
L 24.515625 72.90625 
L 43.109375 23.296875 
L 61.8125 72.90625 
L 76.515625 72.90625 
L 76.515625 0 
L 66.890625 0 
L 66.890625 64.015625 
L 48.09375 14.015625 
L 38.1875 14.015625 
L 19.390625 64.015625 
L 19.390625 0 
L 9.8125 0 
z
" id="DejaVuSans-4d"/>
     </defs>
     <g transform="translate(181 618.920313)scale(0.1 -0.1)">
      <use xlink:href="#DejaVuSans-41"/>
      <use x="68.408203" xlink:href="#DejaVuSans-44"/>
      <use x="145.394531" xlink:href="#DejaVuSans-41"/>
      <use x="213.802734" xlink:href="#DejaVuSans-4d"/>
     </g>
    </g>
   </g>
  </g>
 </g>
 <defs>
  <clipPath id="p358c0ad820">
   <rect height="543.6" width="892.8" x="144" y="86.4"/>
  </clipPath>
 </defs>
</svg>
