<?xml version="1.0" encoding="utf-8" standalone="no"?>
<!DOCTYPE svg PUBLIC "-//W3C//DTD SVG 1.1//EN"
  "http://www.w3.org/Graphics/SVG/1.1/DTD/svg11.dtd">
<!-- Created with matplotlib (http://matplotlib.org/) -->
<svg height="720pt" version="1.1" viewBox="0 0 1152 720" width="1152pt" xmlns="http://www.w3.org/2000/svg" xmlns:xlink="http://www.w3.org/1999/xlink">
 <defs>
  <style type="text/css">
*{stroke-linecap:butt;stroke-linejoin:round;}
  </style>
 </defs>
 <g id="figure_1">
  <g id="patch_1">
   <path d="M 0 720 
L 1152 720 
L 1152 0 
L 0 0 
z
" style="fill:#ffffff;"/>
  </g>
  <g id="axes_1">
   <g id="patch_2">
    <path d="M 144 630 
L 1036.8 630 
L 1036.8 86.4 
L 144 86.4 
z
" style="fill:#ffffff;"/>
   </g>
   <g id="matplotlib.axis_1">
    <g id="xtick_1">
     <g id="line2d_1">
      <defs>
       <path d="M 0 0 
L 0 3.5 
" id="m9139a1f710" style="stroke:#000000;stroke-width:0.8;"/>
      </defs>
      <g>
       <use style="stroke:#000000;stroke-width:0.8;" x="184.581818" xlink:href="#m9139a1f710" y="630"/>
      </g>
     </g>
     <g id="text_1">
      <!-- 0 -->
      <defs>
       <path d="M 31.78125 66.40625 
Q 24.171875 66.40625 20.328125 58.90625 
Q 16.5 51.421875 16.5 36.375 
Q 16.5 21.390625 20.328125 13.890625 
Q 24.171875 6.390625 31.78125 6.390625 
Q 39.453125 6.390625 43.28125 13.890625 
Q 47.125 21.390625 47.125 36.375 
Q 47.125 51.421875 43.28125 58.90625 
Q 39.453125 66.40625 31.78125 66.40625 
z
M 31.78125 74.21875 
Q 44.046875 74.21875 50.515625 64.515625 
Q 56.984375 54.828125 56.984375 36.375 
Q 56.984375 17.96875 50.515625 8.265625 
Q 44.046875 -1.421875 31.78125 -1.421875 
Q 19.53125 -1.421875 13.0625 8.265625 
Q 6.59375 17.96875 6.59375 36.375 
Q 6.59375 54.828125 13.0625 64.515625 
Q 19.53125 74.21875 31.78125 74.21875 
z
" id="DejaVuSans-30"/>
      </defs>
      <g transform="translate(181.400568 644.598438)scale(0.1 -0.1)">
       <use xlink:href="#DejaVuSans-30"/>
      </g>
     </g>
    </g>
    <g id="xtick_2">
     <g id="line2d_2">
      <g>
       <use style="stroke:#000000;stroke-width:0.8;" x="347.071581" xlink:href="#m9139a1f710" y="630"/>
      </g>
     </g>
     <g id="text_2">
      <!-- 200 -->
      <defs>
       <path d="M 19.1875 8.296875 
L 53.609375 8.296875 
L 53.609375 0 
L 7.328125 0 
L 7.328125 8.296875 
Q 12.9375 14.109375 22.625 23.890625 
Q 32.328125 33.6875 34.8125 36.53125 
Q 39.546875 41.84375 41.421875 45.53125 
Q 43.3125 49.21875 43.3125 52.78125 
Q 43.3125 58.59375 39.234375 62.25 
Q 35.15625 65.921875 28.609375 65.921875 
Q 23.96875 65.921875 18.8125 64.3125 
Q 13.671875 62.703125 7.8125 59.421875 
L 7.8125 69.390625 
Q 13.765625 71.78125 18.9375 73 
Q 24.125 74.21875 28.421875 74.21875 
Q 39.75 74.21875 46.484375 68.546875 
Q 53.21875 62.890625 53.21875 53.421875 
Q 53.21875 48.921875 51.53125 44.890625 
Q 49.859375 40.875 45.40625 35.40625 
Q 44.1875 33.984375 37.640625 27.21875 
Q 31.109375 20.453125 19.1875 8.296875 
z
" id="DejaVuSans-32"/>
      </defs>
      <g transform="translate(337.527831 644.598438)scale(0.1 -0.1)">
       <use xlink:href="#DejaVuSans-32"/>
       <use x="63.623047" xlink:href="#DejaVuSans-30"/>
       <use x="127.246094" xlink:href="#DejaVuSans-30"/>
      </g>
     </g>
    </g>
    <g id="xtick_3">
     <g id="line2d_3">
      <g>
       <use style="stroke:#000000;stroke-width:0.8;" x="509.561343" xlink:href="#m9139a1f710" y="630"/>
      </g>
     </g>
     <g id="text_3">
      <!-- 400 -->
      <defs>
       <path d="M 37.796875 64.3125 
L 12.890625 25.390625 
L 37.796875 25.390625 
z
M 35.203125 72.90625 
L 47.609375 72.90625 
L 47.609375 25.390625 
L 58.015625 25.390625 
L 58.015625 17.1875 
L 47.609375 17.1875 
L 47.609375 0 
L 37.796875 0 
L 37.796875 17.1875 
L 4.890625 17.1875 
L 4.890625 26.703125 
z
" id="DejaVuSans-34"/>
      </defs>
      <g transform="translate(500.017593 644.598438)scale(0.1 -0.1)">
       <use xlink:href="#DejaVuSans-34"/>
       <use x="63.623047" xlink:href="#DejaVuSans-30"/>
       <use x="127.246094" xlink:href="#DejaVuSans-30"/>
      </g>
     </g>
    </g>
    <g id="xtick_4">
     <g id="line2d_4">
      <g>
       <use style="stroke:#000000;stroke-width:0.8;" x="672.051106" xlink:href="#m9139a1f710" y="630"/>
      </g>
     </g>
     <g id="text_4">
      <!-- 600 -->
      <defs>
       <path d="M 33.015625 40.375 
Q 26.375 40.375 22.484375 35.828125 
Q 18.609375 31.296875 18.609375 23.390625 
Q 18.609375 15.53125 22.484375 10.953125 
Q 26.375 6.390625 33.015625 6.390625 
Q 39.65625 6.390625 43.53125 10.953125 
Q 47.40625 15.53125 47.40625 23.390625 
Q 47.40625 31.296875 43.53125 35.828125 
Q 39.65625 40.375 33.015625 40.375 
z
M 52.59375 71.296875 
L 52.59375 62.3125 
Q 48.875 64.0625 45.09375 64.984375 
Q 41.3125 65.921875 37.59375 65.921875 
Q 27.828125 65.921875 22.671875 59.328125 
Q 17.53125 52.734375 16.796875 39.40625 
Q 19.671875 43.65625 24.015625 45.921875 
Q 28.375 48.1875 33.59375 48.1875 
Q 44.578125 48.1875 50.953125 41.515625 
Q 57.328125 34.859375 57.328125 23.390625 
Q 57.328125 12.15625 50.6875 5.359375 
Q 44.046875 -1.421875 33.015625 -1.421875 
Q 20.359375 -1.421875 13.671875 8.265625 
Q 6.984375 17.96875 6.984375 36.375 
Q 6.984375 53.65625 15.1875 63.9375 
Q 23.390625 74.21875 37.203125 74.21875 
Q 40.921875 74.21875 44.703125 73.484375 
Q 48.484375 72.75 52.59375 71.296875 
z
" id="DejaVuSans-36"/>
      </defs>
      <g transform="translate(662.507356 644.598438)scale(0.1 -0.1)">
       <use xlink:href="#DejaVuSans-36"/>
       <use x="63.623047" xlink:href="#DejaVuSans-30"/>
       <use x="127.246094" xlink:href="#DejaVuSans-30"/>
      </g>
     </g>
    </g>
    <g id="xtick_5">
     <g id="line2d_5">
      <g>
       <use style="stroke:#000000;stroke-width:0.8;" x="834.540868" xlink:href="#m9139a1f710" y="630"/>
      </g>
     </g>
     <g id="text_5">
      <!-- 800 -->
      <defs>
       <path d="M 31.78125 34.625 
Q 24.75 34.625 20.71875 30.859375 
Q 16.703125 27.09375 16.703125 20.515625 
Q 16.703125 13.921875 20.71875 10.15625 
Q 24.75 6.390625 31.78125 6.390625 
Q 38.8125 6.390625 42.859375 10.171875 
Q 46.921875 13.96875 46.921875 20.515625 
Q 46.921875 27.09375 42.890625 30.859375 
Q 38.875 34.625 31.78125 34.625 
z
M 21.921875 38.8125 
Q 15.578125 40.375 12.03125 44.71875 
Q 8.5 49.078125 8.5 55.328125 
Q 8.5 64.0625 14.71875 69.140625 
Q 20.953125 74.21875 31.78125 74.21875 
Q 42.671875 74.21875 48.875 69.140625 
Q 55.078125 64.0625 55.078125 55.328125 
Q 55.078125 49.078125 51.53125 44.71875 
Q 48 40.375 41.703125 38.8125 
Q 48.828125 37.15625 52.796875 32.3125 
Q 56.78125 27.484375 56.78125 20.515625 
Q 56.78125 9.90625 50.3125 4.234375 
Q 43.84375 -1.421875 31.78125 -1.421875 
Q 19.734375 -1.421875 13.25 4.234375 
Q 6.78125 9.90625 6.78125 20.515625 
Q 6.78125 27.484375 10.78125 32.3125 
Q 14.796875 37.15625 21.921875 38.8125 
z
M 18.3125 54.390625 
Q 18.3125 48.734375 21.84375 45.5625 
Q 25.390625 42.390625 31.78125 42.390625 
Q 38.140625 42.390625 41.71875 45.5625 
Q 45.3125 48.734375 45.3125 54.390625 
Q 45.3125 60.0625 41.71875 63.234375 
Q 38.140625 66.40625 31.78125 66.40625 
Q 25.390625 66.40625 21.84375 63.234375 
Q 18.3125 60.0625 18.3125 54.390625 
z
" id="DejaVuSans-38"/>
      </defs>
      <g transform="translate(824.997118 644.598438)scale(0.1 -0.1)">
       <use xlink:href="#DejaVuSans-38"/>
       <use x="63.623047" xlink:href="#DejaVuSans-30"/>
       <use x="127.246094" xlink:href="#DejaVuSans-30"/>
      </g>
     </g>
    </g>
    <g id="xtick_6">
     <g id="line2d_6">
      <g>
       <use style="stroke:#000000;stroke-width:0.8;" x="997.030631" xlink:href="#m9139a1f710" y="630"/>
      </g>
     </g>
     <g id="text_6">
      <!-- 1000 -->
      <defs>
       <path d="M 12.40625 8.296875 
L 28.515625 8.296875 
L 28.515625 63.921875 
L 10.984375 60.40625 
L 10.984375 69.390625 
L 28.421875 72.90625 
L 38.28125 72.90625 
L 38.28125 8.296875 
L 54.390625 8.296875 
L 54.390625 0 
L 12.40625 0 
z
" id="DejaVuSans-31"/>
      </defs>
      <g transform="translate(984.305631 644.598438)scale(0.1 -0.1)">
       <use xlink:href="#DejaVuSans-31"/>
       <use x="63.623047" xlink:href="#DejaVuSans-30"/>
       <use x="127.246094" xlink:href="#DejaVuSans-30"/>
       <use x="190.869141" xlink:href="#DejaVuSans-30"/>
      </g>
     </g>
    </g>
    <g id="text_7">
     <!-- Iteration -->
     <defs>
      <path d="M 9.8125 72.90625 
L 19.671875 72.90625 
L 19.671875 0 
L 9.8125 0 
z
" id="DejaVuSans-49"/>
      <path d="M 18.3125 70.21875 
L 18.3125 54.6875 
L 36.8125 54.6875 
L 36.8125 47.703125 
L 18.3125 47.703125 
L 18.3125 18.015625 
Q 18.3125 11.328125 20.140625 9.421875 
Q 21.96875 7.515625 27.59375 7.515625 
L 36.8125 7.515625 
L 36.8125 0 
L 27.59375 0 
Q 17.1875 0 13.234375 3.875 
Q 9.28125 7.765625 9.28125 18.015625 
L 9.28125 47.703125 
L 2.6875 47.703125 
L 2.6875 54.6875 
L 9.28125 54.6875 
L 9.28125 70.21875 
z
" id="DejaVuSans-74"/>
      <path d="M 56.203125 29.59375 
L 56.203125 25.203125 
L 14.890625 25.203125 
Q 15.484375 15.921875 20.484375 11.0625 
Q 25.484375 6.203125 34.421875 6.203125 
Q 39.59375 6.203125 44.453125 7.46875 
Q 49.3125 8.734375 54.109375 11.28125 
L 54.109375 2.78125 
Q 49.265625 0.734375 44.1875 -0.34375 
Q 39.109375 -1.421875 33.890625 -1.421875 
Q 20.796875 -1.421875 13.15625 6.1875 
Q 5.515625 13.8125 5.515625 26.8125 
Q 5.515625 40.234375 12.765625 48.109375 
Q 20.015625 56 32.328125 56 
Q 43.359375 56 49.78125 48.890625 
Q 56.203125 41.796875 56.203125 29.59375 
z
M 47.21875 32.234375 
Q 47.125 39.59375 43.09375 43.984375 
Q 39.0625 48.390625 32.421875 48.390625 
Q 24.90625 48.390625 20.390625 44.140625 
Q 15.875 39.890625 15.1875 32.171875 
z
" id="DejaVuSans-65"/>
      <path d="M 41.109375 46.296875 
Q 39.59375 47.171875 37.8125 47.578125 
Q 36.03125 48 33.890625 48 
Q 26.265625 48 22.1875 43.046875 
Q 18.109375 38.09375 18.109375 28.8125 
L 18.109375 0 
L 9.078125 0 
L 9.078125 54.6875 
L 18.109375 54.6875 
L 18.109375 46.1875 
Q 20.953125 51.171875 25.484375 53.578125 
Q 30.03125 56 36.53125 56 
Q 37.453125 56 38.578125 55.875 
Q 39.703125 55.765625 41.0625 55.515625 
z
" id="DejaVuSans-72"/>
      <path d="M 34.28125 27.484375 
Q 23.390625 27.484375 19.1875 25 
Q 14.984375 22.515625 14.984375 16.5 
Q 14.984375 11.71875 18.140625 8.90625 
Q 21.296875 6.109375 26.703125 6.109375 
Q 34.1875 6.109375 38.703125 11.40625 
Q 43.21875 16.703125 43.21875 25.484375 
L 43.21875 27.484375 
z
M 52.203125 31.203125 
L 52.203125 0 
L 43.21875 0 
L 43.21875 8.296875 
Q 40.140625 3.328125 35.546875 0.953125 
Q 30.953125 -1.421875 24.3125 -1.421875 
Q 15.921875 -1.421875 10.953125 3.296875 
Q 6 8.015625 6 15.921875 
Q 6 25.140625 12.171875 29.828125 
Q 18.359375 34.515625 30.609375 34.515625 
L 43.21875 34.515625 
L 43.21875 35.40625 
Q 43.21875 41.609375 39.140625 45 
Q 35.0625 48.390625 27.6875 48.390625 
Q 23 48.390625 18.546875 47.265625 
Q 14.109375 46.140625 10.015625 43.890625 
L 10.015625 52.203125 
Q 14.9375 54.109375 19.578125 55.046875 
Q 24.21875 56 28.609375 56 
Q 40.484375 56 46.34375 49.84375 
Q 52.203125 43.703125 52.203125 31.203125 
z
" id="DejaVuSans-61"/>
      <path d="M 9.421875 54.6875 
L 18.40625 54.6875 
L 18.40625 0 
L 9.421875 0 
z
M 9.421875 75.984375 
L 18.40625 75.984375 
L 18.40625 64.59375 
L 9.421875 64.59375 
z
" id="DejaVuSans-69"/>
      <path d="M 30.609375 48.390625 
Q 23.390625 48.390625 19.1875 42.75 
Q 14.984375 37.109375 14.984375 27.296875 
Q 14.984375 17.484375 19.15625 11.84375 
Q 23.34375 6.203125 30.609375 6.203125 
Q 37.796875 6.203125 41.984375 11.859375 
Q 46.1875 17.53125 46.1875 27.296875 
Q 46.1875 37.015625 41.984375 42.703125 
Q 37.796875 48.390625 30.609375 48.390625 
z
M 30.609375 56 
Q 42.328125 56 49.015625 48.375 
Q 55.71875 40.765625 55.71875 27.296875 
Q 55.71875 13.875 49.015625 6.21875 
Q 42.328125 -1.421875 30.609375 -1.421875 
Q 18.84375 -1.421875 12.171875 6.21875 
Q 5.515625 13.875 5.515625 27.296875 
Q 5.515625 40.765625 12.171875 48.375 
Q 18.84375 56 30.609375 56 
z
" id="DejaVuSans-6f"/>
      <path d="M 54.890625 33.015625 
L 54.890625 0 
L 45.90625 0 
L 45.90625 32.71875 
Q 45.90625 40.484375 42.875 44.328125 
Q 39.84375 48.1875 33.796875 48.1875 
Q 26.515625 48.1875 22.3125 43.546875 
Q 18.109375 38.921875 18.109375 30.90625 
L 18.109375 0 
L 9.078125 0 
L 9.078125 54.6875 
L 18.109375 54.6875 
L 18.109375 46.1875 
Q 21.34375 51.125 25.703125 53.5625 
Q 30.078125 56 35.796875 56 
Q 45.21875 56 50.046875 50.171875 
Q 54.890625 44.34375 54.890625 33.015625 
z
" id="DejaVuSans-6e"/>
     </defs>
     <g transform="translate(553.75155 663.808225)scale(0.1728 -0.1728)">
      <use xlink:href="#DejaVuSans-49"/>
      <use x="29.492188" xlink:href="#DejaVuSans-74"/>
      <use x="68.701172" xlink:href="#DejaVuSans-65"/>
      <use x="130.224609" xlink:href="#DejaVuSans-72"/>
      <use x="171.337891" xlink:href="#DejaVuSans-61"/>
      <use x="232.617188" xlink:href="#DejaVuSans-74"/>
      <use x="271.826172" xlink:href="#DejaVuSans-69"/>
      <use x="299.609375" xlink:href="#DejaVuSans-6f"/>
      <use x="360.791016" xlink:href="#DejaVuSans-6e"/>
     </g>
    </g>
   </g>
   <g id="matplotlib.axis_2">
    <g id="ytick_1">
     <g id="line2d_7">
      <defs>
       <path d="M 0 0 
L -3.5 0 
" id="m2de41781fb" style="stroke:#000000;stroke-width:0.8;"/>
      </defs>
      <g>
       <use style="stroke:#000000;stroke-width:0.8;" x="144" xlink:href="#m2de41781fb" y="629.013421"/>
      </g>
     </g>
     <g id="text_8">
      <!-- 0.45 -->
      <defs>
       <path d="M 10.6875 12.40625 
L 21 12.40625 
L 21 0 
L 10.6875 0 
z
" id="DejaVuSans-2e"/>
       <path d="M 10.796875 72.90625 
L 49.515625 72.90625 
L 49.515625 64.59375 
L 19.828125 64.59375 
L 19.828125 46.734375 
Q 21.96875 47.46875 24.109375 47.828125 
Q 26.265625 48.1875 28.421875 48.1875 
Q 40.625 48.1875 47.75 41.5 
Q 54.890625 34.8125 54.890625 23.390625 
Q 54.890625 11.625 47.5625 5.09375 
Q 40.234375 -1.421875 26.90625 -1.421875 
Q 22.3125 -1.421875 17.546875 -0.640625 
Q 12.796875 0.140625 7.71875 1.703125 
L 7.71875 11.625 
Q 12.109375 9.234375 16.796875 8.0625 
Q 21.484375 6.890625 26.703125 6.890625 
Q 35.15625 6.890625 40.078125 11.328125 
Q 45.015625 15.765625 45.015625 23.390625 
Q 45.015625 31 40.078125 35.4375 
Q 35.15625 39.890625 26.703125 39.890625 
Q 22.75 39.890625 18.8125 39.015625 
Q 14.890625 38.140625 10.796875 36.28125 
z
" id="DejaVuSans-35"/>
      </defs>
      <g transform="translate(114.734375 632.812639)scale(0.1 -0.1)">
       <use xlink:href="#DejaVuSans-30"/>
       <use x="63.623047" xlink:href="#DejaVuSans-2e"/>
       <use x="95.410156" xlink:href="#DejaVuSans-34"/>
       <use x="159.033203" xlink:href="#DejaVuSans-35"/>
      </g>
     </g>
    </g>
    <g id="ytick_2">
     <g id="line2d_8">
      <g>
       <use style="stroke:#000000;stroke-width:0.8;" x="144" xlink:href="#m2de41781fb" y="522.389104"/>
      </g>
     </g>
     <g id="text_9">
      <!-- 0.50 -->
      <g transform="translate(114.734375 526.188323)scale(0.1 -0.1)">
       <use xlink:href="#DejaVuSans-30"/>
       <use x="63.623047" xlink:href="#DejaVuSans-2e"/>
       <use x="95.410156" xlink:href="#DejaVuSans-35"/>
       <use x="159.033203" xlink:href="#DejaVuSans-30"/>
      </g>
     </g>
    </g>
    <g id="ytick_3">
     <g id="line2d_9">
      <g>
       <use style="stroke:#000000;stroke-width:0.8;" x="144" xlink:href="#m2de41781fb" y="415.764788"/>
      </g>
     </g>
     <g id="text_10">
      <!-- 0.55 -->
      <g transform="translate(114.734375 419.564006)scale(0.1 -0.1)">
       <use xlink:href="#DejaVuSans-30"/>
       <use x="63.623047" xlink:href="#DejaVuSans-2e"/>
       <use x="95.410156" xlink:href="#DejaVuSans-35"/>
       <use x="159.033203" xlink:href="#DejaVuSans-35"/>
      </g>
     </g>
    </g>
    <g id="ytick_4">
     <g id="line2d_10">
      <g>
       <use style="stroke:#000000;stroke-width:0.8;" x="144" xlink:href="#m2de41781fb" y="309.140471"/>
      </g>
     </g>
     <g id="text_11">
      <!-- 0.60 -->
      <g transform="translate(114.734375 312.93969)scale(0.1 -0.1)">
       <use xlink:href="#DejaVuSans-30"/>
       <use x="63.623047" xlink:href="#DejaVuSans-2e"/>
       <use x="95.410156" xlink:href="#DejaVuSans-36"/>
       <use x="159.033203" xlink:href="#DejaVuSans-30"/>
      </g>
     </g>
    </g>
    <g id="ytick_5">
     <g id="line2d_11">
      <g>
       <use style="stroke:#000000;stroke-width:0.8;" x="144" xlink:href="#m2de41781fb" y="202.516155"/>
      </g>
     </g>
     <g id="text_12">
      <!-- 0.65 -->
      <g transform="translate(114.734375 206.315374)scale(0.1 -0.1)">
       <use xlink:href="#DejaVuSans-30"/>
       <use x="63.623047" xlink:href="#DejaVuSans-2e"/>
       <use x="95.410156" xlink:href="#DejaVuSans-36"/>
       <use x="159.033203" xlink:href="#DejaVuSans-35"/>
      </g>
     </g>
    </g>
    <g id="ytick_6">
     <g id="line2d_12">
      <g>
       <use style="stroke:#000000;stroke-width:0.8;" x="144" xlink:href="#m2de41781fb" y="95.891839"/>
      </g>
     </g>
     <g id="text_13">
      <!-- 0.70 -->
      <defs>
       <path d="M 8.203125 72.90625 
L 55.078125 72.90625 
L 55.078125 68.703125 
L 28.609375 0 
L 18.3125 0 
L 43.21875 64.59375 
L 8.203125 64.59375 
z
" id="DejaVuSans-37"/>
      </defs>
      <g transform="translate(114.734375 99.691057)scale(0.1 -0.1)">
       <use xlink:href="#DejaVuSans-30"/>
       <use x="63.623047" xlink:href="#DejaVuSans-2e"/>
       <use x="95.410156" xlink:href="#DejaVuSans-37"/>
       <use x="159.033203" xlink:href="#DejaVuSans-30"/>
      </g>
     </g>
    </g>
    <g id="text_14">
     <!-- Loss -->
     <defs>
      <path d="M 9.8125 72.90625 
L 19.671875 72.90625 
L 19.671875 8.296875 
L 55.171875 8.296875 
L 55.171875 0 
L 9.8125 0 
z
" id="DejaVuSans-4c"/>
      <path d="M 44.28125 53.078125 
L 44.28125 44.578125 
Q 40.484375 46.53125 36.375 47.5 
Q 32.28125 48.484375 27.875 48.484375 
Q 21.1875 48.484375 17.84375 46.4375 
Q 14.5 44.390625 14.5 40.28125 
Q 14.5 37.15625 16.890625 35.375 
Q 19.28125 33.59375 26.515625 31.984375 
L 29.59375 31.296875 
Q 39.15625 29.25 43.1875 25.515625 
Q 47.21875 21.78125 47.21875 15.09375 
Q 47.21875 7.46875 41.1875 3.015625 
Q 35.15625 -1.421875 24.609375 -1.421875 
Q 20.21875 -1.421875 15.453125 -0.5625 
Q 10.6875 0.296875 5.421875 2 
L 5.421875 11.28125 
Q 10.40625 8.6875 15.234375 7.390625 
Q 20.0625 6.109375 24.8125 6.109375 
Q 31.15625 6.109375 34.5625 8.28125 
Q 37.984375 10.453125 37.984375 14.40625 
Q 37.984375 18.0625 35.515625 20.015625 
Q 33.0625 21.96875 24.703125 23.78125 
L 21.578125 24.515625 
Q 13.234375 26.265625 9.515625 29.90625 
Q 5.8125 33.546875 5.8125 39.890625 
Q 5.8125 47.609375 11.28125 51.796875 
Q 16.75 56 26.8125 56 
Q 31.78125 56 36.171875 55.265625 
Q 40.578125 54.546875 44.28125 53.078125 
z
" id="DejaVuSans-73"/>
     </defs>
     <g transform="translate(107.140675 377.30115)rotate(-90)scale(0.1728 -0.1728)">
      <use xlink:href="#DejaVuSans-4c"/>
      <use x="55.697266" xlink:href="#DejaVuSans-6f"/>
      <use x="116.878906" xlink:href="#DejaVuSans-73"/>
      <use x="168.978516" xlink:href="#DejaVuSans-73"/>
     </g>
    </g>
   </g>
   <g id="line2d_13">
    <path clip-path="url(#pe07230304e)" d="M 184.581818 139.94384 
L 187.019165 182.291853 
L 187.831613 190.919682 
L 189.456511 204.168862 
L 191.081409 213.670376 
L 191.893857 219.62466 
L 192.706306 223.549633 
L 193.518755 226.460597 
L 195.143653 232.84533 
L 196.76855 237.691891 
L 197.580999 240.494913 
L 199.205897 244.922828 
L 200.018346 247.127638 
L 201.643243 250.644185 
L 204.08059 257.111584 
L 204.893038 258.864057 
L 205.705487 260.339644 
L 207.330385 264.137917 
L 208.955283 267.226007 
L 209.767731 268.361928 
L 211.392629 272.124915 
L 212.205078 273.020877 
L 214.642424 277.964455 
L 217.892219 282.72538 
L 218.704668 283.476211 
L 219.517117 285.197209 
L 221.954464 289.354931 
L 224.39181 292.853315 
L 225.204259 293.488888 
L 226.016708 293.932453 
L 226.829156 295.342845 
L 230.8914 300.552563 
L 231.703849 301.265447 
L 232.516298 302.451314 
L 233.328747 303.044301 
L 234.141196 303.895469 
L 234.953645 304.949424 
L 235.766093 305.460606 
L 237.390991 307.115506 
L 238.20344 308.021435 
L 239.015889 308.744483 
L 239.828337 309.688293 
L 241.453235 310.939212 
L 243.078133 312.767094 
L 246.327928 315.959645 
L 247.140377 316.508962 
L 247.952826 317.605426 
L 252.01507 321.603366 
L 253.639967 322.782968 
L 255.264865 323.182975 
L 256.077314 324.338381 
L 256.889762 324.898113 
L 257.702211 325.982474 
L 258.51466 326.837621 
L 259.327109 327.32003 
L 261.764455 329.135325 
L 262.576904 329.325955 
L 263.389353 330.110856 
L 264.201802 330.374894 
L 265.014251 331.085515 
L 265.826699 331.405586 
L 267.451597 332.863053 
L 268.264046 333.421722 
L 269.076495 334.123808 
L 269.888943 334.282293 
L 270.701392 335.003269 
L 271.513841 335.400728 
L 272.32629 336.209491 
L 273.138739 336.724768 
L 273.951188 336.845851 
L 274.763636 337.698727 
L 276.388534 338.759404 
L 277.200983 339.027751 
L 278.82588 340.309611 
L 279.638329 339.70739 
L 280.450778 340.421965 
L 281.263227 341.819303 
L 282.075676 342.776487 
L 283.700573 344.016864 
L 290.200164 347.637707 
L 291.825061 348.291356 
L 292.63751 348.861488 
L 293.449959 348.955302 
L 302.386896 353.466373 
L 303.199345 353.580189 
L 308.074038 356.020108 
L 312.136282 357.830653 
L 312.948731 357.967427 
L 313.761179 358.353259 
L 314.573628 358.922076 
L 315.386077 359.115235 
L 317.823423 360.6524 
L 318.635872 361.19183 
L 321.073219 362.285158 
L 321.885667 362.622637 
L 322.698116 362.801764 
L 323.510565 362.827304 
L 324.323014 363.467328 
L 325.947912 364.315812 
L 327.572809 365.139304 
L 329.197707 365.600711 
L 330.822604 365.649622 
L 331.635053 366.435633 
L 332.447502 366.549095 
L 333.259951 367.355908 
L 334.0724 367.543116 
L 335.697297 368.11086 
L 336.509746 368.172261 
L 337.322195 368.549727 
L 338.947093 369.106492 
L 341.384439 370.00884 
L 342.196888 370.064723 
L 343.009337 370.386888 
L 343.821785 370.867256 
L 344.634234 371.204237 
L 346.259132 371.67093 
L 350.321376 372.972731 
L 351.946274 373.678148 
L 354.38362 374.278074 
L 358.445864 375.81926 
L 360.88321 376.480342 
L 363.320557 377.407383 
L 364.133006 377.451063 
L 364.945455 377.629303 
L 366.570352 378.272927 
L 367.382801 377.768302 
L 369.820147 379.136289 
L 371.445045 379.525849 
L 372.257494 379.831248 
L 373.882391 380.156234 
L 374.69484 380.559377 
L 377.132187 381.251555 
L 378.757084 381.78212 
L 380.381982 382.064229 
L 382.00688 382.687091 
L 382.819328 382.796416 
L 386.069124 383.874308 
L 387.694021 384.201513 
L 390.131368 384.959924 
L 392.568714 385.494153 
L 395.818509 386.178875 
L 396.630958 386.493566 
L 397.443407 386.386777 
L 398.255856 386.782707 
L 399.880753 387.155133 
L 401.505651 387.242714 
L 403.942998 388.323509 
L 404.755446 388.435112 
L 407.192793 389.079208 
L 408.81769 389.382056 
L 410.442588 389.812608 
L 412.879934 390.207919 
L 413.692383 390.180409 
L 414.504832 390.691424 
L 416.12973 391.155826 
L 417.754627 391.480947 
L 419.379525 391.876581 
L 420.191974 391.902036 
L 421.004423 391.678749 
L 421.816871 391.587442 
L 423.441769 391.646569 
L 424.254218 392.488204 
L 425.066667 392.607349 
L 425.879115 392.897649 
L 426.691564 392.93771 
L 427.504013 393.52658 
L 429.128911 393.598156 
L 429.94136 393.904676 
L 430.753808 394.026291 
L 431.566257 394.316994 
L 433.191155 394.698497 
L 436.44095 395.434833 
L 438.878296 395.632383 
L 439.690745 396.062573 
L 441.315643 396.29881 
L 442.128092 396.521598 
L 443.752989 396.707393 
L 444.565438 396.985339 
L 445.377887 396.799516 
L 446.190336 397.069633 
L 447.002785 397.00587 
L 447.815233 397.43084 
L 449.440131 397.795243 
L 451.065029 398.135892 
L 452.689926 398.461985 
L 456.75217 399.010211 
L 457.564619 399.361993 
L 458.377068 399.345769 
L 460.001966 399.739177 
L 462.439312 400.294998 
L 464.876658 400.778064 
L 467.314005 401.068471 
L 468.126454 401.261355 
L 468.938903 401.271075 
L 471.376249 401.629642 
L 472.188698 401.677434 
L 473.001147 401.988236 
L 475.438493 402.235185 
L 476.250942 402.618908 
L 477.875839 402.854666 
L 480.313186 402.938328 
L 481.938084 402.891604 
L 484.37543 403.6295 
L 485.187879 403.809342 
L 486.000328 404.166992 
L 487.625225 404.357006 
L 488.437674 404.319762 
L 489.250123 404.507122 
L 490.062572 404.52166 
L 490.87502 404.807364 
L 493.312367 405.144342 
L 494.124816 405.266329 
L 494.937265 405.19084 
L 497.374611 405.919168 
L 498.18706 405.886093 
L 498.999509 406.200972 
L 500.624406 406.418039 
L 503.061753 406.564652 
L 503.874201 406.444338 
L 506.311548 407.400901 
L 507.123997 407.363758 
L 507.936446 406.729559 
L 509.561343 406.82815 
L 510.373792 406.999781 
L 511.99869 407.708545 
L 512.811138 407.669326 
L 513.623587 407.069978 
L 514.436036 406.899817 
L 515.248485 407.537525 
L 516.060934 407.723846 
L 516.873382 407.597763 
L 517.685831 407.716764 
L 518.49828 408.358852 
L 519.310729 406.994522 
L 520.123178 407.659843 
L 520.935627 407.912918 
L 521.748075 408.617456 
L 523.372973 409.546667 
L 526.622768 410.21379 
L 528.247666 409.953518 
L 531.497461 410.620163 
L 532.30991 411.010713 
L 534.747256 411.406201 
L 535.559705 411.542055 
L 536.372154 411.443739 
L 541.246847 412.359418 
L 542.059296 412.377634 
L 545.309091 412.845057 
L 546.12154 412.813729 
L 546.933989 412.896364 
L 547.746437 412.128906 
L 549.371335 413.146897 
L 550.183784 413.066431 
L 550.996233 413.429696 
L 553.433579 413.688235 
L 555.870925 414.201339 
L 557.495823 414.236137 
L 558.308272 414.159788 
L 559.120721 414.671856 
L 563.995414 415.408315 
L 564.807862 415.382144 
L 566.43276 415.666835 
L 567.245209 415.672939 
L 568.870106 416.015022 
L 572.932351 416.518481 
L 573.744799 416.537853 
L 577.807043 417.130202 
L 579.431941 417.175701 
L 580.24439 416.976885 
L 581.056839 417.246663 
L 581.869287 417.188935 
L 582.681736 416.812636 
L 583.494185 417.360081 
L 584.306634 417.486679 
L 585.119083 417.069277 
L 585.931532 417.219038 
L 586.74398 417.499612 
L 587.556429 417.480593 
L 588.368878 418.044864 
L 589.181327 418.250381 
L 589.993776 418.184728 
L 590.806224 418.510967 
L 592.431122 418.63059 
L 594.868468 418.862141 
L 595.680917 418.947481 
L 596.493366 419.187812 
L 598.118264 419.247771 
L 602.180508 419.96014 
L 603.805405 420.116128 
L 605.430303 420.092259 
L 606.242752 420.29292 
L 607.867649 420.316059 
L 608.680098 419.349793 
L 609.492547 419.4735 
L 610.304996 419.759064 
L 611.117445 420.211639 
L 611.929894 420.229368 
L 612.742342 420.422707 
L 613.554791 420.739922 
L 614.36724 420.650679 
L 615.179689 420.439331 
L 615.992138 420.824445 
L 616.804586 420.553822 
L 619.241933 421.3584 
L 620.054382 420.978851 
L 622.491728 421.81666 
L 623.304177 421.838696 
L 624.116626 422.048533 
L 624.929075 422.125719 
L 626.553972 422.043364 
L 628.17887 422.520241 
L 629.803767 422.6168 
L 631.428665 422.697913 
L 632.241114 422.845317 
L 633.053563 422.828131 
L 637.115807 423.514783 
L 637.928256 423.498936 
L 638.740704 423.671711 
L 639.553153 423.715371 
L 640.365602 423.875149 
L 641.178051 423.811576 
L 642.802948 422.304752 
L 643.615397 422.314607 
L 644.427846 422.81921 
L 646.865192 423.846071 
L 647.677641 423.271926 
L 648.49009 422.002478 
L 649.302539 422.457148 
L 650.927437 423.89616 
L 651.739885 423.761657 
L 652.552334 424.361287 
L 653.364783 423.823843 
L 654.177232 424.420445 
L 654.989681 424.017218 
L 656.614578 424.876053 
L 657.427027 425.103797 
L 658.239476 424.865663 
L 659.864373 425.292731 
L 661.489271 425.785264 
L 662.30172 425.886313 
L 663.114169 426.100336 
L 665.551515 426.358802 
L 670.426208 426.8182 
L 672.051106 426.806435 
L 674.488452 427.125176 
L 675.300901 427.158182 
L 676.925799 427.471948 
L 679.363145 427.612241 
L 680.175594 427.301753 
L 680.988043 427.316033 
L 681.800491 427.158649 
L 682.61294 427.442383 
L 683.425389 427.199147 
L 684.237838 427.557221 
L 685.050287 428.054339 
L 685.862735 427.497348 
L 686.675184 427.565434 
L 688.300082 428.083203 
L 689.112531 428.380005 
L 699.674365 429.401469 
L 700.486814 429.244356 
L 703.736609 429.797487 
L 706.986405 429.963784 
L 707.798853 430.171845 
L 708.611302 429.746365 
L 709.423751 430.154416 
L 712.673546 430.356193 
L 713.485995 430.606552 
L 715.110893 430.73288 
L 715.923342 430.623881 
L 716.73579 430.663667 
L 717.548239 430.506038 
L 718.360688 430.201623 
L 719.173137 430.197232 
L 719.985586 430.840779 
L 720.798034 430.609428 
L 721.610483 430.789279 
L 722.422932 431.177969 
L 723.235381 431.177035 
L 725.672727 431.455287 
L 726.485176 431.059068 
L 727.297625 431.200271 
L 728.110074 431.549723 
L 728.922523 431.541947 
L 729.734971 431.91013 
L 731.359869 432.129636 
L 733.797215 432.336256 
L 734.609664 432.358764 
L 735.422113 432.240352 
L 736.234562 432.638546 
L 737.047011 432.667464 
L 738.671908 432.887472 
L 741.921704 432.939007 
L 742.734152 432.91301 
L 744.35905 433.219665 
L 747.608845 433.409929 
L 748.421294 433.477292 
L 749.233743 433.187913 
L 750.046192 433.156259 
L 751.671089 433.57621 
L 752.483538 433.827963 
L 754.108436 433.939806 
L 760.608026 434.251043 
L 761.420475 434.181544 
L 763.045373 434.584576 
L 764.67027 434.673967 
L 766.295168 434.827592 
L 769.544963 435.038803 
L 771.98231 435.100848 
L 773.607207 434.695432 
L 775.232105 435.260089 
L 776.044554 435.272784 
L 776.857002 435.673769 
L 781.731695 435.995556 
L 782.544144 436.009672 
L 783.356593 436.150023 
L 784.169042 436.164611 
L 784.981491 435.851395 
L 785.793939 436.263359 
L 786.606388 436.416071 
L 787.418837 436.323293 
L 788.231286 436.580047 
L 790.668632 436.539095 
L 791.481081 436.712327 
L 792.29353 436.621922 
L 793.105979 436.652636 
L 794.730876 436.993304 
L 797.980672 437.304824 
L 798.79312 437.155317 
L 800.418018 437.636743 
L 801.230467 437.389591 
L 802.042916 437.514073 
L 802.855364 437.839001 
L 806.10516 438.029961 
L 807.730057 437.698083 
L 808.542506 438.087354 
L 809.354955 438.123482 
L 810.167404 438.376201 
L 813.417199 438.571732 
L 814.229648 438.401267 
L 815.042097 437.99465 
L 815.854545 438.323597 
L 817.479443 438.461056 
L 818.291892 438.402516 
L 819.104341 438.813996 
L 819.91679 438.877696 
L 820.729238 438.777766 
L 822.354136 439.186777 
L 823.979034 439.286107 
L 824.791482 438.984651 
L 825.603931 439.06388 
L 826.41638 439.368915 
L 827.228829 439.550503 
L 830.478624 439.62847 
L 831.291073 439.861512 
L 835.353317 440.002764 
L 836.165766 439.969723 
L 836.978215 440.194158 
L 837.790663 440.299529 
L 838.603112 440.292223 
L 840.22801 440.468579 
L 841.852907 440.534737 
L 842.665356 440.529575 
L 843.477805 440.226676 
L 844.290254 439.770496 
L 845.102703 440.192311 
L 845.915152 440.17792 
L 847.540049 440.809421 
L 849.977396 440.853167 
L 850.789844 440.908458 
L 851.602293 440.65898 
L 852.414742 440.948348 
L 853.227191 440.829979 
L 857.289435 441.10517 
L 858.101884 441.306841 
L 858.914333 441.224404 
L 859.726781 441.380357 
L 860.53923 441.227142 
L 861.351679 441.543146 
L 862.164128 441.592032 
L 862.976577 441.32922 
L 863.789025 441.66207 
L 865.413923 441.717243 
L 866.226372 441.550452 
L 867.851269 441.761169 
L 868.663718 441.052088 
L 869.476167 441.175626 
L 870.288616 441.847411 
L 871.101065 442.325979 
L 871.913514 442.4938 
L 874.35086 442.6755 
L 876.788206 442.956489 
L 877.600655 442.981069 
L 878.413104 442.831424 
L 879.225553 442.953762 
L 880.85045 442.945133 
L 881.662899 443.142595 
L 882.475348 442.995649 
L 887.350041 443.355548 
L 888.974939 443.605759 
L 895.474529 443.848485 
L 898.724324 444.129415 
L 899.536773 444.094198 
L 900.349222 444.338132 
L 902.786568 444.281721 
L 903.599017 444.439234 
L 904.411466 444.385133 
L 905.223915 444.633375 
L 907.661261 444.982977 
L 911.723505 445.070935 
L 912.535954 444.871466 
L 914.160852 445.343203 
L 915.785749 445.46311 
L 916.598198 445.560782 
L 918.223096 445.510324 
L 919.847993 445.124357 
L 920.660442 445.457595 
L 921.472891 445.344459 
L 922.28534 445.878617 
L 924.722686 446.041337 
L 925.535135 445.895957 
L 926.347584 446.075696 
L 927.972482 446.170783 
L 929.597379 446.316868 
L 930.409828 446.405986 
L 932.034726 446.433278 
L 932.847174 446.605198 
L 936.09697 446.749604 
L 938.534316 446.825374 
L 940.159214 446.964817 
L 941.784111 447.092744 
L 944.221458 447.119667 
L 948.283702 447.431363 
L 949.9086 447.490435 
L 951.533497 447.643181 
L 952.345946 447.798785 
L 953.158395 447.685597 
L 955.595741 447.939745 
L 956.40819 447.459381 
L 958.845536 448.056757 
L 960.470434 448.060466 
L 964.532678 448.459301 
L 966.157576 448.536443 
L 967.782473 448.651951 
L 969.407371 448.585904 
L 970.21982 448.790408 
L 983.219001 449.591882 
L 984.843898 449.598597 
L 985.656347 449.795083 
L 986.468796 449.587681 
L 987.281245 449.884695 
L 989.718591 449.900893 
L 990.53104 449.81022 
L 992.968387 450.25838 
L 996.218182 450.484498 
L 996.218182 450.484498 
" style="fill:none;stroke:#1f77b4;stroke-linecap:square;stroke-width:1.5;"/>
   </g>
   <g id="line2d_14">
    <path clip-path="url(#pe07230304e)" d="M 184.581818 317.380728 
L 186.206716 378.511033 
L 187.019165 388.361644 
L 187.831613 400.52624 
L 188.644062 410.233164 
L 189.456511 414.183833 
L 190.26896 425.420417 
L 191.081409 432.999578 
L 191.893857 435.748349 
L 192.706306 442.390062 
L 193.518755 429.533225 
L 194.331204 426.586151 
L 195.143653 451.022983 
L 195.956102 455.421177 
L 196.76855 457.038096 
L 197.580999 445.663992 
L 198.393448 463.417703 
L 199.205897 439.807307 
L 200.018346 471.02279 
L 200.830794 445.393316 
L 201.643243 473.439028 
L 202.455692 477.95005 
L 203.268141 458.418048 
L 204.08059 477.967247 
L 204.893038 483.424971 
L 205.705487 476.96168 
L 206.517936 482.18243 
L 207.330385 470.601733 
L 208.142834 487.96045 
L 208.955283 490.817878 
L 209.767731 494.953789 
L 210.58018 494.198878 
L 211.392629 496.796533 
L 212.205078 496.118155 
L 213.017527 475.29657 
L 213.829975 495.394544 
L 214.642424 500.998431 
L 215.454873 468.662337 
L 216.267322 496.307393 
L 217.079771 505.46411 
L 217.892219 508.559816 
L 218.704668 499.810677 
L 219.517117 505.545816 
L 220.329566 500.96269 
L 221.142015 493.237645 
L 221.954464 512.898994 
L 222.766912 505.490545 
L 223.579361 515.858092 
L 224.39181 504.228087 
L 225.204259 514.621901 
L 226.016708 511.151473 
L 226.829156 521.157277 
L 227.641605 518.228005 
L 228.454054 522.152919 
L 229.266503 512.07912 
L 230.078952 514.827901 
L 230.8914 516.521816 
L 231.703849 518.659428 
L 232.516298 524.948906 
L 233.328747 525.523667 
L 234.141196 520.931144 
L 234.953645 519.029286 
L 235.766093 525.851911 
L 236.578542 510.600823 
L 237.390991 526.488393 
L 238.20344 525.572025 
L 239.015889 530.477844 
L 239.828337 527.197318 
L 240.640786 530.896224 
L 241.453235 503.408388 
L 242.265684 532.26425 
L 243.078133 515.591135 
L 243.890581 530.721904 
L 244.70303 528.388275 
L 245.515479 535.544774 
L 246.327928 537.484525 
L 247.140377 536.725629 
L 247.952826 535.685301 
L 248.765274 532.470421 
L 249.577723 537.820647 
L 250.390172 538.781706 
L 251.202621 529.557892 
L 252.01507 535.713793 
L 252.827518 529.53628 
L 253.639967 531.60928 
L 254.452416 542.60342 
L 255.264865 542.073285 
L 256.077314 539.371988 
L 256.889762 539.383072 
L 257.702211 539.956071 
L 258.51466 537.16349 
L 259.327109 542.599754 
L 260.139558 545.164963 
L 260.952007 545.414139 
L 261.764455 542.594367 
L 262.576904 542.969687 
L 263.389353 539.734969 
L 264.201802 529.231071 
L 265.014251 544.931708 
L 265.826699 542.159379 
L 266.639148 542.782509 
L 267.451597 544.41208 
L 268.264046 544.051998 
L 269.076495 549.410076 
L 269.888943 549.729465 
L 270.701392 546.186854 
L 271.513841 546.942133 
L 272.32629 549.842199 
L 273.138739 549.725423 
L 273.951188 542.567378 
L 274.763636 547.577489 
L 275.576085 549.713988 
L 276.388534 547.339203 
L 277.200983 551.608007 
L 278.013432 538.550196 
L 278.82588 549.263644 
L 279.638329 548.106727 
L 280.450778 550.970917 
L 281.263227 539.868025 
L 282.888124 552.750196 
L 283.700573 552.958545 
L 284.513022 554.551373 
L 285.325471 549.32744 
L 286.13792 554.968062 
L 286.950369 555.21839 
L 287.762817 545.315174 
L 288.575266 554.031294 
L 289.387715 555.443176 
L 290.200164 545.571373 
L 291.012613 555.144247 
L 291.825061 541.717405 
L 292.63751 556.818524 
L 293.449959 558.243405 
L 294.262408 554.968831 
L 295.074857 558.490614 
L 296.699754 552.50534 
L 297.512203 560.0221 
L 298.324652 554.926512 
L 299.137101 554.356829 
L 299.94955 552.200482 
L 300.761998 552.790031 
L 301.574447 538.433785 
L 302.386896 560.32513 
L 303.199345 550.134101 
L 304.011794 560.001284 
L 304.824242 561.417488 
L 305.636691 557.116043 
L 306.44914 558.736623 
L 307.261589 558.07943 
L 308.074038 554.17309 
L 308.886486 557.570621 
L 309.698935 556.895229 
L 310.511384 562.068512 
L 311.323833 554.748039 
L 312.136282 563.581545 
L 312.948731 562.41073 
L 313.761179 563.366551 
L 314.573628 560.222248 
L 315.386077 563.023401 
L 316.198526 562.976131 
L 317.010975 564.186078 
L 317.823423 558.560732 
L 318.635872 530.587971 
L 319.448321 559.554238 
L 320.26077 565.126434 
L 321.073219 560.977029 
L 321.885667 564.320895 
L 322.698116 559.220844 
L 323.510565 564.246798 
L 324.323014 561.830403 
L 325.135463 563.873973 
L 325.947912 562.582556 
L 326.76036 564.7318 
L 327.572809 565.96377 
L 328.385258 563.531292 
L 329.197707 566.274779 
L 330.010156 557.23117 
L 330.822604 556.40791 
L 331.635053 560.22538 
L 332.447502 558.041433 
L 333.259951 553.705339 
L 334.0724 568.437002 
L 334.884848 551.46382 
L 335.697297 554.858314 
L 336.509746 567.525975 
L 337.322195 567.591419 
L 338.134644 564.240543 
L 338.947093 567.466733 
L 339.759541 561.982658 
L 340.57199 555.234933 
L 341.384439 567.080664 
L 342.196888 565.69634 
L 343.009337 554.223972 
L 343.821785 552.500289 
L 344.634234 558.964597 
L 345.446683 552.627121 
L 346.259132 564.953141 
L 347.071581 569.895806 
L 347.884029 570.776851 
L 348.696478 559.793892 
L 349.508927 569.944087 
L 350.321376 571.070747 
L 351.133825 561.723306 
L 351.946274 547.751925 
L 352.758722 565.412714 
L 353.571171 572.399958 
L 354.38362 555.54301 
L 355.196069 565.656858 
L 356.008518 572.592748 
L 356.820966 564.030391 
L 357.633415 563.70535 
L 358.445864 570.525678 
L 359.258313 563.199556 
L 360.070762 571.633899 
L 360.88321 572.530451 
L 361.695659 569.257006 
L 362.508108 563.462442 
L 363.320557 564.897559 
L 364.133006 566.767455 
L 364.945455 572.888491 
L 365.757903 572.135049 
L 366.570352 567.938265 
L 367.382801 564.756172 
L 368.19525 571.498428 
L 369.007699 566.404266 
L 369.820147 570.077478 
L 370.632596 572.308079 
L 371.445045 534.94828 
L 372.257494 573.329856 
L 373.069943 574.127673 
L 373.882391 563.736283 
L 374.69484 575.889917 
L 375.507289 572.9303 
L 376.319738 574.85949 
L 377.132187 570.932929 
L 377.944636 562.081771 
L 378.757084 574.846197 
L 379.569533 575.059955 
L 380.381982 575.972355 
L 381.194431 575.648186 
L 382.00688 573.451572 
L 382.819328 572.849427 
L 383.631777 575.488143 
L 384.444226 565.488703 
L 385.256675 576.872536 
L 386.069124 568.987733 
L 386.881572 574.635285 
L 387.694021 570.272594 
L 388.50647 576.723092 
L 389.318919 567.089596 
L 390.131368 576.28228 
L 390.943817 576.820223 
L 391.756265 575.390626 
L 392.568714 551.01782 
L 393.381163 569.580101 
L 394.193612 575.363886 
L 395.006061 573.642768 
L 396.630958 579.010153 
L 397.443407 570.471538 
L 398.255856 573.659809 
L 399.068305 578.446432 
L 399.880753 567.074773 
L 400.693202 576.617665 
L 401.505651 570.072334 
L 403.130549 579.602026 
L 403.942998 569.060097 
L 404.755446 576.428703 
L 405.567895 575.233221 
L 406.380344 575.758283 
L 407.192793 575.848991 
L 408.005242 576.924294 
L 408.81769 579.023958 
L 409.630139 575.389597 
L 410.442588 559.869134 
L 411.255037 580.22253 
L 412.067486 572.978414 
L 412.879934 579.925672 
L 413.692383 577.108071 
L 414.504832 574.694151 
L 415.317281 573.595348 
L 416.12973 575.612784 
L 416.942179 581.400902 
L 417.754627 579.234252 
L 418.567076 579.967964 
L 419.379525 580.856739 
L 420.191974 581.578654 
L 421.004423 566.871424 
L 421.816871 581.721651 
L 422.62932 578.093706 
L 423.441769 579.885495 
L 424.254218 576.851004 
L 425.066667 578.334722 
L 425.879115 576.267797 
L 426.691564 579.450631 
L 427.504013 579.307499 
L 428.316462 578.734237 
L 429.128911 581.996511 
L 429.94136 577.53791 
L 430.753808 569.05328 
L 431.566257 580.216641 
L 432.378706 577.045081 
L 433.191155 582.382935 
L 434.003604 576.956308 
L 434.816052 582.06365 
L 435.628501 577.900508 
L 436.44095 583.426537 
L 437.253399 582.064516 
L 438.065848 579.106252 
L 438.878296 578.025286 
L 439.690745 582.54168 
L 440.503194 582.42684 
L 441.315643 579.176529 
L 442.128092 583.661138 
L 442.940541 584.038282 
L 443.752989 582.771877 
L 444.565438 581.985275 
L 446.190336 575.663497 
L 447.002785 582.497743 
L 447.815233 581.638759 
L 448.627682 563.027523 
L 449.440131 581.172427 
L 450.25258 584.471713 
L 451.065029 572.001768 
L 451.877477 583.844875 
L 452.689926 579.639826 
L 453.502375 574.346102 
L 454.314824 580.271007 
L 455.127273 571.423287 
L 455.939722 577.071697 
L 456.75217 581.472867 
L 458.377068 577.6291 
L 459.189517 584.719066 
L 460.001966 585.693715 
L 460.814414 564.282921 
L 461.626863 585.37579 
L 462.439312 585.638603 
L 463.251761 585.271536 
L 464.06421 585.210251 
L 464.876658 586.399617 
L 465.689107 584.125616 
L 466.501556 584.280471 
L 467.314005 583.058288 
L 468.126454 574.892871 
L 468.938903 578.919208 
L 469.751351 585.665961 
L 470.5638 584.797573 
L 471.376249 582.53305 
L 472.188698 585.392855 
L 473.001147 585.909595 
L 473.813595 586.903041 
L 474.626044 566.624675 
L 475.438493 580.494082 
L 476.250942 576.361788 
L 477.063391 585.566761 
L 477.875839 580.444281 
L 478.688288 586.961231 
L 479.500737 587.193097 
L 480.313186 583.551091 
L 481.125635 584.59942 
L 481.938084 587.558606 
L 482.750532 588.023174 
L 483.562981 586.00933 
L 484.37543 585.546459 
L 485.187879 585.70043 
L 486.000328 586.029087 
L 486.812776 588.22431 
L 487.625225 586.138388 
L 488.437674 580.807282 
L 489.250123 587.837491 
L 490.062572 580.603927 
L 490.87502 586.422048 
L 491.687469 583.880152 
L 492.499918 584.242107 
L 493.312367 586.763613 
L 494.124816 585.503509 
L 494.937265 575.905411 
L 495.749713 586.198708 
L 496.562162 585.553627 
L 497.374611 587.084008 
L 498.18706 579.935272 
L 498.999509 585.402588 
L 499.811957 588.789054 
L 500.624406 583.78835 
L 501.436855 588.616619 
L 502.249304 581.268091 
L 503.061753 576.540571 
L 503.874201 587.048086 
L 504.68665 587.462337 
L 505.499099 586.676872 
L 506.311548 587.627749 
L 507.123997 563.547921 
L 507.936446 583.901458 
L 508.748894 588.504499 
L 509.561343 586.069935 
L 510.373792 588.93174 
L 511.186241 588.250002 
L 512.811138 582.067264 
L 513.623587 570.325545 
L 514.436036 582.63379 
L 515.248485 587.181163 
L 516.060934 581.065159 
L 516.873382 588.752476 
L 517.685831 586.405242 
L 518.49828 584.668126 
L 519.310729 586.497353 
L 520.123178 589.890606 
L 520.935627 584.881157 
L 521.748075 584.391232 
L 522.560524 590.466119 
L 523.372973 588.284093 
L 524.185422 580.88202 
L 524.997871 588.649982 
L 525.810319 580.24093 
L 526.622768 556.245746 
L 527.435217 590.542253 
L 528.247666 590.256959 
L 529.060115 579.514844 
L 529.872563 589.504055 
L 530.685012 583.694563 
L 531.497461 590.46148 
L 532.30991 583.119896 
L 533.122359 585.01238 
L 533.934808 589.378125 
L 534.747256 589.908857 
L 535.559705 588.002156 
L 536.372154 589.401103 
L 537.184603 576.609889 
L 537.997052 586.997056 
L 538.8095 591.271458 
L 539.621949 590.514297 
L 540.434398 590.548038 
L 541.246847 590.868903 
L 542.059296 590.05749 
L 542.871744 591.820074 
L 543.684193 588.098452 
L 544.496642 588.116094 
L 545.309091 587.323342 
L 546.12154 590.876391 
L 546.933989 588.417075 
L 547.746437 591.933972 
L 548.558886 587.648029 
L 549.371335 590.800133 
L 550.183784 584.642074 
L 550.996233 591.433759 
L 551.808681 590.615042 
L 552.62113 585.539639 
L 553.433579 579.09672 
L 554.246028 592.617208 
L 555.058477 584.907867 
L 555.870925 591.471893 
L 556.683374 588.895004 
L 557.495823 579.966568 
L 558.308272 577.478161 
L 559.120721 587.858958 
L 559.93317 591.357046 
L 560.745618 590.117232 
L 561.558067 588.522047 
L 562.370516 582.94253 
L 563.182965 588.849339 
L 563.995414 592.37514 
L 564.807862 586.642979 
L 565.620311 588.522738 
L 566.43276 592.215501 
L 567.245209 591.734493 
L 568.057658 587.336953 
L 568.870106 593.329025 
L 569.682555 589.287077 
L 570.495004 593.310349 
L 571.307453 590.590327 
L 572.119902 589.14422 
L 572.932351 588.10106 
L 573.744799 592.85252 
L 574.557248 593.559407 
L 575.369697 591.303485 
L 576.182146 590.276182 
L 576.994595 590.213674 
L 577.807043 592.703183 
L 578.619492 586.178351 
L 579.431941 591.815758 
L 580.24439 569.201784 
L 581.056839 581.876608 
L 581.869287 592.00997 
L 582.681736 585.788654 
L 583.494185 581.649241 
L 584.306634 593.669013 
L 585.119083 592.177639 
L 585.931532 594.067784 
L 586.74398 583.154959 
L 587.556429 584.632159 
L 588.368878 593.174252 
L 589.181327 589.817217 
L 589.993776 592.393738 
L 590.806224 594.410261 
L 591.618673 593.987801 
L 592.431122 589.25471 
L 593.243571 591.995548 
L 594.05602 592.968298 
L 594.868468 593.283701 
L 595.680917 593.108403 
L 596.493366 591.345594 
L 597.305815 576.364147 
L 598.118264 593.658807 
L 598.930713 594.610332 
L 599.743161 590.080392 
L 600.55561 594.120381 
L 601.368059 593.813211 
L 602.180508 593.963019 
L 602.992957 592.528404 
L 604.617854 588.492453 
L 605.430303 586.254627 
L 606.242752 593.283526 
L 607.055201 579.922519 
L 607.867649 593.772397 
L 608.680098 577.896184 
L 609.492547 593.548527 
L 610.304996 594.895822 
L 611.117445 595.091379 
L 611.929894 593.948592 
L 612.742342 590.809864 
L 613.554791 593.129678 
L 614.36724 594.389309 
L 615.179689 585.777706 
L 615.992138 593.791269 
L 616.804586 592.992103 
L 617.617035 593.502339 
L 618.429484 593.349691 
L 619.241933 595.394657 
L 620.054382 593.283897 
L 620.86683 577.742141 
L 621.679279 595.079864 
L 622.491728 585.345554 
L 623.304177 595.061943 
L 624.116626 593.821592 
L 624.929075 594.447851 
L 625.741523 594.256929 
L 626.553972 594.548632 
L 627.366421 593.618926 
L 628.17887 588.416084 
L 628.991319 584.05027 
L 629.803767 589.349916 
L 630.616216 592.445186 
L 631.428665 576.527983 
L 632.241114 588.048432 
L 633.053563 593.945218 
L 633.866011 594.421317 
L 634.67846 594.250529 
L 635.490909 561.902606 
L 636.303358 595.75165 
L 637.115807 595.772311 
L 637.928256 595.313919 
L 638.740704 590.174618 
L 639.553153 595.659859 
L 640.365602 593.078564 
L 641.178051 590.877039 
L 642.802948 595.928514 
L 643.615397 593.511042 
L 645.240295 591.463088 
L 646.052744 596.418562 
L 646.865192 593.360373 
L 647.677641 595.898029 
L 648.49009 593.443353 
L 649.302539 596.032178 
L 650.927437 595.31987 
L 651.739885 592.736215 
L 652.552334 581.479488 
L 653.364783 596.309447 
L 654.177232 584.666015 
L 654.989681 595.67121 
L 655.802129 596.859724 
L 656.614578 590.139995 
L 657.427027 594.718054 
L 658.239476 595.080479 
L 659.051925 597.558599 
L 659.864373 590.649055 
L 660.676822 594.013105 
L 661.489271 595.087025 
L 662.30172 597.547228 
L 663.114169 596.27425 
L 663.926618 596.247635 
L 664.739066 594.06832 
L 665.551515 592.230498 
L 666.363964 595.19962 
L 667.176413 592.64432 
L 667.988862 581.614923 
L 668.80131 584.731578 
L 669.613759 592.672729 
L 670.426208 590.167462 
L 671.238657 594.894379 
L 672.051106 584.581755 
L 672.863554 590.365065 
L 673.676003 597.72174 
L 674.488452 596.727811 
L 675.300901 596.67268 
L 676.11335 591.569805 
L 676.925799 597.915024 
L 677.738247 595.967143 
L 678.550696 598.107318 
L 679.363145 597.054175 
L 680.175594 595.061164 
L 680.988043 596.600593 
L 681.800491 597.599268 
L 682.61294 595.745039 
L 683.425389 591.059129 
L 684.237838 587.889618 
L 685.050287 598.193088 
L 685.862735 595.583192 
L 686.675184 590.468437 
L 687.487633 594.584975 
L 688.300082 594.527216 
L 689.112531 596.178536 
L 689.92498 594.814994 
L 690.737428 598.67016 
L 691.549877 596.936393 
L 692.362326 598.020966 
L 693.174775 594.527886 
L 693.987224 598.699237 
L 694.799672 583.233739 
L 695.612121 591.586942 
L 696.42457 595.162612 
L 697.237019 591.684017 
L 698.049468 592.962183 
L 698.861916 599.019883 
L 699.674365 593.246504 
L 700.486814 591.968388 
L 701.299263 594.868729 
L 702.111712 595.227289 
L 702.924161 596.384046 
L 703.736609 587.618181 
L 704.549058 597.313765 
L 705.361507 596.484921 
L 706.173956 598.637835 
L 706.986405 597.291815 
L 707.798853 594.603613 
L 708.611302 570.369446 
L 709.423751 593.69219 
L 710.2362 591.723411 
L 711.048649 595.664757 
L 711.861097 597.517175 
L 712.673546 598.108836 
L 713.485995 599.026497 
L 714.298444 591.833527 
L 715.110893 592.587501 
L 715.923342 598.489976 
L 716.73579 589.513489 
L 717.548239 598.755637 
L 718.360688 582.970488 
L 719.173137 579.76837 
L 719.985586 592.200999 
L 720.798034 598.637633 
L 721.610483 599.18012 
L 722.422932 596.052435 
L 723.235381 589.938372 
L 724.04783 593.5575 
L 725.672727 598.882233 
L 726.485176 588.527318 
L 727.297625 598.276428 
L 728.110074 597.597641 
L 728.922523 595.604388 
L 729.734971 595.649557 
L 730.54742 599.960758 
L 731.359869 593.936552 
L 732.172318 598.417153 
L 732.984767 599.123957 
L 733.797215 596.519603 
L 734.609664 594.798299 
L 735.422113 593.771103 
L 736.234562 595.90349 
L 737.047011 589.710072 
L 738.671908 597.040667 
L 739.484357 595.169961 
L 740.296806 596.473858 
L 741.109255 596.268695 
L 741.921704 591.130028 
L 742.734152 596.65802 
L 743.546601 589.586933 
L 744.35905 598.736988 
L 745.171499 599.44637 
L 745.983948 590.537258 
L 746.796396 598.451458 
L 747.608845 590.797639 
L 748.421294 598.287213 
L 749.233743 597.443736 
L 750.046192 597.107219 
L 750.85864 597.731978 
L 751.671089 599.098832 
L 752.483538 597.915132 
L 753.295987 593.064604 
L 754.108436 593.816292 
L 754.920885 599.749193 
L 755.733333 598.676003 
L 757.358231 590.244851 
L 758.17068 598.051502 
L 758.983129 598.3339 
L 759.795577 595.710062 
L 760.608026 598.282446 
L 761.420475 577.686264 
L 762.232924 599.662536 
L 763.045373 597.405221 
L 763.857821 598.261534 
L 764.67027 593.19059 
L 765.482719 599.635803 
L 766.295168 598.988411 
L 767.107617 598.845589 
L 767.920066 595.389324 
L 768.732514 596.503636 
L 769.544963 599.261359 
L 770.357412 595.003495 
L 771.169861 586.409905 
L 771.98231 599.68256 
L 772.794758 537.70388 
L 773.607207 599.672798 
L 774.419656 598.431176 
L 775.232105 599.347608 
L 776.044554 597.557648 
L 776.857002 585.991252 
L 777.669451 599.477873 
L 778.4819 596.013434 
L 779.294349 599.149826 
L 780.106798 599.745235 
L 780.919247 598.959195 
L 781.731695 600.832486 
L 782.544144 588.426278 
L 783.356593 590.720255 
L 784.169042 597.831433 
L 784.981491 594.230053 
L 785.793939 601.062177 
L 786.606388 589.494411 
L 787.418837 598.833717 
L 788.231286 585.068921 
L 789.043735 599.119826 
L 789.856183 586.074744 
L 790.668632 598.414801 
L 791.481081 600.701792 
L 792.29353 586.12687 
L 793.105979 594.013584 
L 793.918428 600.10837 
L 794.730876 590.679175 
L 795.543325 594.066016 
L 796.355774 588.486187 
L 797.168223 590.113393 
L 797.980672 600.124799 
L 798.79312 597.854666 
L 799.605569 599.390478 
L 800.418018 600.09818 
L 801.230467 598.878395 
L 802.042916 590.759136 
L 802.855364 596.45011 
L 803.667813 600.226199 
L 804.480262 584.898353 
L 806.10516 600.552381 
L 806.917609 600.621325 
L 807.730057 594.193565 
L 808.542506 596.504545 
L 809.354955 592.578468 
L 810.167404 573.695536 
L 810.979853 600.165633 
L 811.792301 597.731172 
L 812.60475 600.211689 
L 813.417199 589.909339 
L 814.229648 598.505709 
L 815.042097 596.955173 
L 815.854545 601.534955 
L 816.666994 600.763633 
L 817.479443 601.748331 
L 818.291892 588.57335 
L 819.104341 597.986801 
L 819.91679 596.469206 
L 821.541687 602.481085 
L 822.354136 597.324236 
L 823.166585 599.723282 
L 823.979034 591.101108 
L 824.791482 597.082197 
L 825.603931 584.492676 
L 826.41638 594.48571 
L 827.228829 599.32582 
L 828.041278 601.566803 
L 828.853726 601.711419 
L 829.666175 602.506692 
L 830.478624 573.524565 
L 831.291073 599.818823 
L 832.103522 584.583276 
L 832.915971 602.034427 
L 833.728419 595.929203 
L 834.540868 600.399163 
L 836.165766 601.12813 
L 836.978215 600.027883 
L 837.790663 595.703939 
L 838.603112 598.452908 
L 839.415561 602.082576 
L 840.22801 599.750814 
L 841.040459 599.388557 
L 841.852907 596.584044 
L 842.665356 591.30584 
L 843.477805 602.499943 
L 844.290254 600.726144 
L 845.102703 599.296153 
L 845.915152 600.756624 
L 846.7276 600.130079 
L 847.540049 600.431471 
L 848.352498 598.418175 
L 849.164947 602.158132 
L 849.977396 601.495704 
L 850.789844 595.482783 
L 851.602293 596.550021 
L 852.414742 602.060845 
L 853.227191 594.966515 
L 854.03964 602.004645 
L 854.852088 602.45758 
L 855.664537 601.909773 
L 856.476986 596.778199 
L 857.289435 597.790187 
L 858.101884 602.875061 
L 858.914333 601.06787 
L 859.726781 600.331287 
L 860.53923 602.021337 
L 861.351679 600.724189 
L 862.164128 600.0658 
L 862.976577 592.555329 
L 863.789025 591.981845 
L 864.601474 599.650077 
L 865.413923 598.608683 
L 866.226372 602.40525 
L 867.038821 593.224656 
L 867.851269 601.068792 
L 869.476167 599.070099 
L 870.288616 600.061224 
L 871.101065 599.15999 
L 871.913514 602.517772 
L 872.725962 594.162039 
L 873.538411 602.319467 
L 874.35086 600.225658 
L 875.163309 602.197437 
L 875.975758 602.499388 
L 876.788206 596.158787 
L 877.600655 600.394078 
L 878.413104 601.632447 
L 879.225553 591.916277 
L 880.038002 597.458676 
L 880.85045 591.758061 
L 881.662899 602.770509 
L 882.475348 603.720726 
L 883.287797 598.381328 
L 884.100246 602.524087 
L 885.725143 597.238635 
L 886.537592 601.662581 
L 887.350041 599.957216 
L 888.16249 597.905289 
L 888.974939 597.628546 
L 889.787387 599.994479 
L 890.599836 594.621119 
L 891.412285 602.564232 
L 892.224734 601.136909 
L 893.037183 601.821692 
L 893.849631 603.568924 
L 894.66208 602.147733 
L 895.474529 600.28646 
L 896.286978 599.022514 
L 897.099427 597.068399 
L 897.911876 590.539358 
L 898.724324 600.198119 
L 899.536773 603.196921 
L 900.349222 594.851251 
L 901.161671 603.424347 
L 901.97412 601.070073 
L 902.786568 602.767987 
L 903.599017 599.595655 
L 904.411466 603.301796 
L 905.223915 600.280601 
L 906.036364 601.311752 
L 906.848812 599.160623 
L 907.661261 579.735634 
L 908.47371 594.512153 
L 909.286159 603.430552 
L 910.098608 597.498378 
L 910.911057 600.82106 
L 911.723505 599.602708 
L 912.535954 601.108043 
L 913.348403 600.235322 
L 914.160852 603.162122 
L 914.973301 595.511096 
L 915.785749 599.179696 
L 916.598198 601.78536 
L 917.410647 601.447116 
L 918.223096 601.646934 
L 919.035545 596.704937 
L 919.847993 597.602307 
L 920.660442 596.085199 
L 921.472891 596.135456 
L 922.28534 597.958584 
L 923.097789 604.16097 
L 923.910238 593.25613 
L 924.722686 584.446323 
L 925.535135 603.028037 
L 926.347584 603.757365 
L 927.160033 599.378378 
L 927.972482 602.460261 
L 928.78493 600.099763 
L 929.597379 589.815932 
L 930.409828 599.301007 
L 931.222277 603.087135 
L 932.034726 596.508915 
L 932.847174 597.69993 
L 933.659623 576.777689 
L 934.472072 595.960743 
L 936.09697 604.388393 
L 937.721867 600.914875 
L 938.534316 602.992294 
L 939.346765 602.795185 
L 940.159214 591.845089 
L 940.971663 568.97153 
L 941.784111 594.024807 
L 942.59656 603.285008 
L 943.409009 594.589674 
L 944.221458 600.267218 
L 945.033907 603.130597 
L 945.846355 596.739462 
L 946.658804 596.922088 
L 947.471253 599.753038 
L 948.283702 602.002107 
L 949.096151 600.693578 
L 949.9086 603.622565 
L 950.721048 602.332841 
L 951.533497 577.485443 
L 952.345946 589.244752 
L 953.158395 598.944852 
L 953.970844 602.237124 
L 954.783292 598.781544 
L 955.595741 599.086522 
L 956.40819 592.512906 
L 957.220639 600.101023 
L 958.033088 596.65657 
L 958.845536 599.579488 
L 959.657985 601.801454 
L 960.470434 565.351781 
L 961.282883 604.474981 
L 962.095332 603.131043 
L 962.907781 591.828561 
L 963.720229 603.390702 
L 964.532678 599.774333 
L 965.345127 603.070479 
L 966.157576 599.716391 
L 966.970025 587.41982 
L 967.782473 602.690563 
L 968.594922 601.645117 
L 969.407371 603.240887 
L 970.21982 603.098584 
L 971.032269 601.515869 
L 971.844717 605.053467 
L 972.657166 598.878166 
L 973.469615 595.472324 
L 974.282064 603.678504 
L 975.094513 594.486642 
L 975.906962 602.904975 
L 976.71941 601.440146 
L 977.531859 605.219465 
L 978.344308 600.230946 
L 979.156757 603.77964 
L 979.969206 603.816401 
L 980.781654 604.410066 
L 981.594103 583.165595 
L 982.406552 596.238411 
L 983.219001 605.025377 
L 984.03145 600.52139 
L 984.843898 602.422933 
L 985.656347 605.226366 
L 986.468796 596.148353 
L 987.281245 602.302995 
L 988.093694 602.119653 
L 988.906143 595.03458 
L 989.718591 601.05414 
L 990.53104 600.882019 
L 991.343489 603.841464 
L 992.155938 605.290909 
L 992.968387 598.51582 
L 993.780835 601.830114 
L 994.593284 603.965797 
L 995.405733 595.430609 
L 996.218182 599.874241 
L 996.218182 599.874241 
" style="fill:none;stroke:#ff7f0e;stroke-linecap:square;stroke-width:1.5;"/>
   </g>
   <g id="line2d_15">
    <path clip-path="url(#pe07230304e)" d="M 184.581818 111.109091 
L 195.956102 119.417393 
L 208.142834 128.035431 
L 220.329566 136.379438 
L 233.328747 144.998088 
L 246.327928 153.34561 
L 260.139558 161.938092 
L 273.951188 170.264816 
L 288.575266 178.811608 
L 303.199345 187.099882 
L 318.635872 195.587448 
L 334.0724 203.825033 
L 350.321376 212.244565 
L 367.382801 220.826329 
L 384.444226 229.161153 
L 402.3181 237.646035 
L 421.004423 246.264763 
L 439.690745 254.643256 
L 459.189517 263.146758 
L 479.500737 271.761505 
L 500.624406 280.474554 
L 522.560524 289.273662 
L 544.496642 297.834475 
L 567.245209 306.475438 
L 590.806224 315.185039 
L 615.179689 323.952031 
L 639.553153 332.484813 
L 664.739066 341.068147 
L 690.737428 349.690749 
L 716.73579 358.082753 
L 743.546601 366.505745 
L 771.169861 374.948304 
L 798.79312 383.160894 
L 827.228829 391.38367 
L 856.476986 399.60516 
L 885.725143 407.595227 
L 915.785749 415.573956 
L 945.846355 423.323578 
L 976.71941 431.051343 
L 996.218182 435.814339 
L 996.218182 435.814339 
" style="fill:none;stroke:#2ca02c;stroke-linecap:square;stroke-width:1.5;"/>
   </g>
   <g id="line2d_16">
    <path clip-path="url(#pe07230304e)" d="M 184.581818 136.677755 
L 185.394267 152.783645 
L 186.206716 164.488214 
L 187.019165 173.608523 
L 187.831613 181.000982 
L 188.644062 187.1519 
L 190.26896 196.867529 
L 191.893857 204.267825 
L 193.518755 210.168237 
L 195.143653 215.051764 
L 196.76855 219.220869 
L 198.393448 222.87263 
L 200.830794 227.65657 
L 203.268141 231.844995 
L 205.705487 235.600298 
L 208.142834 239.019825 
L 211.392629 243.160417 
L 214.642424 246.907022 
L 217.892219 250.324587 
L 221.142015 253.462783 
L 225.204259 257.054263 
L 229.266503 260.338582 
L 234.141196 263.947982 
L 239.015889 267.260946 
L 244.70303 270.82007 
L 250.390172 274.106523 
L 256.889762 277.584775 
L 263.389353 280.813577 
L 270.701392 284.194186 
L 278.82588 287.68557 
L 286.950369 290.940144 
L 295.887305 294.286927 
L 305.636691 297.699186 
L 316.198526 301.154785 
L 327.572809 304.635512 
L 339.759541 308.126418 
L 352.758722 311.615226 
L 366.570352 315.091821 
L 381.194431 318.547838 
L 397.443407 322.151055 
L 414.504832 325.699911 
L 432.378706 329.191875 
L 451.877477 332.769406 
L 472.188698 336.268846 
L 494.124816 339.817877 
L 516.873382 343.273868 
L 541.246847 346.750844 
L 567.245209 350.229787 
L 594.868468 353.694133 
L 624.116626 357.129763 
L 654.989681 360.525034 
L 687.487633 363.870825 
L 721.610483 367.160548 
L 758.17068 370.460883 
L 797.168223 373.755319 
L 838.603112 377.028652 
L 881.662899 380.207685 
L 927.160033 383.34368 
L 975.094513 386.424073 
L 996.218182 387.714887 
L 996.218182 387.714887 
" style="fill:none;stroke:#d62728;stroke-linecap:square;stroke-width:1.5;"/>
   </g>
   <g id="patch_3">
    <path d="M 144 630 
L 144 86.4 
" style="fill:none;stroke:#000000;stroke-linecap:square;stroke-linejoin:miter;stroke-width:0.8;"/>
   </g>
   <g id="patch_4">
    <path d="M 1036.8 630 
L 1036.8 86.4 
" style="fill:none;stroke:#000000;stroke-linecap:square;stroke-linejoin:miter;stroke-width:0.8;"/>
   </g>
   <g id="patch_5">
    <path d="M 144 630 
L 1036.8 630 
" style="fill:none;stroke:#000000;stroke-linecap:square;stroke-linejoin:miter;stroke-width:0.8;"/>
   </g>
   <g id="patch_6">
    <path d="M 144 86.4 
L 1036.8 86.4 
" style="fill:none;stroke:#000000;stroke-linecap:square;stroke-linejoin:miter;stroke-width:0.8;"/>
   </g>
   <g id="text_15">
    <!-- Scaled Retinopathy: All 4 implementations -->
    <defs>
     <path d="M 53.515625 70.515625 
L 53.515625 60.890625 
Q 47.90625 63.578125 42.921875 64.890625 
Q 37.9375 66.21875 33.296875 66.21875 
Q 25.25 66.21875 20.875 63.09375 
Q 16.5 59.96875 16.5 54.203125 
Q 16.5 49.359375 19.40625 46.890625 
Q 22.3125 44.4375 30.421875 42.921875 
L 36.375 41.703125 
Q 47.40625 39.59375 52.65625 34.296875 
Q 57.90625 29 57.90625 20.125 
Q 57.90625 9.515625 50.796875 4.046875 
Q 43.703125 -1.421875 29.984375 -1.421875 
Q 24.8125 -1.421875 18.96875 -0.25 
Q 13.140625 0.921875 6.890625 3.21875 
L 6.890625 13.375 
Q 12.890625 10.015625 18.65625 8.296875 
Q 24.421875 6.59375 29.984375 6.59375 
Q 38.421875 6.59375 43.015625 9.90625 
Q 47.609375 13.234375 47.609375 19.390625 
Q 47.609375 24.75 44.3125 27.78125 
Q 41.015625 30.8125 33.5 32.328125 
L 27.484375 33.5 
Q 16.453125 35.6875 11.515625 40.375 
Q 6.59375 45.0625 6.59375 53.421875 
Q 6.59375 63.09375 13.40625 68.65625 
Q 20.21875 74.21875 32.171875 74.21875 
Q 37.3125 74.21875 42.625 73.28125 
Q 47.953125 72.359375 53.515625 70.515625 
z
" id="DejaVuSans-53"/>
     <path d="M 48.78125 52.59375 
L 48.78125 44.1875 
Q 44.96875 46.296875 41.140625 47.34375 
Q 37.3125 48.390625 33.40625 48.390625 
Q 24.65625 48.390625 19.8125 42.84375 
Q 14.984375 37.3125 14.984375 27.296875 
Q 14.984375 17.28125 19.8125 11.734375 
Q 24.65625 6.203125 33.40625 6.203125 
Q 37.3125 6.203125 41.140625 7.25 
Q 44.96875 8.296875 48.78125 10.40625 
L 48.78125 2.09375 
Q 45.015625 0.34375 40.984375 -0.53125 
Q 36.96875 -1.421875 32.421875 -1.421875 
Q 20.0625 -1.421875 12.78125 6.34375 
Q 5.515625 14.109375 5.515625 27.296875 
Q 5.515625 40.671875 12.859375 48.328125 
Q 20.21875 56 33.015625 56 
Q 37.15625 56 41.109375 55.140625 
Q 45.0625 54.296875 48.78125 52.59375 
z
" id="DejaVuSans-63"/>
     <path d="M 9.421875 75.984375 
L 18.40625 75.984375 
L 18.40625 0 
L 9.421875 0 
z
" id="DejaVuSans-6c"/>
     <path d="M 45.40625 46.390625 
L 45.40625 75.984375 
L 54.390625 75.984375 
L 54.390625 0 
L 45.40625 0 
L 45.40625 8.203125 
Q 42.578125 3.328125 38.25 0.953125 
Q 33.9375 -1.421875 27.875 -1.421875 
Q 17.96875 -1.421875 11.734375 6.484375 
Q 5.515625 14.40625 5.515625 27.296875 
Q 5.515625 40.1875 11.734375 48.09375 
Q 17.96875 56 27.875 56 
Q 33.9375 56 38.25 53.625 
Q 42.578125 51.265625 45.40625 46.390625 
z
M 14.796875 27.296875 
Q 14.796875 17.390625 18.875 11.75 
Q 22.953125 6.109375 30.078125 6.109375 
Q 37.203125 6.109375 41.296875 11.75 
Q 45.40625 17.390625 45.40625 27.296875 
Q 45.40625 37.203125 41.296875 42.84375 
Q 37.203125 48.484375 30.078125 48.484375 
Q 22.953125 48.484375 18.875 42.84375 
Q 14.796875 37.203125 14.796875 27.296875 
z
" id="DejaVuSans-64"/>
     <path id="DejaVuSans-20"/>
     <path d="M 44.390625 34.1875 
Q 47.5625 33.109375 50.5625 29.59375 
Q 53.5625 26.078125 56.59375 19.921875 
L 66.609375 0 
L 56 0 
L 46.6875 18.703125 
Q 43.0625 26.03125 39.671875 28.421875 
Q 36.28125 30.8125 30.421875 30.8125 
L 19.671875 30.8125 
L 19.671875 0 
L 9.8125 0 
L 9.8125 72.90625 
L 32.078125 72.90625 
Q 44.578125 72.90625 50.734375 67.671875 
Q 56.890625 62.453125 56.890625 51.90625 
Q 56.890625 45.015625 53.6875 40.46875 
Q 50.484375 35.9375 44.390625 34.1875 
z
M 19.671875 64.796875 
L 19.671875 38.921875 
L 32.078125 38.921875 
Q 39.203125 38.921875 42.84375 42.21875 
Q 46.484375 45.515625 46.484375 51.90625 
Q 46.484375 58.296875 42.84375 61.546875 
Q 39.203125 64.796875 32.078125 64.796875 
z
" id="DejaVuSans-52"/>
     <path d="M 18.109375 8.203125 
L 18.109375 -20.796875 
L 9.078125 -20.796875 
L 9.078125 54.6875 
L 18.109375 54.6875 
L 18.109375 46.390625 
Q 20.953125 51.265625 25.265625 53.625 
Q 29.59375 56 35.59375 56 
Q 45.5625 56 51.78125 48.09375 
Q 58.015625 40.1875 58.015625 27.296875 
Q 58.015625 14.40625 51.78125 6.484375 
Q 45.5625 -1.421875 35.59375 -1.421875 
Q 29.59375 -1.421875 25.265625 0.953125 
Q 20.953125 3.328125 18.109375 8.203125 
z
M 48.6875 27.296875 
Q 48.6875 37.203125 44.609375 42.84375 
Q 40.53125 48.484375 33.40625 48.484375 
Q 26.265625 48.484375 22.1875 42.84375 
Q 18.109375 37.203125 18.109375 27.296875 
Q 18.109375 17.390625 22.1875 11.75 
Q 26.265625 6.109375 33.40625 6.109375 
Q 40.53125 6.109375 44.609375 11.75 
Q 48.6875 17.390625 48.6875 27.296875 
z
" id="DejaVuSans-70"/>
     <path d="M 54.890625 33.015625 
L 54.890625 0 
L 45.90625 0 
L 45.90625 32.71875 
Q 45.90625 40.484375 42.875 44.328125 
Q 39.84375 48.1875 33.796875 48.1875 
Q 26.515625 48.1875 22.3125 43.546875 
Q 18.109375 38.921875 18.109375 30.90625 
L 18.109375 0 
L 9.078125 0 
L 9.078125 75.984375 
L 18.109375 75.984375 
L 18.109375 46.1875 
Q 21.34375 51.125 25.703125 53.5625 
Q 30.078125 56 35.796875 56 
Q 45.21875 56 50.046875 50.171875 
Q 54.890625 44.34375 54.890625 33.015625 
z
" id="DejaVuSans-68"/>
     <path d="M 32.171875 -5.078125 
Q 28.375 -14.84375 24.75 -17.8125 
Q 21.140625 -20.796875 15.09375 -20.796875 
L 7.90625 -20.796875 
L 7.90625 -13.28125 
L 13.1875 -13.28125 
Q 16.890625 -13.28125 18.9375 -11.515625 
Q 21 -9.765625 23.484375 -3.21875 
L 25.09375 0.875 
L 2.984375 54.6875 
L 12.5 54.6875 
L 29.59375 11.921875 
L 46.6875 54.6875 
L 56.203125 54.6875 
z
" id="DejaVuSans-79"/>
     <path d="M 11.71875 12.40625 
L 22.015625 12.40625 
L 22.015625 0 
L 11.71875 0 
z
M 11.71875 51.703125 
L 22.015625 51.703125 
L 22.015625 39.3125 
L 11.71875 39.3125 
z
" id="DejaVuSans-3a"/>
     <path d="M 34.1875 63.1875 
L 20.796875 26.90625 
L 47.609375 26.90625 
z
M 28.609375 72.90625 
L 39.796875 72.90625 
L 67.578125 0 
L 57.328125 0 
L 50.6875 18.703125 
L 17.828125 18.703125 
L 11.1875 0 
L 0.78125 0 
z
" id="DejaVuSans-41"/>
     <path d="M 52 44.1875 
Q 55.375 50.25 60.0625 53.125 
Q 64.75 56 71.09375 56 
Q 79.640625 56 84.28125 50.015625 
Q 88.921875 44.046875 88.921875 33.015625 
L 88.921875 0 
L 79.890625 0 
L 79.890625 32.71875 
Q 79.890625 40.578125 77.09375 44.375 
Q 74.3125 48.1875 68.609375 48.1875 
Q 61.625 48.1875 57.5625 43.546875 
Q 53.515625 38.921875 53.515625 30.90625 
L 53.515625 0 
L 44.484375 0 
L 44.484375 32.71875 
Q 44.484375 40.625 41.703125 44.40625 
Q 38.921875 48.1875 33.109375 48.1875 
Q 26.21875 48.1875 22.15625 43.53125 
Q 18.109375 38.875 18.109375 30.90625 
L 18.109375 0 
L 9.078125 0 
L 9.078125 54.6875 
L 18.109375 54.6875 
L 18.109375 46.1875 
Q 21.1875 51.21875 25.484375 53.609375 
Q 29.78125 56 35.6875 56 
Q 41.65625 56 45.828125 52.96875 
Q 50 49.953125 52 44.1875 
z
" id="DejaVuSans-6d"/>
    </defs>
    <g transform="translate(405.99675 80.4)scale(0.1728 -0.1728)">
     <use xlink:href="#DejaVuSans-53"/>
     <use x="63.476562" xlink:href="#DejaVuSans-63"/>
     <use x="118.457031" xlink:href="#DejaVuSans-61"/>
     <use x="179.736328" xlink:href="#DejaVuSans-6c"/>
     <use x="207.519531" xlink:href="#DejaVuSans-65"/>
     <use x="269.042969" xlink:href="#DejaVuSans-64"/>
     <use x="332.519531" xlink:href="#DejaVuSans-20"/>
     <use x="364.306641" xlink:href="#DejaVuSans-52"/>
     <use x="433.726562" xlink:href="#DejaVuSans-65"/>
     <use x="495.25" xlink:href="#DejaVuSans-74"/>
     <use x="534.458984" xlink:href="#DejaVuSans-69"/>
     <use x="562.242188" xlink:href="#DejaVuSans-6e"/>
     <use x="625.621094" xlink:href="#DejaVuSans-6f"/>
     <use x="686.802734" xlink:href="#DejaVuSans-70"/>
     <use x="750.279297" xlink:href="#DejaVuSans-61"/>
     <use x="811.558594" xlink:href="#DejaVuSans-74"/>
     <use x="850.767578" xlink:href="#DejaVuSans-68"/>
     <use x="914.146484" xlink:href="#DejaVuSans-79"/>
     <use x="973.216797" xlink:href="#DejaVuSans-3a"/>
     <use x="1006.908203" xlink:href="#DejaVuSans-20"/>
     <use x="1038.695312" xlink:href="#DejaVuSans-41"/>
     <use x="1107.103516" xlink:href="#DejaVuSans-6c"/>
     <use x="1134.886719" xlink:href="#DejaVuSans-6c"/>
     <use x="1162.669922" xlink:href="#DejaVuSans-20"/>
     <use x="1194.457031" xlink:href="#DejaVuSans-34"/>
     <use x="1258.080078" xlink:href="#DejaVuSans-20"/>
     <use x="1289.867188" xlink:href="#DejaVuSans-69"/>
     <use x="1317.650391" xlink:href="#DejaVuSans-6d"/>
     <use x="1415.0625" xlink:href="#DejaVuSans-70"/>
     <use x="1478.539062" xlink:href="#DejaVuSans-6c"/>
     <use x="1506.322266" xlink:href="#DejaVuSans-65"/>
     <use x="1567.845703" xlink:href="#DejaVuSans-6d"/>
     <use x="1665.257812" xlink:href="#DejaVuSans-65"/>
     <use x="1726.78125" xlink:href="#DejaVuSans-6e"/>
     <use x="1790.160156" xlink:href="#DejaVuSans-74"/>
     <use x="1829.369141" xlink:href="#DejaVuSans-61"/>
     <use x="1890.648438" xlink:href="#DejaVuSans-74"/>
     <use x="1929.857422" xlink:href="#DejaVuSans-69"/>
     <use x="1957.640625" xlink:href="#DejaVuSans-6f"/>
     <use x="2018.822266" xlink:href="#DejaVuSans-6e"/>
     <use x="2082.201172" xlink:href="#DejaVuSans-73"/>
    </g>
   </g>
   <g id="legend_1">
    <g id="patch_7">
     <path d="M 967.792187 153.1125 
L 1029.8 153.1125 
Q 1031.8 153.1125 1031.8 151.1125 
L 1031.8 93.4 
Q 1031.8 91.4 1029.8 91.4 
L 967.792187 91.4 
Q 965.792187 91.4 965.792187 93.4 
L 965.792187 151.1125 
Q 965.792187 153.1125 967.792187 153.1125 
z
" style="fill:#ffffff;opacity:0.8;stroke:#cccccc;stroke-linejoin:miter;"/>
    </g>
    <g id="line2d_17">
     <path d="M 969.792187 99.498437 
L 989.792187 99.498437 
" style="fill:none;stroke:#1f77b4;stroke-linecap:square;stroke-width:1.5;"/>
    </g>
    <g id="line2d_18"/>
    <g id="text_16">
     <!-- GD -->
     <defs>
      <path d="M 59.515625 10.40625 
L 59.515625 29.984375 
L 43.40625 29.984375 
L 43.40625 38.09375 
L 69.28125 38.09375 
L 69.28125 6.78125 
Q 63.578125 2.734375 56.6875 0.65625 
Q 49.8125 -1.421875 42 -1.421875 
Q 24.90625 -1.421875 15.25 8.5625 
Q 5.609375 18.5625 5.609375 36.375 
Q 5.609375 54.25 15.25 64.234375 
Q 24.90625 74.21875 42 74.21875 
Q 49.125 74.21875 55.546875 72.453125 
Q 61.96875 70.703125 67.390625 67.28125 
L 67.390625 56.78125 
Q 61.921875 61.421875 55.765625 63.765625 
Q 49.609375 66.109375 42.828125 66.109375 
Q 29.4375 66.109375 22.71875 58.640625 
Q 16.015625 51.171875 16.015625 36.375 
Q 16.015625 21.625 22.71875 14.15625 
Q 29.4375 6.6875 42.828125 6.6875 
Q 48.046875 6.6875 52.140625 7.59375 
Q 56.25 8.5 59.515625 10.40625 
z
" id="DejaVuSans-47"/>
      <path d="M 19.671875 64.796875 
L 19.671875 8.109375 
L 31.59375 8.109375 
Q 46.6875 8.109375 53.6875 14.9375 
Q 60.6875 21.78125 60.6875 36.53125 
Q 60.6875 51.171875 53.6875 57.984375 
Q 46.6875 64.796875 31.59375 64.796875 
z
M 9.8125 72.90625 
L 30.078125 72.90625 
Q 51.265625 72.90625 61.171875 64.09375 
Q 71.09375 55.28125 71.09375 36.53125 
Q 71.09375 17.671875 61.125 8.828125 
Q 51.171875 0 30.078125 0 
L 9.8125 0 
z
" id="DejaVuSans-44"/>
     </defs>
     <g transform="translate(997.792187 102.998437)scale(0.1 -0.1)">
      <use xlink:href="#DejaVuSans-47"/>
      <use x="77.490234" xlink:href="#DejaVuSans-44"/>
     </g>
    </g>
    <g id="line2d_19">
     <path d="M 969.792187 114.176562 
L 989.792187 114.176562 
" style="fill:none;stroke:#ff7f0e;stroke-linecap:square;stroke-width:1.5;"/>
    </g>
    <g id="line2d_20"/>
    <g id="text_17">
     <!-- SGD -->
     <g transform="translate(997.792187 117.676562)scale(0.1 -0.1)">
      <use xlink:href="#DejaVuSans-53"/>
      <use x="63.476562" xlink:href="#DejaVuSans-47"/>
      <use x="140.966797" xlink:href="#DejaVuSans-44"/>
     </g>
    </g>
    <g id="line2d_21">
     <path d="M 969.792187 128.854687 
L 989.792187 128.854687 
" style="fill:none;stroke:#2ca02c;stroke-linecap:square;stroke-width:1.5;"/>
    </g>
    <g id="line2d_22"/>
    <g id="text_18">
     <!-- IRLS -->
     <g transform="translate(997.792187 132.354687)scale(0.1 -0.1)">
      <use xlink:href="#DejaVuSans-49"/>
      <use x="29.492188" xlink:href="#DejaVuSans-52"/>
      <use x="98.974609" xlink:href="#DejaVuSans-4c"/>
      <use x="154.6875" xlink:href="#DejaVuSans-53"/>
     </g>
    </g>
    <g id="line2d_23">
     <path d="M 969.792187 143.532812 
L 989.792187 143.532812 
" style="fill:none;stroke:#d62728;stroke-linecap:square;stroke-width:1.5;"/>
    </g>
    <g id="line2d_24"/>
    <g id="text_19">
     <!-- ADAM -->
     <defs>
      <path d="M 9.8125 72.90625 
L 24.515625 72.90625 
L 43.109375 23.296875 
L 61.8125 72.90625 
L 76.515625 72.90625 
L 76.515625 0 
L 66.890625 0 
L 66.890625 64.015625 
L 48.09375 14.015625 
L 38.1875 14.015625 
L 19.390625 64.015625 
L 19.390625 0 
L 9.8125 0 
z
" id="DejaVuSans-4d"/>
     </defs>
     <g transform="translate(997.792187 147.032812)scale(0.1 -0.1)">
      <use xlink:href="#DejaVuSans-41"/>
      <use x="68.408203" xlink:href="#DejaVuSans-44"/>
      <use x="145.394531" xlink:href="#DejaVuSans-41"/>
      <use x="213.802734" xlink:href="#DejaVuSans-4d"/>
     </g>
    </g>
   </g>
  </g>
 </g>
 <defs>
  <clipPath id="pe07230304e">
   <rect height="543.6" width="892.8" x="144" y="86.4"/>
  </clipPath>
 </defs>
</svg>
