<?xml version="1.0" encoding="utf-8" standalone="no"?>
<!DOCTYPE svg PUBLIC "-//W3C//DTD SVG 1.1//EN"
  "http://www.w3.org/Graphics/SVG/1.1/DTD/svg11.dtd">
<!-- Created with matplotlib (http://matplotlib.org/) -->
<svg height="720pt" version="1.1" viewBox="0 0 1152 720" width="1152pt" xmlns="http://www.w3.org/2000/svg" xmlns:xlink="http://www.w3.org/1999/xlink">
 <defs>
  <style type="text/css">
*{stroke-linecap:butt;stroke-linejoin:round;}
  </style>
 </defs>
 <g id="figure_1">
  <g id="patch_1">
   <path d="M 0 720 
L 1152 720 
L 1152 0 
L 0 0 
z
" style="fill:#ffffff;"/>
  </g>
  <g id="axes_1">
   <g id="patch_2">
    <path d="M 144 630 
L 1036.8 630 
L 1036.8 86.4 
L 144 86.4 
z
" style="fill:#ffffff;"/>
   </g>
   <g id="matplotlib.axis_1">
    <g id="xtick_1">
     <g id="line2d_1">
      <defs>
       <path d="M 0 0 
L 0 3.5 
" id="mc9770592ee" style="stroke:#000000;stroke-width:0.8;"/>
      </defs>
      <g>
       <use style="stroke:#000000;stroke-width:0.8;" x="184.581818" xlink:href="#mc9770592ee" y="630"/>
      </g>
     </g>
     <g id="text_1">
      <!-- 0 -->
      <defs>
       <path d="M 31.78125 66.40625 
Q 24.171875 66.40625 20.328125 58.90625 
Q 16.5 51.421875 16.5 36.375 
Q 16.5 21.390625 20.328125 13.890625 
Q 24.171875 6.390625 31.78125 6.390625 
Q 39.453125 6.390625 43.28125 13.890625 
Q 47.125 21.390625 47.125 36.375 
Q 47.125 51.421875 43.28125 58.90625 
Q 39.453125 66.40625 31.78125 66.40625 
z
M 31.78125 74.21875 
Q 44.046875 74.21875 50.515625 64.515625 
Q 56.984375 54.828125 56.984375 36.375 
Q 56.984375 17.96875 50.515625 8.265625 
Q 44.046875 -1.421875 31.78125 -1.421875 
Q 19.53125 -1.421875 13.0625 8.265625 
Q 6.59375 17.96875 6.59375 36.375 
Q 6.59375 54.828125 13.0625 64.515625 
Q 19.53125 74.21875 31.78125 74.21875 
z
" id="DejaVuSans-30"/>
      </defs>
      <g transform="translate(181.400568 644.598438)scale(0.1 -0.1)">
       <use xlink:href="#DejaVuSans-30"/>
      </g>
     </g>
    </g>
    <g id="xtick_2">
     <g id="line2d_2">
      <g>
       <use style="stroke:#000000;stroke-width:0.8;" x="347.071581" xlink:href="#mc9770592ee" y="630"/>
      </g>
     </g>
     <g id="text_2">
      <!-- 200 -->
      <defs>
       <path d="M 19.1875 8.296875 
L 53.609375 8.296875 
L 53.609375 0 
L 7.328125 0 
L 7.328125 8.296875 
Q 12.9375 14.109375 22.625 23.890625 
Q 32.328125 33.6875 34.8125 36.53125 
Q 39.546875 41.84375 41.421875 45.53125 
Q 43.3125 49.21875 43.3125 52.78125 
Q 43.3125 58.59375 39.234375 62.25 
Q 35.15625 65.921875 28.609375 65.921875 
Q 23.96875 65.921875 18.8125 64.3125 
Q 13.671875 62.703125 7.8125 59.421875 
L 7.8125 69.390625 
Q 13.765625 71.78125 18.9375 73 
Q 24.125 74.21875 28.421875 74.21875 
Q 39.75 74.21875 46.484375 68.546875 
Q 53.21875 62.890625 53.21875 53.421875 
Q 53.21875 48.921875 51.53125 44.890625 
Q 49.859375 40.875 45.40625 35.40625 
Q 44.1875 33.984375 37.640625 27.21875 
Q 31.109375 20.453125 19.1875 8.296875 
z
" id="DejaVuSans-32"/>
      </defs>
      <g transform="translate(337.527831 644.598438)scale(0.1 -0.1)">
       <use xlink:href="#DejaVuSans-32"/>
       <use x="63.623047" xlink:href="#DejaVuSans-30"/>
       <use x="127.246094" xlink:href="#DejaVuSans-30"/>
      </g>
     </g>
    </g>
    <g id="xtick_3">
     <g id="line2d_3">
      <g>
       <use style="stroke:#000000;stroke-width:0.8;" x="509.561343" xlink:href="#mc9770592ee" y="630"/>
      </g>
     </g>
     <g id="text_3">
      <!-- 400 -->
      <defs>
       <path d="M 37.796875 64.3125 
L 12.890625 25.390625 
L 37.796875 25.390625 
z
M 35.203125 72.90625 
L 47.609375 72.90625 
L 47.609375 25.390625 
L 58.015625 25.390625 
L 58.015625 17.1875 
L 47.609375 17.1875 
L 47.609375 0 
L 37.796875 0 
L 37.796875 17.1875 
L 4.890625 17.1875 
L 4.890625 26.703125 
z
" id="DejaVuSans-34"/>
      </defs>
      <g transform="translate(500.017593 644.598438)scale(0.1 -0.1)">
       <use xlink:href="#DejaVuSans-34"/>
       <use x="63.623047" xlink:href="#DejaVuSans-30"/>
       <use x="127.246094" xlink:href="#DejaVuSans-30"/>
      </g>
     </g>
    </g>
    <g id="xtick_4">
     <g id="line2d_4">
      <g>
       <use style="stroke:#000000;stroke-width:0.8;" x="672.051106" xlink:href="#mc9770592ee" y="630"/>
      </g>
     </g>
     <g id="text_4">
      <!-- 600 -->
      <defs>
       <path d="M 33.015625 40.375 
Q 26.375 40.375 22.484375 35.828125 
Q 18.609375 31.296875 18.609375 23.390625 
Q 18.609375 15.53125 22.484375 10.953125 
Q 26.375 6.390625 33.015625 6.390625 
Q 39.65625 6.390625 43.53125 10.953125 
Q 47.40625 15.53125 47.40625 23.390625 
Q 47.40625 31.296875 43.53125 35.828125 
Q 39.65625 40.375 33.015625 40.375 
z
M 52.59375 71.296875 
L 52.59375 62.3125 
Q 48.875 64.0625 45.09375 64.984375 
Q 41.3125 65.921875 37.59375 65.921875 
Q 27.828125 65.921875 22.671875 59.328125 
Q 17.53125 52.734375 16.796875 39.40625 
Q 19.671875 43.65625 24.015625 45.921875 
Q 28.375 48.1875 33.59375 48.1875 
Q 44.578125 48.1875 50.953125 41.515625 
Q 57.328125 34.859375 57.328125 23.390625 
Q 57.328125 12.15625 50.6875 5.359375 
Q 44.046875 -1.421875 33.015625 -1.421875 
Q 20.359375 -1.421875 13.671875 8.265625 
Q 6.984375 17.96875 6.984375 36.375 
Q 6.984375 53.65625 15.1875 63.9375 
Q 23.390625 74.21875 37.203125 74.21875 
Q 40.921875 74.21875 44.703125 73.484375 
Q 48.484375 72.75 52.59375 71.296875 
z
" id="DejaVuSans-36"/>
      </defs>
      <g transform="translate(662.507356 644.598438)scale(0.1 -0.1)">
       <use xlink:href="#DejaVuSans-36"/>
       <use x="63.623047" xlink:href="#DejaVuSans-30"/>
       <use x="127.246094" xlink:href="#DejaVuSans-30"/>
      </g>
     </g>
    </g>
    <g id="xtick_5">
     <g id="line2d_5">
      <g>
       <use style="stroke:#000000;stroke-width:0.8;" x="834.540868" xlink:href="#mc9770592ee" y="630"/>
      </g>
     </g>
     <g id="text_5">
      <!-- 800 -->
      <defs>
       <path d="M 31.78125 34.625 
Q 24.75 34.625 20.71875 30.859375 
Q 16.703125 27.09375 16.703125 20.515625 
Q 16.703125 13.921875 20.71875 10.15625 
Q 24.75 6.390625 31.78125 6.390625 
Q 38.8125 6.390625 42.859375 10.171875 
Q 46.921875 13.96875 46.921875 20.515625 
Q 46.921875 27.09375 42.890625 30.859375 
Q 38.875 34.625 31.78125 34.625 
z
M 21.921875 38.8125 
Q 15.578125 40.375 12.03125 44.71875 
Q 8.5 49.078125 8.5 55.328125 
Q 8.5 64.0625 14.71875 69.140625 
Q 20.953125 74.21875 31.78125 74.21875 
Q 42.671875 74.21875 48.875 69.140625 
Q 55.078125 64.0625 55.078125 55.328125 
Q 55.078125 49.078125 51.53125 44.71875 
Q 48 40.375 41.703125 38.8125 
Q 48.828125 37.15625 52.796875 32.3125 
Q 56.78125 27.484375 56.78125 20.515625 
Q 56.78125 9.90625 50.3125 4.234375 
Q 43.84375 -1.421875 31.78125 -1.421875 
Q 19.734375 -1.421875 13.25 4.234375 
Q 6.78125 9.90625 6.78125 20.515625 
Q 6.78125 27.484375 10.78125 32.3125 
Q 14.796875 37.15625 21.921875 38.8125 
z
M 18.3125 54.390625 
Q 18.3125 48.734375 21.84375 45.5625 
Q 25.390625 42.390625 31.78125 42.390625 
Q 38.140625 42.390625 41.71875 45.5625 
Q 45.3125 48.734375 45.3125 54.390625 
Q 45.3125 60.0625 41.71875 63.234375 
Q 38.140625 66.40625 31.78125 66.40625 
Q 25.390625 66.40625 21.84375 63.234375 
Q 18.3125 60.0625 18.3125 54.390625 
z
" id="DejaVuSans-38"/>
      </defs>
      <g transform="translate(824.997118 644.598438)scale(0.1 -0.1)">
       <use xlink:href="#DejaVuSans-38"/>
       <use x="63.623047" xlink:href="#DejaVuSans-30"/>
       <use x="127.246094" xlink:href="#DejaVuSans-30"/>
      </g>
     </g>
    </g>
    <g id="xtick_6">
     <g id="line2d_6">
      <g>
       <use style="stroke:#000000;stroke-width:0.8;" x="997.030631" xlink:href="#mc9770592ee" y="630"/>
      </g>
     </g>
     <g id="text_6">
      <!-- 1000 -->
      <defs>
       <path d="M 12.40625 8.296875 
L 28.515625 8.296875 
L 28.515625 63.921875 
L 10.984375 60.40625 
L 10.984375 69.390625 
L 28.421875 72.90625 
L 38.28125 72.90625 
L 38.28125 8.296875 
L 54.390625 8.296875 
L 54.390625 0 
L 12.40625 0 
z
" id="DejaVuSans-31"/>
      </defs>
      <g transform="translate(984.305631 644.598438)scale(0.1 -0.1)">
       <use xlink:href="#DejaVuSans-31"/>
       <use x="63.623047" xlink:href="#DejaVuSans-30"/>
       <use x="127.246094" xlink:href="#DejaVuSans-30"/>
       <use x="190.869141" xlink:href="#DejaVuSans-30"/>
      </g>
     </g>
    </g>
    <g id="text_7">
     <!-- Iteration -->
     <defs>
      <path d="M 9.8125 72.90625 
L 19.671875 72.90625 
L 19.671875 0 
L 9.8125 0 
z
" id="DejaVuSans-49"/>
      <path d="M 18.3125 70.21875 
L 18.3125 54.6875 
L 36.8125 54.6875 
L 36.8125 47.703125 
L 18.3125 47.703125 
L 18.3125 18.015625 
Q 18.3125 11.328125 20.140625 9.421875 
Q 21.96875 7.515625 27.59375 7.515625 
L 36.8125 7.515625 
L 36.8125 0 
L 27.59375 0 
Q 17.1875 0 13.234375 3.875 
Q 9.28125 7.765625 9.28125 18.015625 
L 9.28125 47.703125 
L 2.6875 47.703125 
L 2.6875 54.6875 
L 9.28125 54.6875 
L 9.28125 70.21875 
z
" id="DejaVuSans-74"/>
      <path d="M 56.203125 29.59375 
L 56.203125 25.203125 
L 14.890625 25.203125 
Q 15.484375 15.921875 20.484375 11.0625 
Q 25.484375 6.203125 34.421875 6.203125 
Q 39.59375 6.203125 44.453125 7.46875 
Q 49.3125 8.734375 54.109375 11.28125 
L 54.109375 2.78125 
Q 49.265625 0.734375 44.1875 -0.34375 
Q 39.109375 -1.421875 33.890625 -1.421875 
Q 20.796875 -1.421875 13.15625 6.1875 
Q 5.515625 13.8125 5.515625 26.8125 
Q 5.515625 40.234375 12.765625 48.109375 
Q 20.015625 56 32.328125 56 
Q 43.359375 56 49.78125 48.890625 
Q 56.203125 41.796875 56.203125 29.59375 
z
M 47.21875 32.234375 
Q 47.125 39.59375 43.09375 43.984375 
Q 39.0625 48.390625 32.421875 48.390625 
Q 24.90625 48.390625 20.390625 44.140625 
Q 15.875 39.890625 15.1875 32.171875 
z
" id="DejaVuSans-65"/>
      <path d="M 41.109375 46.296875 
Q 39.59375 47.171875 37.8125 47.578125 
Q 36.03125 48 33.890625 48 
Q 26.265625 48 22.1875 43.046875 
Q 18.109375 38.09375 18.109375 28.8125 
L 18.109375 0 
L 9.078125 0 
L 9.078125 54.6875 
L 18.109375 54.6875 
L 18.109375 46.1875 
Q 20.953125 51.171875 25.484375 53.578125 
Q 30.03125 56 36.53125 56 
Q 37.453125 56 38.578125 55.875 
Q 39.703125 55.765625 41.0625 55.515625 
z
" id="DejaVuSans-72"/>
      <path d="M 34.28125 27.484375 
Q 23.390625 27.484375 19.1875 25 
Q 14.984375 22.515625 14.984375 16.5 
Q 14.984375 11.71875 18.140625 8.90625 
Q 21.296875 6.109375 26.703125 6.109375 
Q 34.1875 6.109375 38.703125 11.40625 
Q 43.21875 16.703125 43.21875 25.484375 
L 43.21875 27.484375 
z
M 52.203125 31.203125 
L 52.203125 0 
L 43.21875 0 
L 43.21875 8.296875 
Q 40.140625 3.328125 35.546875 0.953125 
Q 30.953125 -1.421875 24.3125 -1.421875 
Q 15.921875 -1.421875 10.953125 3.296875 
Q 6 8.015625 6 15.921875 
Q 6 25.140625 12.171875 29.828125 
Q 18.359375 34.515625 30.609375 34.515625 
L 43.21875 34.515625 
L 43.21875 35.40625 
Q 43.21875 41.609375 39.140625 45 
Q 35.0625 48.390625 27.6875 48.390625 
Q 23 48.390625 18.546875 47.265625 
Q 14.109375 46.140625 10.015625 43.890625 
L 10.015625 52.203125 
Q 14.9375 54.109375 19.578125 55.046875 
Q 24.21875 56 28.609375 56 
Q 40.484375 56 46.34375 49.84375 
Q 52.203125 43.703125 52.203125 31.203125 
z
" id="DejaVuSans-61"/>
      <path d="M 9.421875 54.6875 
L 18.40625 54.6875 
L 18.40625 0 
L 9.421875 0 
z
M 9.421875 75.984375 
L 18.40625 75.984375 
L 18.40625 64.59375 
L 9.421875 64.59375 
z
" id="DejaVuSans-69"/>
      <path d="M 30.609375 48.390625 
Q 23.390625 48.390625 19.1875 42.75 
Q 14.984375 37.109375 14.984375 27.296875 
Q 14.984375 17.484375 19.15625 11.84375 
Q 23.34375 6.203125 30.609375 6.203125 
Q 37.796875 6.203125 41.984375 11.859375 
Q 46.1875 17.53125 46.1875 27.296875 
Q 46.1875 37.015625 41.984375 42.703125 
Q 37.796875 48.390625 30.609375 48.390625 
z
M 30.609375 56 
Q 42.328125 56 49.015625 48.375 
Q 55.71875 40.765625 55.71875 27.296875 
Q 55.71875 13.875 49.015625 6.21875 
Q 42.328125 -1.421875 30.609375 -1.421875 
Q 18.84375 -1.421875 12.171875 6.21875 
Q 5.515625 13.875 5.515625 27.296875 
Q 5.515625 40.765625 12.171875 48.375 
Q 18.84375 56 30.609375 56 
z
" id="DejaVuSans-6f"/>
      <path d="M 54.890625 33.015625 
L 54.890625 0 
L 45.90625 0 
L 45.90625 32.71875 
Q 45.90625 40.484375 42.875 44.328125 
Q 39.84375 48.1875 33.796875 48.1875 
Q 26.515625 48.1875 22.3125 43.546875 
Q 18.109375 38.921875 18.109375 30.90625 
L 18.109375 0 
L 9.078125 0 
L 9.078125 54.6875 
L 18.109375 54.6875 
L 18.109375 46.1875 
Q 21.34375 51.125 25.703125 53.5625 
Q 30.078125 56 35.796875 56 
Q 45.21875 56 50.046875 50.171875 
Q 54.890625 44.34375 54.890625 33.015625 
z
" id="DejaVuSans-6e"/>
     </defs>
     <g transform="translate(553.75155 663.808225)scale(0.1728 -0.1728)">
      <use xlink:href="#DejaVuSans-49"/>
      <use x="29.492188" xlink:href="#DejaVuSans-74"/>
      <use x="68.701172" xlink:href="#DejaVuSans-65"/>
      <use x="130.224609" xlink:href="#DejaVuSans-72"/>
      <use x="171.337891" xlink:href="#DejaVuSans-61"/>
      <use x="232.617188" xlink:href="#DejaVuSans-74"/>
      <use x="271.826172" xlink:href="#DejaVuSans-69"/>
      <use x="299.609375" xlink:href="#DejaVuSans-6f"/>
      <use x="360.791016" xlink:href="#DejaVuSans-6e"/>
     </g>
    </g>
   </g>
   <g id="matplotlib.axis_2">
    <g id="ytick_1">
     <g id="line2d_7">
      <defs>
       <path d="M 0 0 
L -3.5 0 
" id="m3e6293aca1" style="stroke:#000000;stroke-width:0.8;"/>
      </defs>
      <g>
       <use style="stroke:#000000;stroke-width:0.8;" x="144" xlink:href="#m3e6293aca1" y="630"/>
      </g>
     </g>
     <g id="text_8">
      <!-- 0.00 -->
      <defs>
       <path d="M 10.6875 12.40625 
L 21 12.40625 
L 21 0 
L 10.6875 0 
z
" id="DejaVuSans-2e"/>
      </defs>
      <g transform="translate(114.734375 633.799219)scale(0.1 -0.1)">
       <use xlink:href="#DejaVuSans-30"/>
       <use x="63.623047" xlink:href="#DejaVuSans-2e"/>
       <use x="95.410156" xlink:href="#DejaVuSans-30"/>
       <use x="159.033203" xlink:href="#DejaVuSans-30"/>
      </g>
     </g>
    </g>
    <g id="ytick_2">
     <g id="line2d_8">
      <g>
       <use style="stroke:#000000;stroke-width:0.8;" x="144" xlink:href="#m3e6293aca1" y="562.05"/>
      </g>
     </g>
     <g id="text_9">
      <!-- 0.25 -->
      <defs>
       <path d="M 10.796875 72.90625 
L 49.515625 72.90625 
L 49.515625 64.59375 
L 19.828125 64.59375 
L 19.828125 46.734375 
Q 21.96875 47.46875 24.109375 47.828125 
Q 26.265625 48.1875 28.421875 48.1875 
Q 40.625 48.1875 47.75 41.5 
Q 54.890625 34.8125 54.890625 23.390625 
Q 54.890625 11.625 47.5625 5.09375 
Q 40.234375 -1.421875 26.90625 -1.421875 
Q 22.3125 -1.421875 17.546875 -0.640625 
Q 12.796875 0.140625 7.71875 1.703125 
L 7.71875 11.625 
Q 12.109375 9.234375 16.796875 8.0625 
Q 21.484375 6.890625 26.703125 6.890625 
Q 35.15625 6.890625 40.078125 11.328125 
Q 45.015625 15.765625 45.015625 23.390625 
Q 45.015625 31 40.078125 35.4375 
Q 35.15625 39.890625 26.703125 39.890625 
Q 22.75 39.890625 18.8125 39.015625 
Q 14.890625 38.140625 10.796875 36.28125 
z
" id="DejaVuSans-35"/>
      </defs>
      <g transform="translate(114.734375 565.849219)scale(0.1 -0.1)">
       <use xlink:href="#DejaVuSans-30"/>
       <use x="63.623047" xlink:href="#DejaVuSans-2e"/>
       <use x="95.410156" xlink:href="#DejaVuSans-32"/>
       <use x="159.033203" xlink:href="#DejaVuSans-35"/>
      </g>
     </g>
    </g>
    <g id="ytick_3">
     <g id="line2d_9">
      <g>
       <use style="stroke:#000000;stroke-width:0.8;" x="144" xlink:href="#m3e6293aca1" y="494.1"/>
      </g>
     </g>
     <g id="text_10">
      <!-- 0.50 -->
      <g transform="translate(114.734375 497.899219)scale(0.1 -0.1)">
       <use xlink:href="#DejaVuSans-30"/>
       <use x="63.623047" xlink:href="#DejaVuSans-2e"/>
       <use x="95.410156" xlink:href="#DejaVuSans-35"/>
       <use x="159.033203" xlink:href="#DejaVuSans-30"/>
      </g>
     </g>
    </g>
    <g id="ytick_4">
     <g id="line2d_10">
      <g>
       <use style="stroke:#000000;stroke-width:0.8;" x="144" xlink:href="#m3e6293aca1" y="426.15"/>
      </g>
     </g>
     <g id="text_11">
      <!-- 0.75 -->
      <defs>
       <path d="M 8.203125 72.90625 
L 55.078125 72.90625 
L 55.078125 68.703125 
L 28.609375 0 
L 18.3125 0 
L 43.21875 64.59375 
L 8.203125 64.59375 
z
" id="DejaVuSans-37"/>
      </defs>
      <g transform="translate(114.734375 429.949219)scale(0.1 -0.1)">
       <use xlink:href="#DejaVuSans-30"/>
       <use x="63.623047" xlink:href="#DejaVuSans-2e"/>
       <use x="95.410156" xlink:href="#DejaVuSans-37"/>
       <use x="159.033203" xlink:href="#DejaVuSans-35"/>
      </g>
     </g>
    </g>
    <g id="ytick_5">
     <g id="line2d_11">
      <g>
       <use style="stroke:#000000;stroke-width:0.8;" x="144" xlink:href="#m3e6293aca1" y="358.2"/>
      </g>
     </g>
     <g id="text_12">
      <!-- 1.00 -->
      <g transform="translate(114.734375 361.999219)scale(0.1 -0.1)">
       <use xlink:href="#DejaVuSans-31"/>
       <use x="63.623047" xlink:href="#DejaVuSans-2e"/>
       <use x="95.410156" xlink:href="#DejaVuSans-30"/>
       <use x="159.033203" xlink:href="#DejaVuSans-30"/>
      </g>
     </g>
    </g>
    <g id="ytick_6">
     <g id="line2d_12">
      <g>
       <use style="stroke:#000000;stroke-width:0.8;" x="144" xlink:href="#m3e6293aca1" y="290.25"/>
      </g>
     </g>
     <g id="text_13">
      <!-- 1.25 -->
      <g transform="translate(114.734375 294.049219)scale(0.1 -0.1)">
       <use xlink:href="#DejaVuSans-31"/>
       <use x="63.623047" xlink:href="#DejaVuSans-2e"/>
       <use x="95.410156" xlink:href="#DejaVuSans-32"/>
       <use x="159.033203" xlink:href="#DejaVuSans-35"/>
      </g>
     </g>
    </g>
    <g id="ytick_7">
     <g id="line2d_13">
      <g>
       <use style="stroke:#000000;stroke-width:0.8;" x="144" xlink:href="#m3e6293aca1" y="222.3"/>
      </g>
     </g>
     <g id="text_14">
      <!-- 1.50 -->
      <g transform="translate(114.734375 226.099219)scale(0.1 -0.1)">
       <use xlink:href="#DejaVuSans-31"/>
       <use x="63.623047" xlink:href="#DejaVuSans-2e"/>
       <use x="95.410156" xlink:href="#DejaVuSans-35"/>
       <use x="159.033203" xlink:href="#DejaVuSans-30"/>
      </g>
     </g>
    </g>
    <g id="ytick_8">
     <g id="line2d_14">
      <g>
       <use style="stroke:#000000;stroke-width:0.8;" x="144" xlink:href="#m3e6293aca1" y="154.35"/>
      </g>
     </g>
     <g id="text_15">
      <!-- 1.75 -->
      <g transform="translate(114.734375 158.149219)scale(0.1 -0.1)">
       <use xlink:href="#DejaVuSans-31"/>
       <use x="63.623047" xlink:href="#DejaVuSans-2e"/>
       <use x="95.410156" xlink:href="#DejaVuSans-37"/>
       <use x="159.033203" xlink:href="#DejaVuSans-35"/>
      </g>
     </g>
    </g>
    <g id="ytick_9">
     <g id="line2d_15">
      <g>
       <use style="stroke:#000000;stroke-width:0.8;" x="144" xlink:href="#m3e6293aca1" y="86.4"/>
      </g>
     </g>
     <g id="text_16">
      <!-- 2.00 -->
      <g transform="translate(114.734375 90.199219)scale(0.1 -0.1)">
       <use xlink:href="#DejaVuSans-32"/>
       <use x="63.623047" xlink:href="#DejaVuSans-2e"/>
       <use x="95.410156" xlink:href="#DejaVuSans-30"/>
       <use x="159.033203" xlink:href="#DejaVuSans-30"/>
      </g>
     </g>
    </g>
    <g id="text_17">
     <!-- Loss -->
     <defs>
      <path d="M 9.8125 72.90625 
L 19.671875 72.90625 
L 19.671875 8.296875 
L 55.171875 8.296875 
L 55.171875 0 
L 9.8125 0 
z
" id="DejaVuSans-4c"/>
      <path d="M 44.28125 53.078125 
L 44.28125 44.578125 
Q 40.484375 46.53125 36.375 47.5 
Q 32.28125 48.484375 27.875 48.484375 
Q 21.1875 48.484375 17.84375 46.4375 
Q 14.5 44.390625 14.5 40.28125 
Q 14.5 37.15625 16.890625 35.375 
Q 19.28125 33.59375 26.515625 31.984375 
L 29.59375 31.296875 
Q 39.15625 29.25 43.1875 25.515625 
Q 47.21875 21.78125 47.21875 15.09375 
Q 47.21875 7.46875 41.1875 3.015625 
Q 35.15625 -1.421875 24.609375 -1.421875 
Q 20.21875 -1.421875 15.453125 -0.5625 
Q 10.6875 0.296875 5.421875 2 
L 5.421875 11.28125 
Q 10.40625 8.6875 15.234375 7.390625 
Q 20.0625 6.109375 24.8125 6.109375 
Q 31.15625 6.109375 34.5625 8.28125 
Q 37.984375 10.453125 37.984375 14.40625 
Q 37.984375 18.0625 35.515625 20.015625 
Q 33.0625 21.96875 24.703125 23.78125 
L 21.578125 24.515625 
Q 13.234375 26.265625 9.515625 29.90625 
Q 5.8125 33.546875 5.8125 39.890625 
Q 5.8125 47.609375 11.28125 51.796875 
Q 16.75 56 26.8125 56 
Q 31.78125 56 36.171875 55.265625 
Q 40.578125 54.546875 44.28125 53.078125 
z
" id="DejaVuSans-73"/>
     </defs>
     <g transform="translate(107.140675 377.30115)rotate(-90)scale(0.1728 -0.1728)">
      <use xlink:href="#DejaVuSans-4c"/>
      <use x="55.697266" xlink:href="#DejaVuSans-6f"/>
      <use x="116.878906" xlink:href="#DejaVuSans-73"/>
      <use x="168.978516" xlink:href="#DejaVuSans-73"/>
     </g>
    </g>
   </g>
   <g id="line2d_16">
    <path clip-path="url(#p356c524a5b)" d="M 184.581818 72.336678 
L 185.394267 91.41291 
L 186.206716 407.053988 
L 187.019165 156.881158 
L 187.831613 429.765075 
L 188.644062 100.867299 
L 189.456511 243.178812 
L 189.750171 -1 
M 190.720053 -1 
L 191.081409 344.558186 
L 191.690565 -1 
M 192.214517 -1 
L 192.706306 175.867652 
L 193.518755 55.658118 
L 194.259785 -1 
M 194.340688 -1 
L 195.143653 461.303246 
L 195.719563 -1 
M 196.202354 -1 
L 196.76855 435.575319 
L 197.580999 405.137524 
L 198.393448 8.96647 
L 199.205897 489.460555 
L 200.018346 503.560405 
L 200.830794 352.743296 
L 201.531034 -1 
M 201.80806 -1 
L 203.268141 508.415527 
L 204.08059 510.602164 
L 204.893038 496.458931 
L 205.705487 470.319292 
L 206.517936 514.19145 
L 207.232872 -1 
M 207.434945 -1 
L 208.142834 474.734159 
L 208.955283 453.331421 
L 209.767731 487.842063 
L 210.58018 450.711482 
L 211.392629 504.602624 
L 212.205078 517.880744 
L 213.017527 490.220228 
L 213.829975 402.586382 
L 214.642424 484.351093 
L 215.454873 369.31641 
L 216.267322 522.556622 
L 217.079771 491.374858 
L 218.704668 5.473089 
L 219.517117 476.567712 
L 220.329566 395.458524 
L 221.142015 415.95512 
L 221.954464 525.126802 
L 222.766912 526.571428 
L 223.579361 505.442035 
L 224.39181 516.645842 
L 225.204259 405.170681 
L 226.829156 526.459079 
L 227.641605 516.177934 
L 228.454054 481.331791 
L 229.266503 529.192818 
L 230.078952 526.507799 
L 230.8914 514.324242 
L 231.703849 529.953692 
L 232.516298 456.878412 
L 233.328747 505.741586 
L 234.141196 487.081989 
L 234.953645 525.83119 
L 235.766093 484.324726 
L 236.578542 385.761723 
L 237.390991 524.946145 
L 238.20344 526.876709 
L 239.015889 428.288282 
L 239.828337 530.581321 
L 240.434758 -1 
M 240.907545 -1 
L 241.453235 368.444551 
L 242.265684 531.426508 
L 243.078133 436.336057 
L 243.890581 510.170326 
L 244.70303 411.022726 
L 245.515479 530.677299 
L 245.819221 -1 
M 246.960762 -1 
L 247.140377 251.733547 
L 247.952826 528.721653 
L 248.765274 528.492808 
L 250.390172 512.513156 
L 251.202621 533.251463 
L 252.01507 503.866791 
L 252.827518 533.910871 
L 253.639967 528.951453 
L 254.452416 395.846179 
L 255.264865 535.334933 
L 256.077314 533.880579 
L 256.889762 534.839895 
L 257.702211 265.160704 
L 258.51466 535.925251 
L 259.327109 531.266918 
L 260.139558 527.819628 
L 260.952007 500.556157 
L 261.764455 535.775525 
L 262.576904 511.591632 
L 262.955943 -1 
M 263.818507 -1 
L 264.201802 522.486831 
L 265.014251 489.612029 
L 265.826699 441.505674 
L 266.639148 536.837437 
L 267.451597 438.638143 
L 268.264046 471.062501 
L 269.076495 482.789856 
L 269.888943 513.851696 
L 270.701392 521.407485 
L 271.513841 502.902393 
L 272.32629 419.804382 
L 273.138739 532.464645 
L 273.951188 433.691407 
L 274.763636 527.791365 
L 275.576085 529.29824 
L 276.388534 496.94188 
L 277.200983 422.018825 
L 278.013432 534.37809 
L 278.82588 468.700123 
L 279.638329 525.321901 
L 280.450778 501.652953 
L 281.263227 532.151821 
L 282.075676 537.761465 
L 282.888124 529.470683 
L 283.700573 270.273125 
L 284.513022 425.828446 
L 285.325471 518.75423 
L 286.13792 526.89369 
L 286.950369 288.76203 
L 287.762817 529.57051 
L 288.575266 534.13991 
L 290.200164 537.217317 
L 291.012613 534.862462 
L 291.825061 449.011181 
L 292.63751 539.631256 
L 293.449959 536.536719 
L 294.262408 537.924026 
L 295.074857 463.034145 
L 295.887305 527.836761 
L 296.699754 525.984365 
L 297.512203 521.742061 
L 298.324652 419.703207 
L 299.137101 490.90806 
L 299.94955 538.842492 
L 300.761998 517.693062 
L 301.574447 525.509091 
L 302.386896 535.127729 
L 303.199345 509.965445 
L 304.011794 515.667334 
L 304.824242 522.811797 
L 305.636691 493.174122 
L 306.44914 520.348542 
L 307.261589 285.923236 
L 308.074038 527.119663 
L 308.886486 525.688231 
L 309.698935 537.050413 
L 310.511384 524.75092 
L 311.323833 523.905396 
L 312.136282 539.929991 
L 312.948731 488.490695 
L 313.761179 528.352824 
L 314.573628 527.300401 
L 315.386077 510.569737 
L 316.198526 518.865568 
L 317.010975 536.190547 
L 317.823423 527.557499 
L 318.635872 535.715369 
L 319.448321 464.589204 
L 320.26077 476.696802 
L 321.073219 536.607731 
L 321.885667 510.912704 
L 322.698116 536.352549 
L 323.510565 529.748049 
L 324.323014 540.521536 
L 325.135463 516.189837 
L 325.947912 540.354941 
L 326.76036 540.068734 
L 327.572809 535.474356 
L 328.385258 510.834616 
L 329.197707 496.701022 
L 330.010156 526.268021 
L 330.822604 538.136223 
L 331.635053 525.629013 
L 332.447502 540.877288 
L 333.259951 514.970878 
L 334.006467 -1 
M 334.13754 -1 
L 334.884848 521.802197 
L 336.509746 542.146135 
L 337.322195 478.420424 
L 338.134644 438.320034 
L 338.947093 514.997926 
L 339.759541 502.138268 
L 340.57199 398.971645 
L 341.384439 536.024204 
L 342.196888 540.027426 
L 343.009337 528.067878 
L 343.821785 532.059896 
L 344.634234 487.54295 
L 345.446683 527.134719 
L 346.259132 477.695565 
L 347.071581 500.006025 
L 347.884029 542.775789 
L 348.696478 540.440803 
L 349.508927 540.812578 
L 350.321376 538.733426 
L 351.133825 500.089768 
L 351.946274 542.983875 
L 352.758722 540.681117 
L 353.571171 542.264459 
L 354.38362 541.926506 
L 355.196069 541.720742 
L 356.008518 477.976828 
L 356.820966 532.219545 
L 357.633415 473.552521 
L 358.445864 527.222923 
L 359.258313 528.374607 
L 360.070762 501.544797 
L 360.88321 542.355006 
L 361.695659 540.616521 
L 362.508108 532.332889 
L 363.320557 543.548342 
L 364.133006 543.572663 
L 364.945455 510.955512 
L 365.757903 542.621982 
L 366.570352 543.174585 
L 367.382801 393.925342 
L 368.19525 533.372656 
L 369.007699 543.710597 
L 369.820147 542.438521 
L 370.632596 492.959126 
L 371.445045 385.020399 
L 372.257494 502.635039 
L 373.069943 498.291022 
L 373.882391 480.478583 
L 374.69484 457.638558 
L 375.507289 541.733777 
L 376.319738 541.820703 
L 377.132187 540.460134 
L 377.944636 543.581479 
L 378.757084 532.098436 
L 379.569533 544.040342 
L 380.381982 507.520196 
L 381.194431 489.857608 
L 382.00688 508.713881 
L 382.819328 539.787335 
L 383.631777 480.367994 
L 384.444226 125.587378 
L 385.256675 541.809204 
L 386.069124 544.438566 
L 386.881572 535.376554 
L 387.694021 540.796003 
L 388.50647 541.662432 
L 389.318919 544.217916 
L 390.131368 540.541284 
L 390.943817 533.263956 
L 391.756265 543.746603 
L 392.568714 542.79932 
L 393.381163 544.547175 
L 394.193612 491.64179 
L 395.006061 516.274336 
L 395.818509 537.423678 
L 396.630958 525.233052 
L 397.443407 531.569188 
L 398.255856 524.078521 
L 399.068305 544.509138 
L 399.880753 534.183908 
L 400.693202 528.730272 
L 401.505651 511.556152 
L 402.3181 501.061293 
L 403.130549 544.992284 
L 403.942998 544.773931 
L 404.755446 544.962821 
L 405.567895 543.881235 
L 406.380344 539.656506 
L 407.192793 514.896351 
L 408.005242 540.146902 
L 408.81769 526.235154 
L 409.630139 544.398433 
L 410.442588 512.129842 
L 411.255037 541.624128 
L 412.067486 159.619061 
L 412.879934 543.655279 
L 413.692383 535.603742 
L 414.504832 355.073535 
L 415.317281 519.953678 
L 416.12973 541.659134 
L 416.942179 545.444676 
L 417.754627 530.748831 
L 418.567076 544.804791 
L 419.379525 405.78656 
L 420.191974 534.331859 
L 421.004423 502.717837 
L 421.816871 545.415196 
L 422.62932 545.044497 
L 423.441769 483.93153 
L 424.254218 529.633315 
L 425.066667 538.440498 
L 425.879115 538.389741 
L 426.691564 506.929454 
L 427.504013 543.011141 
L 428.316462 545.724994 
L 429.128911 518.774637 
L 429.94136 544.586075 
L 430.753808 540.425279 
L 431.566257 525.322967 
L 432.378706 545.956065 
L 433.191155 516.321995 
L 434.003604 540.878645 
L 434.816052 404.619656 
L 435.628501 532.18071 
L 436.44095 538.923257 
L 437.253399 458.541041 
L 438.065848 497.622306 
L 438.878296 522.793656 
L 439.690745 527.953236 
L 440.503194 518.666271 
L 441.315643 543.795401 
L 442.128092 545.367423 
L 442.940541 530.55558 
L 443.752989 499.051143 
L 444.565438 543.829938 
L 445.377887 546.002012 
L 446.190336 540.533044 
L 447.002785 525.153886 
L 447.815233 542.6787 
L 448.627682 546.075453 
L 449.440131 529.951251 
L 450.25258 546.480333 
L 451.065029 537.445183 
L 451.877477 546.420797 
L 452.689926 546.565494 
L 453.502375 546.593703 
L 454.314824 533.707737 
L 455.127273 509.770824 
L 455.939722 544.107398 
L 456.75217 465.27776 
L 457.564619 545.719629 
L 458.377068 545.276933 
L 459.189517 495.949575 
L 460.001966 268.362587 
L 460.814414 543.83143 
L 461.626863 533.783107 
L 462.439312 484.063915 
L 463.251761 545.998829 
L 464.06421 546.440935 
L 464.876658 57.976751 
L 465.689107 542.658789 
L 466.501556 545.69459 
L 467.314005 498.267076 
L 468.126454 527.630953 
L 468.938903 530.993545 
L 469.751351 547.044492 
L 470.5638 546.646601 
L 471.376249 459.700737 
L 472.188698 496.500703 
L 473.001147 520.509376 
L 473.813595 506.869787 
L 474.626044 546.224298 
L 475.438493 528.744274 
L 476.250942 545.78304 
L 477.063391 546.262333 
L 477.875839 544.18358 
L 478.688288 515.066988 
L 479.500737 529.800672 
L 480.313186 536.064917 
L 481.938084 466.697384 
L 482.750532 544.469704 
L 483.562981 543.779735 
L 484.37543 539.107778 
L 485.187879 545.130977 
L 486.000328 500.825794 
L 486.812776 528.875513 
L 487.625225 443.278502 
L 488.437674 528.38925 
L 489.250123 547.520983 
L 490.062572 546.099524 
L 490.87502 547.422545 
L 491.687469 525.837879 
L 492.499918 545.909353 
L 493.312367 530.7308 
L 494.124816 546.614996 
L 494.937265 544.168687 
L 495.749713 480.413477 
L 496.562162 532.189099 
L 497.374611 541.531691 
L 498.18706 434.871405 
L 498.999509 545.741343 
L 499.811957 488.552787 
L 500.624406 533.07235 
L 501.436855 532.202584 
L 502.249304 405.329944 
L 503.061753 537.94113 
L 503.874201 472.062967 
L 504.68665 547.74366 
L 505.499099 547.959132 
L 506.311548 547.869848 
L 507.123997 463.264402 
L 507.936446 547.695295 
L 508.748894 547.715789 
L 509.561343 547.460275 
L 510.373792 522.92532 
L 511.186241 548.037875 
L 511.99869 548.076761 
L 512.811138 545.404574 
L 513.623587 543.555468 
L 514.436036 548.177474 
L 515.248485 548.090149 
L 516.060934 545.472945 
L 516.873382 546.32745 
L 517.685831 543.994919 
L 518.49828 540.091245 
L 519.310729 535.616662 
L 520.123178 547.593431 
L 520.935627 548.361893 
L 521.748075 515.594065 
L 522.560524 537.44593 
L 523.372973 532.597475 
L 524.185422 488.845725 
L 524.997871 547.281696 
L 525.810319 548.34386 
L 526.622768 548.435932 
L 527.435217 546.550595 
L 528.247666 540.511025 
L 529.060115 544.528268 
L 529.872563 542.379817 
L 530.685012 545.855332 
L 531.497461 545.303082 
L 533.122359 547.88792 
L 533.934808 348.841813 
L 534.747256 547.642836 
L 535.559705 547.266004 
L 536.372154 548.276886 
L 537.184603 547.996178 
L 537.997052 539.540436 
L 538.8095 540.282632 
L 539.621949 545.008365 
L 540.434398 537.806646 
L 541.246847 548.680439 
L 542.059296 548.016811 
L 542.871744 548.939191 
L 543.684193 548.403909 
L 544.496642 533.624348 
L 545.309091 548.736274 
L 546.12154 523.53009 
L 546.933989 548.071604 
L 547.746437 533.240804 
L 548.558886 548.407429 
L 549.371335 541.984706 
L 550.183784 537.882167 
L 550.996233 542.433505 
L 551.808681 544.501121 
L 552.62113 380.180183 
L 553.433579 529.895124 
L 554.246028 542.976804 
L 555.058477 540.618972 
L 555.870925 470.656363 
L 556.683374 535.227131 
L 557.495823 543.220049 
L 558.308272 549.282562 
L 559.120721 549.26392 
L 559.93317 537.704392 
L 560.745618 546.514096 
L 561.558067 548.476306 
L 562.370516 549.364999 
L 563.182965 379.7812 
L 563.995414 542.753018 
L 564.807862 544.954945 
L 565.620311 450.845414 
L 566.43276 548.720361 
L 567.245209 518.97421 
L 568.057658 511.46084 
L 568.870106 548.929633 
L 569.682555 525.012347 
L 570.495004 536.297183 
L 571.307453 493.690487 
L 572.119902 549.599626 
L 572.932351 549.578456 
L 573.744799 529.351756 
L 574.557248 522.101335 
L 575.369697 546.293867 
L 576.182146 549.479766 
L 576.994595 546.119129 
L 577.807043 548.426667 
L 578.619492 536.378097 
L 579.431941 545.020333 
L 580.24439 547.344246 
L 581.056839 510.295002 
L 581.869287 527.211119 
L 582.681736 549.049907 
L 583.494185 541.086639 
L 584.306634 255.746653 
L 585.119083 545.695578 
L 585.931532 468.158841 
L 586.74398 549.962948 
L 587.556429 542.722172 
L 588.368878 548.551815 
L 589.181327 526.179097 
L 589.993776 517.999936 
L 590.806224 548.958487 
L 591.618673 415.74593 
L 592.431122 510.601101 
L 593.243571 466.951969 
L 594.05602 519.57838 
L 594.868468 423.571979 
L 595.680917 549.042636 
L 596.493366 549.222706 
L 597.305815 542.725827 
L 598.118264 483.70377 
L 598.930713 550.077914 
L 599.743161 532.358893 
L 600.55561 547.760525 
L 601.368059 540.444444 
L 602.180508 545.92526 
L 602.992957 536.940766 
L 603.805405 542.251594 
L 605.430303 550.330402 
L 606.242752 550.383997 
L 607.055201 466.60937 
L 607.867649 549.150967 
L 608.680098 544.983404 
L 609.492547 545.196258 
L 610.304996 550.415723 
L 611.117445 549.05903 
L 611.929894 550.493538 
L 612.742342 492.000807 
L 613.554791 549.057379 
L 614.36724 550.514708 
L 615.179689 519.516728 
L 615.992138 483.022743 
L 616.804586 550.109232 
L 617.617035 542.599346 
L 618.429484 546.849136 
L 619.241933 533.535954 
L 620.054382 547.807895 
L 620.86683 532.501374 
L 621.679279 549.857044 
L 622.491728 547.927895 
L 623.304177 550.60202 
L 624.116626 548.277855 
L 624.929075 550.774965 
L 625.741523 529.188258 
L 626.553972 531.649625 
L 627.366421 525.945482 
L 628.17887 550.851992 
L 628.991319 549.611272 
L 629.803767 547.540249 
L 630.616216 55.960203 
L 631.428665 536.726136 
L 632.241114 544.519864 
L 633.053563 166.542448 
L 633.866011 550.974744 
L 634.67846 544.863093 
L 635.490909 546.137052 
L 636.303358 523.186054 
L 637.115807 548.658188 
L 637.928256 550.889687 
L 638.740704 513.822176 
L 639.553153 547.639858 
L 640.365602 523.653029 
L 641.178051 548.996471 
L 641.9905 482.362034 
L 642.802948 526.025603 
L 643.615397 515.248277 
L 644.427846 489.908187 
L 645.240295 507.114914 
L 646.052744 547.381607 
L 646.865192 548.26861 
L 647.677641 529.206457 
L 648.49009 551.063186 
L 649.302539 547.33579 
L 650.114988 533.938435 
L 650.927437 547.528349 
L 651.739885 503.185873 
L 652.552334 547.630579 
L 653.364783 412.538644 
L 654.177232 538.627076 
L 654.989681 533.014041 
L 655.802129 512.120258 
L 656.614578 550.878134 
L 657.427027 546.462962 
L 658.239476 550.655691 
L 659.051925 521.966115 
L 659.864373 538.533059 
L 661.489271 551.571871 
L 662.30172 551.304298 
L 663.114169 533.980416 
L 663.926618 547.648816 
L 664.739066 525.07206 
L 665.551515 488.729355 
L 666.363964 542.987913 
L 667.176413 531.500765 
L 667.988862 538.054198 
L 668.80131 551.056191 
L 669.613759 530.181454 
L 670.426208 550.434389 
L 671.238657 444.39131 
L 672.051106 551.362718 
L 672.863554 545.030204 
L 673.676003 413.597433 
L 674.488452 550.777751 
L 675.300901 544.862975 
L 676.11335 533.366176 
L 676.925799 547.929767 
L 677.738247 525.039941 
L 679.363145 549.938789 
L 680.175594 518.636065 
L 680.988043 545.127128 
L 681.800491 534.644389 
L 682.61294 548.237547 
L 683.107813 -1 
M 683.867207 -1 
L 684.237838 294.673902 
L 685.050287 552.004204 
L 685.862735 512.675774 
L 686.675184 543.019508 
L 687.487633 550.00154 
L 688.300082 551.222256 
L 689.112531 550.511503 
L 689.92498 540.853698 
L 690.737428 551.759365 
L 691.549877 456.686815 
L 693.174775 551.935598 
L 693.987224 552.011428 
L 694.799672 278.946258 
L 695.612121 551.117219 
L 696.42457 546.793207 
L 697.237019 548.120029 
L 698.049468 551.605305 
L 698.861916 548.564281 
L 699.674365 534.173861 
L 700.486814 543.015661 
L 701.299263 536.695991 
L 702.111712 549.30319 
L 702.924161 533.274813 
L 703.736609 542.478454 
L 704.549058 533.12365 
L 705.361507 552.281096 
L 706.173956 382.161316 
L 706.986405 520.923245 
L 707.798853 551.451649 
L 708.611302 545.60431 
L 709.423751 552.555671 
L 710.2362 546.064418 
L 711.048649 545.678727 
L 711.861097 535.400799 
L 712.673546 548.571496 
L 713.485995 548.082679 
L 714.298444 530.582509 
L 715.110893 552.674713 
L 715.923342 480.33102 
L 716.73579 550.316896 
L 717.548239 552.226586 
L 718.360688 459.92275 
L 719.173137 547.046923 
L 719.985586 541.627313 
L 720.798034 461.948209 
L 721.610483 538.952298 
L 722.422932 507.296734 
L 723.235381 552.751878 
L 724.04783 546.335333 
L 724.860278 549.781034 
L 725.672727 550.545992 
L 726.485176 551.583945 
L 727.297625 552.905528 
L 728.110074 551.10509 
L 728.922523 552.200892 
L 729.734971 552.724272 
L 731.359869 550.770117 
L 732.172318 550.477485 
L 732.984767 551.863242 
L 733.797215 511.171608 
L 734.609664 547.421072 
L 735.422113 551.864625 
L 736.234562 552.515658 
L 737.047011 550.842426 
L 737.859459 516.065511 
L 738.671908 476.470649 
L 739.484357 544.16398 
L 740.296806 471.854964 
L 741.109255 545.114169 
L 741.921704 527.216395 
L 742.734152 506.699824 
L 743.546601 546.456422 
L 744.35905 533.609443 
L 745.171499 552.39023 
L 745.983948 517.509383 
L 746.796396 552.110555 
L 748.421294 547.963661 
L 750.046192 550.139521 
L 750.85864 550.537712 
L 751.671089 548.996352 
L 752.483538 489.243976 
L 753.295987 553.150403 
L 754.108436 551.182388 
L 754.920885 550.95948 
L 755.733333 547.779378 
L 756.545782 549.015539 
L 757.358231 517.439163 
L 758.17068 541.391229 
L 758.983129 425.91144 
L 759.795577 529.569551 
L 760.608026 551.218617 
L 761.420475 546.505073 
L 762.232924 540.189479 
L 763.045373 553.521973 
L 763.857821 550.362239 
L 764.67027 542.927885 
L 765.482719 507.784841 
L 766.295168 545.403205 
L 767.107617 533.419224 
L 767.920066 467.614347 
L 768.732514 548.622612 
L 769.544963 553.701377 
L 770.357412 553.621644 
L 771.06857 -1 
M 771.271298 -1 
L 771.98231 552.70909 
L 772.794758 551.323517 
L 773.607207 527.340733 
L 774.419656 529.751725 
L 775.232105 499.618432 
L 776.044554 551.964663 
L 776.857002 553.504158 
L 778.4819 544.896821 
L 779.294349 552.109037 
L 780.106798 548.658571 
L 780.919247 549.027724 
L 781.731695 487.354624 
L 782.544144 550.856233 
L 783.356593 520.69831 
L 784.169042 552.260364 
L 784.981491 548.98173 
L 785.793939 525.441267 
L 786.606388 527.41975 
L 787.418837 542.219044 
L 788.231286 508.788353 
L 789.043735 548.277282 
L 789.856183 553.001804 
L 790.668632 529.400389 
L 791.481081 551.454944 
L 792.29353 486.962517 
L 793.105979 530.401346 
L 793.918428 549.532383 
L 794.730876 433.926565 
L 795.543325 554.162081 
L 796.355774 547.108197 
L 797.168223 553.064472 
L 797.980672 500.199304 
L 798.79312 542.824754 
L 799.605569 546.715904 
L 800.418018 552.368371 
L 801.230467 549.607871 
L 802.042916 553.295431 
L 802.855364 532.792951 
L 803.667813 549.894094 
L 804.480262 510.451182 
L 805.292711 542.050384 
L 806.10516 534.232697 
L 806.917609 457.279303 
L 807.730057 511.140533 
L 808.542506 538.278318 
L 809.354955 553.598925 
L 810.167404 486.510341 
L 810.979853 546.933964 
L 811.792301 445.200976 
L 812.60475 534.331796 
L 813.417199 546.84042 
L 814.229648 529.992405 
L 815.042097 551.19848 
L 815.854545 546.374551 
L 816.666994 548.719991 
L 817.479443 549.92147 
L 818.291892 537.788214 
L 819.104341 516.059323 
L 819.91679 546.959551 
L 820.729238 554.466197 
L 821.541687 550.710407 
L 822.354136 554.518165 
L 823.166585 553.741796 
L 823.979034 549.336071 
L 824.791482 546.955652 
L 825.603931 552.036853 
L 826.41638 549.130881 
L 827.228829 551.695584 
L 828.041278 545.056779 
L 828.853726 545.553026 
L 829.666175 552.315497 
L 830.478624 552.649014 
L 831.291073 475.42206 
L 832.103522 535.224798 
L 832.915971 552.482726 
L 833.728419 553.195494 
L 834.540868 528.562388 
L 835.353317 554.866562 
L 836.165766 539.395737 
L 836.978215 529.695041 
L 837.790663 531.734564 
L 838.603112 470.615897 
L 839.415561 552.663824 
L 840.22801 539.640143 
L 841.040459 553.55187 
L 841.852907 554.436549 
L 842.665356 550.131134 
L 843.477805 554.919805 
L 844.290254 553.747189 
L 845.102703 549.097348 
L 845.915152 550.532246 
L 846.7276 550.735706 
L 847.540049 553.530143 
L 848.352498 552.816843 
L 849.164947 94.539913 
L 849.977396 540.136074 
L 850.789844 555.05947 
L 851.602293 263.46601 
L 852.414742 542.828556 
L 853.227191 538.286534 
L 854.03964 547.913504 
L 854.852088 504.300621 
L 855.664537 546.979003 
L 856.476986 479.702516 
L 857.289435 545.205661 
L 858.101884 515.102739 
L 858.914333 535.467172 
L 859.726781 545.598802 
L 860.53923 535.087715 
L 861.351679 550.955542 
L 862.164128 545.167472 
L 862.976577 545.372322 
L 863.789025 502.465215 
L 864.601474 527.56578 
L 865.413923 546.792796 
L 866.226372 542.09355 
L 867.038821 527.675309 
L 867.851269 499.936231 
L 868.663718 531.663978 
L 869.476167 554.569044 
L 870.288616 500.755359 
L 871.101065 501.916036 
L 871.913514 354.656751 
L 872.725962 539.090493 
L 873.538411 433.083245 
L 874.35086 464.886538 
L 875.163309 546.389828 
L 875.975758 551.376748 
L 876.788206 555.497319 
L 877.600655 552.959589 
L 878.413104 546.992067 
L 879.225553 554.135579 
L 880.85045 543.865902 
L 881.662899 552.808559 
L 882.475348 551.363861 
L 883.287797 550.478389 
L 884.100246 554.178253 
L 885.725143 535.194385 
L 886.537592 555.172974 
L 887.350041 552.381061 
L 888.16249 523.426041 
L 888.974939 553.784134 
L 889.787387 553.644224 
L 890.599836 530.222919 
L 891.412285 527.593698 
L 892.224734 554.445278 
L 893.037183 555.627863 
L 893.849631 533.174394 
L 894.66208 549.167801 
L 895.474529 551.747199 
L 896.286978 551.74231 
L 897.099427 434.95414 
L 897.911876 538.543281 
L 898.724324 555.557905 
L 899.536773 522.433873 
L 900.349222 555.82217 
L 901.161671 555.189918 
L 901.787393 -1 
M 902.164015 -1 
L 902.786568 543.139456 
L 903.599017 537.938061 
L 904.411466 542.303865 
L 905.223915 554.433281 
L 906.036364 556.029137 
L 906.848812 467.999617 
L 907.661261 549.205414 
L 908.47371 553.409063 
L 909.286159 556.113004 
L 910.098608 516.275093 
L 910.911057 543.468116 
L 911.723505 551.878144 
L 912.535954 556.146735 
L 913.348403 525.10055 
L 914.160852 551.010043 
L 914.973301 556.088935 
L 915.785749 499.192568 
L 916.598198 537.879864 
L 917.410647 555.273234 
L 918.223096 529.258748 
L 919.035545 476.863209 
L 919.847993 542.105807 
L 920.660442 551.533681 
L 921.472891 536.591594 
L 922.28534 553.984734 
L 923.097789 537.610141 
L 923.910238 546.52398 
L 924.722686 459.731317 
L 925.535135 539.65149 
L 926.347584 551.535837 
L 927.160033 553.775902 
L 927.972482 554.978431 
L 928.78493 555.532187 
L 929.597379 550.411577 
L 930.409828 533.592752 
L 931.222277 556.478734 
L 932.034726 526.781072 
L 932.847174 524.380434 
L 933.659623 526.203363 
L 935.284521 553.521754 
L 936.09697 546.582643 
L 936.909419 521.27878 
L 937.721867 531.130418 
L 938.534316 542.565583 
L 939.346765 547.881561 
L 940.159214 507.242689 
L 940.971663 510.20871 
L 941.784111 551.104478 
L 942.59656 553.046578 
L 943.409009 533.573212 
L 944.221458 550.681481 
L 945.033907 556.701096 
L 945.846355 547.28245 
L 946.658804 556.540686 
L 947.471253 550.578494 
L 948.283702 556.733281 
L 949.096151 555.001809 
L 949.9086 550.00985 
L 950.721048 556.390873 
L 951.533497 556.490256 
L 952.345946 551.173278 
L 953.158395 552.507149 
L 953.970844 555.504727 
L 954.783292 554.711874 
L 955.595741 546.956877 
L 956.40819 556.681202 
L 957.220639 554.815774 
L 958.033088 556.857722 
L 958.845536 556.596896 
L 959.657985 555.634944 
L 960.470434 554.29418 
L 961.282883 545.053632 
L 962.095332 556.830481 
L 962.907781 555.810385 
L 964.532678 550.626059 
L 965.345127 538.177608 
L 966.157576 556.745313 
L 966.970025 551.792393 
L 967.782473 534.431301 
L 968.594922 556.77424 
L 969.407371 556.440682 
L 970.21982 550.211761 
L 971.032269 210.01529 
L 971.844717 526.963873 
L 972.657166 554.831896 
L 973.469615 516.999632 
L 974.282064 557.150198 
L 975.094513 551.98045 
L 975.906962 555.07877 
L 976.71941 545.214936 
L 977.531859 468.617151 
L 978.344308 552.254209 
L 979.156757 556.333332 
L 979.969206 556.80031 
L 980.781654 556.592346 
L 981.594103 541.718059 
L 982.406552 554.530007 
L 983.219001 541.940483 
L 984.03145 553.343862 
L 984.843898 553.370456 
L 985.656347 541.115615 
L 986.468796 520.963495 
L 988.093694 555.732206 
L 988.906143 556.754053 
L 989.718591 369.261238 
L 990.53104 534.810869 
L 991.343489 528.900739 
L 992.155938 533.603709 
L 992.968387 540.101949 
L 993.780835 532.443483 
L 994.593284 522.773563 
L 995.405733 556.453991 
L 996.218182 556.662044 
L 996.218182 556.662044 
" style="fill:none;opacity:0.3;stroke:#1f77b4;stroke-linecap:square;stroke-width:1.5;"/>
   </g>
   <g id="line2d_17">
    <path clip-path="url(#p356c524a5b)" d="M 185.159052 -1 
L 185.394267 480.73934 
L 185.696302 -1 
M 186.696176 -1 
L 187.019165 536.214087 
L 187.831613 530.40858 
L 188.644062 178.333348 
L 189.456511 523.241137 
L 189.931719 -1 
M 190.635566 -1 
L 191.081409 451.448533 
L 191.893857 479.021191 
L 192.706306 487.185417 
L 193.231985 -1 
M 193.801292 -1 
L 194.331204 498.490426 
L 195.143653 412.466944 
L 195.257193 -1 
M 196.636861 -1 
L 196.76855 491.34294 
L 197.580999 429.393052 
L 198.393448 415.511025 
L 199.205897 339.975559 
L 200.018346 456.01784 
L 200.452259 -1 
M 201.223135 -1 
L 201.643243 425.908045 
L 202.455692 467.168395 
L 203.268141 494.792914 
L 204.08059 487.233861 
L 204.893038 354.869895 
L 205.705487 479.652924 
L 206.517936 386.676987 
L 206.909432 -1 
M 208.093682 -1 
L 208.955283 487.301968 
L 209.767731 485.63298 
L 210.58018 285.500358 
L 211.392629 413.057709 
L 212.205078 125.114779 
L 213.017527 483.932457 
L 213.829975 483.239263 
L 214.642424 241.708863 
L 215.454873 489.915838 
L 216.267322 181.8269 
L 217.079771 352.537865 
L 217.892219 412.692788 
L 218.145164 -1 
M 219.39753 -1 
L 219.517117 156.940316 
L 220.329566 438.5263 
L 221.142015 424.938446 
L 221.954464 322.449203 
L 222.766912 493.64825 
L 223.579361 481.825354 
L 224.39181 443.071365 
L 225.204259 493.891098 
L 226.016708 40.23348 
L 226.829156 424.439311 
L 227.641605 475.414546 
L 228.454054 309.575381 
L 229.266503 392.199775 
L 230.078952 450.36161 
L 230.8914 467.205391 
L 231.703849 494.573386 
L 232.516298 478.123518 
L 233.328747 487.519157 
L 234.141196 493.4004 
L 234.953645 496.344803 
L 235.766093 486.989064 
L 236.578542 494.35086 
L 237.390991 486.888262 
L 238.20344 477.344964 
L 239.015889 217.775593 
L 239.828337 473.513187 
L 240.640786 400.316689 
L 240.792379 -1 
M 242.117765 -1 
L 242.265684 388.424381 
L 243.078133 493.430405 
L 243.890581 349.963278 
L 244.70303 459.307016 
L 245.515479 487.410353 
L 245.642564 -1 
M 247.012458 -1 
L 247.140377 491.212687 
L 247.952826 496.35125 
L 248.765274 471.360215 
L 249.577723 473.12578 
L 250.390172 376.619333 
L 251.202621 331.255156 
L 252.01507 475.180502 
L 252.827518 444.205511 
L 253.639967 457.655908 
L 254.452416 130.200418 
L 255.264865 473.742712 
L 256.077314 380.63577 
L 256.889762 500.190816 
L 257.702211 489.28995 
L 258.51466 334.648964 
L 259.327109 445.63356 
L 260.139558 482.501377 
L 260.952007 456.152409 
L 261.764455 343.617583 
L 262.576904 467.657797 
L 263.389353 494.482348 
L 264.201802 468.257501 
L 265.014251 311.694186 
L 265.826699 189.462189 
L 266.639148 505.735261 
L 267.451597 428.5192 
L 268.264046 406.448897 
L 268.567276 -1 
M 269.545472 -1 
L 269.888943 500.123186 
L 270.701392 206.917301 
L 271.513841 438.635647 
L 272.32629 490.307785 
L 273.138739 494.80818 
L 273.951188 111.301972 
L 274.763636 473.891368 
L 275.576085 508.705837 
L 276.388534 350.578968 
L 277.200983 469.82595 
L 278.013432 474.623601 
L 278.82588 159.30435 
L 279.638329 509.338326 
L 280.450778 501.623828 
L 281.263227 69.018491 
L 282.075676 508.417118 
L 282.888124 506.47095 
L 283.700573 272.987067 
L 284.513022 436.537626 
L 285.325471 511.791689 
L 286.13792 491.049175 
L 286.950369 491.402905 
L 287.762817 459.234575 
L 288.575266 504.119639 
L 289.387715 453.920827 
L 290.200164 506.265724 
L 291.012613 301.051362 
L 291.825061 344.498735 
L 292.63751 477.873534 
L 293.449959 492.073623 
L 294.262408 462.698472 
L 295.074857 504.056007 
L 295.887305 486.07464 
L 296.699754 463.008231 
L 297.512203 514.82585 
L 298.324652 301.643674 
L 299.137101 487.944385 
L 299.94955 87.139562 
L 300.761998 500.795452 
L 301.574447 512.551552 
L 302.386896 396.002425 
L 303.199345 426.961751 
L 304.011794 419.527383 
L 304.824242 288.675355 
L 305.636691 422.534925 
L 306.44914 423.628282 
L 306.674214 -1 
M 307.846938 -1 
L 308.074038 428.934903 
L 308.886486 287.305599 
L 309.698935 515.725203 
L 310.511384 456.583964 
L 311.323833 518.121863 
L 312.136282 426.145337 
L 312.948731 233.967787 
L 313.761179 517.323531 
L 314.573628 517.70673 
L 315.049139 -1 
M 315.810672 -1 
L 316.198526 334.740749 
L 317.010975 84.149667 
L 317.823423 516.7663 
L 318.635872 514.574381 
L 319.448321 478.37687 
L 320.26077 506.095545 
L 321.073219 455.336016 
L 321.885667 513.005155 
L 322.698116 515.867294 
L 323.510565 513.418973 
L 324.323014 342.823848 
L 325.135463 518.708739 
L 325.947912 416.88362 
L 326.76036 519.967246 
L 327.572809 389.927521 
L 328.385258 503.926275 
L 329.139028 -1 
M 329.254609 -1 
L 330.010156 520.922011 
L 330.822604 520.863502 
L 331.635053 506.282486 
L 332.447502 485.229864 
L 333.259951 504.474033 
L 333.589226 -1 
M 334.553049 -1 
L 334.884848 511.022637 
L 335.697297 512.37298 
L 336.509746 519.76077 
L 337.322195 442.284637 
L 338.134644 344.166455 
L 338.947093 464.594069 
L 339.759541 520.372635 
L 340.57199 428.292036 
L 341.384439 482.773836 
L 342.196888 452.760546 
L 343.009337 516.862421 
L 343.821785 501.006789 
L 343.900145 -1 
M 345.366443 -1 
L 345.446683 514.368975 
L 346.259132 510.416695 
L 347.071581 50.318835 
L 347.884029 514.310128 
L 348.696478 491.463207 
L 349.508927 514.844983 
L 350.321376 484.464038 
L 351.133825 520.64759 
L 351.946274 337.709367 
L 352.758722 509.99067 
L 353.571171 459.006023 
L 354.38362 508.552545 
L 355.196069 122.064277 
L 356.008518 443.653769 
L 356.820966 470.949574 
L 357.633415 488.17621 
L 358.445864 513.829158 
L 359.258313 479.559608 
L 360.070762 467.109391 
L 360.88321 516.173038 
L 361.695659 462.126486 
L 362.508108 515.209017 
L 363.320557 517.233081 
L 364.133006 364.125417 
L 364.945455 502.233577 
L 365.757903 473.885776 
L 366.570352 451.053197 
L 367.382801 445.045948 
L 368.19525 455.897335 
L 369.007699 502.568297 
L 369.820147 420.839391 
L 370.632596 504.736301 
L 372.257494 451.03568 
L 373.069943 520.638333 
L 373.882391 495.829454 
L 374.3757 -1 
M 375.049148 -1 
L 375.507289 414.612781 
L 376.319738 507.626146 
L 377.132187 518.128362 
L 377.944636 503.750081 
L 378.757084 511.910806 
L 379.569533 503.690298 
L 380.381982 503.254285 
L 381.194431 448.906039 
L 382.00688 447.462248 
L 382.819328 516.223058 
L 383.631777 385.208214 
L 384.444226 382.464996 
L 385.256675 485.872217 
L 386.069124 508.426634 
L 386.881572 345.92188 
L 387.694021 511.952111 
L 388.50647 518.914186 
L 389.318919 519.932916 
L 390.131368 514.063431 
L 390.943817 449.911468 
L 391.756265 522.05689 
L 392.568714 472.007865 
L 393.381163 512.618922 
L 394.193612 463.857315 
L 395.006061 468.510637 
L 395.818509 488.418091 
L 397.443407 285.338015 
L 398.255856 472.452618 
L 399.068305 448.49554 
L 399.880753 482.630648 
L 400.693202 511.914947 
L 401.505651 467.097227 
L 402.3181 520.268424 
L 403.130549 457.894901 
L 403.942998 480.486998 
L 404.755446 522.450483 
L 405.567895 522.99359 
L 406.380344 462.250587 
L 407.192793 508.305489 
L 408.005242 442.325831 
L 408.81769 471.338728 
L 409.630139 481.350839 
L 410.442588 516.004557 
L 411.255037 506.851879 
L 412.067486 346.645221 
L 412.879934 517.033087 
L 413.692383 514.746304 
L 413.845679 -1 
M 415.16715 -1 
L 415.317281 501.685691 
L 416.12973 487.896799 
L 416.845369 -1 
M 417.043877 -1 
L 417.754627 461.212825 
L 418.567076 521.272877 
L 419.379525 314.312 
L 420.191974 522.91553 
L 421.004423 477.057354 
L 421.816871 502.877101 
L 422.62932 519.608868 
L 423.441769 505.391116 
L 424.254218 504.642017 
L 425.066667 512.977838 
L 425.879115 423.678582 
L 426.691564 374.434692 
L 427.504013 404.301344 
L 428.316462 518.233242 
L 429.128911 506.52311 
L 429.94136 462.714414 
L 430.753808 510.328112 
L 431.566257 499.126656 
L 432.378706 475.105121 
L 433.191155 287.975519 
L 434.003604 487.976646 
L 434.816052 77.46296 
L 435.628501 354.972157 
L 436.44095 517.968937 
L 437.253399 83.409403 
L 438.065848 519.172309 
L 438.878296 390.05927 
L 439.690745 478.43591 
L 440.503194 484.824051 
L 441.315643 401.406162 
L 442.128092 447.87461 
L 442.940541 399.380034 
L 443.752989 494.95642 
L 444.565438 342.014995 
L 445.309488 -1 
M 445.42432 -1 
L 446.190336 519.200233 
L 447.002785 313.137839 
L 447.815233 518.049817 
L 449.440131 452.604942 
L 450.25258 518.104899 
L 451.065029 405.625286 
L 451.466399 -1 
M 452.245246 -1 
L 452.689926 502.556539 
L 453.502375 512.733245 
L 454.314824 408.969581 
L 455.127273 435.833797 
L 455.939722 355.858045 
L 456.75217 459.43537 
L 457.564619 507.714861 
L 458.377068 514.00371 
L 459.189517 501.919308 
L 459.32238 -1 
M 460.70597 -1 
L 460.814414 395.250245 
L 461.626863 514.543187 
L 462.439312 361.898865 
L 463.251761 486.1559 
L 464.06421 487.443509 
L 464.445203 -1 
M 465.297369 -1 
L 465.689107 514.045864 
L 466.501556 365.34526 
L 467.314005 501.354279 
L 468.126454 514.184872 
L 468.938903 355.139747 
L 469.751351 507.015686 
L 470.5638 486.149635 
L 471.376249 247.469066 
L 472.188698 462.831759 
L 473.001147 507.196193 
L 474.626044 425.655184 
L 476.250942 520.636674 
L 477.063391 409.521206 
L 477.875839 449.520767 
L 478.688288 362.464881 
L 479.500737 519.777102 
L 480.313186 456.99132 
L 481.125635 175.625069 
L 481.938084 281.480425 
L 482.750532 486.663026 
L 483.562981 521.996833 
L 484.37543 512.256374 
L 485.187879 522.291942 
L 486.000328 465.839784 
L 486.812776 520.543873 
L 487.625225 422.356496 
L 488.437674 493.22357 
L 489.250123 505.110388 
L 490.062572 505.993965 
L 490.87502 480.687776 
L 491.687469 517.32956 
L 492.499918 500.128938 
L 493.312367 522.617525 
L 494.124816 523.077776 
L 494.937265 519.935676 
L 495.749713 519.889033 
L 496.562162 521.226842 
L 497.374611 495.251972 
L 498.18706 494.599423 
L 498.999509 523.258497 
L 499.811957 447.924633 
L 500.624406 508.636741 
L 501.436855 517.850138 
L 501.919497 -1 
M 502.58175 -1 
L 503.061753 510.91578 
L 503.874201 318.974717 
L 504.68665 477.710024 
L 505.499099 363.466315 
L 506.311548 525.211156 
L 507.123997 376.273621 
L 507.936446 519.470901 
L 508.748894 492.354713 
L 509.561343 522.671532 
L 510.373792 192.85997 
L 511.186241 518.029312 
L 511.99869 444.289892 
L 513.623587 473.152343 
L 514.436036 518.324092 
L 515.248485 490.493245 
L 516.060934 486.651137 
L 516.873382 523.142446 
L 517.685831 514.132101 
L 518.49828 392.984047 
L 519.310729 525.290547 
L 520.123178 391.969893 
L 520.935627 415.715823 
L 521.748075 466.42839 
L 522.560524 495.8338 
L 523.372973 382.920635 
L 524.185422 465.490882 
L 524.997871 518.071232 
L 525.810319 501.266546 
L 526.622768 498.178815 
L 527.435217 511.72972 
L 528.247666 344.460447 
L 529.060115 493.347439 
L 529.872563 498.976731 
L 530.685012 517.916955 
L 531.497461 405.402704 
L 532.30991 518.222462 
L 533.122359 500.640759 
L 533.786859 -1 
M 534.112543 -1 
L 534.747256 397.851348 
L 535.307685 -1 
M 535.768259 -1 
L 536.372154 518.360947 
L 537.184603 477.345928 
L 537.997052 383.869028 
L 538.8095 525.163199 
L 539.621949 516.604005 
L 540.434398 523.110077 
L 541.246847 518.270721 
L 542.059296 484.808482 
L 542.871744 17.333907 
L 543.684193 523.752499 
L 544.496642 495.611791 
L 545.309091 524.942602 
L 546.12154 521.97131 
L 546.933989 525.720689 
L 547.746437 70.222461 
L 548.558886 492.733266 
L 549.371335 526.574482 
L 550.183784 490.808591 
L 550.996233 506.497918 
L 551.808681 483.5614 
L 552.62113 174.173855 
L 553.433579 477.994288 
L 554.246028 485.473881 
L 555.058477 375.781093 
L 555.870925 294.285872 
L 556.683374 520.248858 
L 557.495823 492.801116 
L 558.308272 401.999752 
L 559.120721 501.438692 
L 559.93317 520.077946 
L 560.745618 367.638507 
L 561.558067 506.417448 
L 562.370516 501.681286 
L 563.182965 87.724011 
L 563.995414 512.82834 
L 564.807862 359.633639 
L 565.620311 459.554816 
L 566.43276 517.55006 
L 567.245209 480.636758 
L 568.057658 375.277155 
L 568.870106 513.399457 
L 569.682555 523.541155 
L 570.495004 427.620367 
L 571.307453 500.527382 
L 572.119902 521.191975 
L 573.744799 419.413465 
L 574.557248 102.747281 
L 575.369697 519.749378 
L 576.182146 517.130782 
L 576.994595 511.857224 
L 577.807043 445.870183 
L 578.619492 524.447669 
L 579.431941 362.77274 
L 580.24439 489.959546 
L 581.056839 519.203135 
L 581.869287 518.965029 
L 582.681736 398.699154 
L 583.494185 511.4499 
L 583.918364 -1 
M 584.735597 -1 
L 585.119083 418.340248 
L 585.931532 525.623022 
L 586.74398 527.252943 
L 587.556429 503.418096 
L 588.368878 527.650317 
L 589.181327 525.636145 
L 589.993776 527.294248 
L 590.806224 510.10451 
L 591.618673 481.399403 
L 592.431122 521.813273 
L 593.243571 156.138921 
L 594.05602 501.353116 
L 594.868468 519.286591 
L 595.680917 524.45403 
L 596.493366 466.14455 
L 597.305815 523.811927 
L 598.118264 434.9205 
L 598.930713 391.079064 
L 599.743161 528.438381 
L 600.55561 480.969126 
L 601.368059 522.674967 
L 602.180508 491.720961 
L 602.992957 231.668533 
L 603.805405 489.457707 
L 604.617854 501.049516 
L 605.430303 370.502764 
L 606.242752 435.451272 
L 606.585916 -1 
M 607.487213 -1 
L 607.867649 524.60025 
L 608.680098 521.42255 
L 609.492547 444.614188 
L 610.304996 522.754528 
L 611.117445 524.617746 
L 611.929894 500.507881 
L 612.742342 178.082741 
L 613.554791 501.236651 
L 614.36724 519.676171 
L 615.179689 384.725398 
L 616.804586 520.372159 
L 617.617035 485.391775 
L 618.429484 519.218327 
L 619.241933 414.807065 
L 620.054382 514.361605 
L 620.86683 518.031669 
L 621.679279 384.716462 
L 622.491728 519.330466 
L 623.304177 524.928743 
L 624.116626 513.861172 
L 624.929075 382.060711 
L 625.741523 499.734248 
L 626.553972 212.701909 
L 627.366421 524.934297 
L 628.17887 456.445503 
L 628.991319 517.700709 
L 629.803767 513.330375 
L 629.980518 -1 
M 631.254815 -1 
L 631.428665 502.594139 
L 632.241114 518.768792 
L 632.486851 -1 
M 633.620888 -1 
L 633.866011 516.91191 
L 634.67846 513.622065 
L 635.162032 -1 
M 635.882545 -1 
L 636.303358 375.068916 
L 637.115807 516.689619 
L 637.89 -1 
M 637.96601 -1 
L 638.740704 523.893932 
L 639.553153 519.627261 
L 640.365602 514.694984 
L 641.178051 523.11895 
L 641.9905 523.525689 
L 642.802948 483.055734 
L 643.615397 516.01912 
L 644.427846 522.992238 
L 645.240295 278.973182 
L 646.052744 512.947415 
L 646.865192 519.875727 
L 647.677641 498.950531 
L 648.49009 496.865126 
L 649.302539 505.55486 
L 650.114988 476.412822 
L 650.927437 500.971896 
L 651.739885 280.664682 
L 652.552334 492.459295 
L 653.364783 507.1426 
L 654.177232 492.908356 
L 654.989681 454.227738 
L 655.802129 383.426383 
L 656.614578 507.002248 
L 657.427027 497.832165 
L 658.239476 345.469397 
L 659.051925 518.719073 
L 659.864373 521.18074 
L 660.676822 471.720965 
L 661.489271 496.388755 
L 662.30172 477.003166 
L 663.114169 381.813722 
L 663.56931 -1 
M 664.305033 -1 
L 664.739066 343.696041 
L 665.551515 251.666878 
L 666.363964 513.83804 
L 667.176413 515.4529 
L 667.988862 488.598434 
L 668.80131 514.387793 
L 669.613759 480.266451 
L 670.426208 516.622425 
L 671.238657 450.913795 
L 672.051106 451.575193 
L 672.863554 515.414647 
L 673.676003 524.016059 
L 674.488452 481.631309 
L 675.300901 285.217016 
L 676.11335 507.293264 
L 676.925799 517.060853 
L 677.738247 458.217129 
L 678.550696 384.567732 
L 679.363145 364.419425 
L 680.988043 524.531208 
L 681.800491 520.618742 
L 682.61294 483.486275 
L 682.789104 -1 
M 684.087484 -1 
L 684.237838 396.384773 
L 685.050287 446.996035 
L 685.862735 523.486898 
L 686.675184 507.631687 
L 687.487633 518.408392 
L 688.300082 521.645598 
L 689.92498 467.089311 
L 690.737428 481.197897 
L 691.549877 474.533419 
L 692.362326 334.488571 
L 693.174775 519.468226 
L 693.987224 525.619008 
L 694.799672 521.35564 
L 695.612121 449.994122 
L 696.42457 476.319904 
L 697.237019 436.45457 
L 698.049468 495.040512 
L 698.861916 519.376348 
L 699.674365 356.891815 
L 700.486814 482.251449 
L 701.299263 514.21314 
L 702.111712 388.127652 
L 702.924161 384.668707 
L 704.549058 500.552253 
L 705.361507 525.775181 
L 706.173956 29.910847 
L 706.986405 382.125161 
L 707.798853 356.720131 
L 708.611302 518.550521 
L 709.423751 498.259361 
L 710.2362 517.982141 
L 711.048649 519.605512 
L 711.861097 514.26801 
L 712.673546 521.878779 
L 713.485995 520.325062 
L 714.298444 521.222062 
L 715.110893 521.120937 
L 715.923342 475.172841 
L 716.73579 471.200426 
L 717.548239 483.103669 
L 718.360688 134.171503 
L 719.173137 502.802474 
L 719.985586 480.534352 
L 720.798034 49.124509 
L 721.610483 478.536098 
L 722.422932 314.358093 
L 723.235381 480.59281 
L 724.04783 522.872876 
L 724.860278 507.425298 
L 725.672727 353.012016 
L 726.485176 523.094235 
L 727.297625 520.576724 
L 728.110074 523.20312 
L 728.922523 431.997182 
L 729.734971 451.336222 
L 730.54742 495.449449 
L 731.359869 467.360945 
L 732.172318 255.591651 
L 732.984767 518.4741 
L 733.797215 508.696304 
L 734.609664 495.574769 
L 735.422113 518.344625 
L 736.234562 516.839436 
L 737.047011 421.781881 
L 737.859459 497.246273 
L 739.484357 418.706605 
L 740.296806 324.875087 
L 741.109255 451.859309 
L 741.921704 523.523907 
L 742.734152 502.713446 
L 743.546601 492.171495 
L 744.35905 521.13982 
L 745.171499 449.296908 
L 745.983948 468.097792 
L 746.796396 477.422673 
L 747.608845 516.054791 
L 748.421294 447.658351 
L 749.233743 517.755254 
L 750.046192 401.738393 
L 750.85864 455.717344 
L 751.671089 470.086207 
L 752.483538 397.0114 
L 753.295987 442.343186 
L 753.788735 -1 
M 754.415355 -1 
L 754.920885 472.786468 
L 755.733333 491.832732 
L 756.545782 521.664697 
L 757.358231 522.395192 
L 758.17068 471.110653 
L 758.983129 513.723503 
L 759.795577 511.239185 
L 760.608026 468.34903 
L 761.112046 -1 
M 761.713693 -1 
L 762.232924 507.596465 
L 763.045373 512.979913 
L 763.857821 508.772958 
L 764.67027 521.335081 
L 765.482719 463.687457 
L 766.295168 65.006679 
L 767.107617 464.331362 
L 767.920066 327.613954 
L 768.732514 522.04314 
L 769.544963 451.353845 
L 770.357412 521.438011 
L 771.169861 409.71205 
L 771.98231 509.556732 
L 773.607207 401.961815 
L 774.419656 429.99143 
L 775.232105 381.493105 
L 776.044554 471.324852 
L 776.857002 310.759256 
L 777.669451 506.782174 
L 778.4819 464.98214 
L 779.294349 330.394585 
L 780.106798 504.775855 
L 780.919247 502.593824 
L 781.731695 439.108611 
L 783.356593 515.988298 
L 784.169042 200.749051 
L 784.981491 496.988924 
L 785.793939 521.73326 
L 786.606388 378.266065 
L 787.418837 370.0875 
L 788.231286 514.633947 
L 789.856183 519.045239 
L 790.668632 310.0363 
L 791.481081 500.794028 
L 792.29353 519.054537 
L 793.105979 238.222723 
L 793.918428 517.274207 
L 794.730876 518.02349 
L 795.543325 520.271557 
L 796.355774 461.52267 
L 797.168223 509.474617 
L 797.980672 122.946309 
L 798.79312 506.652498 
L 799.605569 358.705046 
L 800.418018 499.535182 
L 801.230467 496.421811 
L 802.042916 518.946152 
L 802.745439 -1 
M 802.975316 -1 
L 803.667813 468.687021 
L 804.480262 499.225892 
L 805.292711 448.098344 
L 806.10516 520.374351 
L 806.917609 479.632538 
L 807.730057 494.5723 
L 808.542506 418.45351 
L 809.354955 518.864421 
L 810.167404 511.765457 
L 810.979853 505.957309 
L 811.792301 374.45751 
L 812.60475 509.459252 
L 813.417199 516.638236 
L 814.229648 518.127544 
L 815.042097 501.55263 
L 815.854545 512.552124 
L 816.666994 474.583427 
L 817.479443 520.864155 
L 818.291892 482.840954 
L 819.104341 451.437644 
L 819.91679 401.639431 
L 820.729238 474.27288 
L 821.541687 428.164173 
L 822.354136 509.896587 
L 823.166585 494.4035 
L 823.979034 515.396911 
L 824.791482 465.573419 
L 825.603931 510.472277 
L 826.41638 521.864811 
L 827.228829 522.176922 
L 828.041278 497.4147 
L 828.853726 317.533179 
L 829.666175 507.515811 
L 830.478624 505.745363 
L 831.291073 112.310166 
L 832.103522 401.773807 
L 832.915971 409.366151 
L 833.728419 346.67861 
L 834.540868 83.249972 
L 835.353317 511.213178 
L 836.165766 510.481896 
L 836.978215 513.627163 
L 837.790663 509.441488 
L 838.603112 423.140866 
L 839.415561 429.697137 
L 840.22801 422.824883 
L 841.040459 520.702483 
L 841.852907 518.593724 
L 842.665356 508.316185 
L 843.477805 322.883231 
L 844.290254 512.817304 
L 845.102703 439.389568 
L 845.915152 512.832364 
L 846.7276 503.700577 
L 847.540049 511.211348 
L 848.352498 493.977375 
L 848.533445 -1 
M 849.792522 -1 
L 849.977396 507.882853 
L 850.789844 503.634062 
L 851.127995 -1 
M 852.074872 -1 
L 852.414742 508.045921 
L 853.227191 515.296071 
L 854.03964 157.510825 
L 854.852088 276.987175 
L 855.664537 295.38711 
L 855.817837 -1 
M 857.055287 -1 
L 857.289435 514.985927 
L 858.101884 516.804917 
L 858.914333 493.640106 
L 859.726781 519.037491 
L 860.53923 518.825586 
L 861.351679 470.267249 
L 862.164128 498.236662 
L 862.976577 459.195881 
L 863.789025 310.915007 
L 864.601474 498.424063 
L 865.413923 255.672975 
L 866.226372 508.016235 
L 867.038821 508.305818 
L 867.851269 379.81511 
L 868.663718 494.583476 
L 869.476167 409.425171 
L 870.288616 348.957956 
L 871.101065 441.504185 
L 872.725962 496.763647 
L 873.538411 351.535564 
L 874.043287 -1 
M 874.588912 -1 
L 875.163309 517.210579 
L 875.975758 512.156259 
L 876.788206 360.769885 
L 877.600655 515.302428 
L 878.413104 518.698264 
L 879.225553 473.9493 
L 880.038002 507.701723 
L 880.85045 460.335771 
L 881.662899 403.302202 
L 882.292772 -1 
M 882.652189 -1 
L 883.287797 420.21494 
L 884.100246 432.92767 
L 884.912695 450.690383 
L 885.725143 515.205012 
L 886.537592 520.100017 
L 887.350041 511.540318 
L 888.16249 451.056661 
L 888.974939 516.226288 
L 889.787387 512.420829 
L 890.599836 162.072823 
L 891.412285 514.256338 
L 892.224734 503.911826 
L 893.037183 519.511307 
L 893.849631 436.182033 
L 894.66208 518.95241 
L 895.474529 517.492484 
L 896.286978 489.111814 
L 896.359145 -1 
M 897.835625 -1 
L 897.911876 519.718686 
L 898.724324 490.483202 
L 899.536773 519.623455 
L 900.349222 307.451394 
L 901.161671 503.633491 
L 901.299836 -1 
M 902.664942 -1 
L 902.786568 432.590118 
L 903.599017 516.590616 
L 904.411466 513.793681 
L 905.223915 488.288263 
L 906.036364 483.180673 
L 906.848812 496.911844 
L 907.661261 467.25255 
L 908.47371 520.267061 
L 909.286159 488.971903 
L 910.098608 513.477543 
L 910.911057 419.487894 
L 911.723505 512.444471 
L 912.535954 519.407909 
L 913.348403 513.310592 
L 914.160852 490.302703 
L 914.973301 476.809434 
L 915.785749 294.384849 
L 916.598198 509.008121 
L 917.410647 515.158136 
L 918.223096 357.32759 
L 919.035545 160.900669 
L 919.847993 433.343521 
L 920.660442 379.644906 
L 921.472891 460.043719 
L 922.28534 515.949318 
L 923.097789 498.042813 
L 924.722686 83.520808 
L 925.535135 447.078112 
L 926.347584 450.330398 
L 927.160033 520.246059 
L 927.972482 505.662186 
L 928.78493 515.475012 
L 930.409828 505.620227 
L 931.222277 518.365998 
L 932.034726 514.705249 
L 932.847174 499.692541 
L 933.659623 510.802328 
L 934.472072 486.486755 
L 935.284521 471.672208 
L 936.09697 501.105037 
L 937.721867 479.160434 
L 938.534316 492.292667 
L 939.346765 474.371577 
L 940.159214 503.708285 
L 940.971663 513.185392 
L 941.784111 435.884183 
L 942.59656 487.487013 
L 943.409009 417.962499 
L 944.221458 401.976358 
L 945.033907 489.740673 
L 945.846355 513.00047 
L 946.658804 511.635132 
L 947.471253 454.825609 
L 948.283702 477.897644 
L 949.096151 407.664176 
L 949.9086 458.294643 
L 950.721048 464.795319 
L 951.533497 516.181531 
L 952.345946 493.83502 
L 953.158395 425.637131 
L 953.970844 515.711829 
L 954.783292 493.930915 
L 955.595741 451.156752 
L 956.40819 508.076145 
L 957.220639 495.609862 
L 958.033088 512.911445 
L 958.845536 485.890015 
L 959.657985 511.965427 
L 960.470434 513.837409 
L 961.282883 458.474904 
L 962.095332 500.194871 
L 962.907781 513.731285 
L 963.720229 512.715084 
L 964.532678 406.36838 
L 965.345127 478.681464 
L 966.157576 514.022112 
L 966.970025 515.615262 
L 967.782473 494.256508 
L 968.594922 494.084655 
L 969.407371 502.083901 
L 970.21982 499.676745 
L 971.032269 401.352064 
L 971.844717 506.703773 
L 972.657166 145.939201 
L 973.469615 505.432959 
L 974.282064 487.137937 
L 975.094513 368.305931 
L 975.906962 481.688182 
L 976.71941 496.316874 
L 977.531859 252.855506 
L 978.344308 504.659175 
L 979.156757 508.991918 
L 979.843138 -1 
M 980.095929 -1 
L 980.781654 505.869168 
L 981.594103 502.582046 
L 982.406552 507.065318 
L 983.219001 428.804187 
L 984.03145 507.767392 
L 984.843898 476.228197 
L 985.656347 451.62541 
L 986.468796 417.225312 
L 987.281245 394.186524 
L 988.093694 513.692254 
L 988.906143 494.290384 
L 989.468083 -1 
M 989.980956 -1 
L 990.53104 461.929622 
L 991.343489 480.475505 
L 992.155938 515.654675 
L 992.968387 450.250115 
L 993.780835 461.600094 
L 994.593284 496.113043 
L 995.405733 271.181428 
L 996.218182 512.167387 
L 996.218182 512.167387 
" style="fill:none;opacity:0.3;stroke:#ff7f0e;stroke-linecap:square;stroke-width:1.5;"/>
   </g>
   <g id="line2d_18">
    <path clip-path="url(#p356c524a5b)" d="M 184.581818 442.000952 
L 194.331204 446.641157 
L 204.08059 451.043149 
L 214.642424 455.573245 
L 226.016708 460.205512 
L 238.20344 464.918108 
L 251.202621 469.692931 
L 265.014251 474.515086 
L 279.638329 479.372191 
L 295.074857 484.253522 
L 311.323833 489.148966 
L 328.385258 494.047796 
L 346.259132 498.937485 
L 364.133006 503.596546 
L 382.819328 508.23505 
L 401.505651 512.648184 
L 421.004423 517.025182 
L 441.315643 521.35035 
L 461.626863 525.450293 
L 482.750532 529.489576 
L 504.68665 533.456366 
L 527.435217 537.339667 
L 550.996233 541.129185 
L 574.557248 544.696169 
L 598.930713 548.165821 
L 624.116626 551.529808 
L 650.114988 554.780937 
L 676.925799 557.913262 
L 705.361507 561.007419 
L 734.609664 563.962532 
L 764.67027 566.777289 
L 796.355774 569.519042 
L 829.666175 572.172438 
L 863.789025 574.667664 
L 899.536773 577.060691 
L 936.909419 579.342002 
L 976.71941 581.546571 
L 996.218182 582.547932 
L 996.218182 582.547932 
" style="fill:none;stroke:#2ca02c;stroke-linecap:square;stroke-width:1.5;"/>
   </g>
   <g id="line2d_19">
    <path clip-path="url(#p356c524a5b)" d="M 184.581818 450.988858 
L 185.394267 450.536426 
L 186.206716 450.273559 
L 187.019165 450.944075 
L 189.456511 454.474123 
L 190.26896 455.298751 
L 191.081409 455.833596 
L 191.893857 456.139347 
L 194.331204 456.702125 
L 195.956102 457.395472 
L 199.205897 459.033488 
L 200.830794 459.620539 
L 210.58018 462.37271 
L 215.454873 463.506454 
L 225.204259 465.580634 
L 235.766093 467.505249 
L 247.952826 469.451737 
L 260.952007 471.294564 
L 276.388534 473.249949 
L 294.262408 475.274833 
L 314.573628 477.338346 
L 337.322195 479.418389 
L 363.320557 481.563122 
L 392.568714 483.743621 
L 425.066667 485.938549 
L 461.626863 488.179701 
L 502.249304 490.442673 
L 547.746437 492.748059 
L 598.118264 495.070973 
L 653.364783 497.391851 
L 714.298444 499.725031 
L 780.919247 502.050655 
L 854.03964 504.377738 
L 933.659623 506.687527 
L 996.218182 508.362752 
L 996.218182 508.362752 
" style="fill:none;stroke:#d62728;stroke-linecap:square;stroke-width:1.5;"/>
   </g>
   <g id="patch_3">
    <path d="M 144 630 
L 144 86.4 
" style="fill:none;stroke:#000000;stroke-linecap:square;stroke-linejoin:miter;stroke-width:0.8;"/>
   </g>
   <g id="patch_4">
    <path d="M 1036.8 630 
L 1036.8 86.4 
" style="fill:none;stroke:#000000;stroke-linecap:square;stroke-linejoin:miter;stroke-width:0.8;"/>
   </g>
   <g id="patch_5">
    <path d="M 144 630 
L 1036.8 630 
" style="fill:none;stroke:#000000;stroke-linecap:square;stroke-linejoin:miter;stroke-width:0.8;"/>
   </g>
   <g id="patch_6">
    <path d="M 144 86.4 
L 1036.8 86.4 
" style="fill:none;stroke:#000000;stroke-linecap:square;stroke-linejoin:miter;stroke-width:0.8;"/>
   </g>
   <g id="text_18">
    <!-- All 4 implementations -->
    <defs>
     <path d="M 34.1875 63.1875 
L 20.796875 26.90625 
L 47.609375 26.90625 
z
M 28.609375 72.90625 
L 39.796875 72.90625 
L 67.578125 0 
L 57.328125 0 
L 50.6875 18.703125 
L 17.828125 18.703125 
L 11.1875 0 
L 0.78125 0 
z
" id="DejaVuSans-41"/>
     <path d="M 9.421875 75.984375 
L 18.40625 75.984375 
L 18.40625 0 
L 9.421875 0 
z
" id="DejaVuSans-6c"/>
     <path id="DejaVuSans-20"/>
     <path d="M 52 44.1875 
Q 55.375 50.25 60.0625 53.125 
Q 64.75 56 71.09375 56 
Q 79.640625 56 84.28125 50.015625 
Q 88.921875 44.046875 88.921875 33.015625 
L 88.921875 0 
L 79.890625 0 
L 79.890625 32.71875 
Q 79.890625 40.578125 77.09375 44.375 
Q 74.3125 48.1875 68.609375 48.1875 
Q 61.625 48.1875 57.5625 43.546875 
Q 53.515625 38.921875 53.515625 30.90625 
L 53.515625 0 
L 44.484375 0 
L 44.484375 32.71875 
Q 44.484375 40.625 41.703125 44.40625 
Q 38.921875 48.1875 33.109375 48.1875 
Q 26.21875 48.1875 22.15625 43.53125 
Q 18.109375 38.875 18.109375 30.90625 
L 18.109375 0 
L 9.078125 0 
L 9.078125 54.6875 
L 18.109375 54.6875 
L 18.109375 46.1875 
Q 21.1875 51.21875 25.484375 53.609375 
Q 29.78125 56 35.6875 56 
Q 41.65625 56 45.828125 52.96875 
Q 50 49.953125 52 44.1875 
z
" id="DejaVuSans-6d"/>
     <path d="M 18.109375 8.203125 
L 18.109375 -20.796875 
L 9.078125 -20.796875 
L 9.078125 54.6875 
L 18.109375 54.6875 
L 18.109375 46.390625 
Q 20.953125 51.265625 25.265625 53.625 
Q 29.59375 56 35.59375 56 
Q 45.5625 56 51.78125 48.09375 
Q 58.015625 40.1875 58.015625 27.296875 
Q 58.015625 14.40625 51.78125 6.484375 
Q 45.5625 -1.421875 35.59375 -1.421875 
Q 29.59375 -1.421875 25.265625 0.953125 
Q 20.953125 3.328125 18.109375 8.203125 
z
M 48.6875 27.296875 
Q 48.6875 37.203125 44.609375 42.84375 
Q 40.53125 48.484375 33.40625 48.484375 
Q 26.265625 48.484375 22.1875 42.84375 
Q 18.109375 37.203125 18.109375 27.296875 
Q 18.109375 17.390625 22.1875 11.75 
Q 26.265625 6.109375 33.40625 6.109375 
Q 40.53125 6.109375 44.609375 11.75 
Q 48.6875 17.390625 48.6875 27.296875 
z
" id="DejaVuSans-70"/>
    </defs>
    <g transform="translate(495.74205 80.4)scale(0.1728 -0.1728)">
     <use xlink:href="#DejaVuSans-41"/>
     <use x="68.408203" xlink:href="#DejaVuSans-6c"/>
     <use x="96.191406" xlink:href="#DejaVuSans-6c"/>
     <use x="123.974609" xlink:href="#DejaVuSans-20"/>
     <use x="155.761719" xlink:href="#DejaVuSans-34"/>
     <use x="219.384766" xlink:href="#DejaVuSans-20"/>
     <use x="251.171875" xlink:href="#DejaVuSans-69"/>
     <use x="278.955078" xlink:href="#DejaVuSans-6d"/>
     <use x="376.367188" xlink:href="#DejaVuSans-70"/>
     <use x="439.84375" xlink:href="#DejaVuSans-6c"/>
     <use x="467.626953" xlink:href="#DejaVuSans-65"/>
     <use x="529.150391" xlink:href="#DejaVuSans-6d"/>
     <use x="626.5625" xlink:href="#DejaVuSans-65"/>
     <use x="688.085938" xlink:href="#DejaVuSans-6e"/>
     <use x="751.464844" xlink:href="#DejaVuSans-74"/>
     <use x="790.673828" xlink:href="#DejaVuSans-61"/>
     <use x="851.953125" xlink:href="#DejaVuSans-74"/>
     <use x="891.162109" xlink:href="#DejaVuSans-69"/>
     <use x="918.945312" xlink:href="#DejaVuSans-6f"/>
     <use x="980.126953" xlink:href="#DejaVuSans-6e"/>
     <use x="1043.505859" xlink:href="#DejaVuSans-73"/>
    </g>
   </g>
   <g id="legend_1">
    <g id="patch_7">
     <path d="M 151 625 
L 213.007812 625 
Q 215.007812 625 215.007812 623 
L 215.007812 565.2875 
Q 215.007812 563.2875 213.007812 563.2875 
L 151 563.2875 
Q 149 563.2875 149 565.2875 
L 149 623 
Q 149 625 151 625 
z
" style="fill:#ffffff;opacity:0.8;stroke:#cccccc;stroke-linejoin:miter;"/>
    </g>
    <g id="line2d_20">
     <path d="M 153 571.385937 
L 173 571.385937 
" style="fill:none;opacity:0.3;stroke:#1f77b4;stroke-linecap:square;stroke-width:1.5;"/>
    </g>
    <g id="line2d_21"/>
    <g id="text_19">
     <!-- GD -->
     <defs>
      <path d="M 59.515625 10.40625 
L 59.515625 29.984375 
L 43.40625 29.984375 
L 43.40625 38.09375 
L 69.28125 38.09375 
L 69.28125 6.78125 
Q 63.578125 2.734375 56.6875 0.65625 
Q 49.8125 -1.421875 42 -1.421875 
Q 24.90625 -1.421875 15.25 8.5625 
Q 5.609375 18.5625 5.609375 36.375 
Q 5.609375 54.25 15.25 64.234375 
Q 24.90625 74.21875 42 74.21875 
Q 49.125 74.21875 55.546875 72.453125 
Q 61.96875 70.703125 67.390625 67.28125 
L 67.390625 56.78125 
Q 61.921875 61.421875 55.765625 63.765625 
Q 49.609375 66.109375 42.828125 66.109375 
Q 29.4375 66.109375 22.71875 58.640625 
Q 16.015625 51.171875 16.015625 36.375 
Q 16.015625 21.625 22.71875 14.15625 
Q 29.4375 6.6875 42.828125 6.6875 
Q 48.046875 6.6875 52.140625 7.59375 
Q 56.25 8.5 59.515625 10.40625 
z
" id="DejaVuSans-47"/>
      <path d="M 19.671875 64.796875 
L 19.671875 8.109375 
L 31.59375 8.109375 
Q 46.6875 8.109375 53.6875 14.9375 
Q 60.6875 21.78125 60.6875 36.53125 
Q 60.6875 51.171875 53.6875 57.984375 
Q 46.6875 64.796875 31.59375 64.796875 
z
M 9.8125 72.90625 
L 30.078125 72.90625 
Q 51.265625 72.90625 61.171875 64.09375 
Q 71.09375 55.28125 71.09375 36.53125 
Q 71.09375 17.671875 61.125 8.828125 
Q 51.171875 0 30.078125 0 
L 9.8125 0 
z
" id="DejaVuSans-44"/>
     </defs>
     <g transform="translate(181 574.885937)scale(0.1 -0.1)">
      <use xlink:href="#DejaVuSans-47"/>
      <use x="77.490234" xlink:href="#DejaVuSans-44"/>
     </g>
    </g>
    <g id="line2d_22">
     <path d="M 153 586.064062 
L 173 586.064062 
" style="fill:none;opacity:0.3;stroke:#ff7f0e;stroke-linecap:square;stroke-width:1.5;"/>
    </g>
    <g id="line2d_23"/>
    <g id="text_20">
     <!-- SGD -->
     <defs>
      <path d="M 53.515625 70.515625 
L 53.515625 60.890625 
Q 47.90625 63.578125 42.921875 64.890625 
Q 37.9375 66.21875 33.296875 66.21875 
Q 25.25 66.21875 20.875 63.09375 
Q 16.5 59.96875 16.5 54.203125 
Q 16.5 49.359375 19.40625 46.890625 
Q 22.3125 44.4375 30.421875 42.921875 
L 36.375 41.703125 
Q 47.40625 39.59375 52.65625 34.296875 
Q 57.90625 29 57.90625 20.125 
Q 57.90625 9.515625 50.796875 4.046875 
Q 43.703125 -1.421875 29.984375 -1.421875 
Q 24.8125 -1.421875 18.96875 -0.25 
Q 13.140625 0.921875 6.890625 3.21875 
L 6.890625 13.375 
Q 12.890625 10.015625 18.65625 8.296875 
Q 24.421875 6.59375 29.984375 6.59375 
Q 38.421875 6.59375 43.015625 9.90625 
Q 47.609375 13.234375 47.609375 19.390625 
Q 47.609375 24.75 44.3125 27.78125 
Q 41.015625 30.8125 33.5 32.328125 
L 27.484375 33.5 
Q 16.453125 35.6875 11.515625 40.375 
Q 6.59375 45.0625 6.59375 53.421875 
Q 6.59375 63.09375 13.40625 68.65625 
Q 20.21875 74.21875 32.171875 74.21875 
Q 37.3125 74.21875 42.625 73.28125 
Q 47.953125 72.359375 53.515625 70.515625 
z
" id="DejaVuSans-53"/>
     </defs>
     <g transform="translate(181 589.564062)scale(0.1 -0.1)">
      <use xlink:href="#DejaVuSans-53"/>
      <use x="63.476562" xlink:href="#DejaVuSans-47"/>
      <use x="140.966797" xlink:href="#DejaVuSans-44"/>
     </g>
    </g>
    <g id="line2d_24">
     <path d="M 153 600.742188 
L 173 600.742188 
" style="fill:none;stroke:#2ca02c;stroke-linecap:square;stroke-width:1.5;"/>
    </g>
    <g id="line2d_25"/>
    <g id="text_21">
     <!-- IRLS -->
     <defs>
      <path d="M 44.390625 34.1875 
Q 47.5625 33.109375 50.5625 29.59375 
Q 53.5625 26.078125 56.59375 19.921875 
L 66.609375 0 
L 56 0 
L 46.6875 18.703125 
Q 43.0625 26.03125 39.671875 28.421875 
Q 36.28125 30.8125 30.421875 30.8125 
L 19.671875 30.8125 
L 19.671875 0 
L 9.8125 0 
L 9.8125 72.90625 
L 32.078125 72.90625 
Q 44.578125 72.90625 50.734375 67.671875 
Q 56.890625 62.453125 56.890625 51.90625 
Q 56.890625 45.015625 53.6875 40.46875 
Q 50.484375 35.9375 44.390625 34.1875 
z
M 19.671875 64.796875 
L 19.671875 38.921875 
L 32.078125 38.921875 
Q 39.203125 38.921875 42.84375 42.21875 
Q 46.484375 45.515625 46.484375 51.90625 
Q 46.484375 58.296875 42.84375 61.546875 
Q 39.203125 64.796875 32.078125 64.796875 
z
" id="DejaVuSans-52"/>
     </defs>
     <g transform="translate(181 604.242188)scale(0.1 -0.1)">
      <use xlink:href="#DejaVuSans-49"/>
      <use x="29.492188" xlink:href="#DejaVuSans-52"/>
      <use x="98.974609" xlink:href="#DejaVuSans-4c"/>
      <use x="154.6875" xlink:href="#DejaVuSans-53"/>
     </g>
    </g>
    <g id="line2d_26">
     <path d="M 153 615.420313 
L 173 615.420313 
" style="fill:none;stroke:#d62728;stroke-linecap:square;stroke-width:1.5;"/>
    </g>
    <g id="line2d_27"/>
    <g id="text_22">
     <!-- ADAM -->
     <defs>
      <path d="M 9.8125 72.90625 
L 24.515625 72.90625 
L 43.109375 23.296875 
L 61.8125 72.90625 
L 76.515625 72.90625 
L 76.515625 0 
L 66.890625 0 
L 66.890625 64.015625 
L 48.09375 14.015625 
L 38.1875 14.015625 
L 19.390625 64.015625 
L 19.390625 0 
L 9.8125 0 
z
" id="DejaVuSans-4d"/>
     </defs>
     <g transform="translate(181 618.920313)scale(0.1 -0.1)">
      <use xlink:href="#DejaVuSans-41"/>
      <use x="68.408203" xlink:href="#DejaVuSans-44"/>
      <use x="145.394531" xlink:href="#DejaVuSans-41"/>
      <use x="213.802734" xlink:href="#DejaVuSans-4d"/>
     </g>
    </g>
   </g>
  </g>
 </g>
 <defs>
  <clipPath id="p356c524a5b">
   <rect height="543.6" width="892.8" x="144" y="86.4"/>
  </clipPath>
 </defs>
</svg>
