<?xml version="1.0" encoding="utf-8" standalone="no"?>
<!DOCTYPE svg PUBLIC "-//W3C//DTD SVG 1.1//EN"
  "http://www.w3.org/Graphics/SVG/1.1/DTD/svg11.dtd">
<!-- Created with matplotlib (http://matplotlib.org/) -->
<svg height="720pt" version="1.1" viewBox="0 0 1152 720" width="1152pt" xmlns="http://www.w3.org/2000/svg" xmlns:xlink="http://www.w3.org/1999/xlink">
 <defs>
  <style type="text/css">
*{stroke-linecap:butt;stroke-linejoin:round;}
  </style>
 </defs>
 <g id="figure_1">
  <g id="patch_1">
   <path d="M 0 720 
L 1152 720 
L 1152 0 
L 0 0 
z
" style="fill:#ffffff;"/>
  </g>
  <g id="axes_1">
   <g id="patch_2">
    <path d="M 144 630 
L 1036.8 630 
L 1036.8 86.4 
L 144 86.4 
z
" style="fill:#ffffff;"/>
   </g>
   <g id="matplotlib.axis_1">
    <g id="xtick_1">
     <g id="line2d_1">
      <defs>
       <path d="M 0 0 
L 0 3.5 
" id="ma70c3be3a7" style="stroke:#000000;stroke-width:0.8;"/>
      </defs>
      <g>
       <use style="stroke:#000000;stroke-width:0.8;" x="184.581818" xlink:href="#ma70c3be3a7" y="630"/>
      </g>
     </g>
     <g id="text_1">
      <!-- 0 -->
      <defs>
       <path d="M 31.78125 66.40625 
Q 24.171875 66.40625 20.328125 58.90625 
Q 16.5 51.421875 16.5 36.375 
Q 16.5 21.390625 20.328125 13.890625 
Q 24.171875 6.390625 31.78125 6.390625 
Q 39.453125 6.390625 43.28125 13.890625 
Q 47.125 21.390625 47.125 36.375 
Q 47.125 51.421875 43.28125 58.90625 
Q 39.453125 66.40625 31.78125 66.40625 
z
M 31.78125 74.21875 
Q 44.046875 74.21875 50.515625 64.515625 
Q 56.984375 54.828125 56.984375 36.375 
Q 56.984375 17.96875 50.515625 8.265625 
Q 44.046875 -1.421875 31.78125 -1.421875 
Q 19.53125 -1.421875 13.0625 8.265625 
Q 6.59375 17.96875 6.59375 36.375 
Q 6.59375 54.828125 13.0625 64.515625 
Q 19.53125 74.21875 31.78125 74.21875 
z
" id="DejaVuSans-30"/>
      </defs>
      <g transform="translate(181.400568 644.598438)scale(0.1 -0.1)">
       <use xlink:href="#DejaVuSans-30"/>
      </g>
     </g>
    </g>
    <g id="xtick_2">
     <g id="line2d_2">
      <g>
       <use style="stroke:#000000;stroke-width:0.8;" x="347.071581" xlink:href="#ma70c3be3a7" y="630"/>
      </g>
     </g>
     <g id="text_2">
      <!-- 200 -->
      <defs>
       <path d="M 19.1875 8.296875 
L 53.609375 8.296875 
L 53.609375 0 
L 7.328125 0 
L 7.328125 8.296875 
Q 12.9375 14.109375 22.625 23.890625 
Q 32.328125 33.6875 34.8125 36.53125 
Q 39.546875 41.84375 41.421875 45.53125 
Q 43.3125 49.21875 43.3125 52.78125 
Q 43.3125 58.59375 39.234375 62.25 
Q 35.15625 65.921875 28.609375 65.921875 
Q 23.96875 65.921875 18.8125 64.3125 
Q 13.671875 62.703125 7.8125 59.421875 
L 7.8125 69.390625 
Q 13.765625 71.78125 18.9375 73 
Q 24.125 74.21875 28.421875 74.21875 
Q 39.75 74.21875 46.484375 68.546875 
Q 53.21875 62.890625 53.21875 53.421875 
Q 53.21875 48.921875 51.53125 44.890625 
Q 49.859375 40.875 45.40625 35.40625 
Q 44.1875 33.984375 37.640625 27.21875 
Q 31.109375 20.453125 19.1875 8.296875 
z
" id="DejaVuSans-32"/>
      </defs>
      <g transform="translate(337.527831 644.598438)scale(0.1 -0.1)">
       <use xlink:href="#DejaVuSans-32"/>
       <use x="63.623047" xlink:href="#DejaVuSans-30"/>
       <use x="127.246094" xlink:href="#DejaVuSans-30"/>
      </g>
     </g>
    </g>
    <g id="xtick_3">
     <g id="line2d_3">
      <g>
       <use style="stroke:#000000;stroke-width:0.8;" x="509.561343" xlink:href="#ma70c3be3a7" y="630"/>
      </g>
     </g>
     <g id="text_3">
      <!-- 400 -->
      <defs>
       <path d="M 37.796875 64.3125 
L 12.890625 25.390625 
L 37.796875 25.390625 
z
M 35.203125 72.90625 
L 47.609375 72.90625 
L 47.609375 25.390625 
L 58.015625 25.390625 
L 58.015625 17.1875 
L 47.609375 17.1875 
L 47.609375 0 
L 37.796875 0 
L 37.796875 17.1875 
L 4.890625 17.1875 
L 4.890625 26.703125 
z
" id="DejaVuSans-34"/>
      </defs>
      <g transform="translate(500.017593 644.598438)scale(0.1 -0.1)">
       <use xlink:href="#DejaVuSans-34"/>
       <use x="63.623047" xlink:href="#DejaVuSans-30"/>
       <use x="127.246094" xlink:href="#DejaVuSans-30"/>
      </g>
     </g>
    </g>
    <g id="xtick_4">
     <g id="line2d_4">
      <g>
       <use style="stroke:#000000;stroke-width:0.8;" x="672.051106" xlink:href="#ma70c3be3a7" y="630"/>
      </g>
     </g>
     <g id="text_4">
      <!-- 600 -->
      <defs>
       <path d="M 33.015625 40.375 
Q 26.375 40.375 22.484375 35.828125 
Q 18.609375 31.296875 18.609375 23.390625 
Q 18.609375 15.53125 22.484375 10.953125 
Q 26.375 6.390625 33.015625 6.390625 
Q 39.65625 6.390625 43.53125 10.953125 
Q 47.40625 15.53125 47.40625 23.390625 
Q 47.40625 31.296875 43.53125 35.828125 
Q 39.65625 40.375 33.015625 40.375 
z
M 52.59375 71.296875 
L 52.59375 62.3125 
Q 48.875 64.0625 45.09375 64.984375 
Q 41.3125 65.921875 37.59375 65.921875 
Q 27.828125 65.921875 22.671875 59.328125 
Q 17.53125 52.734375 16.796875 39.40625 
Q 19.671875 43.65625 24.015625 45.921875 
Q 28.375 48.1875 33.59375 48.1875 
Q 44.578125 48.1875 50.953125 41.515625 
Q 57.328125 34.859375 57.328125 23.390625 
Q 57.328125 12.15625 50.6875 5.359375 
Q 44.046875 -1.421875 33.015625 -1.421875 
Q 20.359375 -1.421875 13.671875 8.265625 
Q 6.984375 17.96875 6.984375 36.375 
Q 6.984375 53.65625 15.1875 63.9375 
Q 23.390625 74.21875 37.203125 74.21875 
Q 40.921875 74.21875 44.703125 73.484375 
Q 48.484375 72.75 52.59375 71.296875 
z
" id="DejaVuSans-36"/>
      </defs>
      <g transform="translate(662.507356 644.598438)scale(0.1 -0.1)">
       <use xlink:href="#DejaVuSans-36"/>
       <use x="63.623047" xlink:href="#DejaVuSans-30"/>
       <use x="127.246094" xlink:href="#DejaVuSans-30"/>
      </g>
     </g>
    </g>
    <g id="xtick_5">
     <g id="line2d_5">
      <g>
       <use style="stroke:#000000;stroke-width:0.8;" x="834.540868" xlink:href="#ma70c3be3a7" y="630"/>
      </g>
     </g>
     <g id="text_5">
      <!-- 800 -->
      <defs>
       <path d="M 31.78125 34.625 
Q 24.75 34.625 20.71875 30.859375 
Q 16.703125 27.09375 16.703125 20.515625 
Q 16.703125 13.921875 20.71875 10.15625 
Q 24.75 6.390625 31.78125 6.390625 
Q 38.8125 6.390625 42.859375 10.171875 
Q 46.921875 13.96875 46.921875 20.515625 
Q 46.921875 27.09375 42.890625 30.859375 
Q 38.875 34.625 31.78125 34.625 
z
M 21.921875 38.8125 
Q 15.578125 40.375 12.03125 44.71875 
Q 8.5 49.078125 8.5 55.328125 
Q 8.5 64.0625 14.71875 69.140625 
Q 20.953125 74.21875 31.78125 74.21875 
Q 42.671875 74.21875 48.875 69.140625 
Q 55.078125 64.0625 55.078125 55.328125 
Q 55.078125 49.078125 51.53125 44.71875 
Q 48 40.375 41.703125 38.8125 
Q 48.828125 37.15625 52.796875 32.3125 
Q 56.78125 27.484375 56.78125 20.515625 
Q 56.78125 9.90625 50.3125 4.234375 
Q 43.84375 -1.421875 31.78125 -1.421875 
Q 19.734375 -1.421875 13.25 4.234375 
Q 6.78125 9.90625 6.78125 20.515625 
Q 6.78125 27.484375 10.78125 32.3125 
Q 14.796875 37.15625 21.921875 38.8125 
z
M 18.3125 54.390625 
Q 18.3125 48.734375 21.84375 45.5625 
Q 25.390625 42.390625 31.78125 42.390625 
Q 38.140625 42.390625 41.71875 45.5625 
Q 45.3125 48.734375 45.3125 54.390625 
Q 45.3125 60.0625 41.71875 63.234375 
Q 38.140625 66.40625 31.78125 66.40625 
Q 25.390625 66.40625 21.84375 63.234375 
Q 18.3125 60.0625 18.3125 54.390625 
z
" id="DejaVuSans-38"/>
      </defs>
      <g transform="translate(824.997118 644.598438)scale(0.1 -0.1)">
       <use xlink:href="#DejaVuSans-38"/>
       <use x="63.623047" xlink:href="#DejaVuSans-30"/>
       <use x="127.246094" xlink:href="#DejaVuSans-30"/>
      </g>
     </g>
    </g>
    <g id="xtick_6">
     <g id="line2d_6">
      <g>
       <use style="stroke:#000000;stroke-width:0.8;" x="997.030631" xlink:href="#ma70c3be3a7" y="630"/>
      </g>
     </g>
     <g id="text_6">
      <!-- 1000 -->
      <defs>
       <path d="M 12.40625 8.296875 
L 28.515625 8.296875 
L 28.515625 63.921875 
L 10.984375 60.40625 
L 10.984375 69.390625 
L 28.421875 72.90625 
L 38.28125 72.90625 
L 38.28125 8.296875 
L 54.390625 8.296875 
L 54.390625 0 
L 12.40625 0 
z
" id="DejaVuSans-31"/>
      </defs>
      <g transform="translate(984.305631 644.598438)scale(0.1 -0.1)">
       <use xlink:href="#DejaVuSans-31"/>
       <use x="63.623047" xlink:href="#DejaVuSans-30"/>
       <use x="127.246094" xlink:href="#DejaVuSans-30"/>
       <use x="190.869141" xlink:href="#DejaVuSans-30"/>
      </g>
     </g>
    </g>
    <g id="text_7">
     <!-- Iteration -->
     <defs>
      <path d="M 9.8125 72.90625 
L 19.671875 72.90625 
L 19.671875 0 
L 9.8125 0 
z
" id="DejaVuSans-49"/>
      <path d="M 18.3125 70.21875 
L 18.3125 54.6875 
L 36.8125 54.6875 
L 36.8125 47.703125 
L 18.3125 47.703125 
L 18.3125 18.015625 
Q 18.3125 11.328125 20.140625 9.421875 
Q 21.96875 7.515625 27.59375 7.515625 
L 36.8125 7.515625 
L 36.8125 0 
L 27.59375 0 
Q 17.1875 0 13.234375 3.875 
Q 9.28125 7.765625 9.28125 18.015625 
L 9.28125 47.703125 
L 2.6875 47.703125 
L 2.6875 54.6875 
L 9.28125 54.6875 
L 9.28125 70.21875 
z
" id="DejaVuSans-74"/>
      <path d="M 56.203125 29.59375 
L 56.203125 25.203125 
L 14.890625 25.203125 
Q 15.484375 15.921875 20.484375 11.0625 
Q 25.484375 6.203125 34.421875 6.203125 
Q 39.59375 6.203125 44.453125 7.46875 
Q 49.3125 8.734375 54.109375 11.28125 
L 54.109375 2.78125 
Q 49.265625 0.734375 44.1875 -0.34375 
Q 39.109375 -1.421875 33.890625 -1.421875 
Q 20.796875 -1.421875 13.15625 6.1875 
Q 5.515625 13.8125 5.515625 26.8125 
Q 5.515625 40.234375 12.765625 48.109375 
Q 20.015625 56 32.328125 56 
Q 43.359375 56 49.78125 48.890625 
Q 56.203125 41.796875 56.203125 29.59375 
z
M 47.21875 32.234375 
Q 47.125 39.59375 43.09375 43.984375 
Q 39.0625 48.390625 32.421875 48.390625 
Q 24.90625 48.390625 20.390625 44.140625 
Q 15.875 39.890625 15.1875 32.171875 
z
" id="DejaVuSans-65"/>
      <path d="M 41.109375 46.296875 
Q 39.59375 47.171875 37.8125 47.578125 
Q 36.03125 48 33.890625 48 
Q 26.265625 48 22.1875 43.046875 
Q 18.109375 38.09375 18.109375 28.8125 
L 18.109375 0 
L 9.078125 0 
L 9.078125 54.6875 
L 18.109375 54.6875 
L 18.109375 46.1875 
Q 20.953125 51.171875 25.484375 53.578125 
Q 30.03125 56 36.53125 56 
Q 37.453125 56 38.578125 55.875 
Q 39.703125 55.765625 41.0625 55.515625 
z
" id="DejaVuSans-72"/>
      <path d="M 34.28125 27.484375 
Q 23.390625 27.484375 19.1875 25 
Q 14.984375 22.515625 14.984375 16.5 
Q 14.984375 11.71875 18.140625 8.90625 
Q 21.296875 6.109375 26.703125 6.109375 
Q 34.1875 6.109375 38.703125 11.40625 
Q 43.21875 16.703125 43.21875 25.484375 
L 43.21875 27.484375 
z
M 52.203125 31.203125 
L 52.203125 0 
L 43.21875 0 
L 43.21875 8.296875 
Q 40.140625 3.328125 35.546875 0.953125 
Q 30.953125 -1.421875 24.3125 -1.421875 
Q 15.921875 -1.421875 10.953125 3.296875 
Q 6 8.015625 6 15.921875 
Q 6 25.140625 12.171875 29.828125 
Q 18.359375 34.515625 30.609375 34.515625 
L 43.21875 34.515625 
L 43.21875 35.40625 
Q 43.21875 41.609375 39.140625 45 
Q 35.0625 48.390625 27.6875 48.390625 
Q 23 48.390625 18.546875 47.265625 
Q 14.109375 46.140625 10.015625 43.890625 
L 10.015625 52.203125 
Q 14.9375 54.109375 19.578125 55.046875 
Q 24.21875 56 28.609375 56 
Q 40.484375 56 46.34375 49.84375 
Q 52.203125 43.703125 52.203125 31.203125 
z
" id="DejaVuSans-61"/>
      <path d="M 9.421875 54.6875 
L 18.40625 54.6875 
L 18.40625 0 
L 9.421875 0 
z
M 9.421875 75.984375 
L 18.40625 75.984375 
L 18.40625 64.59375 
L 9.421875 64.59375 
z
" id="DejaVuSans-69"/>
      <path d="M 30.609375 48.390625 
Q 23.390625 48.390625 19.1875 42.75 
Q 14.984375 37.109375 14.984375 27.296875 
Q 14.984375 17.484375 19.15625 11.84375 
Q 23.34375 6.203125 30.609375 6.203125 
Q 37.796875 6.203125 41.984375 11.859375 
Q 46.1875 17.53125 46.1875 27.296875 
Q 46.1875 37.015625 41.984375 42.703125 
Q 37.796875 48.390625 30.609375 48.390625 
z
M 30.609375 56 
Q 42.328125 56 49.015625 48.375 
Q 55.71875 40.765625 55.71875 27.296875 
Q 55.71875 13.875 49.015625 6.21875 
Q 42.328125 -1.421875 30.609375 -1.421875 
Q 18.84375 -1.421875 12.171875 6.21875 
Q 5.515625 13.875 5.515625 27.296875 
Q 5.515625 40.765625 12.171875 48.375 
Q 18.84375 56 30.609375 56 
z
" id="DejaVuSans-6f"/>
      <path d="M 54.890625 33.015625 
L 54.890625 0 
L 45.90625 0 
L 45.90625 32.71875 
Q 45.90625 40.484375 42.875 44.328125 
Q 39.84375 48.1875 33.796875 48.1875 
Q 26.515625 48.1875 22.3125 43.546875 
Q 18.109375 38.921875 18.109375 30.90625 
L 18.109375 0 
L 9.078125 0 
L 9.078125 54.6875 
L 18.109375 54.6875 
L 18.109375 46.1875 
Q 21.34375 51.125 25.703125 53.5625 
Q 30.078125 56 35.796875 56 
Q 45.21875 56 50.046875 50.171875 
Q 54.890625 44.34375 54.890625 33.015625 
z
" id="DejaVuSans-6e"/>
     </defs>
     <g transform="translate(553.75155 663.808225)scale(0.1728 -0.1728)">
      <use xlink:href="#DejaVuSans-49"/>
      <use x="29.492188" xlink:href="#DejaVuSans-74"/>
      <use x="68.701172" xlink:href="#DejaVuSans-65"/>
      <use x="130.224609" xlink:href="#DejaVuSans-72"/>
      <use x="171.337891" xlink:href="#DejaVuSans-61"/>
      <use x="232.617188" xlink:href="#DejaVuSans-74"/>
      <use x="271.826172" xlink:href="#DejaVuSans-69"/>
      <use x="299.609375" xlink:href="#DejaVuSans-6f"/>
      <use x="360.791016" xlink:href="#DejaVuSans-6e"/>
     </g>
    </g>
   </g>
   <g id="matplotlib.axis_2">
    <g id="ytick_1">
     <g id="line2d_7">
      <defs>
       <path d="M 0 0 
L -3.5 0 
" id="mfcb2928c2a" style="stroke:#000000;stroke-width:0.8;"/>
      </defs>
      <g>
       <use style="stroke:#000000;stroke-width:0.8;" x="144" xlink:href="#mfcb2928c2a" y="609.470128"/>
      </g>
     </g>
     <g id="text_8">
      <!-- 0 -->
      <g transform="translate(130.6375 613.269347)scale(0.1 -0.1)">
       <use xlink:href="#DejaVuSans-30"/>
      </g>
     </g>
    </g>
    <g id="ytick_2">
     <g id="line2d_8">
      <g>
       <use style="stroke:#000000;stroke-width:0.8;" x="144" xlink:href="#mfcb2928c2a" y="489.779686"/>
      </g>
     </g>
     <g id="text_9">
      <!-- 5 -->
      <defs>
       <path d="M 10.796875 72.90625 
L 49.515625 72.90625 
L 49.515625 64.59375 
L 19.828125 64.59375 
L 19.828125 46.734375 
Q 21.96875 47.46875 24.109375 47.828125 
Q 26.265625 48.1875 28.421875 48.1875 
Q 40.625 48.1875 47.75 41.5 
Q 54.890625 34.8125 54.890625 23.390625 
Q 54.890625 11.625 47.5625 5.09375 
Q 40.234375 -1.421875 26.90625 -1.421875 
Q 22.3125 -1.421875 17.546875 -0.640625 
Q 12.796875 0.140625 7.71875 1.703125 
L 7.71875 11.625 
Q 12.109375 9.234375 16.796875 8.0625 
Q 21.484375 6.890625 26.703125 6.890625 
Q 35.15625 6.890625 40.078125 11.328125 
Q 45.015625 15.765625 45.015625 23.390625 
Q 45.015625 31 40.078125 35.4375 
Q 35.15625 39.890625 26.703125 39.890625 
Q 22.75 39.890625 18.8125 39.015625 
Q 14.890625 38.140625 10.796875 36.28125 
z
" id="DejaVuSans-35"/>
      </defs>
      <g transform="translate(130.6375 493.578905)scale(0.1 -0.1)">
       <use xlink:href="#DejaVuSans-35"/>
      </g>
     </g>
    </g>
    <g id="ytick_3">
     <g id="line2d_9">
      <g>
       <use style="stroke:#000000;stroke-width:0.8;" x="144" xlink:href="#mfcb2928c2a" y="370.089244"/>
      </g>
     </g>
     <g id="text_10">
      <!-- 10 -->
      <g transform="translate(124.275 373.888463)scale(0.1 -0.1)">
       <use xlink:href="#DejaVuSans-31"/>
       <use x="63.623047" xlink:href="#DejaVuSans-30"/>
      </g>
     </g>
    </g>
    <g id="ytick_4">
     <g id="line2d_10">
      <g>
       <use style="stroke:#000000;stroke-width:0.8;" x="144" xlink:href="#mfcb2928c2a" y="250.398802"/>
      </g>
     </g>
     <g id="text_11">
      <!-- 15 -->
      <g transform="translate(124.275 254.198021)scale(0.1 -0.1)">
       <use xlink:href="#DejaVuSans-31"/>
       <use x="63.623047" xlink:href="#DejaVuSans-35"/>
      </g>
     </g>
    </g>
    <g id="ytick_5">
     <g id="line2d_11">
      <g>
       <use style="stroke:#000000;stroke-width:0.8;" x="144" xlink:href="#mfcb2928c2a" y="130.70836"/>
      </g>
     </g>
     <g id="text_12">
      <!-- 20 -->
      <g transform="translate(124.275 134.507578)scale(0.1 -0.1)">
       <use xlink:href="#DejaVuSans-32"/>
       <use x="63.623047" xlink:href="#DejaVuSans-30"/>
      </g>
     </g>
    </g>
    <g id="text_13">
     <!-- Loss -->
     <defs>
      <path d="M 9.8125 72.90625 
L 19.671875 72.90625 
L 19.671875 8.296875 
L 55.171875 8.296875 
L 55.171875 0 
L 9.8125 0 
z
" id="DejaVuSans-4c"/>
      <path d="M 44.28125 53.078125 
L 44.28125 44.578125 
Q 40.484375 46.53125 36.375 47.5 
Q 32.28125 48.484375 27.875 48.484375 
Q 21.1875 48.484375 17.84375 46.4375 
Q 14.5 44.390625 14.5 40.28125 
Q 14.5 37.15625 16.890625 35.375 
Q 19.28125 33.59375 26.515625 31.984375 
L 29.59375 31.296875 
Q 39.15625 29.25 43.1875 25.515625 
Q 47.21875 21.78125 47.21875 15.09375 
Q 47.21875 7.46875 41.1875 3.015625 
Q 35.15625 -1.421875 24.609375 -1.421875 
Q 20.21875 -1.421875 15.453125 -0.5625 
Q 10.6875 0.296875 5.421875 2 
L 5.421875 11.28125 
Q 10.40625 8.6875 15.234375 7.390625 
Q 20.0625 6.109375 24.8125 6.109375 
Q 31.15625 6.109375 34.5625 8.28125 
Q 37.984375 10.453125 37.984375 14.40625 
Q 37.984375 18.0625 35.515625 20.015625 
Q 33.0625 21.96875 24.703125 23.78125 
L 21.578125 24.515625 
Q 13.234375 26.265625 9.515625 29.90625 
Q 5.8125 33.546875 5.8125 39.890625 
Q 5.8125 47.609375 11.28125 51.796875 
Q 16.75 56 26.8125 56 
Q 31.78125 56 36.171875 55.265625 
Q 40.578125 54.546875 44.28125 53.078125 
z
" id="DejaVuSans-73"/>
     </defs>
     <g transform="translate(116.6813 377.30115)rotate(-90)scale(0.1728 -0.1728)">
      <use xlink:href="#DejaVuSans-4c"/>
      <use x="55.697266" xlink:href="#DejaVuSans-6f"/>
      <use x="116.878906" xlink:href="#DejaVuSans-73"/>
      <use x="168.978516" xlink:href="#DejaVuSans-73"/>
     </g>
    </g>
   </g>
   <g id="line2d_12">
    <path clip-path="url(#p5e2f4dfdfb)" d="M 184.581818 560.35536 
L 185.394267 562.035451 
L 186.206716 589.83473 
L 187.019165 567.801399 
L 187.831613 591.83495 
L 188.644062 562.868122 
L 189.456511 575.401844 
L 190.26896 515.904344 
L 191.081409 584.330572 
L 191.893857 543.739689 
L 192.706306 569.473586 
L 193.518755 558.886439 
L 194.331204 553.41549 
L 195.143653 594.612594 
L 195.956102 537.173448 
L 196.76855 592.346673 
L 197.580999 589.665942 
L 198.393448 554.774192 
L 199.205897 597.092477 
L 200.018346 598.334285 
L 200.830794 585.051455 
L 201.643243 548.903988 
L 203.268141 598.761887 
L 204.08059 598.95447 
L 204.893038 597.708841 
L 205.705487 595.406659 
L 206.517936 599.270587 
L 207.330385 547.707672 
L 208.142834 595.795487 
L 208.955283 593.910496 
L 209.767731 596.949932 
L 210.58018 593.679752 
L 211.392629 598.426076 
L 212.205078 599.595512 
L 213.017527 597.159383 
L 213.829975 589.441257 
L 214.642424 596.642474 
L 215.454873 586.511089 
L 216.267322 600.007328 
L 217.079771 597.261074 
L 218.704668 554.466521 
L 219.517117 595.956973 
L 220.329566 588.813489 
L 221.142015 590.618674 
L 221.954464 600.23369 
L 222.766912 600.360922 
L 223.579361 598.500005 
L 224.39181 599.486751 
L 225.204259 589.668862 
L 226.829156 600.351027 
L 227.641605 599.445542 
L 228.454054 596.376557 
L 229.266503 600.591794 
L 230.078952 600.355318 
L 230.8914 599.282282 
L 231.703849 600.658806 
L 232.516298 594.222888 
L 233.328747 598.526387 
L 234.141196 596.882991 
L 234.953645 600.295727 
L 235.766093 596.640152 
L 236.578542 587.959468 
L 237.390991 600.217779 
L 238.20344 600.387809 
L 239.015889 591.704886 
L 239.828337 600.714083 
L 240.640786 537.990377 
L 241.453235 586.434302 
L 242.265684 600.788521 
L 243.078133 592.413673 
L 243.890581 598.916437 
L 244.70303 590.184266 
L 245.515479 600.722536 
L 246.327928 475.471843 
L 247.140377 576.15528 
L 247.952826 600.550297 
L 248.765274 600.530143 
L 250.390172 599.122776 
L 251.202621 600.949249 
L 252.01507 598.361269 
L 252.827518 601.007325 
L 253.639967 600.570537 
L 254.452416 588.847631 
L 255.264865 601.132745 
L 256.077314 601.004657 
L 256.889762 601.089146 
L 257.702211 577.337842 
L 258.51466 601.184736 
L 260.139558 600.470854 
L 260.952007 598.069694 
L 261.764455 601.171549 
L 262.576904 599.041615 
L 263.389353 502.275383 
L 264.201802 600.001182 
L 265.014251 597.105818 
L 265.826699 592.868974 
L 266.639148 601.265074 
L 267.451597 592.616423 
L 268.264046 595.472115 
L 269.076495 596.504972 
L 269.888943 599.240664 
L 270.701392 599.906121 
L 271.513841 598.276332 
L 272.32629 590.957688 
L 273.138739 600.879952 
L 273.951188 592.180752 
L 274.763636 600.468365 
L 275.576085 600.601079 
L 276.388534 597.751375 
L 277.200983 591.152719 
L 278.013432 601.048474 
L 278.82588 595.264055 
L 279.638329 600.250873 
L 280.450778 598.166291 
L 281.263227 600.852401 
L 282.075676 601.346456 
L 282.888124 600.616266 
L 283.700573 577.788106 
L 284.513022 591.488242 
L 285.325471 599.672442 
L 286.13792 600.389304 
L 286.950369 579.416469 
L 287.762817 600.625058 
L 288.575266 601.027497 
L 290.200164 601.298531 
L 291.012613 601.091133 
L 291.825061 593.530002 
L 292.63751 601.511133 
L 293.449959 601.238589 
L 294.262408 601.360773 
L 295.074857 594.765039 
L 295.887305 600.472363 
L 296.699754 600.309218 
L 297.512203 599.935588 
L 298.324652 590.948777 
L 299.137101 597.219962 
L 299.94955 601.441664 
L 300.761998 599.578983 
L 301.574447 600.267359 
L 302.386896 601.114496 
L 303.199345 598.898393 
L 304.824242 600.029802 
L 305.636691 597.41954 
L 306.44914 599.812857 
L 307.261589 579.166449 
L 308.074038 600.409206 
L 308.886486 600.283137 
L 309.698935 601.283832 
L 310.511384 600.200585 
L 311.323833 600.126118 
L 312.136282 601.537443 
L 312.948731 597.007059 
L 313.761179 600.517814 
L 314.573628 600.425124 
L 315.386077 598.951614 
L 316.198526 599.682248 
L 317.010975 601.208101 
L 317.823423 600.447768 
L 318.635872 601.166251 
L 319.448321 594.901996 
L 320.26077 595.968342 
L 321.073219 601.244844 
L 321.885667 598.98182 
L 322.698116 601.222369 
L 323.510565 600.640695 
L 324.323014 601.589542 
L 325.135463 599.44659 
L 325.947912 601.574869 
L 326.76036 601.549663 
L 327.572809 601.145024 
L 328.385258 598.974943 
L 329.197707 597.730162 
L 330.010156 600.3342 
L 330.822604 601.379462 
L 331.635053 600.277921 
L 332.447502 601.620874 
L 333.259951 599.339233 
L 334.0724 549.882881 
L 334.884848 599.940884 
L 336.509746 601.732624 
L 337.322195 596.120146 
L 338.134644 592.588407 
L 338.947093 599.341615 
L 339.759541 598.209034 
L 340.57199 589.122898 
L 341.384439 601.193451 
L 342.196888 601.546024 
L 343.009337 600.492718 
L 343.821785 600.844305 
L 344.634234 596.923589 
L 345.446683 600.410532 
L 346.259132 596.056306 
L 347.071581 598.021242 
L 347.884029 601.78808 
L 348.696478 601.582432 
L 349.508927 601.615175 
L 350.321376 601.432059 
L 351.133825 598.028618 
L 351.946274 601.806406 
L 352.758722 601.603597 
L 353.571171 601.743045 
L 355.196069 601.695159 
L 356.008518 596.081077 
L 356.820966 600.858365 
L 357.633415 595.691418 
L 358.445864 600.418301 
L 359.258313 600.519732 
L 360.070762 598.156766 
L 360.88321 601.75102 
L 361.695659 601.597907 
L 362.508108 600.868348 
L 363.320557 601.85612 
L 364.133006 601.858262 
L 364.945455 598.98559 
L 365.757903 601.774533 
L 366.570352 601.823202 
L 367.382801 588.678458 
L 368.19525 600.959923 
L 369.007699 601.87041 
L 369.820147 601.758375 
L 370.632596 597.400605 
L 371.445045 587.894178 
L 372.257494 598.252786 
L 373.069943 597.870198 
L 373.882391 596.301413 
L 374.69484 594.289836 
L 375.507289 601.696307 
L 376.319738 601.703963 
L 377.132187 601.584134 
L 377.944636 601.859039 
L 378.757084 600.847699 
L 379.569533 601.899452 
L 380.381982 598.683034 
L 381.194431 597.127446 
L 382.00688 598.788164 
L 382.819328 601.524879 
L 383.631777 596.291673 
L 384.444226 565.045279 
L 385.256675 601.70295 
L 386.069124 601.934524 
L 386.881572 601.136411 
L 387.694021 601.613715 
L 388.50647 601.690023 
L 389.318919 601.915091 
L 390.131368 601.591281 
L 390.943817 600.950349 
L 391.756265 601.873581 
L 392.568714 601.790152 
L 393.381163 601.94409 
L 394.193612 597.284584 
L 395.818509 601.316706 
L 396.630958 600.243048 
L 397.443407 600.801087 
L 398.255856 600.141365 
L 399.068305 601.94074 
L 399.880753 601.031372 
L 400.693202 600.551057 
L 401.505651 599.03849 
L 402.3181 598.114182 
L 403.130549 601.983292 
L 405.567895 601.885439 
L 406.380344 601.513357 
L 407.192793 599.332669 
L 408.005242 601.556547 
L 408.81769 600.331305 
L 409.630139 601.93099 
L 410.442588 599.089016 
L 411.255037 601.68665 
L 412.067486 568.042533 
L 412.879934 601.865538 
L 413.692383 601.15642 
L 414.504832 585.256685 
L 415.317281 599.778081 
L 416.12973 601.689733 
L 416.942179 602.023135 
L 417.754627 600.728836 
L 418.567076 601.966779 
L 419.379525 589.723104 
L 420.191974 601.044402 
L 421.004423 598.260078 
L 421.816871 602.020538 
L 422.62932 601.98789 
L 423.441769 596.605522 
L 424.254218 600.63059 
L 425.066667 601.40626 
L 425.879115 601.40179 
L 426.691564 598.631005 
L 427.504013 601.808808 
L 428.316462 602.047823 
L 429.128911 599.67424 
L 429.94136 601.947516 
L 430.753808 601.581064 
L 431.566257 600.250967 
L 432.378706 602.068174 
L 433.191155 599.458229 
L 434.003604 601.620993 
L 434.816052 589.620332 
L 435.628501 600.854945 
L 436.44095 601.448778 
L 437.253399 594.36932 
L 438.065848 597.811302 
L 438.878296 600.028204 
L 439.690745 600.482621 
L 440.503194 599.664695 
L 441.315643 601.877879 
L 442.128092 602.016331 
L 442.940541 600.711816 
L 443.752989 597.937143 
L 444.565438 601.880921 
L 445.377887 602.072221 
L 446.190336 601.590555 
L 447.002785 600.236076 
L 447.815233 601.779529 
L 448.627682 602.078689 
L 449.440131 600.658591 
L 450.25258 602.114348 
L 451.065029 601.3186 
L 451.877477 602.109104 
L 453.502375 602.124333 
L 454.314824 600.989434 
L 455.127273 598.881252 
L 455.939722 601.905358 
L 456.75217 594.962639 
L 457.564619 602.047351 
L 458.377068 602.008361 
L 459.189517 597.663981 
L 460.001966 577.61984 
L 460.814414 601.881052 
L 461.626863 600.996072 
L 462.439312 596.617182 
L 463.251761 602.07194 
L 464.06421 602.110878 
L 464.876658 559.090647 
L 465.689107 601.777775 
L 466.501556 602.045145 
L 467.314005 597.868089 
L 468.126454 600.454237 
L 468.938903 600.750389 
L 469.751351 602.164035 
L 470.5638 602.128991 
L 471.376249 594.471457 
L 472.188698 597.71252 
L 473.001147 599.827022 
L 473.813595 598.62575 
L 474.626044 602.091798 
L 475.438493 600.55229 
L 476.250942 602.052935 
L 477.063391 602.095148 
L 477.875839 601.912067 
L 478.688288 599.347698 
L 479.500737 600.645329 
L 480.313186 601.197037 
L 481.938084 595.087669 
L 482.750532 601.937267 
L 483.562981 601.8765 
L 484.37543 601.465029 
L 485.187879 601.995507 
L 486.000328 598.093441 
L 486.812776 600.563848 
L 487.625225 593.025111 
L 488.437674 600.521022 
L 489.250123 602.206 
L 490.062572 602.080809 
L 490.87502 602.197331 
L 491.687469 600.296316 
L 492.499918 602.06406 
L 493.312367 600.727248 
L 494.124816 602.126208 
L 494.937265 601.910755 
L 495.749713 596.295679 
L 496.562162 600.855684 
L 497.374611 601.678509 
L 498.18706 592.284677 
L 498.999509 602.049263 
L 499.811957 597.012528 
L 500.624406 600.933474 
L 501.436855 600.856872 
L 502.249304 589.682889 
L 503.061753 601.362279 
L 503.874201 595.560229 
L 504.68665 602.225612 
L 506.311548 602.236726 
L 507.123997 594.785318 
L 507.936446 602.221352 
L 509.561343 602.200654 
L 510.373792 600.0398 
L 511.186241 602.251524 
L 511.99869 602.254949 
L 513.623587 601.856748 
L 514.436036 602.263819 
L 515.248485 602.256128 
L 516.060934 602.025625 
L 516.873382 602.100883 
L 517.685831 601.895451 
L 519.310729 601.157558 
L 520.123178 602.212381 
L 520.935627 602.280061 
L 521.748075 599.394119 
L 522.560524 601.318666 
L 523.372973 600.891651 
L 524.185422 597.038327 
L 524.997871 602.184926 
L 526.622768 602.286582 
L 527.435217 602.120536 
L 528.247666 601.588616 
L 529.060115 601.942425 
L 529.872563 601.753205 
L 530.685012 602.059302 
L 531.497461 602.010664 
L 533.122359 602.238317 
L 533.934808 584.707842 
L 534.747256 602.216732 
L 535.559705 602.183544 
L 536.372154 602.272575 
L 537.184603 602.247852 
L 537.997052 601.503134 
L 538.8095 601.568501 
L 539.621949 601.984708 
L 540.434398 601.350435 
L 541.246847 602.308116 
L 542.059296 602.249669 
L 542.871744 602.330905 
L 543.684193 602.283762 
L 544.496642 600.98209 
L 545.309091 602.313034 
L 546.12154 600.093064 
L 546.933989 602.254495 
L 547.746437 600.94831 
L 548.558886 602.284072 
L 549.371335 601.718407 
L 550.183784 601.357086 
L 550.996233 601.757934 
L 551.808681 601.940034 
L 552.62113 587.467888 
L 553.433579 600.653648 
L 554.246028 601.805783 
L 555.058477 601.598123 
L 555.870925 595.436346 
L 556.683374 601.123251 
L 557.495823 601.827207 
L 558.308272 602.361147 
L 559.120721 602.359505 
L 559.93317 601.341429 
L 560.745618 602.117321 
L 562.370516 602.368407 
L 563.182965 587.432749 
L 563.995414 601.786074 
L 564.807862 601.980003 
L 565.620311 593.691547 
L 566.43276 602.311632 
L 567.245209 599.691816 
L 568.057658 599.030096 
L 568.870106 602.330064 
L 569.682555 600.22361 
L 570.495004 601.217493 
L 571.307453 597.465017 
L 572.119902 602.389071 
L 572.932351 602.387207 
L 573.744799 600.605792 
L 574.557248 599.96723 
L 575.369697 602.097925 
L 576.182146 602.378515 
L 576.994595 602.082536 
L 577.807043 602.285766 
L 578.619492 601.224619 
L 579.431941 601.985762 
L 580.24439 602.190435 
L 581.056839 598.927417 
L 581.869287 600.417261 
L 582.681736 602.340656 
L 583.494185 601.639312 
L 584.306634 576.508724 
L 585.119083 602.045232 
L 585.931532 595.216383 
L 586.74398 602.42107 
L 587.556429 601.783357 
L 588.368878 602.296788 
L 589.181327 600.326368 
L 589.993776 599.60601 
L 590.806224 602.332605 
L 591.618673 590.60025 
L 592.431122 598.954376 
L 593.243571 595.110091 
L 594.05602 599.745027 
L 594.868468 591.289509 
L 595.680917 602.340016 
L 596.493366 602.355875 
L 597.305815 601.783679 
L 598.118264 596.585463 
L 598.930713 602.431195 
L 599.743161 600.870638 
L 600.55561 602.227097 
L 601.368059 601.582752 
L 602.180508 602.065461 
L 602.992957 601.274175 
L 604.617854 602.102079 
L 605.430303 602.453433 
L 606.242752 602.458153 
L 607.055201 595.079917 
L 607.867649 602.349557 
L 608.680098 601.98251 
L 609.492547 602.001256 
L 610.304996 602.460947 
L 611.117445 602.34146 
L 611.929894 602.4678 
L 612.742342 597.316203 
L 613.554791 602.341314 
L 614.36724 602.469665 
L 615.179689 599.739597 
L 615.992138 596.525483 
L 616.804586 602.433954 
L 617.617035 601.77254 
L 618.429484 602.146829 
L 619.241933 600.974305 
L 620.054382 602.231269 
L 620.86683 600.883187 
L 621.679279 602.411743 
L 622.491728 602.241838 
L 623.304177 602.477355 
L 624.116626 602.27266 
L 624.929075 602.492586 
L 625.741523 600.591393 
L 626.553972 600.808171 
L 627.366421 600.305793 
L 628.17887 602.49937 
L 629.803767 602.207697 
L 630.616216 558.913044 
L 631.428665 601.255272 
L 632.241114 601.941684 
L 633.053563 568.652292 
L 633.866011 602.510181 
L 634.67846 601.971913 
L 635.490909 602.084114 
L 636.303358 600.062764 
L 637.115807 602.306157 
L 637.928256 602.50269 
L 638.740704 599.238064 
L 639.553153 602.21647 
L 640.365602 600.103891 
L 641.178051 602.33595 
L 641.9905 596.467293 
L 642.802948 600.31285 
L 643.615397 599.363664 
L 644.427846 597.131901 
L 645.240295 598.647339 
L 646.052744 602.193725 
L 646.865192 602.271846 
L 647.677641 600.592995 
L 648.49009 602.517971 
L 649.302539 602.18969 
L 650.114988 601.009752 
L 650.927437 602.206649 
L 651.739885 598.301299 
L 652.552334 602.215653 
L 653.364783 590.317777 
L 654.177232 601.422692 
L 654.989681 600.928339 
L 655.802129 599.088172 
L 656.614578 602.501673 
L 657.427027 602.112818 
L 658.239476 602.482082 
L 659.051925 599.955321 
L 659.864373 601.414412 
L 661.489271 602.562772 
L 662.30172 602.539206 
L 663.114169 601.01345 
L 663.926618 602.217259 
L 664.739066 600.228869 
L 665.551515 597.028078 
L 666.363964 601.806762 
L 667.176413 600.795061 
L 667.988862 601.372237 
L 668.80131 602.517355 
L 669.613759 600.678866 
L 670.426208 602.462591 
L 671.238657 593.123119 
L 672.051106 602.544351 
L 672.863554 601.986631 
L 673.676003 590.411027 
L 674.488452 602.492832 
L 675.300901 601.971903 
L 676.11335 600.959352 
L 676.925799 602.242003 
L 677.738247 600.22604 
L 679.363145 602.418942 
L 680.175594 599.662035 
L 680.988043 601.995168 
L 681.800491 601.071927 
L 682.61294 602.26911 
L 683.425389 522.854112 
L 684.237838 579.937142 
L 685.050287 602.600848 
L 685.862735 599.137098 
L 686.675184 601.809544 
L 687.487633 602.424469 
L 688.300082 602.53198 
L 689.112531 602.469383 
L 689.92498 601.618796 
L 690.737428 602.579285 
L 691.549877 594.206014 
L 693.174775 602.594806 
L 693.987224 602.601485 
L 694.799672 578.55197 
L 695.612121 602.52273 
L 696.42457 602.141903 
L 697.237019 602.25876 
L 698.049468 602.565716 
L 698.861916 602.297886 
L 699.674365 601.030487 
L 700.486814 601.809206 
L 701.299263 601.252617 
L 702.111712 602.362964 
L 702.924161 600.951305 
L 703.736609 601.761893 
L 704.549058 600.937992 
L 705.361507 602.625235 
L 706.173956 587.642371 
L 706.986405 599.863473 
L 707.798853 602.552184 
L 708.611302 602.037194 
L 709.423751 602.649418 
L 710.2362 602.077717 
L 711.048649 602.043748 
L 711.861097 601.138546 
L 712.673546 602.298522 
L 713.485995 602.25547 
L 714.298444 600.714188 
L 715.110893 602.659902 
L 715.923342 596.288417 
L 716.73579 602.452243 
L 717.548239 602.620434 
L 718.360688 594.49101 
L 719.173137 602.164249 
L 719.985586 601.68693 
L 720.798034 594.669398 
L 721.610483 601.451335 
L 722.422932 598.663353 
L 723.235381 602.666698 
L 724.04783 602.101577 
L 724.860278 602.405049 
L 727.297625 602.68023 
L 728.110074 602.521661 
L 729.734971 602.664267 
L 732.172318 602.466387 
L 732.984767 602.588434 
L 733.797215 599.004622 
L 734.609664 602.197201 
L 735.422113 602.588555 
L 736.234562 602.645894 
L 737.047011 602.498528 
L 738.671908 595.948424 
L 739.484357 601.910341 
L 740.296806 595.54191 
L 741.109255 601.994026 
L 742.734152 598.610781 
L 743.546601 602.112242 
L 744.35905 600.980777 
L 745.171499 602.634847 
L 745.983948 599.562806 
L 746.796396 602.610215 
L 748.421294 602.244988 
L 750.85864 602.471691 
L 751.671089 602.33594 
L 752.483538 597.073402 
L 753.295987 602.701797 
L 754.108436 602.528469 
L 754.920885 602.508837 
L 755.733333 602.228758 
L 756.545782 602.33763 
L 757.358231 599.556621 
L 758.17068 601.666138 
L 758.983129 591.495551 
L 759.795577 600.624974 
L 760.608026 602.53166 
L 761.420475 602.116527 
L 762.232924 601.560297 
L 763.045373 602.734522 
L 763.857821 602.456237 
L 764.67027 601.801475 
L 765.482719 598.706341 
L 766.295168 602.019482 
L 767.107617 600.964024 
L 767.920066 595.168428 
L 768.732514 602.303023 
L 769.544963 602.750323 
L 770.357412 602.7433 
L 771.169861 546.93912 
L 771.98231 602.662929 
L 772.794758 602.540899 
L 773.607207 600.428677 
L 774.419656 600.641018 
L 775.232105 597.987106 
L 776.044554 602.597366 
L 776.857002 602.732953 
L 778.4819 601.974884 
L 779.294349 602.610081 
L 780.106798 602.30619 
L 780.919247 602.338703 
L 781.731695 596.907002 
L 782.544144 602.499744 
L 783.356593 599.843662 
L 784.169042 602.623409 
L 784.981491 602.334652 
L 785.793939 600.261386 
L 786.606388 600.435636 
L 787.418837 601.739046 
L 788.231286 598.794723 
L 789.043735 602.272609 
L 789.856183 602.68871 
L 790.668632 600.610075 
L 791.481081 602.552474 
L 792.29353 596.872469 
L 793.105979 600.698232 
L 793.918428 602.383149 
L 794.730876 592.201463 
L 795.543325 602.790898 
L 796.355774 602.169645 
L 797.168223 602.694229 
L 797.980672 598.038265 
L 798.79312 601.792392 
L 799.605569 602.135095 
L 800.418018 602.632922 
L 801.230467 602.389798 
L 802.042916 602.71457 
L 802.855364 600.908867 
L 803.667813 602.415006 
L 804.480262 598.941173 
L 805.292711 601.724191 
L 806.10516 601.035669 
L 806.917609 594.258196 
L 807.730057 599.001885 
L 808.542506 601.391976 
L 809.354955 602.741299 
L 810.167404 596.832644 
L 810.979853 602.1543 
L 811.792301 593.194428 
L 812.60475 601.044396 
L 813.417199 602.146061 
L 814.229648 600.662216 
L 815.042097 602.529886 
L 815.854545 602.105031 
L 817.479443 602.417417 
L 818.291892 601.348812 
L 819.104341 599.435095 
L 819.91679 602.156554 
L 820.729238 602.817682 
L 821.541687 602.486901 
L 822.354136 602.822259 
L 823.166585 602.753883 
L 823.979034 602.36586 
L 824.791482 602.15621 
L 825.603931 602.603724 
L 826.41638 602.347788 
L 827.228829 602.573668 
L 828.041278 601.988972 
L 828.853726 602.032678 
L 829.666175 602.628265 
L 830.478624 602.657639 
L 831.291073 595.856072 
L 832.103522 601.123045 
L 832.915971 602.642993 
L 833.728419 602.705768 
L 834.540868 600.536271 
L 835.353317 602.852943 
L 836.165766 601.49039 
L 836.978215 600.636026 
L 837.790663 600.815652 
L 838.603112 595.432782 
L 839.415561 602.658943 
L 840.22801 601.511916 
L 841.040459 602.737155 
L 841.852907 602.815071 
L 842.665356 602.435883 
L 843.477805 602.857633 
L 844.290254 602.754357 
L 845.102703 602.344835 
L 847.540049 602.735242 
L 848.352498 602.67242 
L 849.164947 562.310853 
L 849.977396 601.555593 
L 850.789844 602.869933 
L 851.602293 577.188587 
L 852.414742 601.792727 
L 853.227191 601.3927 
L 854.03964 602.240571 
L 854.852088 598.399478 
L 855.664537 602.158267 
L 856.476986 596.233063 
L 857.289435 602.002084 
L 858.101884 599.350847 
L 858.914333 601.144392 
L 859.726781 602.036709 
L 860.53923 601.110972 
L 861.351679 602.50849 
L 862.164128 601.998721 
L 862.976577 602.016762 
L 863.789025 598.237829 
L 864.601474 600.448497 
L 865.413923 602.141867 
L 866.226372 601.727993 
L 867.038821 600.458143 
L 867.851269 598.015095 
L 868.663718 600.809435 
L 869.476167 602.82674 
L 870.288616 598.087238 
L 871.101065 598.189461 
L 871.913514 585.219977 
L 872.725962 601.463507 
L 873.538411 592.12719 
L 874.35086 594.928183 
L 875.163309 602.106377 
L 876.788206 602.908496 
L 877.600655 602.684992 
L 878.413104 602.159417 
L 879.225553 602.788564 
L 880.85045 601.884088 
L 881.662899 602.67169 
L 883.287797 602.466466 
L 884.100246 602.792322 
L 885.725143 601.120367 
L 886.537592 602.87993 
L 887.350041 602.634039 
L 888.16249 600.0839 
L 888.974939 602.757611 
L 889.787387 602.745289 
L 890.599836 600.682518 
L 891.412285 600.450956 
L 892.224734 602.81584 
L 893.037183 602.919993 
L 893.849631 600.942461 
L 894.66208 602.35104 
L 895.474529 602.578213 
L 896.286978 602.577783 
L 897.099427 592.291964 
L 897.911876 601.415312 
L 898.724324 602.913832 
L 899.536773 599.996517 
L 900.349222 602.937106 
L 901.161671 602.881422 
L 901.97412 539.278452 
L 902.786568 601.820109 
L 903.599017 601.362009 
L 904.411466 601.746516 
L 905.223915 602.814783 
L 906.036364 602.955334 
L 906.848812 595.20236 
L 907.661261 602.354352 
L 908.47371 602.724578 
L 909.286159 602.96272 
L 910.098608 599.454099 
L 910.911057 601.849054 
L 911.723505 602.589746 
L 912.535954 602.965691 
L 913.348403 600.231378 
L 914.160852 602.51329 
L 914.973301 602.960601 
L 915.785749 597.949599 
L 916.598198 601.356883 
L 917.410647 602.88876 
L 918.223096 600.597601 
L 919.035545 595.982998 
L 919.847993 601.729073 
L 920.660442 602.559408 
L 921.472891 601.243422 
L 922.28534 602.775279 
L 923.097789 601.333128 
L 923.910238 602.118192 
L 924.722686 594.47415 
L 925.535135 601.512915 
L 926.347584 602.559598 
L 927.972482 602.862796 
L 928.78493 602.911567 
L 929.597379 602.460582 
L 930.409828 600.979307 
L 931.222277 602.994931 
L 932.034726 600.379386 
L 932.847174 600.167956 
L 933.659623 600.328506 
L 935.284521 602.734503 
L 936.09697 602.123358 
L 936.909419 599.894786 
L 938.534316 601.769566 
L 939.346765 602.237757 
L 940.159214 598.658593 
L 940.971663 598.919818 
L 941.784111 602.521607 
L 942.59656 602.692653 
L 943.409009 600.977586 
L 944.221458 602.484353 
L 945.033907 603.014515 
L 945.846355 602.184992 
L 946.658804 603.000388 
L 947.471253 602.475283 
L 948.283702 603.01735 
L 949.096151 602.864855 
L 949.9086 602.425201 
L 950.721048 602.987193 
L 951.533497 602.995946 
L 952.345946 602.527667 
L 953.158395 602.645144 
L 953.970844 602.909148 
L 954.783292 602.83932 
L 955.595741 602.156318 
L 956.40819 603.012763 
L 957.220639 602.84847 
L 958.033088 603.02831 
L 959.657985 602.920617 
L 960.470434 602.802532 
L 961.282883 601.988695 
L 962.095332 603.02591 
L 962.907781 602.936068 
L 964.532678 602.479472 
L 965.345127 601.383107 
L 966.157576 603.01841 
L 966.970025 602.582194 
L 967.782473 601.05316 
L 968.594922 603.020957 
L 969.407371 602.99158 
L 970.21982 602.442984 
L 971.032269 572.481051 
L 971.844717 600.395486 
L 972.657166 602.84989 
L 973.469615 599.517911 
L 974.282064 603.054069 
L 975.094513 602.598756 
L 975.906962 602.871633 
L 976.71941 602.002901 
L 977.531859 595.256747 
L 978.344308 602.622867 
L 979.156757 602.982125 
L 980.781654 603.004937 
L 981.594103 601.694923 
L 982.406552 602.823302 
L 983.219001 601.714512 
L 984.03145 602.718835 
L 984.843898 602.721178 
L 985.656347 601.641864 
L 986.468796 599.867018 
L 988.093694 602.929183 
L 988.906143 603.019179 
L 989.718591 586.50623 
L 990.53104 601.08659 
L 991.343489 600.56607 
L 992.155938 600.980272 
L 992.968387 601.552588 
L 993.780835 600.878088 
L 994.593284 600.026435 
L 995.405733 602.992752 
L 996.218182 603.011076 
L 996.218182 603.011076 
" style="fill:none;stroke:#1f77b4;stroke-linecap:square;stroke-width:1.5;"/>
   </g>
   <g id="line2d_13">
    <path clip-path="url(#p5e2f4dfdfb)" d="M 184.581818 449.775398 
L 185.394267 596.324378 
L 186.206716 482.196732 
L 187.019165 601.210174 
L 187.831613 600.698869 
L 188.644062 569.690746 
L 189.456511 600.067615 
L 190.26896 521.130095 
L 191.081409 593.744665 
L 191.893857 596.173057 
L 192.706306 596.8921 
L 193.518755 530.441226 
L 194.331204 597.88776 
L 195.143653 590.311462 
L 195.956102 329.740399 
L 196.76855 597.258263 
L 197.580999 591.802186 
L 198.393448 590.579562 
L 199.205897 583.926969 
L 200.018346 594.147095 
L 200.830794 518.782771 
L 201.643243 591.495252 
L 202.455692 595.129152 
L 203.268141 597.562111 
L 204.08059 596.896367 
L 204.893038 585.238749 
L 205.705487 596.228695 
L 206.517936 588.040078 
L 207.330385 517.183646 
L 208.955283 596.902365 
L 209.767731 596.755373 
L 210.58018 579.129205 
L 211.392629 590.363492 
L 212.205078 565.003656 
L 213.017527 596.605604 
L 213.829975 596.544553 
L 214.642424 575.272382 
L 215.454873 597.132575 
L 216.267322 569.998431 
L 217.079771 585.033362 
L 217.892219 590.331353 
L 218.704668 473.303776 
L 219.517117 567.806609 
L 220.329566 592.606573 
L 221.142015 591.409858 
L 221.954464 582.38338 
L 222.766912 597.461297 
L 223.579361 596.420026 
L 224.39181 593.006868 
L 225.204259 597.482686 
L 226.016708 557.527954 
L 226.829156 591.365897 
L 227.641605 595.855411 
L 228.454054 581.249551 
L 229.266503 588.526483 
L 230.078952 593.648938 
L 230.8914 595.13241 
L 231.703849 597.542776 
L 232.516298 596.093996 
L 233.328747 596.921493 
L 234.141196 597.439469 
L 234.953645 597.698789 
L 235.766093 596.874807 
L 236.578542 597.523178 
L 237.390991 596.865929 
L 238.20344 596.025427 
L 239.015889 573.16452 
L 239.828337 595.687953 
L 240.640786 589.241359 
L 241.453235 399.813364 
L 242.265684 588.193975 
L 243.078133 597.442111 
L 243.890581 584.806612 
L 244.70303 594.436781 
L 245.515479 596.911911 
L 246.327928 321.915847 
L 247.140377 597.246791 
L 247.952826 597.699357 
L 248.765274 595.498336 
L 249.577723 595.653833 
L 250.390172 587.154276 
L 251.202621 583.158942 
L 252.01507 595.834798 
L 252.827518 593.106755 
L 253.639967 594.291364 
L 254.452416 565.451561 
L 255.264865 595.708168 
L 256.077314 587.508013 
L 256.889762 598.037517 
L 257.702211 597.077451 
L 258.51466 583.457843 
L 259.327109 593.232527 
L 260.139558 596.479565 
L 260.952007 594.158947 
L 261.764455 584.247731 
L 262.576904 595.172255 
L 263.389353 597.534758 
L 264.201802 595.225072 
L 265.014251 581.43616 
L 265.826699 570.67089 
L 266.639148 598.52583 
L 267.451597 591.725223 
L 268.264046 589.781438 
L 269.076495 493.634203 
L 269.888943 598.031561 
L 270.701392 572.208204 
L 271.513841 592.616203 
L 272.32629 597.167094 
L 273.138739 597.563455 
L 273.951188 563.787129 
L 274.763636 595.721261 
L 275.576085 598.787456 
L 276.388534 584.860837 
L 277.200983 595.363209 
L 278.013432 595.78575 
L 278.82588 568.014815 
L 279.638329 598.843161 
L 280.450778 598.163726 
L 281.263227 560.06312 
L 282.075676 598.762028 
L 282.888124 598.590624 
L 283.700573 578.027129 
L 284.513022 592.431426 
L 285.325471 599.059234 
L 286.13792 597.232391 
L 286.950369 597.263544 
L 287.762817 594.430401 
L 288.575266 598.383538 
L 289.387715 593.962406 
L 290.200164 598.572549 
L 291.012613 580.49882 
L 291.825061 584.325336 
L 292.63751 596.07198 
L 293.449959 597.322616 
L 294.262408 594.735475 
L 295.074857 598.377934 
L 295.887305 596.794271 
L 296.699754 594.762756 
L 297.512203 599.32646 
L 298.324652 580.550986 
L 299.137101 596.958944 
L 299.94955 561.659087 
L 300.761998 598.090769 
L 301.574447 599.126157 
L 302.386896 588.861392 
L 303.199345 591.588055 
L 304.011794 590.933292 
L 304.824242 579.408835 
L 305.636691 591.198174 
L 306.44914 591.294468 
L 307.261589 456.298609 
L 308.074038 591.761835 
L 308.886486 579.288197 
L 309.698935 599.405668 
L 310.511384 594.196955 
L 311.323833 599.616748 
L 312.136282 591.516151 
L 312.948731 574.590606 
L 313.761179 599.546437 
L 314.573628 599.580186 
L 315.386077 521.525761 
L 316.198526 583.465926 
L 317.010975 561.395759 
L 317.823423 599.49736 
L 318.635872 599.304313 
L 319.448321 596.11631 
L 320.26077 598.557561 
L 321.073219 594.087046 
L 321.885667 599.166107 
L 322.698116 599.418183 
L 323.510565 599.202553 
L 324.323014 584.177825 
L 325.135463 599.668436 
L 325.947912 590.700449 
L 326.76036 599.779276 
L 327.572809 588.32636 
L 328.385258 598.366508 
L 329.197707 550.43456 
L 330.010156 599.863364 
L 330.822604 599.858211 
L 331.635053 598.574025 
L 332.447502 596.71987 
L 333.259951 598.414751 
L 334.0724 488.570978 
L 334.884848 598.991502 
L 335.697297 599.11043 
L 336.509746 599.761091 
L 337.322195 592.937579 
L 338.134644 584.296071 
L 338.947093 594.902425 
L 339.759541 599.814979 
L 340.57199 591.705216 
L 341.384439 596.503561 
L 342.196888 593.860218 
L 343.009337 599.505826 
L 343.821785 598.109382 
L 344.634234 139.702278 
L 345.446683 599.286222 
L 346.259132 598.938135 
L 347.071581 558.416195 
L 347.884029 599.281039 
L 348.696478 597.268855 
L 349.508927 599.328145 
L 350.321376 596.652421 
L 351.133825 599.839195 
L 351.946274 583.72738 
L 352.758722 598.900614 
L 353.571171 594.410272 
L 354.38362 598.773955 
L 355.196069 564.734991 
L 356.008518 593.058162 
L 356.820966 595.46217 
L 357.633415 596.979362 
L 358.445864 599.238679 
L 359.258313 596.220476 
L 360.070762 595.123955 
L 360.88321 599.44511 
L 361.695659 594.685099 
L 362.508108 599.360207 
L 363.320557 599.538471 
L 364.133006 586.053906 
L 364.945455 598.217428 
L 365.757903 595.720768 
L 366.570352 593.709847 
L 367.382801 593.180774 
L 368.19525 594.136482 
L 369.007699 598.246908 
L 369.820147 591.048844 
L 370.632596 598.437849 
L 372.257494 593.708304 
L 373.069943 599.83838 
L 373.882391 597.653401 
L 374.69484 525.588394 
L 375.507289 590.500451 
L 376.319738 598.692365 
L 377.132187 599.617321 
L 377.944636 598.35099 
L 378.757084 599.069725 
L 379.569533 598.345725 
L 380.381982 598.307324 
L 381.194431 593.520742 
L 382.00688 593.393584 
L 382.819328 599.449516 
L 383.631777 587.910719 
L 384.444226 587.669117 
L 385.256675 596.776443 
L 386.069124 598.762866 
L 386.881572 584.450676 
L 387.694021 599.073363 
L 388.50647 599.68653 
L 389.318919 599.776252 
L 390.131368 599.259312 
L 390.943817 593.609292 
L 391.756265 599.963316 
L 392.568714 595.555376 
L 393.381163 599.132091 
L 394.193612 594.837537 
L 395.006061 595.247367 
L 395.818509 597.000665 
L 397.443407 579.114907 
L 398.255856 595.594546 
L 399.068305 593.484588 
L 399.880753 596.49095 
L 400.693202 599.07009 
L 401.505651 595.122884 
L 402.3181 599.805801 
L 403.130549 594.312413 
L 403.942998 596.302154 
L 404.755446 599.99798 
L 405.567895 600.045813 
L 406.380344 594.696029 
L 407.192793 598.752196 
L 408.005242 592.941207 
L 408.81769 595.496443 
L 409.630139 596.378234 
L 410.442588 599.430272 
L 411.255037 598.624173 
L 412.067486 584.514382 
L 412.879934 599.520857 
L 413.692383 599.319454 
L 414.504832 358.583067 
L 415.317281 598.169174 
L 416.12973 596.954753 
L 416.942179 548.071623 
L 417.754627 594.60463 
L 418.567076 599.894266 
L 419.379525 581.666717 
L 420.191974 600.038938 
L 421.004423 596.000097 
L 421.816871 598.274105 
L 422.62932 599.747712 
L 423.441769 598.49552 
L 424.254218 598.429545 
L 425.066667 599.163701 
L 425.879115 591.298898 
L 426.691564 586.961869 
L 427.504013 589.592298 
L 428.316462 599.626558 
L 429.128911 598.595218 
L 429.94136 594.736879 
L 430.753808 598.930334 
L 431.566257 597.943794 
L 432.378706 595.828159 
L 433.191155 579.347199 
L 434.003604 596.961785 
L 434.816052 560.806845 
L 435.628501 585.247756 
L 436.44095 599.60328 
L 437.253399 561.330562 
L 438.065848 599.709264 
L 438.878296 588.337963 
L 439.690745 596.12151 
L 440.503194 596.684129 
L 441.315643 589.337312 
L 442.128092 593.429901 
L 442.940541 589.158866 
L 443.752989 597.576511 
L 444.565438 584.106587 
L 445.377887 551.119258 
L 446.190336 599.711723 
L 447.002785 581.563306 
L 447.815233 599.610403 
L 449.440131 593.846513 
L 450.25258 599.615254 
L 451.065029 589.7089 
L 451.877477 517.217658 
L 452.689926 598.245872 
L 453.502375 599.142159 
L 454.314824 590.003441 
L 455.127273 592.369438 
L 455.939722 585.325778 
L 456.75217 594.448086 
L 457.564619 598.700178 
L 458.377068 599.254052 
L 459.189517 598.18975 
L 460.001966 327.340065 
L 460.814414 588.795145 
L 461.626863 599.301565 
L 462.439312 585.857808 
L 463.251761 596.801428 
L 464.06421 596.914831 
L 464.876658 505.180171 
L 465.689107 599.257765 
L 466.501556 586.16134 
L 467.314005 598.139986 
L 468.126454 599.270008 
L 468.938903 585.262516 
L 469.751351 598.6386 
L 470.5638 596.800876 
L 471.376249 575.779697 
L 472.188698 594.747214 
L 473.001147 598.654498 
L 474.626044 591.472982 
L 476.250942 599.838234 
L 477.063391 590.052024 
L 477.875839 593.574882 
L 478.688288 585.907658 
L 479.500737 599.762529 
L 480.313186 594.232832 
L 481.125635 569.452221 
L 481.938084 578.77516 
L 482.750532 596.846092 
L 483.562981 599.958026 
L 484.37543 599.10016 
L 485.187879 599.984017 
L 486.000328 595.012138 
L 486.812776 599.83006 
L 487.625225 591.182459 
L 488.437674 597.423895 
L 489.250123 598.470796 
L 490.062572 598.548615 
L 490.87502 596.319837 
L 491.687469 599.546968 
L 492.499918 598.032067 
L 493.312367 600.012692 
L 494.124816 600.053228 
L 494.937265 599.776495 
L 495.749713 599.772387 
L 496.562162 599.890211 
L 497.374611 597.602541 
L 498.18706 597.54507 
L 498.999509 600.069144 
L 499.811957 593.434307 
L 500.624406 598.78137 
L 501.436855 599.592817 
L 502.249304 522.670416 
L 503.061753 598.982091 
L 503.874201 582.077374 
L 504.68665 596.057579 
L 505.499099 585.995857 
L 506.311548 600.241119 
L 507.123997 587.123828 
L 507.936446 599.735561 
L 508.748894 597.347372 
L 509.561343 600.017449 
L 510.373792 570.970141 
L 511.186241 599.608597 
L 511.99869 593.114187 
L 513.623587 595.656173 
L 514.436036 599.634559 
L 515.248485 597.183428 
L 516.060934 596.845045 
L 516.873382 600.058923 
L 517.685831 599.26536 
L 518.49828 588.595556 
L 519.310729 600.248112 
L 520.123178 588.506237 
L 520.935627 590.597599 
L 521.748075 595.063978 
L 522.560524 597.653784 
L 523.372973 587.709246 
L 524.185422 594.981409 
L 524.997871 599.612289 
L 525.810319 598.132259 
L 526.622768 597.860315 
L 527.435217 599.053777 
L 528.247666 584.321964 
L 529.060115 597.434804 
L 529.872563 597.93059 
L 530.685012 599.598701 
L 531.497461 589.689297 
L 532.30991 599.625608 
L 533.122359 598.077145 
L 533.934808 544.059781 
L 534.747256 589.024231 
L 535.559705 538.099705 
L 536.372154 599.637805 
L 537.184603 596.025512 
L 537.997052 587.792774 
L 538.8095 600.236896 
L 539.621949 599.483067 
L 540.434398 600.056072 
L 541.246847 599.629858 
L 542.059296 596.682757 
L 542.871744 555.511132 
L 543.684193 600.112652 
L 544.496642 597.634231 
L 545.309091 600.217467 
L 546.12154 599.955778 
L 546.933989 600.285995 
L 547.746437 560.169156 
L 548.558886 597.380712 
L 549.371335 600.361191 
L 550.183784 597.211202 
L 550.996233 598.592999 
L 551.808681 596.572924 
L 552.62113 569.324409 
L 553.433579 596.082615 
L 554.246028 596.741361 
L 555.058477 587.08045 
L 555.870925 579.902967 
L 556.683374 599.804078 
L 557.495823 597.386688 
L 558.308272 589.389591 
L 559.120721 598.147421 
L 559.93317 599.789025 
L 560.745618 586.363312 
L 561.558067 598.585912 
L 562.370516 598.168786 
L 563.182965 561.71056 
L 563.995414 599.150535 
L 564.807862 585.658304 
L 565.620311 594.458606 
L 566.43276 599.566388 
L 567.245209 596.315344 
L 568.057658 587.036067 
L 568.870106 599.200834 
L 569.682555 600.094038 
L 570.495004 591.646061 
L 571.307453 598.067159 
L 572.119902 599.88714 
L 573.744799 590.923259 
L 574.557248 563.033696 
L 575.369697 599.760087 
L 576.182146 599.529461 
L 576.994595 599.065006 
L 577.807043 593.253367 
L 578.619492 600.173877 
L 579.431941 585.934772 
L 580.24439 597.136424 
L 581.056839 599.711978 
L 581.869287 599.691008 
L 582.681736 589.098899 
L 583.494185 599.029132 
L 584.306634 512.584377 
L 585.119083 590.828738 
L 585.931532 600.277393 
L 586.74398 600.420945 
L 587.556429 598.321752 
L 588.368878 600.455942 
L 589.181327 600.278549 
L 589.993776 600.424582 
L 590.806224 598.91064 
L 591.618673 596.382512 
L 592.431122 599.94186 
L 593.243571 567.736028 
L 594.05602 598.139884 
L 594.868468 599.719329 
L 595.680917 600.174438 
L 596.493366 595.03898 
L 597.305815 600.117886 
L 598.118264 592.289001 
L 598.930713 588.427779 
L 599.743161 600.525349 
L 600.55561 596.344616 
L 601.368059 600.017751 
L 602.180508 597.291556 
L 602.992957 574.388105 
L 603.805405 597.092226 
L 604.617854 598.113145 
L 605.430303 586.615574 
L 606.242752 592.335748 
L 607.055201 501.3299 
L 607.867649 600.187315 
L 608.680098 599.907448 
L 609.492547 593.142748 
L 610.304996 600.024758 
L 611.117445 600.188856 
L 611.929894 598.065442 
L 612.742342 569.668674 
L 613.554791 598.129626 
L 614.36724 599.75364 
L 615.179689 587.868196 
L 616.804586 599.814937 
L 617.617035 596.73413 
L 618.429484 599.713316 
L 619.241933 590.517562 
L 620.054382 599.285573 
L 620.86683 599.608805 
L 621.679279 587.867409 
L 622.491728 599.723193 
L 623.304177 600.216247 
L 624.116626 599.241499 
L 624.929075 587.633511 
L 625.741523 597.997306 
L 626.553972 572.717668 
L 627.366421 600.216736 
L 628.17887 594.184761 
L 628.991319 599.579656 
L 629.803767 599.19475 
L 630.616216 390.977157 
L 631.428665 598.249184 
L 632.241114 599.673725 
L 633.053563 448.325879 
L 633.866011 599.510185 
L 634.67846 599.22044 
L 635.490909 523.071559 
L 636.303358 587.017726 
L 637.115807 599.490607 
L 637.928256 551.643469 
L 638.740704 600.125108 
L 640.365602 599.314935 
L 641.178051 600.056854 
L 641.9905 600.092676 
L 642.802948 596.528389 
L 643.615397 599.431554 
L 644.427846 600.045694 
L 645.240295 578.554341 
L 646.052744 599.161022 
L 646.865192 599.771215 
L 647.677641 597.928282 
L 648.49009 597.744616 
L 649.302539 598.509942 
L 650.114988 595.943331 
L 650.927437 598.106309 
L 651.739885 578.703316 
L 652.552334 597.356583 
L 653.364783 598.649778 
L 654.177232 597.396133 
L 654.989681 593.989437 
L 655.802129 587.753789 
L 656.614578 598.637417 
L 657.427027 597.829785 
L 658.239476 584.410825 
L 659.051925 599.669346 
L 659.864373 599.886151 
L 660.676822 595.530108 
L 661.489271 597.70266 
L 662.30172 595.995324 
L 663.114169 587.611758 
L 663.926618 527.428295 
L 664.739066 584.254641 
L 665.551515 576.149408 
L 666.363964 599.239461 
L 667.176413 599.381686 
L 667.988862 597.016548 
L 668.80131 599.287879 
L 669.613759 596.28273 
L 670.426208 599.484689 
L 671.238657 593.69757 
L 672.051106 593.755821 
L 672.863554 599.378317 
L 673.676003 600.135864 
L 674.488452 596.402936 
L 675.300901 579.104251 
L 676.11335 598.663047 
L 676.925799 599.523302 
L 677.738247 594.340792 
L 678.550696 587.85431 
L 679.363145 586.0798 
L 680.988043 600.181235 
L 681.800491 599.836654 
L 682.61294 596.566307 
L 683.425389 399.77721 
L 684.237838 588.895066 
L 685.050287 593.352523 
L 685.862735 600.08926 
L 686.675184 598.692853 
L 687.487633 599.641983 
L 688.300082 599.927092 
L 689.92498 595.122187 
L 690.737428 596.364764 
L 691.549877 595.777808 
L 692.362326 583.443717 
L 693.174775 599.735326 
L 693.987224 600.27704 
L 694.799672 599.901555 
L 695.612121 593.616572 
L 696.42457 595.935148 
L 697.237019 592.424111 
L 698.049468 597.583917 
L 698.861916 599.727234 
L 699.674365 585.416825 
L 700.486814 596.457553 
L 701.299263 599.272497 
L 702.111712 588.167841 
L 702.924161 587.863203 
L 704.549058 598.06935 
L 705.361507 600.290795 
L 706.173956 556.618814 
L 706.986405 587.639187 
L 707.798853 585.401704 
L 708.611302 599.654501 
L 709.423751 597.867409 
L 710.2362 599.604443 
L 711.048649 599.747417 
L 711.861097 599.27733 
L 712.673546 599.947629 
L 713.485995 599.810789 
L 715.110893 599.880884 
L 715.923342 595.834123 
L 716.73579 595.484263 
L 717.548239 596.53261 
L 718.360688 565.801304 
L 719.173137 598.267532 
L 719.985586 596.306324 
L 720.798034 558.311008 
L 721.610483 596.130333 
L 722.422932 581.670776 
L 723.235381 596.311473 
L 724.04783 600.035181 
L 724.860278 598.674676 
L 725.672727 585.075122 
L 726.485176 600.054677 
L 727.297625 599.832954 
L 728.110074 600.064267 
L 728.922523 592.031538 
L 729.734971 593.734774 
L 730.54742 597.619933 
L 731.359869 595.14611 
L 732.172318 576.495072 
L 732.984767 599.647771 
L 733.797215 598.786616 
L 734.609664 597.630971 
L 735.422113 599.636367 
L 736.234562 599.503802 
L 737.047011 591.131851 
L 737.859459 597.778184 
L 739.484357 590.861004 
L 740.296806 582.597034 
L 741.109255 593.780844 
L 741.921704 600.092519 
L 742.734152 598.259691 
L 743.546601 597.331236 
L 744.35905 599.882547 
L 745.171499 593.555167 
L 745.983948 595.211006 
L 746.796396 596.032271 
L 747.608845 599.434696 
L 748.421294 593.410855 
L 749.233743 599.58446 
L 750.046192 589.366572 
L 750.85864 594.12063 
L 751.671089 595.386131 
L 752.483538 588.950254 
L 753.295987 592.942735 
L 754.108436 528.562654 
L 754.920885 595.623949 
L 755.733333 597.3014 
L 756.545782 599.928774 
L 757.358231 599.993111 
L 758.17068 595.476356 
L 758.983129 599.229374 
L 759.795577 599.010574 
L 760.608026 595.233133 
L 761.420475 528.600874 
L 762.232924 598.689751 
L 763.045373 599.163884 
L 763.857821 598.793367 
L 764.67027 599.899744 
L 765.482719 594.822577 
L 766.295168 559.70979 
L 767.107617 594.879288 
L 767.920066 582.838252 
L 768.732514 599.962105 
L 769.544963 593.736326 
L 770.357412 599.908809 
L 771.169861 590.068832 
L 771.98231 598.862396 
L 773.607207 589.38625 
L 774.419656 591.854886 
L 775.232105 587.58352 
L 776.044554 595.495221 
L 776.857002 581.353818 
L 777.669451 598.618034 
L 778.4819 594.936603 
L 779.294349 583.083149 
L 780.106798 598.441333 
L 780.919247 598.249156 
L 781.731695 592.657858 
L 783.356593 599.42884 
L 784.169042 571.664951 
L 784.981491 597.755519 
L 785.793939 599.934813 
L 786.606388 587.299307 
L 787.418837 586.579001 
L 788.231286 599.309559 
L 789.856183 599.698072 
L 790.668632 581.290145 
L 791.481081 598.090643 
L 792.29353 599.698891 
L 793.105979 574.965349 
L 793.918428 599.542093 
L 794.730876 599.608084 
L 795.543325 599.806077 
L 796.355774 594.631919 
L 797.168223 598.855164 
L 797.980672 564.812674 
L 798.79312 598.606613 
L 799.605569 585.576521 
L 800.418018 597.979774 
L 801.230467 597.705572 
L 802.042916 599.689345 
L 802.855364 546.731072 
L 803.667813 595.262901 
L 804.480262 597.952534 
L 805.292711 593.449606 
L 806.10516 599.81513 
L 806.917609 596.226899 
L 807.730057 597.542681 
L 808.542506 590.838713 
L 809.354955 599.682147 
L 810.979853 598.545386 
L 811.792301 586.963878 
L 812.60475 598.853811 
L 813.417199 599.486082 
L 814.229648 599.617248 
L 815.042097 598.157455 
L 815.854545 599.126208 
L 816.666994 595.782212 
L 817.479443 599.858268 
L 818.291892 596.509473 
L 819.104341 593.743706 
L 819.91679 589.357857 
L 820.729238 595.754861 
L 821.541687 591.693955 
L 822.354136 598.892328 
L 823.166585 597.527814 
L 823.979034 599.376755 
L 824.791482 594.988679 
L 825.603931 598.94303 
L 826.41638 599.946399 
L 827.228829 599.973887 
L 828.041278 597.793018 
L 828.853726 581.950414 
L 829.666175 598.682647 
L 830.478624 598.52672 
L 831.291073 563.875923 
L 832.103522 589.369691 
L 832.915971 590.038368 
L 833.728419 584.517323 
L 834.540868 561.316521 
L 835.353317 599.008283 
L 836.165766 598.943878 
L 836.978215 599.220889 
L 837.790663 598.852246 
L 838.603112 591.25154 
L 839.415561 591.828967 
L 840.22801 591.223711 
L 841.040459 599.84403 
L 841.852907 599.658306 
L 842.665356 598.753138 
L 843.477805 582.421606 
L 844.290254 599.149563 
L 845.102703 592.682603 
L 845.915152 599.150889 
L 846.7276 598.34663 
L 847.540049 599.008122 
L 848.352498 597.490284 
L 849.164947 401.754309 
L 849.977396 598.714974 
L 850.789844 598.340772 
L 851.602293 491.557556 
L 852.414742 598.729335 
L 853.227191 599.367874 
L 854.03964 567.856855 
L 854.852088 578.379429 
L 855.664537 579.999956 
L 856.476986 441.657754 
L 857.289435 599.340559 
L 858.101884 599.500762 
L 858.914333 597.46058 
L 859.726781 599.69739 
L 860.53923 599.678727 
L 861.351679 595.402076 
L 862.164128 597.86541 
L 862.976577 594.426993 
L 863.789025 581.367535 
L 864.601474 597.881915 
L 865.413923 576.502235 
L 866.226372 598.726721 
L 867.038821 598.752225 
L 867.851269 587.435735 
L 868.663718 597.543665 
L 869.476167 590.043566 
L 870.288616 584.718071 
L 871.101065 592.868842 
L 872.725962 597.735678 
L 873.538411 584.945087 
L 874.35086 534.981414 
L 875.163309 599.536489 
L 875.975758 599.091343 
L 876.788206 585.758376 
L 877.600655 599.368434 
L 878.413104 599.667513 
L 879.225553 595.726363 
L 880.038002 598.699021 
L 880.85045 594.527386 
L 881.662899 589.504301 
L 882.475348 543.575055 
L 883.287797 590.993847 
L 884.100246 592.113488 
L 884.912695 593.677893 
L 885.725143 599.359854 
L 886.537592 599.790969 
L 887.350041 599.037095 
L 888.16249 593.710152 
L 888.974939 599.4498 
L 889.787387 599.114644 
L 890.599836 568.258641 
L 891.412285 599.276302 
L 892.224734 598.365236 
L 893.037183 599.73912 
L 893.849631 592.400108 
L 894.66208 599.689896 
L 895.474529 599.561317 
L 896.286978 597.061762 
L 897.099427 111.109091 
L 897.911876 599.757384 
L 898.724324 597.182544 
L 899.536773 599.748997 
L 900.349222 581.062486 
L 901.161671 598.340722 
L 901.97412 336.997157 
L 902.786568 592.083759 
L 903.599017 599.481887 
L 904.411466 599.235555 
L 905.223915 596.98923 
L 906.036364 596.539392 
L 906.848812 597.74873 
L 907.661261 595.136564 
L 908.47371 599.805681 
L 909.286159 597.04944 
L 910.098608 599.207712 
L 910.911057 590.929814 
L 911.723505 599.116726 
L 912.535954 599.730013 
L 913.348403 599.193008 
L 914.160852 597.166647 
L 914.973301 595.978262 
L 915.785749 579.911684 
L 916.598198 598.814079 
L 917.410647 599.355725 
L 918.223096 585.455205 
L 919.035545 568.155407 
L 919.847993 592.150113 
L 920.660442 587.420745 
L 921.472891 594.501664 
L 922.28534 599.425407 
L 923.097789 597.848337 
L 924.722686 561.340374 
L 925.535135 593.359752 
L 926.347584 593.646189 
L 927.160033 599.803831 
L 927.972482 598.519394 
L 928.78493 599.383634 
L 930.409828 598.515699 
L 931.222277 599.63825 
L 932.034726 599.315839 
L 932.847174 597.993633 
L 933.659623 598.972099 
L 934.472072 596.830567 
L 935.284521 595.525814 
L 936.09697 598.118035 
L 937.721867 596.18532 
L 938.534316 597.341908 
L 939.346765 595.763554 
L 940.159214 598.347309 
L 940.971663 599.181981 
L 941.784111 592.373875 
L 942.59656 596.918662 
L 943.409009 590.795469 
L 944.221458 589.38753 
L 945.033907 597.117148 
L 945.846355 599.165695 
L 946.658804 599.045446 
L 947.471253 594.042093 
L 948.283702 596.074103 
L 949.096151 589.88847 
L 949.9086 594.347619 
L 950.721048 594.920149 
L 951.533497 599.445858 
L 952.345946 597.477747 
L 953.158395 591.471392 
L 953.970844 599.404491 
L 954.783292 597.486192 
L 955.595741 593.718968 
L 956.40819 598.731997 
L 957.220639 597.634061 
L 958.033088 599.157854 
L 958.845536 596.778011 
L 959.657985 599.074536 
L 960.470434 599.239406 
L 961.282883 594.363495 
L 962.095332 598.037874 
L 962.907781 599.230059 
L 963.720229 599.14056 
L 964.532678 589.774347 
L 965.345127 596.143136 
L 966.157576 599.255673 
L 966.970025 599.395986 
L 967.782473 597.514868 
L 968.594922 597.499733 
L 969.407371 598.204246 
L 970.21982 597.992242 
L 971.032269 589.332547 
L 971.844717 598.611129 
L 972.657166 566.837714 
L 973.469615 598.499205 
L 974.282064 596.887918 
L 975.094513 586.422094 
L 975.906962 596.407945 
L 976.71941 597.69633 
L 977.531859 576.254094 
L 978.344308 598.431056 
L 979.156757 598.812652 
L 979.969206 545.646662 
L 980.781654 598.537623 
L 981.594103 598.248119 
L 982.406552 598.642971 
L 983.219001 591.750323 
L 984.03145 598.704805 
L 984.843898 595.927071 
L 985.656347 593.760243 
L 986.468796 590.730543 
L 987.281245 588.701461 
L 988.093694 599.226622 
L 988.906143 597.517852 
L 989.718591 534.450392 
L 990.53104 594.667761 
L 991.343489 596.301142 
L 992.155938 599.399457 
L 992.968387 593.639118 
L 993.780835 594.638738 
L 994.593284 597.678378 
L 995.405733 577.868102 
L 996.218182 599.092323 
L 996.218182 599.092323 
" style="fill:none;stroke:#ff7f0e;stroke-linecap:square;stroke-width:1.5;"/>
   </g>
   <g id="line2d_14">
    <path clip-path="url(#p5e2f4dfdfb)" d="M 184.581818 592.912594 
L 216.267322 594.167537 
L 255.264865 595.478646 
L 302.386896 596.830474 
L 358.445864 598.209034 
L 421.004423 599.520161 
L 489.250123 600.723521 
L 564.807862 601.829519 
L 648.49009 602.828062 
L 741.921704 603.716117 
L 848.352498 604.499809 
L 971.844717 605.179979 
L 996.218182 605.290909 
L 996.218182 605.290909 
" style="fill:none;stroke:#2ca02c;stroke-linecap:square;stroke-width:1.5;"/>
   </g>
   <g id="line2d_15">
    <path clip-path="url(#p5e2f4dfdfb)" d="M 184.581818 593.704181 
L 186.206716 593.641183 
L 188.644062 593.914232 
L 191.081409 594.130869 
L 213.829975 594.774791 
L 247.140377 595.319477 
L 296.699754 595.865979 
L 372.257494 596.457682 
L 482.750532 597.085664 
L 639.553153 597.741653 
L 854.852088 598.408443 
L 996.218182 598.757239 
L 996.218182 598.757239 
" style="fill:none;stroke:#d62728;stroke-linecap:square;stroke-width:1.5;"/>
   </g>
   <g id="patch_3">
    <path d="M 144 630 
L 144 86.4 
" style="fill:none;stroke:#000000;stroke-linecap:square;stroke-linejoin:miter;stroke-width:0.8;"/>
   </g>
   <g id="patch_4">
    <path d="M 1036.8 630 
L 1036.8 86.4 
" style="fill:none;stroke:#000000;stroke-linecap:square;stroke-linejoin:miter;stroke-width:0.8;"/>
   </g>
   <g id="patch_5">
    <path d="M 144 630 
L 1036.8 630 
" style="fill:none;stroke:#000000;stroke-linecap:square;stroke-linejoin:miter;stroke-width:0.8;"/>
   </g>
   <g id="patch_6">
    <path d="M 144 86.4 
L 1036.8 86.4 
" style="fill:none;stroke:#000000;stroke-linecap:square;stroke-linejoin:miter;stroke-width:0.8;"/>
   </g>
   <g id="text_14">
    <!-- WDBC results: All 4 implementations -->
    <defs>
     <path d="M 3.328125 72.90625 
L 13.28125 72.90625 
L 28.609375 11.28125 
L 43.890625 72.90625 
L 54.984375 72.90625 
L 70.3125 11.28125 
L 85.59375 72.90625 
L 95.609375 72.90625 
L 77.296875 0 
L 64.890625 0 
L 49.515625 63.28125 
L 33.984375 0 
L 21.578125 0 
z
" id="DejaVuSans-57"/>
     <path d="M 19.671875 64.796875 
L 19.671875 8.109375 
L 31.59375 8.109375 
Q 46.6875 8.109375 53.6875 14.9375 
Q 60.6875 21.78125 60.6875 36.53125 
Q 60.6875 51.171875 53.6875 57.984375 
Q 46.6875 64.796875 31.59375 64.796875 
z
M 9.8125 72.90625 
L 30.078125 72.90625 
Q 51.265625 72.90625 61.171875 64.09375 
Q 71.09375 55.28125 71.09375 36.53125 
Q 71.09375 17.671875 61.125 8.828125 
Q 51.171875 0 30.078125 0 
L 9.8125 0 
z
" id="DejaVuSans-44"/>
     <path d="M 19.671875 34.8125 
L 19.671875 8.109375 
L 35.5 8.109375 
Q 43.453125 8.109375 47.28125 11.40625 
Q 51.125 14.703125 51.125 21.484375 
Q 51.125 28.328125 47.28125 31.5625 
Q 43.453125 34.8125 35.5 34.8125 
z
M 19.671875 64.796875 
L 19.671875 42.828125 
L 34.28125 42.828125 
Q 41.5 42.828125 45.03125 45.53125 
Q 48.578125 48.25 48.578125 53.8125 
Q 48.578125 59.328125 45.03125 62.0625 
Q 41.5 64.796875 34.28125 64.796875 
z
M 9.8125 72.90625 
L 35.015625 72.90625 
Q 46.296875 72.90625 52.390625 68.21875 
Q 58.5 63.53125 58.5 54.890625 
Q 58.5 48.1875 55.375 44.234375 
Q 52.25 40.28125 46.1875 39.3125 
Q 53.46875 37.75 57.5 32.78125 
Q 61.53125 27.828125 61.53125 20.40625 
Q 61.53125 10.640625 54.890625 5.3125 
Q 48.25 0 35.984375 0 
L 9.8125 0 
z
" id="DejaVuSans-42"/>
     <path d="M 64.40625 67.28125 
L 64.40625 56.890625 
Q 59.421875 61.53125 53.78125 63.8125 
Q 48.140625 66.109375 41.796875 66.109375 
Q 29.296875 66.109375 22.65625 58.46875 
Q 16.015625 50.828125 16.015625 36.375 
Q 16.015625 21.96875 22.65625 14.328125 
Q 29.296875 6.6875 41.796875 6.6875 
Q 48.140625 6.6875 53.78125 8.984375 
Q 59.421875 11.28125 64.40625 15.921875 
L 64.40625 5.609375 
Q 59.234375 2.09375 53.4375 0.328125 
Q 47.65625 -1.421875 41.21875 -1.421875 
Q 24.65625 -1.421875 15.125 8.703125 
Q 5.609375 18.84375 5.609375 36.375 
Q 5.609375 53.953125 15.125 64.078125 
Q 24.65625 74.21875 41.21875 74.21875 
Q 47.75 74.21875 53.53125 72.484375 
Q 59.328125 70.75 64.40625 67.28125 
z
" id="DejaVuSans-43"/>
     <path id="DejaVuSans-20"/>
     <path d="M 8.5 21.578125 
L 8.5 54.6875 
L 17.484375 54.6875 
L 17.484375 21.921875 
Q 17.484375 14.15625 20.5 10.265625 
Q 23.53125 6.390625 29.59375 6.390625 
Q 36.859375 6.390625 41.078125 11.03125 
Q 45.3125 15.671875 45.3125 23.6875 
L 45.3125 54.6875 
L 54.296875 54.6875 
L 54.296875 0 
L 45.3125 0 
L 45.3125 8.40625 
Q 42.046875 3.421875 37.71875 1 
Q 33.40625 -1.421875 27.6875 -1.421875 
Q 18.265625 -1.421875 13.375 4.4375 
Q 8.5 10.296875 8.5 21.578125 
z
M 31.109375 56 
z
" id="DejaVuSans-75"/>
     <path d="M 9.421875 75.984375 
L 18.40625 75.984375 
L 18.40625 0 
L 9.421875 0 
z
" id="DejaVuSans-6c"/>
     <path d="M 11.71875 12.40625 
L 22.015625 12.40625 
L 22.015625 0 
L 11.71875 0 
z
M 11.71875 51.703125 
L 22.015625 51.703125 
L 22.015625 39.3125 
L 11.71875 39.3125 
z
" id="DejaVuSans-3a"/>
     <path d="M 34.1875 63.1875 
L 20.796875 26.90625 
L 47.609375 26.90625 
z
M 28.609375 72.90625 
L 39.796875 72.90625 
L 67.578125 0 
L 57.328125 0 
L 50.6875 18.703125 
L 17.828125 18.703125 
L 11.1875 0 
L 0.78125 0 
z
" id="DejaVuSans-41"/>
     <path d="M 52 44.1875 
Q 55.375 50.25 60.0625 53.125 
Q 64.75 56 71.09375 56 
Q 79.640625 56 84.28125 50.015625 
Q 88.921875 44.046875 88.921875 33.015625 
L 88.921875 0 
L 79.890625 0 
L 79.890625 32.71875 
Q 79.890625 40.578125 77.09375 44.375 
Q 74.3125 48.1875 68.609375 48.1875 
Q 61.625 48.1875 57.5625 43.546875 
Q 53.515625 38.921875 53.515625 30.90625 
L 53.515625 0 
L 44.484375 0 
L 44.484375 32.71875 
Q 44.484375 40.625 41.703125 44.40625 
Q 38.921875 48.1875 33.109375 48.1875 
Q 26.21875 48.1875 22.15625 43.53125 
Q 18.109375 38.875 18.109375 30.90625 
L 18.109375 0 
L 9.078125 0 
L 9.078125 54.6875 
L 18.109375 54.6875 
L 18.109375 46.1875 
Q 21.1875 51.21875 25.484375 53.609375 
Q 29.78125 56 35.6875 56 
Q 41.65625 56 45.828125 52.96875 
Q 50 49.953125 52 44.1875 
z
" id="DejaVuSans-6d"/>
     <path d="M 18.109375 8.203125 
L 18.109375 -20.796875 
L 9.078125 -20.796875 
L 9.078125 54.6875 
L 18.109375 54.6875 
L 18.109375 46.390625 
Q 20.953125 51.265625 25.265625 53.625 
Q 29.59375 56 35.59375 56 
Q 45.5625 56 51.78125 48.09375 
Q 58.015625 40.1875 58.015625 27.296875 
Q 58.015625 14.40625 51.78125 6.484375 
Q 45.5625 -1.421875 35.59375 -1.421875 
Q 29.59375 -1.421875 25.265625 0.953125 
Q 20.953125 3.328125 18.109375 8.203125 
z
M 48.6875 27.296875 
Q 48.6875 37.203125 44.609375 42.84375 
Q 40.53125 48.484375 33.40625 48.484375 
Q 26.265625 48.484375 22.1875 42.84375 
Q 18.109375 37.203125 18.109375 27.296875 
Q 18.109375 17.390625 22.1875 11.75 
Q 26.265625 6.109375 33.40625 6.109375 
Q 40.53125 6.109375 44.609375 11.75 
Q 48.6875 17.390625 48.6875 27.296875 
z
" id="DejaVuSans-70"/>
    </defs>
    <g transform="translate(431.0541 80.4)scale(0.1728 -0.1728)">
     <use xlink:href="#DejaVuSans-57"/>
     <use x="98.876953" xlink:href="#DejaVuSans-44"/>
     <use x="175.878906" xlink:href="#DejaVuSans-42"/>
     <use x="244.466797" xlink:href="#DejaVuSans-43"/>
     <use x="314.291016" xlink:href="#DejaVuSans-20"/>
     <use x="346.078125" xlink:href="#DejaVuSans-72"/>
     <use x="387.160156" xlink:href="#DejaVuSans-65"/>
     <use x="448.683594" xlink:href="#DejaVuSans-73"/>
     <use x="500.783203" xlink:href="#DejaVuSans-75"/>
     <use x="564.162109" xlink:href="#DejaVuSans-6c"/>
     <use x="591.945312" xlink:href="#DejaVuSans-74"/>
     <use x="631.154297" xlink:href="#DejaVuSans-73"/>
     <use x="683.253906" xlink:href="#DejaVuSans-3a"/>
     <use x="716.945312" xlink:href="#DejaVuSans-20"/>
     <use x="748.732422" xlink:href="#DejaVuSans-41"/>
     <use x="817.140625" xlink:href="#DejaVuSans-6c"/>
     <use x="844.923828" xlink:href="#DejaVuSans-6c"/>
     <use x="872.707031" xlink:href="#DejaVuSans-20"/>
     <use x="904.494141" xlink:href="#DejaVuSans-34"/>
     <use x="968.117188" xlink:href="#DejaVuSans-20"/>
     <use x="999.904297" xlink:href="#DejaVuSans-69"/>
     <use x="1027.6875" xlink:href="#DejaVuSans-6d"/>
     <use x="1125.099609" xlink:href="#DejaVuSans-70"/>
     <use x="1188.576172" xlink:href="#DejaVuSans-6c"/>
     <use x="1216.359375" xlink:href="#DejaVuSans-65"/>
     <use x="1277.882812" xlink:href="#DejaVuSans-6d"/>
     <use x="1375.294922" xlink:href="#DejaVuSans-65"/>
     <use x="1436.818359" xlink:href="#DejaVuSans-6e"/>
     <use x="1500.197266" xlink:href="#DejaVuSans-74"/>
     <use x="1539.40625" xlink:href="#DejaVuSans-61"/>
     <use x="1600.685547" xlink:href="#DejaVuSans-74"/>
     <use x="1639.894531" xlink:href="#DejaVuSans-69"/>
     <use x="1667.677734" xlink:href="#DejaVuSans-6f"/>
     <use x="1728.859375" xlink:href="#DejaVuSans-6e"/>
     <use x="1792.238281" xlink:href="#DejaVuSans-73"/>
    </g>
   </g>
   <g id="legend_1">
    <g id="patch_7">
     <path d="M 967.792187 153.1125 
L 1029.8 153.1125 
Q 1031.8 153.1125 1031.8 151.1125 
L 1031.8 93.4 
Q 1031.8 91.4 1029.8 91.4 
L 967.792187 91.4 
Q 965.792187 91.4 965.792187 93.4 
L 965.792187 151.1125 
Q 965.792187 153.1125 967.792187 153.1125 
z
" style="fill:#ffffff;opacity:0.8;stroke:#cccccc;stroke-linejoin:miter;"/>
    </g>
    <g id="line2d_16">
     <path d="M 969.792187 99.498437 
L 989.792187 99.498437 
" style="fill:none;stroke:#1f77b4;stroke-linecap:square;stroke-width:1.5;"/>
    </g>
    <g id="line2d_17"/>
    <g id="text_15">
     <!-- GD -->
     <defs>
      <path d="M 59.515625 10.40625 
L 59.515625 29.984375 
L 43.40625 29.984375 
L 43.40625 38.09375 
L 69.28125 38.09375 
L 69.28125 6.78125 
Q 63.578125 2.734375 56.6875 0.65625 
Q 49.8125 -1.421875 42 -1.421875 
Q 24.90625 -1.421875 15.25 8.5625 
Q 5.609375 18.5625 5.609375 36.375 
Q 5.609375 54.25 15.25 64.234375 
Q 24.90625 74.21875 42 74.21875 
Q 49.125 74.21875 55.546875 72.453125 
Q 61.96875 70.703125 67.390625 67.28125 
L 67.390625 56.78125 
Q 61.921875 61.421875 55.765625 63.765625 
Q 49.609375 66.109375 42.828125 66.109375 
Q 29.4375 66.109375 22.71875 58.640625 
Q 16.015625 51.171875 16.015625 36.375 
Q 16.015625 21.625 22.71875 14.15625 
Q 29.4375 6.6875 42.828125 6.6875 
Q 48.046875 6.6875 52.140625 7.59375 
Q 56.25 8.5 59.515625 10.40625 
z
" id="DejaVuSans-47"/>
     </defs>
     <g transform="translate(997.792187 102.998437)scale(0.1 -0.1)">
      <use xlink:href="#DejaVuSans-47"/>
      <use x="77.490234" xlink:href="#DejaVuSans-44"/>
     </g>
    </g>
    <g id="line2d_18">
     <path d="M 969.792187 114.176562 
L 989.792187 114.176562 
" style="fill:none;stroke:#ff7f0e;stroke-linecap:square;stroke-width:1.5;"/>
    </g>
    <g id="line2d_19"/>
    <g id="text_16">
     <!-- SGD -->
     <defs>
      <path d="M 53.515625 70.515625 
L 53.515625 60.890625 
Q 47.90625 63.578125 42.921875 64.890625 
Q 37.9375 66.21875 33.296875 66.21875 
Q 25.25 66.21875 20.875 63.09375 
Q 16.5 59.96875 16.5 54.203125 
Q 16.5 49.359375 19.40625 46.890625 
Q 22.3125 44.4375 30.421875 42.921875 
L 36.375 41.703125 
Q 47.40625 39.59375 52.65625 34.296875 
Q 57.90625 29 57.90625 20.125 
Q 57.90625 9.515625 50.796875 4.046875 
Q 43.703125 -1.421875 29.984375 -1.421875 
Q 24.8125 -1.421875 18.96875 -0.25 
Q 13.140625 0.921875 6.890625 3.21875 
L 6.890625 13.375 
Q 12.890625 10.015625 18.65625 8.296875 
Q 24.421875 6.59375 29.984375 6.59375 
Q 38.421875 6.59375 43.015625 9.90625 
Q 47.609375 13.234375 47.609375 19.390625 
Q 47.609375 24.75 44.3125 27.78125 
Q 41.015625 30.8125 33.5 32.328125 
L 27.484375 33.5 
Q 16.453125 35.6875 11.515625 40.375 
Q 6.59375 45.0625 6.59375 53.421875 
Q 6.59375 63.09375 13.40625 68.65625 
Q 20.21875 74.21875 32.171875 74.21875 
Q 37.3125 74.21875 42.625 73.28125 
Q 47.953125 72.359375 53.515625 70.515625 
z
" id="DejaVuSans-53"/>
     </defs>
     <g transform="translate(997.792187 117.676562)scale(0.1 -0.1)">
      <use xlink:href="#DejaVuSans-53"/>
      <use x="63.476562" xlink:href="#DejaVuSans-47"/>
      <use x="140.966797" xlink:href="#DejaVuSans-44"/>
     </g>
    </g>
    <g id="line2d_20">
     <path d="M 969.792187 128.854687 
L 989.792187 128.854687 
" style="fill:none;stroke:#2ca02c;stroke-linecap:square;stroke-width:1.5;"/>
    </g>
    <g id="line2d_21"/>
    <g id="text_17">
     <!-- IRLS -->
     <defs>
      <path d="M 44.390625 34.1875 
Q 47.5625 33.109375 50.5625 29.59375 
Q 53.5625 26.078125 56.59375 19.921875 
L 66.609375 0 
L 56 0 
L 46.6875 18.703125 
Q 43.0625 26.03125 39.671875 28.421875 
Q 36.28125 30.8125 30.421875 30.8125 
L 19.671875 30.8125 
L 19.671875 0 
L 9.8125 0 
L 9.8125 72.90625 
L 32.078125 72.90625 
Q 44.578125 72.90625 50.734375 67.671875 
Q 56.890625 62.453125 56.890625 51.90625 
Q 56.890625 45.015625 53.6875 40.46875 
Q 50.484375 35.9375 44.390625 34.1875 
z
M 19.671875 64.796875 
L 19.671875 38.921875 
L 32.078125 38.921875 
Q 39.203125 38.921875 42.84375 42.21875 
Q 46.484375 45.515625 46.484375 51.90625 
Q 46.484375 58.296875 42.84375 61.546875 
Q 39.203125 64.796875 32.078125 64.796875 
z
" id="DejaVuSans-52"/>
     </defs>
     <g transform="translate(997.792187 132.354687)scale(0.1 -0.1)">
      <use xlink:href="#DejaVuSans-49"/>
      <use x="29.492188" xlink:href="#DejaVuSans-52"/>
      <use x="98.974609" xlink:href="#DejaVuSans-4c"/>
      <use x="154.6875" xlink:href="#DejaVuSans-53"/>
     </g>
    </g>
    <g id="line2d_22">
     <path d="M 969.792187 143.532812 
L 989.792187 143.532812 
" style="fill:none;stroke:#d62728;stroke-linecap:square;stroke-width:1.5;"/>
    </g>
    <g id="line2d_23"/>
    <g id="text_18">
     <!-- ADAM -->
     <defs>
      <path d="M 9.8125 72.90625 
L 24.515625 72.90625 
L 43.109375 23.296875 
L 61.8125 72.90625 
L 76.515625 72.90625 
L 76.515625 0 
L 66.890625 0 
L 66.890625 64.015625 
L 48.09375 14.015625 
L 38.1875 14.015625 
L 19.390625 64.015625 
L 19.390625 0 
L 9.8125 0 
z
" id="DejaVuSans-4d"/>
     </defs>
     <g transform="translate(997.792187 147.032812)scale(0.1 -0.1)">
      <use xlink:href="#DejaVuSans-41"/>
      <use x="68.408203" xlink:href="#DejaVuSans-44"/>
      <use x="145.394531" xlink:href="#DejaVuSans-41"/>
      <use x="213.802734" xlink:href="#DejaVuSans-4d"/>
     </g>
    </g>
   </g>
  </g>
 </g>
 <defs>
  <clipPath id="p5e2f4dfdfb">
   <rect height="543.6" width="892.8" x="144" y="86.4"/>
  </clipPath>
 </defs>
</svg>
