<?xml version="1.0" encoding="utf-8" standalone="no"?>
<!DOCTYPE svg PUBLIC "-//W3C//DTD SVG 1.1//EN"
  "http://www.w3.org/Graphics/SVG/1.1/DTD/svg11.dtd">
<!-- Created with matplotlib (http://matplotlib.org/) -->
<svg height="720pt" version="1.1" viewBox="0 0 1152 720" width="1152pt" xmlns="http://www.w3.org/2000/svg" xmlns:xlink="http://www.w3.org/1999/xlink">
 <defs>
  <style type="text/css">
*{stroke-linecap:butt;stroke-linejoin:round;}
  </style>
 </defs>
 <g id="figure_1">
  <g id="patch_1">
   <path d="M 0 720 
L 1152 720 
L 1152 0 
L 0 0 
z
" style="fill:#ffffff;"/>
  </g>
  <g id="axes_1">
   <g id="patch_2">
    <path d="M 144 630 
L 1036.8 630 
L 1036.8 86.4 
L 144 86.4 
z
" style="fill:#ffffff;"/>
   </g>
   <g id="matplotlib.axis_1">
    <g id="xtick_1">
     <g id="line2d_1">
      <defs>
       <path d="M 0 0 
L 0 3.5 
" id="mfcdc75039e" style="stroke:#000000;stroke-width:0.8;"/>
      </defs>
      <g>
       <use style="stroke:#000000;stroke-width:0.8;" x="184.581818" xlink:href="#mfcdc75039e" y="630"/>
      </g>
     </g>
     <g id="text_1">
      <!-- 0 -->
      <defs>
       <path d="M 31.78125 66.40625 
Q 24.171875 66.40625 20.328125 58.90625 
Q 16.5 51.421875 16.5 36.375 
Q 16.5 21.390625 20.328125 13.890625 
Q 24.171875 6.390625 31.78125 6.390625 
Q 39.453125 6.390625 43.28125 13.890625 
Q 47.125 21.390625 47.125 36.375 
Q 47.125 51.421875 43.28125 58.90625 
Q 39.453125 66.40625 31.78125 66.40625 
z
M 31.78125 74.21875 
Q 44.046875 74.21875 50.515625 64.515625 
Q 56.984375 54.828125 56.984375 36.375 
Q 56.984375 17.96875 50.515625 8.265625 
Q 44.046875 -1.421875 31.78125 -1.421875 
Q 19.53125 -1.421875 13.0625 8.265625 
Q 6.59375 17.96875 6.59375 36.375 
Q 6.59375 54.828125 13.0625 64.515625 
Q 19.53125 74.21875 31.78125 74.21875 
z
" id="DejaVuSans-30"/>
      </defs>
      <g transform="translate(181.400568 644.598438)scale(0.1 -0.1)">
       <use xlink:href="#DejaVuSans-30"/>
      </g>
     </g>
    </g>
    <g id="xtick_2">
     <g id="line2d_2">
      <g>
       <use style="stroke:#000000;stroke-width:0.8;" x="347.071581" xlink:href="#mfcdc75039e" y="630"/>
      </g>
     </g>
     <g id="text_2">
      <!-- 200 -->
      <defs>
       <path d="M 19.1875 8.296875 
L 53.609375 8.296875 
L 53.609375 0 
L 7.328125 0 
L 7.328125 8.296875 
Q 12.9375 14.109375 22.625 23.890625 
Q 32.328125 33.6875 34.8125 36.53125 
Q 39.546875 41.84375 41.421875 45.53125 
Q 43.3125 49.21875 43.3125 52.78125 
Q 43.3125 58.59375 39.234375 62.25 
Q 35.15625 65.921875 28.609375 65.921875 
Q 23.96875 65.921875 18.8125 64.3125 
Q 13.671875 62.703125 7.8125 59.421875 
L 7.8125 69.390625 
Q 13.765625 71.78125 18.9375 73 
Q 24.125 74.21875 28.421875 74.21875 
Q 39.75 74.21875 46.484375 68.546875 
Q 53.21875 62.890625 53.21875 53.421875 
Q 53.21875 48.921875 51.53125 44.890625 
Q 49.859375 40.875 45.40625 35.40625 
Q 44.1875 33.984375 37.640625 27.21875 
Q 31.109375 20.453125 19.1875 8.296875 
z
" id="DejaVuSans-32"/>
      </defs>
      <g transform="translate(337.527831 644.598438)scale(0.1 -0.1)">
       <use xlink:href="#DejaVuSans-32"/>
       <use x="63.623047" xlink:href="#DejaVuSans-30"/>
       <use x="127.246094" xlink:href="#DejaVuSans-30"/>
      </g>
     </g>
    </g>
    <g id="xtick_3">
     <g id="line2d_3">
      <g>
       <use style="stroke:#000000;stroke-width:0.8;" x="509.561343" xlink:href="#mfcdc75039e" y="630"/>
      </g>
     </g>
     <g id="text_3">
      <!-- 400 -->
      <defs>
       <path d="M 37.796875 64.3125 
L 12.890625 25.390625 
L 37.796875 25.390625 
z
M 35.203125 72.90625 
L 47.609375 72.90625 
L 47.609375 25.390625 
L 58.015625 25.390625 
L 58.015625 17.1875 
L 47.609375 17.1875 
L 47.609375 0 
L 37.796875 0 
L 37.796875 17.1875 
L 4.890625 17.1875 
L 4.890625 26.703125 
z
" id="DejaVuSans-34"/>
      </defs>
      <g transform="translate(500.017593 644.598438)scale(0.1 -0.1)">
       <use xlink:href="#DejaVuSans-34"/>
       <use x="63.623047" xlink:href="#DejaVuSans-30"/>
       <use x="127.246094" xlink:href="#DejaVuSans-30"/>
      </g>
     </g>
    </g>
    <g id="xtick_4">
     <g id="line2d_4">
      <g>
       <use style="stroke:#000000;stroke-width:0.8;" x="672.051106" xlink:href="#mfcdc75039e" y="630"/>
      </g>
     </g>
     <g id="text_4">
      <!-- 600 -->
      <defs>
       <path d="M 33.015625 40.375 
Q 26.375 40.375 22.484375 35.828125 
Q 18.609375 31.296875 18.609375 23.390625 
Q 18.609375 15.53125 22.484375 10.953125 
Q 26.375 6.390625 33.015625 6.390625 
Q 39.65625 6.390625 43.53125 10.953125 
Q 47.40625 15.53125 47.40625 23.390625 
Q 47.40625 31.296875 43.53125 35.828125 
Q 39.65625 40.375 33.015625 40.375 
z
M 52.59375 71.296875 
L 52.59375 62.3125 
Q 48.875 64.0625 45.09375 64.984375 
Q 41.3125 65.921875 37.59375 65.921875 
Q 27.828125 65.921875 22.671875 59.328125 
Q 17.53125 52.734375 16.796875 39.40625 
Q 19.671875 43.65625 24.015625 45.921875 
Q 28.375 48.1875 33.59375 48.1875 
Q 44.578125 48.1875 50.953125 41.515625 
Q 57.328125 34.859375 57.328125 23.390625 
Q 57.328125 12.15625 50.6875 5.359375 
Q 44.046875 -1.421875 33.015625 -1.421875 
Q 20.359375 -1.421875 13.671875 8.265625 
Q 6.984375 17.96875 6.984375 36.375 
Q 6.984375 53.65625 15.1875 63.9375 
Q 23.390625 74.21875 37.203125 74.21875 
Q 40.921875 74.21875 44.703125 73.484375 
Q 48.484375 72.75 52.59375 71.296875 
z
" id="DejaVuSans-36"/>
      </defs>
      <g transform="translate(662.507356 644.598438)scale(0.1 -0.1)">
       <use xlink:href="#DejaVuSans-36"/>
       <use x="63.623047" xlink:href="#DejaVuSans-30"/>
       <use x="127.246094" xlink:href="#DejaVuSans-30"/>
      </g>
     </g>
    </g>
    <g id="xtick_5">
     <g id="line2d_5">
      <g>
       <use style="stroke:#000000;stroke-width:0.8;" x="834.540868" xlink:href="#mfcdc75039e" y="630"/>
      </g>
     </g>
     <g id="text_5">
      <!-- 800 -->
      <defs>
       <path d="M 31.78125 34.625 
Q 24.75 34.625 20.71875 30.859375 
Q 16.703125 27.09375 16.703125 20.515625 
Q 16.703125 13.921875 20.71875 10.15625 
Q 24.75 6.390625 31.78125 6.390625 
Q 38.8125 6.390625 42.859375 10.171875 
Q 46.921875 13.96875 46.921875 20.515625 
Q 46.921875 27.09375 42.890625 30.859375 
Q 38.875 34.625 31.78125 34.625 
z
M 21.921875 38.8125 
Q 15.578125 40.375 12.03125 44.71875 
Q 8.5 49.078125 8.5 55.328125 
Q 8.5 64.0625 14.71875 69.140625 
Q 20.953125 74.21875 31.78125 74.21875 
Q 42.671875 74.21875 48.875 69.140625 
Q 55.078125 64.0625 55.078125 55.328125 
Q 55.078125 49.078125 51.53125 44.71875 
Q 48 40.375 41.703125 38.8125 
Q 48.828125 37.15625 52.796875 32.3125 
Q 56.78125 27.484375 56.78125 20.515625 
Q 56.78125 9.90625 50.3125 4.234375 
Q 43.84375 -1.421875 31.78125 -1.421875 
Q 19.734375 -1.421875 13.25 4.234375 
Q 6.78125 9.90625 6.78125 20.515625 
Q 6.78125 27.484375 10.78125 32.3125 
Q 14.796875 37.15625 21.921875 38.8125 
z
M 18.3125 54.390625 
Q 18.3125 48.734375 21.84375 45.5625 
Q 25.390625 42.390625 31.78125 42.390625 
Q 38.140625 42.390625 41.71875 45.5625 
Q 45.3125 48.734375 45.3125 54.390625 
Q 45.3125 60.0625 41.71875 63.234375 
Q 38.140625 66.40625 31.78125 66.40625 
Q 25.390625 66.40625 21.84375 63.234375 
Q 18.3125 60.0625 18.3125 54.390625 
z
" id="DejaVuSans-38"/>
      </defs>
      <g transform="translate(824.997118 644.598438)scale(0.1 -0.1)">
       <use xlink:href="#DejaVuSans-38"/>
       <use x="63.623047" xlink:href="#DejaVuSans-30"/>
       <use x="127.246094" xlink:href="#DejaVuSans-30"/>
      </g>
     </g>
    </g>
    <g id="xtick_6">
     <g id="line2d_6">
      <g>
       <use style="stroke:#000000;stroke-width:0.8;" x="997.030631" xlink:href="#mfcdc75039e" y="630"/>
      </g>
     </g>
     <g id="text_6">
      <!-- 1000 -->
      <defs>
       <path d="M 12.40625 8.296875 
L 28.515625 8.296875 
L 28.515625 63.921875 
L 10.984375 60.40625 
L 10.984375 69.390625 
L 28.421875 72.90625 
L 38.28125 72.90625 
L 38.28125 8.296875 
L 54.390625 8.296875 
L 54.390625 0 
L 12.40625 0 
z
" id="DejaVuSans-31"/>
      </defs>
      <g transform="translate(984.305631 644.598438)scale(0.1 -0.1)">
       <use xlink:href="#DejaVuSans-31"/>
       <use x="63.623047" xlink:href="#DejaVuSans-30"/>
       <use x="127.246094" xlink:href="#DejaVuSans-30"/>
       <use x="190.869141" xlink:href="#DejaVuSans-30"/>
      </g>
     </g>
    </g>
    <g id="text_7">
     <!-- Iteration -->
     <defs>
      <path d="M 9.8125 72.90625 
L 19.671875 72.90625 
L 19.671875 0 
L 9.8125 0 
z
" id="DejaVuSans-49"/>
      <path d="M 18.3125 70.21875 
L 18.3125 54.6875 
L 36.8125 54.6875 
L 36.8125 47.703125 
L 18.3125 47.703125 
L 18.3125 18.015625 
Q 18.3125 11.328125 20.140625 9.421875 
Q 21.96875 7.515625 27.59375 7.515625 
L 36.8125 7.515625 
L 36.8125 0 
L 27.59375 0 
Q 17.1875 0 13.234375 3.875 
Q 9.28125 7.765625 9.28125 18.015625 
L 9.28125 47.703125 
L 2.6875 47.703125 
L 2.6875 54.6875 
L 9.28125 54.6875 
L 9.28125 70.21875 
z
" id="DejaVuSans-74"/>
      <path d="M 56.203125 29.59375 
L 56.203125 25.203125 
L 14.890625 25.203125 
Q 15.484375 15.921875 20.484375 11.0625 
Q 25.484375 6.203125 34.421875 6.203125 
Q 39.59375 6.203125 44.453125 7.46875 
Q 49.3125 8.734375 54.109375 11.28125 
L 54.109375 2.78125 
Q 49.265625 0.734375 44.1875 -0.34375 
Q 39.109375 -1.421875 33.890625 -1.421875 
Q 20.796875 -1.421875 13.15625 6.1875 
Q 5.515625 13.8125 5.515625 26.8125 
Q 5.515625 40.234375 12.765625 48.109375 
Q 20.015625 56 32.328125 56 
Q 43.359375 56 49.78125 48.890625 
Q 56.203125 41.796875 56.203125 29.59375 
z
M 47.21875 32.234375 
Q 47.125 39.59375 43.09375 43.984375 
Q 39.0625 48.390625 32.421875 48.390625 
Q 24.90625 48.390625 20.390625 44.140625 
Q 15.875 39.890625 15.1875 32.171875 
z
" id="DejaVuSans-65"/>
      <path d="M 41.109375 46.296875 
Q 39.59375 47.171875 37.8125 47.578125 
Q 36.03125 48 33.890625 48 
Q 26.265625 48 22.1875 43.046875 
Q 18.109375 38.09375 18.109375 28.8125 
L 18.109375 0 
L 9.078125 0 
L 9.078125 54.6875 
L 18.109375 54.6875 
L 18.109375 46.1875 
Q 20.953125 51.171875 25.484375 53.578125 
Q 30.03125 56 36.53125 56 
Q 37.453125 56 38.578125 55.875 
Q 39.703125 55.765625 41.0625 55.515625 
z
" id="DejaVuSans-72"/>
      <path d="M 34.28125 27.484375 
Q 23.390625 27.484375 19.1875 25 
Q 14.984375 22.515625 14.984375 16.5 
Q 14.984375 11.71875 18.140625 8.90625 
Q 21.296875 6.109375 26.703125 6.109375 
Q 34.1875 6.109375 38.703125 11.40625 
Q 43.21875 16.703125 43.21875 25.484375 
L 43.21875 27.484375 
z
M 52.203125 31.203125 
L 52.203125 0 
L 43.21875 0 
L 43.21875 8.296875 
Q 40.140625 3.328125 35.546875 0.953125 
Q 30.953125 -1.421875 24.3125 -1.421875 
Q 15.921875 -1.421875 10.953125 3.296875 
Q 6 8.015625 6 15.921875 
Q 6 25.140625 12.171875 29.828125 
Q 18.359375 34.515625 30.609375 34.515625 
L 43.21875 34.515625 
L 43.21875 35.40625 
Q 43.21875 41.609375 39.140625 45 
Q 35.0625 48.390625 27.6875 48.390625 
Q 23 48.390625 18.546875 47.265625 
Q 14.109375 46.140625 10.015625 43.890625 
L 10.015625 52.203125 
Q 14.9375 54.109375 19.578125 55.046875 
Q 24.21875 56 28.609375 56 
Q 40.484375 56 46.34375 49.84375 
Q 52.203125 43.703125 52.203125 31.203125 
z
" id="DejaVuSans-61"/>
      <path d="M 9.421875 54.6875 
L 18.40625 54.6875 
L 18.40625 0 
L 9.421875 0 
z
M 9.421875 75.984375 
L 18.40625 75.984375 
L 18.40625 64.59375 
L 9.421875 64.59375 
z
" id="DejaVuSans-69"/>
      <path d="M 30.609375 48.390625 
Q 23.390625 48.390625 19.1875 42.75 
Q 14.984375 37.109375 14.984375 27.296875 
Q 14.984375 17.484375 19.15625 11.84375 
Q 23.34375 6.203125 30.609375 6.203125 
Q 37.796875 6.203125 41.984375 11.859375 
Q 46.1875 17.53125 46.1875 27.296875 
Q 46.1875 37.015625 41.984375 42.703125 
Q 37.796875 48.390625 30.609375 48.390625 
z
M 30.609375 56 
Q 42.328125 56 49.015625 48.375 
Q 55.71875 40.765625 55.71875 27.296875 
Q 55.71875 13.875 49.015625 6.21875 
Q 42.328125 -1.421875 30.609375 -1.421875 
Q 18.84375 -1.421875 12.171875 6.21875 
Q 5.515625 13.875 5.515625 27.296875 
Q 5.515625 40.765625 12.171875 48.375 
Q 18.84375 56 30.609375 56 
z
" id="DejaVuSans-6f"/>
      <path d="M 54.890625 33.015625 
L 54.890625 0 
L 45.90625 0 
L 45.90625 32.71875 
Q 45.90625 40.484375 42.875 44.328125 
Q 39.84375 48.1875 33.796875 48.1875 
Q 26.515625 48.1875 22.3125 43.546875 
Q 18.109375 38.921875 18.109375 30.90625 
L 18.109375 0 
L 9.078125 0 
L 9.078125 54.6875 
L 18.109375 54.6875 
L 18.109375 46.1875 
Q 21.34375 51.125 25.703125 53.5625 
Q 30.078125 56 35.796875 56 
Q 45.21875 56 50.046875 50.171875 
Q 54.890625 44.34375 54.890625 33.015625 
z
" id="DejaVuSans-6e"/>
     </defs>
     <g transform="translate(553.75155 663.808225)scale(0.1728 -0.1728)">
      <use xlink:href="#DejaVuSans-49"/>
      <use x="29.492188" xlink:href="#DejaVuSans-74"/>
      <use x="68.701172" xlink:href="#DejaVuSans-65"/>
      <use x="130.224609" xlink:href="#DejaVuSans-72"/>
      <use x="171.337891" xlink:href="#DejaVuSans-61"/>
      <use x="232.617188" xlink:href="#DejaVuSans-74"/>
      <use x="271.826172" xlink:href="#DejaVuSans-69"/>
      <use x="299.609375" xlink:href="#DejaVuSans-6f"/>
      <use x="360.791016" xlink:href="#DejaVuSans-6e"/>
     </g>
    </g>
   </g>
   <g id="matplotlib.axis_2">
    <g id="ytick_1">
     <g id="line2d_7">
      <defs>
       <path d="M 0 0 
L -3.5 0 
" id="m95484f4dd3" style="stroke:#000000;stroke-width:0.8;"/>
      </defs>
      <g>
       <use style="stroke:#000000;stroke-width:0.8;" x="144" xlink:href="#m95484f4dd3" y="609.308729"/>
      </g>
     </g>
     <g id="text_8">
      <!-- 0 -->
      <g transform="translate(130.6375 613.107947)scale(0.1 -0.1)">
       <use xlink:href="#DejaVuSans-30"/>
      </g>
     </g>
    </g>
    <g id="ytick_2">
     <g id="line2d_8">
      <g>
       <use style="stroke:#000000;stroke-width:0.8;" x="144" xlink:href="#m95484f4dd3" y="494.24068"/>
      </g>
     </g>
     <g id="text_9">
      <!-- 5 -->
      <defs>
       <path d="M 10.796875 72.90625 
L 49.515625 72.90625 
L 49.515625 64.59375 
L 19.828125 64.59375 
L 19.828125 46.734375 
Q 21.96875 47.46875 24.109375 47.828125 
Q 26.265625 48.1875 28.421875 48.1875 
Q 40.625 48.1875 47.75 41.5 
Q 54.890625 34.8125 54.890625 23.390625 
Q 54.890625 11.625 47.5625 5.09375 
Q 40.234375 -1.421875 26.90625 -1.421875 
Q 22.3125 -1.421875 17.546875 -0.640625 
Q 12.796875 0.140625 7.71875 1.703125 
L 7.71875 11.625 
Q 12.109375 9.234375 16.796875 8.0625 
Q 21.484375 6.890625 26.703125 6.890625 
Q 35.15625 6.890625 40.078125 11.328125 
Q 45.015625 15.765625 45.015625 23.390625 
Q 45.015625 31 40.078125 35.4375 
Q 35.15625 39.890625 26.703125 39.890625 
Q 22.75 39.890625 18.8125 39.015625 
Q 14.890625 38.140625 10.796875 36.28125 
z
" id="DejaVuSans-35"/>
      </defs>
      <g transform="translate(130.6375 498.039899)scale(0.1 -0.1)">
       <use xlink:href="#DejaVuSans-35"/>
      </g>
     </g>
    </g>
    <g id="ytick_3">
     <g id="line2d_9">
      <g>
       <use style="stroke:#000000;stroke-width:0.8;" x="144" xlink:href="#m95484f4dd3" y="379.172632"/>
      </g>
     </g>
     <g id="text_10">
      <!-- 10 -->
      <g transform="translate(124.275 382.97185)scale(0.1 -0.1)">
       <use xlink:href="#DejaVuSans-31"/>
       <use x="63.623047" xlink:href="#DejaVuSans-30"/>
      </g>
     </g>
    </g>
    <g id="ytick_4">
     <g id="line2d_10">
      <g>
       <use style="stroke:#000000;stroke-width:0.8;" x="144" xlink:href="#m95484f4dd3" y="264.104583"/>
      </g>
     </g>
     <g id="text_11">
      <!-- 15 -->
      <g transform="translate(124.275 267.903802)scale(0.1 -0.1)">
       <use xlink:href="#DejaVuSans-31"/>
       <use x="63.623047" xlink:href="#DejaVuSans-35"/>
      </g>
     </g>
    </g>
    <g id="ytick_5">
     <g id="line2d_11">
      <g>
       <use style="stroke:#000000;stroke-width:0.8;" x="144" xlink:href="#m95484f4dd3" y="149.036535"/>
      </g>
     </g>
     <g id="text_12">
      <!-- 20 -->
      <g transform="translate(124.275 152.835754)scale(0.1 -0.1)">
       <use xlink:href="#DejaVuSans-32"/>
       <use x="63.623047" xlink:href="#DejaVuSans-30"/>
      </g>
     </g>
    </g>
    <g id="text_13">
     <!-- Loss -->
     <defs>
      <path d="M 9.8125 72.90625 
L 19.671875 72.90625 
L 19.671875 8.296875 
L 55.171875 8.296875 
L 55.171875 0 
L 9.8125 0 
z
" id="DejaVuSans-4c"/>
      <path d="M 44.28125 53.078125 
L 44.28125 44.578125 
Q 40.484375 46.53125 36.375 47.5 
Q 32.28125 48.484375 27.875 48.484375 
Q 21.1875 48.484375 17.84375 46.4375 
Q 14.5 44.390625 14.5 40.28125 
Q 14.5 37.15625 16.890625 35.375 
Q 19.28125 33.59375 26.515625 31.984375 
L 29.59375 31.296875 
Q 39.15625 29.25 43.1875 25.515625 
Q 47.21875 21.78125 47.21875 15.09375 
Q 47.21875 7.46875 41.1875 3.015625 
Q 35.15625 -1.421875 24.609375 -1.421875 
Q 20.21875 -1.421875 15.453125 -0.5625 
Q 10.6875 0.296875 5.421875 2 
L 5.421875 11.28125 
Q 10.40625 8.6875 15.234375 7.390625 
Q 20.0625 6.109375 24.8125 6.109375 
Q 31.15625 6.109375 34.5625 8.28125 
Q 37.984375 10.453125 37.984375 14.40625 
Q 37.984375 18.0625 35.515625 20.015625 
Q 33.0625 21.96875 24.703125 23.78125 
L 21.578125 24.515625 
Q 13.234375 26.265625 9.515625 29.90625 
Q 5.8125 33.546875 5.8125 39.890625 
Q 5.8125 47.609375 11.28125 51.796875 
Q 16.75 56 26.8125 56 
Q 31.78125 56 36.171875 55.265625 
Q 40.578125 54.546875 44.28125 53.078125 
z
" id="DejaVuSans-73"/>
     </defs>
     <g transform="translate(116.6813 377.30115)rotate(-90)scale(0.1728 -0.1728)">
      <use xlink:href="#DejaVuSans-4c"/>
      <use x="55.697266" xlink:href="#DejaVuSans-6f"/>
      <use x="116.878906" xlink:href="#DejaVuSans-73"/>
      <use x="168.978516" xlink:href="#DejaVuSans-73"/>
     </g>
    </g>
   </g>
   <g id="line2d_12">
    <path clip-path="url(#p7750b1da4f)" d="M 184.581818 409.763078 
L 185.394267 437.739046 
L 186.206716 240.26694 
L 187.019165 534.781379 
L 187.831613 111.109091 
L 188.644062 295.944075 
L 189.456511 549.581069 
L 190.26896 572.047272 
L 191.081409 575.885459 
L 191.893857 376.477824 
L 192.706306 312.71853 
L 193.518755 312.636564 
L 194.331204 420.261545 
L 195.143653 561.063983 
L 195.956102 567.278503 
L 196.76855 120.150233 
L 197.580999 507.948397 
L 198.393448 314.241372 
L 199.205897 486.906857 
L 200.018346 111.57007 
L 200.830794 558.154664 
L 201.643243 268.268245 
L 202.455692 318.512669 
L 203.268141 505.750853 
L 204.08059 532.286236 
L 204.893038 579.110622 
L 205.705487 577.123821 
L 206.517936 577.690791 
L 207.330385 574.619266 
L 208.142834 421.120225 
L 208.955283 566.099315 
L 209.767731 422.531913 
L 210.58018 382.159877 
L 211.392629 546.861895 
L 212.205078 565.499002 
L 213.017527 558.897721 
L 213.829975 584.13254 
L 214.642424 324.986024 
L 215.454873 583.919035 
L 216.267322 581.952986 
L 217.079771 466.757126 
L 217.892219 140.538795 
L 218.704668 315.435231 
L 219.517117 518.800385 
L 220.329566 314.753498 
L 221.142015 565.074228 
L 221.954464 521.87007 
L 222.766912 578.19847 
L 223.579361 570.913533 
L 224.39181 366.262843 
L 225.204259 308.815586 
L 226.016708 538.429107 
L 226.829156 502.986693 
L 227.641605 557.424586 
L 228.454054 556.734102 
L 229.266503 526.765761 
L 230.078952 581.602466 
L 230.8914 571.410039 
L 231.703849 575.307146 
L 232.516298 570.887309 
L 233.328747 581.197381 
L 234.141196 580.66612 
L 234.953645 553.670877 
L 235.766093 577.940889 
L 236.578542 497.467619 
L 237.390991 580.707989 
L 238.20344 581.311233 
L 239.828337 486.796346 
L 240.640786 564.399977 
L 241.453235 312.634914 
L 242.265684 549.738099 
L 243.078133 530.423273 
L 243.890581 546.428735 
L 244.70303 581.070245 
L 245.515479 554.743611 
L 246.327928 336.826767 
L 247.140377 424.46767 
L 247.952826 577.170283 
L 248.765274 578.603494 
L 249.577723 502.1109 
L 250.390172 563.503654 
L 251.202621 576.5623 
L 252.01507 549.056153 
L 252.827518 580.305576 
L 253.639967 515.601851 
L 254.452416 579.912522 
L 255.264865 580.837736 
L 256.077314 518.919622 
L 256.889762 567.923338 
L 257.702211 545.979661 
L 258.51466 569.578453 
L 259.327109 578.000087 
L 260.139558 580.348057 
L 260.952007 303.670948 
L 261.764455 561.851928 
L 262.576904 580.617438 
L 263.389353 519.364098 
L 264.201802 317.155436 
L 265.014251 448.931987 
L 265.826699 471.141785 
L 266.639148 580.181694 
L 267.451597 561.559442 
L 268.264046 572.551678 
L 269.076495 509.792588 
L 269.888943 579.998575 
L 270.701392 575.141398 
L 271.513841 577.94961 
L 272.32629 464.200787 
L 273.138739 580.733703 
L 273.951188 578.718237 
L 274.763636 364.582885 
L 275.576085 576.191726 
L 277.200983 507.427619 
L 278.013432 572.8285 
L 278.82588 526.569936 
L 279.638329 573.154621 
L 280.450778 490.480071 
L 281.263227 536.76901 
L 282.075676 574.638372 
L 282.888124 579.057372 
L 283.700573 565.023874 
L 284.513022 576.618133 
L 285.325471 581.213688 
L 286.13792 487.759023 
L 286.950369 564.556192 
L 287.762817 578.190872 
L 288.575266 574.332999 
L 289.387715 456.695265 
L 290.200164 581.384702 
L 291.012613 546.93051 
L 291.825061 312.634914 
L 292.63751 578.529388 
L 293.449959 579.090452 
L 294.262408 312.634914 
L 295.074857 555.159489 
L 295.887305 570.418897 
L 296.699754 566.229399 
L 297.512203 550.028249 
L 298.324652 503.242697 
L 299.137101 581.31179 
L 299.94955 460.937972 
L 300.761998 551.126676 
L 301.574447 576.250072 
L 302.386896 575.945029 
L 303.199345 562.815114 
L 304.011794 580.572909 
L 304.824242 548.522243 
L 305.636691 567.574876 
L 306.44914 498.848801 
L 307.261589 452.938446 
L 308.074038 520.577665 
L 308.886486 562.291389 
L 309.698935 527.097266 
L 310.511384 525.755776 
L 311.323833 568.264282 
L 312.136282 581.694467 
L 312.948731 524.017917 
L 313.761179 579.694603 
L 314.573628 539.997911 
L 315.386077 582.137895 
L 316.198526 535.080269 
L 317.010975 560.615174 
L 317.823423 581.339612 
L 318.635872 582.2415 
L 319.448321 580.27883 
L 320.26077 448.302757 
L 321.073219 243.079357 
L 321.885667 546.105871 
L 322.698116 559.393465 
L 323.510565 576.598881 
L 324.323014 581.412678 
L 325.135463 312.634914 
L 325.947912 516.50969 
L 326.76036 461.789537 
L 327.572809 556.556805 
L 328.385258 577.898035 
L 329.197707 582.011228 
L 330.010156 528.590877 
L 330.822604 569.943168 
L 331.635053 582.112261 
L 332.447502 574.940472 
L 333.259951 561.591931 
L 334.0724 469.081159 
L 334.884848 582.272798 
L 335.697297 580.252871 
L 336.509746 582.362655 
L 338.134644 472.051323 
L 338.947093 520.568113 
L 339.759541 576.558785 
L 340.57199 371.018929 
L 341.384439 491.517875 
L 342.196888 551.535857 
L 343.009337 577.944869 
L 343.821785 571.791493 
L 344.634234 504.964009 
L 345.446683 573.38083 
L 346.259132 313.240924 
L 347.071581 559.826882 
L 347.884029 582.917201 
L 348.696478 578.282629 
L 349.508927 580.114335 
L 350.321376 576.715571 
L 351.133825 264.189915 
L 351.946274 555.692631 
L 352.758722 568.967556 
L 353.571171 570.99384 
L 354.38362 312.634914 
L 355.196069 582.709922 
L 356.008518 531.453515 
L 356.820966 583.525777 
L 357.633415 579.476505 
L 358.445864 582.80914 
L 359.258313 561.169128 
L 360.070762 559.217073 
L 360.88321 475.331453 
L 361.695659 570.078939 
L 362.508108 330.318071 
L 363.320557 582.349831 
L 364.133006 583.275014 
L 364.945455 582.344904 
L 365.757903 582.973941 
L 366.570352 550.421554 
L 367.382801 583.338044 
L 368.19525 583.90018 
L 369.007699 570.673127 
L 369.820147 534.129271 
L 370.632596 312.634914 
L 371.445045 312.634914 
L 373.069943 576.912403 
L 373.882391 541.094604 
L 374.69484 444.072515 
L 375.507289 572.848693 
L 376.319738 583.394275 
L 377.132187 541.207901 
L 377.944636 574.447842 
L 378.757084 579.50843 
L 379.569533 572.100041 
L 380.381982 571.115989 
L 381.194431 580.396602 
L 382.00688 580.653732 
L 382.819328 572.779898 
L 383.631777 583.408031 
L 384.444226 314.448252 
L 385.256675 584.213426 
L 386.069124 547.477607 
L 386.881572 581.124848 
L 387.694021 430.94692 
L 388.50647 511.63617 
L 389.318919 154.519723 
L 390.131368 539.55995 
L 390.943817 568.17926 
L 391.756265 576.401818 
L 392.568714 524.574921 
L 393.381163 578.779186 
L 394.193612 302.133326 
L 395.006061 582.390417 
L 395.818509 574.117842 
L 396.630958 578.937533 
L 397.443407 516.918652 
L 398.255856 344.549256 
L 399.068305 577.868634 
L 399.880753 580.501849 
L 400.693202 538.658189 
L 401.505651 553.167447 
L 402.3181 545.914046 
L 403.130549 580.952331 
L 403.942998 582.730869 
L 404.755446 313.712105 
L 405.567895 583.937995 
L 406.380344 574.630207 
L 407.192793 562.839651 
L 408.005242 547.693432 
L 408.81769 541.659631 
L 409.630139 547.708832 
L 410.442588 584.695876 
L 411.255037 583.202769 
L 412.067486 528.233362 
L 412.879934 575.202463 
L 413.692383 575.222698 
L 414.504832 513.381718 
L 416.12973 579.529865 
L 416.942179 257.956543 
L 417.754627 580.60279 
L 418.567076 539.077803 
L 419.379525 312.634914 
L 420.191974 577.681605 
L 421.004423 584.877392 
L 421.816871 580.402342 
L 422.62932 574.410561 
L 423.441769 584.885224 
L 424.254218 585.307983 
L 425.066667 585.329581 
L 425.879115 312.96942 
L 426.691564 508.977337 
L 427.504013 585.320367 
L 428.316462 562.098433 
L 429.128911 488.588097 
L 429.94136 582.998382 
L 430.753808 571.86374 
L 431.566257 583.651802 
L 432.378706 569.265344 
L 433.191155 545.961343 
L 434.003604 580.834568 
L 434.816052 558.668984 
L 435.628501 584.226289 
L 436.44095 584.623502 
L 437.253399 572.576271 
L 438.065848 550.033796 
L 438.878296 585.843863 
L 439.690745 536.503068 
L 440.503194 505.471504 
L 441.315643 501.549527 
L 442.128092 569.621402 
L 442.940541 548.01067 
L 443.752989 209.799417 
L 444.565438 582.963937 
L 445.377887 534.568594 
L 446.190336 513.616279 
L 447.002785 576.077785 
L 447.815233 583.429612 
L 448.627682 585.7294 
L 449.440131 571.896421 
L 450.25258 578.315858 
L 451.065029 535.378275 
L 451.877477 577.045789 
L 452.689926 548.142622 
L 453.502375 583.926665 
L 454.314824 586.282171 
L 455.127273 579.105389 
L 455.939722 585.340405 
L 456.75217 527.166041 
L 457.564619 586.557074 
L 458.377068 585.851142 
L 459.189517 566.514623 
L 460.001966 312.634914 
L 460.814414 545.50863 
L 461.626863 341.341741 
L 462.439312 547.488647 
L 463.251761 575.516801 
L 464.06421 562.276868 
L 464.876658 312.654345 
L 465.689107 559.862082 
L 466.501556 564.230352 
L 467.314005 586.033031 
L 468.126454 569.427097 
L 468.938903 558.786834 
L 469.751351 563.660915 
L 470.5638 569.90695 
L 471.376249 570.675726 
L 472.188698 585.944483 
L 473.001147 335.888307 
L 473.813595 560.555621 
L 474.626044 509.427028 
L 475.438493 571.939573 
L 476.250942 532.168374 
L 477.063391 544.385727 
L 477.875839 580.358445 
L 478.688288 545.025096 
L 479.500737 576.731043 
L 480.313186 574.212714 
L 481.125635 488.730262 
L 481.938084 583.768587 
L 482.750532 314.548664 
L 483.562981 585.349847 
L 484.37543 325.322855 
L 485.187879 586.823892 
L 486.000328 560.769194 
L 486.812776 581.876213 
L 487.625225 538.509667 
L 488.437674 458.352058 
L 489.250123 391.695701 
L 490.062572 582.033145 
L 490.87502 586.726124 
L 491.687469 468.842824 
L 492.499918 586.901819 
L 493.312367 447.012917 
L 494.124816 447.062062 
L 494.937265 572.542884 
L 495.749713 500.099033 
L 496.562162 584.417106 
L 497.374611 585.300638 
L 498.18706 323.193437 
L 498.999509 548.136801 
L 499.811957 470.884067 
L 500.624406 569.128112 
L 501.436855 572.015929 
L 502.249304 575.429115 
L 503.061753 541.506218 
L 503.874201 560.226594 
L 504.68665 448.180819 
L 505.499099 585.770348 
L 506.311548 585.942633 
L 507.123997 322.175554 
L 507.936446 519.778863 
L 508.748894 586.177027 
L 509.561343 577.575153 
L 510.373792 387.872215 
L 511.186241 313.398814 
L 511.99869 586.221208 
L 512.811138 585.933608 
L 513.623587 573.05241 
L 514.436036 578.987284 
L 515.248485 491.970257 
L 516.060934 507.44776 
L 516.873382 586.373023 
L 517.685831 584.835139 
L 518.49828 535.134308 
L 519.310729 586.360357 
L 520.123178 521.128123 
L 520.935627 512.952644 
L 521.748075 564.932759 
L 522.560524 586.234427 
L 523.372973 568.536621 
L 524.997871 586.01325 
L 525.810319 586.308484 
L 526.622768 563.049943 
L 527.435217 544.31821 
L 528.247666 519.658518 
L 529.060115 585.272081 
L 529.872563 575.179953 
L 530.685012 586.556957 
L 531.497461 583.222288 
L 532.30991 585.13284 
L 533.122359 580.003312 
L 533.934808 334.00853 
L 534.747256 568.917934 
L 535.559705 450.819432 
L 536.372154 582.871814 
L 537.184603 585.173709 
L 537.997052 538.306805 
L 538.8095 566.34673 
L 539.621949 186.34055 
L 540.434398 561.252182 
L 541.246847 579.293788 
L 542.059296 586.706908 
L 542.871744 558.039373 
L 543.684193 583.067559 
L 544.496642 586.312137 
L 545.309091 586.973543 
L 546.12154 565.345702 
L 546.933989 549.46976 
L 547.746437 586.676066 
L 548.558886 586.78163 
L 549.371335 585.067107 
L 550.183784 586.850677 
L 550.996233 587.10783 
L 551.808681 586.509758 
L 552.62113 565.401698 
L 553.433579 370.816086 
L 554.246028 572.547038 
L 555.058477 563.919888 
L 555.870925 509.185441 
L 556.683374 563.207788 
L 557.495823 587.207164 
L 558.308272 583.682454 
L 559.120721 587.579012 
L 559.93317 573.649292 
L 560.745618 578.822191 
L 561.558067 587.426203 
L 562.370516 587.887081 
L 563.182965 210.657157 
L 563.995414 587.824773 
L 564.807862 551.298648 
L 565.620311 324.083765 
L 566.43276 580.301992 
L 567.245209 584.676923 
L 568.057658 569.625114 
L 568.870106 586.674766 
L 569.682555 546.430704 
L 570.495004 587.784623 
L 571.307453 584.323745 
L 572.119902 567.10312 
L 572.932351 314.109101 
L 573.744799 588.386079 
L 574.557248 540.87523 
L 575.369697 571.369626 
L 576.182146 573.585914 
L 576.994595 587.579963 
L 577.807043 543.359075 
L 578.619492 588.537424 
L 579.431941 526.716501 
L 580.24439 586.336994 
L 581.056839 515.452026 
L 581.869287 587.879633 
L 582.681736 588.237144 
L 583.494185 484.912949 
L 584.306634 457.254261 
L 585.119083 581.329419 
L 585.931532 551.801096 
L 586.74398 583.275125 
L 587.556429 563.027343 
L 588.368878 479.944776 
L 589.181327 588.119263 
L 589.993776 538.510981 
L 590.806224 475.825451 
L 591.618673 588.390961 
L 592.431122 588.084344 
L 593.243571 441.368994 
L 594.05602 490.650862 
L 594.868468 413.479591 
L 595.680917 530.042745 
L 596.493366 580.508336 
L 597.305815 587.256334 
L 598.118264 450.026148 
L 598.930713 580.999077 
L 599.743161 573.001492 
L 600.55561 571.980987 
L 601.368059 276.788685 
L 602.180508 559.261291 
L 602.992957 554.664128 
L 603.805405 582.879498 
L 605.430303 584.201246 
L 606.242752 542.728957 
L 607.055201 537.013932 
L 607.867649 587.984016 
L 608.680098 574.108475 
L 609.492547 576.579132 
L 610.304996 588.090312 
L 611.117445 499.215756 
L 611.929894 569.619334 
L 612.742342 564.684836 
L 613.554791 556.330572 
L 614.36724 587.99524 
L 615.179689 545.458295 
L 615.992138 471.014504 
L 616.804586 539.414212 
L 617.617035 543.697621 
L 618.429484 459.128788 
L 619.241933 588.033203 
L 620.054382 588.467855 
L 620.86683 587.239811 
L 621.679279 578.494262 
L 622.491728 586.456008 
L 623.304177 314.108852 
L 624.116626 588.96078 
L 624.929075 541.325094 
L 625.741523 586.452472 
L 626.553972 588.5483 
L 627.366421 258.725123 
L 628.17887 588.938479 
L 628.991319 589.154869 
L 629.803767 576.890321 
L 630.616216 407.567048 
L 631.428665 587.853809 
L 632.241114 578.4451 
L 633.053563 370.700688 
L 633.866011 400.3586 
L 634.67846 584.598724 
L 635.490909 587.025064 
L 636.303358 550.06015 
L 637.115807 589.049694 
L 637.928256 555.8227 
L 638.740704 197.404746 
L 639.553153 577.479052 
L 640.365602 589.077771 
L 641.178051 386.229926 
L 641.9905 579.906745 
L 642.802948 589.071789 
L 643.615397 587.991294 
L 644.427846 315.264488 
L 645.240295 569.271198 
L 646.052744 584.394384 
L 646.865192 523.975786 
L 647.677641 339.182249 
L 648.49009 585.463779 
L 649.302539 577.396993 
L 650.114988 588.09553 
L 650.927437 588.307236 
L 651.739885 551.502341 
L 652.552334 586.039707 
L 653.364783 488.320046 
L 654.177232 564.285176 
L 654.989681 580.006518 
L 655.802129 581.844027 
L 656.614578 588.797851 
L 657.427027 589.017455 
L 658.239476 589.112292 
L 659.051925 584.882808 
L 659.864373 553.022875 
L 660.676822 586.540197 
L 661.489271 557.265545 
L 662.30172 588.953211 
L 663.114169 579.568398 
L 663.926618 574.132293 
L 664.739066 583.708633 
L 665.551515 562.30704 
L 666.363964 418.983694 
L 667.176413 583.034334 
L 667.988862 533.203674 
L 668.80131 589.292337 
L 669.613759 557.410469 
L 670.426208 581.873952 
L 671.238657 588.706791 
L 672.051106 586.742897 
L 672.863554 589.767281 
L 673.676003 577.19885 
L 674.488452 589.854149 
L 675.300901 586.586805 
L 676.11335 565.294688 
L 676.925799 588.137956 
L 677.738247 584.71389 
L 678.550696 333.664418 
L 679.363145 561.105656 
L 680.175594 544.919549 
L 680.988043 577.515809 
L 681.800491 583.202009 
L 682.61294 552.53562 
L 683.425389 312.634914 
L 684.237838 342.66936 
L 685.050287 589.063289 
L 685.862735 572.07365 
L 686.675184 478.95536 
L 688.300082 524.824715 
L 689.112531 588.937899 
L 689.92498 588.182428 
L 691.549877 313.085853 
L 692.362326 549.930886 
L 693.174775 516.736513 
L 693.987224 422.408253 
L 694.799672 411.262887 
L 695.612121 555.233814 
L 696.42457 588.348102 
L 697.237019 579.073176 
L 698.049468 589.916263 
L 698.861916 589.115042 
L 699.674365 574.258442 
L 700.486814 543.62906 
L 701.299263 327.946036 
L 702.111712 588.870257 
L 702.924161 446.398911 
L 703.736609 584.373487 
L 704.549058 577.779849 
L 705.361507 579.002877 
L 706.173956 433.393159 
L 706.986405 547.531571 
L 707.798853 578.604629 
L 708.611302 560.630766 
L 709.423751 589.53742 
L 710.2362 579.783939 
L 711.048649 577.666809 
L 711.861097 545.679807 
L 712.673546 588.966799 
L 713.485995 581.378811 
L 714.298444 532.115343 
L 715.110893 579.619602 
L 715.923342 569.490835 
L 716.73579 589.37857 
L 717.548239 565.850472 
L 718.360688 495.531691 
L 719.173137 589.646586 
L 719.985586 589.928155 
L 720.798034 583.952756 
L 721.610483 586.994543 
L 722.422932 573.018621 
L 723.235381 589.871279 
L 724.04783 575.906549 
L 724.860278 588.81482 
L 725.672727 528.803614 
L 726.485176 299.6383 
L 727.297625 587.670843 
L 728.110074 589.358314 
L 728.922523 586.393524 
L 729.734971 495.990901 
L 730.54742 572.719856 
L 731.359869 586.821373 
L 732.172318 574.152827 
L 732.984767 587.515665 
L 733.797215 326.251385 
L 734.609664 570.607998 
L 735.422113 589.936638 
L 736.234562 587.362741 
L 737.047011 586.632953 
L 737.859459 536.121307 
L 738.671908 577.329753 
L 739.484357 530.354928 
L 740.296806 585.225747 
L 741.109255 590.45495 
L 741.921704 565.918726 
L 742.734152 587.453087 
L 743.546601 565.076015 
L 744.35905 590.171186 
L 745.171499 571.365481 
L 745.983948 548.82273 
L 746.796396 564.920205 
L 747.608845 589.420868 
L 748.421294 317.92574 
L 749.233743 589.859609 
L 750.046192 566.269536 
L 750.85864 532.696572 
L 751.671089 545.62133 
L 752.483538 447.568651 
L 753.295987 587.326927 
L 754.108436 414.457772 
L 754.920885 571.737841 
L 755.733333 587.633704 
L 756.545782 578.819812 
L 757.358231 587.899499 
L 758.17068 410.256904 
L 758.983129 560.845931 
L 759.795577 590.622719 
L 760.608026 589.729089 
L 761.420475 590.766214 
L 762.232924 589.694683 
L 763.045373 540.430932 
L 763.857821 153.751409 
L 764.67027 569.792243 
L 765.482719 533.28297 
L 766.295168 572.990686 
L 767.107617 590.636264 
L 767.920066 588.517331 
L 768.732514 572.786848 
L 769.544963 588.136205 
L 770.357412 589.589458 
L 771.169861 327.445367 
L 772.794758 590.651313 
L 773.607207 565.706393 
L 774.419656 579.673174 
L 775.232105 580.687905 
L 776.044554 590.825243 
L 776.857002 582.91875 
L 777.669451 589.90984 
L 778.4819 555.909673 
L 779.294349 577.58444 
L 780.106798 425.784908 
L 780.919247 589.688706 
L 781.731695 536.63023 
L 782.544144 586.477885 
L 783.356593 382.399217 
L 784.169042 558.406019 
L 784.981491 564.065799 
L 785.793939 587.153852 
L 786.606388 555.770554 
L 787.418837 586.137502 
L 788.231286 549.669156 
L 789.043735 590.729477 
L 789.856183 566.597313 
L 790.668632 587.230004 
L 791.481081 313.289862 
L 792.29353 589.188253 
L 793.105979 553.228453 
L 793.918428 588.872276 
L 794.730876 356.322139 
L 795.543325 580.250578 
L 796.355774 495.393841 
L 797.168223 590.808502 
L 797.980672 317.66066 
L 798.79312 577.100716 
L 799.605569 401.865083 
L 800.418018 590.646961 
L 801.230467 590.674969 
L 802.042916 589.931506 
L 802.855364 587.23578 
L 803.667813 556.197698 
L 804.480262 557.714766 
L 805.292711 579.961536 
L 806.10516 589.638146 
L 806.917609 314.792341 
L 807.730057 525.862069 
L 808.542506 537.097549 
L 809.354955 518.281769 
L 810.167404 589.126955 
L 810.979853 590.144745 
L 811.792301 444.826663 
L 812.60475 576.643202 
L 813.417199 587.458063 
L 814.229648 590.199897 
L 815.042097 575.839364 
L 815.854545 569.758156 
L 816.666994 549.571541 
L 817.479443 581.039271 
L 818.291892 564.151274 
L 819.104341 573.2258 
L 819.91679 590.141675 
L 820.729238 572.603352 
L 821.541687 587.055571 
L 822.354136 590.385149 
L 823.166585 585.027545 
L 823.979034 590.442895 
L 824.791482 584.955909 
L 825.603931 589.195482 
L 826.41638 582.56054 
L 827.228829 529.503971 
L 828.041278 576.852781 
L 828.853726 589.523065 
L 829.666175 508.622032 
L 830.478624 582.56637 
L 831.291073 429.65208 
L 832.103522 578.362804 
L 832.915971 581.623033 
L 833.728419 590.251611 
L 834.540868 566.658228 
L 835.353317 567.048918 
L 836.165766 589.484697 
L 836.978215 525.269737 
L 837.790663 577.789046 
L 838.603112 468.219989 
L 839.415561 590.927427 
L 840.22801 589.884325 
L 841.040459 523.95187 
L 841.852907 314.607664 
L 842.665356 590.992036 
L 843.477805 587.03358 
L 844.290254 586.821083 
L 845.102703 438.620985 
L 845.915152 582.852717 
L 846.7276 590.752344 
L 847.540049 591.292702 
L 848.352498 589.476273 
L 849.164947 361.253913 
L 849.977396 590.986519 
L 850.789844 587.725137 
L 851.602293 570.10446 
L 852.414742 358.771002 
L 853.227191 553.899772 
L 854.03964 588.461745 
L 854.852088 541.207358 
L 855.664537 590.768347 
L 856.476986 421.939376 
L 857.289435 582.757842 
L 858.101884 589.360417 
L 858.914333 590.220961 
L 860.53923 579.456023 
L 861.351679 590.842212 
L 862.164128 586.500353 
L 862.976577 580.801582 
L 863.789025 507.739566 
L 864.601474 547.342483 
L 865.413923 539.459237 
L 866.226372 591.160478 
L 867.038821 584.142389 
L 867.851269 573.238396 
L 868.663718 591.14889 
L 869.476167 576.877012 
L 870.288616 575.513279 
L 871.101065 563.752793 
L 871.913514 315.693216 
L 872.725962 585.365232 
L 873.538411 299.019893 
L 874.35086 583.368495 
L 875.163309 589.779931 
L 875.975758 591.416462 
L 876.788206 566.511943 
L 877.600655 577.229905 
L 878.413104 427.545748 
L 879.225553 589.185572 
L 880.038002 570.38436 
L 880.85045 350.291323 
L 881.662899 586.242006 
L 882.475348 557.12301 
L 883.287797 583.542065 
L 884.100246 526.205528 
L 884.912695 587.614798 
L 885.725143 562.204515 
L 886.537592 486.074454 
L 887.350041 588.149679 
L 888.16249 537.207518 
L 888.974939 590.836533 
L 890.599836 543.458855 
L 891.412285 591.161647 
L 892.224734 589.909244 
L 893.037183 591.168322 
L 893.849631 584.796489 
L 894.66208 582.345926 
L 895.474529 580.696548 
L 896.286978 591.191065 
L 897.099427 313.750188 
L 897.911876 582.384122 
L 898.724324 322.657977 
L 899.536773 590.906274 
L 900.349222 578.206727 
L 901.161671 581.334478 
L 901.97412 333.596889 
L 902.786568 588.602359 
L 903.599017 569.584042 
L 904.411466 590.952522 
L 905.223915 555.735357 
L 906.036364 591.319216 
L 906.848812 316.649279 
L 907.661261 553.919495 
L 908.47371 591.220646 
L 909.286159 589.046602 
L 910.098608 582.833774 
L 910.911057 544.630791 
L 911.723505 583.678308 
L 912.535954 577.034032 
L 913.348403 522.724749 
L 914.160852 576.818634 
L 914.973301 588.403308 
L 915.785749 546.917122 
L 916.598198 586.122566 
L 917.410647 586.866476 
L 918.223096 590.650987 
L 919.035545 575.116034 
L 919.847993 313.674333 
L 920.660442 582.512949 
L 921.472891 510.806033 
L 922.28534 588.989893 
L 923.097789 588.433736 
L 923.910238 591.151744 
L 924.722686 549.965023 
L 925.535135 518.265446 
L 926.347584 591.321181 
L 927.160033 587.108167 
L 927.972482 590.632373 
L 928.78493 585.607784 
L 929.597379 585.893346 
L 930.409828 313.890704 
L 931.222277 591.599214 
L 932.034726 579.669625 
L 932.847174 587.100922 
L 933.659623 535.106722 
L 934.472072 552.681379 
L 935.284521 579.369763 
L 936.09697 520.424307 
L 936.909419 490.658862 
L 937.721867 554.291815 
L 938.534316 590.703664 
L 939.346765 166.319008 
L 940.159214 589.300449 
L 940.971663 590.912682 
L 941.784111 590.290817 
L 942.59656 588.701619 
L 943.409009 580.635422 
L 944.221458 536.462772 
L 945.033907 300.611327 
L 945.846355 584.319583 
L 946.658804 567.220492 
L 947.471253 490.44885 
L 948.283702 562.423509 
L 949.096151 588.654347 
L 949.9086 589.731186 
L 950.721048 591.323935 
L 951.533497 591.368963 
L 952.345946 494.125139 
L 953.158395 478.059876 
L 953.970844 591.08274 
L 954.783292 590.759671 
L 955.595741 537.447641 
L 956.40819 587.728871 
L 957.220639 575.460564 
L 958.033088 586.173437 
L 958.845536 582.395838 
L 959.657985 590.282347 
L 960.470434 591.724797 
L 961.282883 584.090331 
L 962.095332 568.339238 
L 962.907781 586.147071 
L 963.720229 555.952916 
L 964.532678 561.018258 
L 965.345127 553.73129 
L 966.157576 587.277243 
L 966.970025 536.375369 
L 967.782473 591.839737 
L 968.594922 572.431834 
L 969.407371 591.921793 
L 970.21982 559.547854 
L 971.032269 557.81231 
L 971.844717 590.250776 
L 972.657166 520.477395 
L 973.469615 284.453553 
L 974.282064 591.896638 
L 975.094513 577.105985 
L 975.906962 575.564411 
L 976.71941 575.244825 
L 977.531859 555.932588 
L 978.344308 590.218649 
L 979.156757 591.906978 
L 979.969206 400.560908 
L 980.781654 580.659695 
L 981.594103 592.028032 
L 982.406552 457.584459 
L 983.219001 571.024075 
L 984.03145 591.069875 
L 984.843898 566.366054 
L 985.656347 468.680715 
L 986.468796 566.88788 
L 987.281245 569.232804 
L 988.093694 585.466723 
L 988.906143 591.45524 
L 989.718591 360.3867 
L 990.53104 287.436494 
L 991.343489 591.612454 
L 992.155938 560.410341 
L 992.968387 579.66504 
L 993.780835 589.493043 
L 994.593284 587.486021 
L 995.405733 566.995796 
L 996.218182 591.351499 
L 996.218182 591.351499 
" style="fill:none;stroke:#1f77b4;stroke-linecap:square;stroke-width:1.5;"/>
   </g>
   <g id="line2d_13">
    <path clip-path="url(#p7750b1da4f)" d="M 184.581818 130.018326 
L 185.394267 449.221682 
L 186.206716 312.634914 
L 187.019165 515.272973 
L 187.831613 521.186278 
L 188.644062 449.023482 
L 189.456511 526.939977 
L 190.26896 298.193764 
L 191.893857 484.931019 
L 192.706306 444.06552 
L 193.518755 316.451787 
L 194.331204 384.740043 
L 195.143653 312.634914 
L 195.956102 312.634914 
L 196.76855 545.433531 
L 197.580999 550.201517 
L 198.393448 549.974487 
L 199.205897 205.243804 
L 200.018346 546.737927 
L 200.830794 339.603206 
L 201.643243 548.684757 
L 202.455692 506.721304 
L 203.268141 544.722923 
L 204.08059 516.132152 
L 204.893038 520.009216 
L 205.705487 533.900952 
L 206.517936 529.443365 
L 207.330385 316.36666 
L 208.142834 363.907972 
L 208.955283 547.898651 
L 209.767731 541.927504 
L 210.58018 501.551829 
L 211.392629 502.36799 
L 212.205078 507.194698 
L 213.017527 547.931124 
L 213.829975 540.20605 
L 214.642424 486.416649 
L 215.454873 532.776487 
L 216.267322 462.056053 
L 217.079771 462.003231 
L 217.892219 543.60663 
L 218.704668 323.442095 
L 219.517117 472.320905 
L 220.329566 459.246143 
L 221.142015 491.870066 
L 221.954464 428.684932 
L 222.766912 547.625894 
L 223.579361 549.512912 
L 224.39181 543.310559 
L 225.204259 548.825083 
L 226.016708 396.776438 
L 226.829156 523.138307 
L 227.641605 472.713973 
L 228.454054 472.117253 
L 229.266503 544.707338 
L 230.078952 522.468121 
L 230.8914 545.223117 
L 231.703849 549.006083 
L 232.516298 550.000966 
L 233.328747 521.384396 
L 234.141196 548.684668 
L 234.953645 394.472711 
L 235.766093 551.092994 
L 236.578542 550.141109 
L 237.390991 528.805489 
L 238.20344 543.517222 
L 239.015889 451.106159 
L 239.828337 549.015134 
L 240.640786 480.991021 
L 241.453235 312.634914 
L 242.265684 480.762373 
L 243.078133 551.127941 
L 243.890581 475.84179 
L 244.70303 551.269625 
L 245.515479 544.558713 
L 246.327928 312.634914 
L 247.140377 550.73176 
L 247.952826 498.281259 
L 248.765274 520.279036 
L 249.577723 536.541378 
L 250.390172 500.635563 
L 251.202621 456.056819 
L 252.01507 510.758506 
L 252.827518 544.827695 
L 253.639967 551.920382 
L 254.452416 430.325665 
L 255.264865 538.332145 
L 256.077314 483.135327 
L 256.889762 525.238501 
L 257.702211 551.632151 
L 258.51466 510.474773 
L 259.327109 551.239988 
L 260.139558 518.886475 
L 260.952007 544.32443 
L 262.576904 486.522244 
L 263.389353 553.491494 
L 264.201802 449.938238 
L 265.014251 452.707012 
L 265.826699 461.490194 
L 266.639148 552.453746 
L 267.451597 505.081574 
L 268.264046 509.469414 
L 269.076495 379.878673 
L 269.888943 551.054147 
L 270.701392 502.401191 
L 271.513841 529.326088 
L 272.32629 526.593638 
L 273.138739 549.773938 
L 273.951188 439.041129 
L 274.763636 517.949026 
L 275.576085 552.240282 
L 276.388534 505.90519 
L 277.200983 540.997617 
L 278.013432 543.795221 
L 278.82588 432.387248 
L 279.638329 554.180333 
L 280.450778 554.406236 
L 281.263227 424.320954 
L 282.075676 543.924096 
L 282.888124 543.17576 
L 283.700573 500.935223 
L 284.513022 535.518869 
L 285.325471 548.620875 
L 286.13792 557.037518 
L 286.950369 553.507391 
L 287.762817 540.094589 
L 288.575266 557.09 
L 289.387715 514.834612 
L 290.200164 556.61503 
L 291.012613 464.914617 
L 291.825061 499.146757 
L 292.63751 550.651257 
L 293.449959 511.43007 
L 294.262408 509.394817 
L 295.074857 555.841604 
L 295.887305 542.262383 
L 296.699754 496.740757 
L 297.512203 558.456408 
L 298.324652 509.751658 
L 299.137101 555.476117 
L 299.94955 476.706824 
L 300.761998 556.182611 
L 301.574447 556.538192 
L 302.386896 501.917524 
L 303.199345 539.56273 
L 304.011794 505.9715 
L 304.824242 556.628198 
L 305.636691 519.141696 
L 306.44914 504.98486 
L 307.261589 357.725456 
L 308.074038 494.987308 
L 308.886486 488.29734 
L 309.698935 537.840382 
L 310.511384 529.253006 
L 311.323833 556.965723 
L 312.136282 559.119729 
L 312.948731 421.712956 
L 313.761179 558.288826 
L 314.573628 558.682894 
L 315.386077 312.634914 
L 316.198526 462.01273 
L 317.010975 447.842459 
L 317.823423 555.912991 
L 318.635872 552.928681 
L 319.448321 545.060766 
L 320.26077 502.247153 
L 321.885667 536.307956 
L 322.698116 558.529618 
L 323.510565 554.783058 
L 324.323014 478.32456 
L 325.135463 561.44722 
L 325.947912 510.56358 
L 326.76036 499.924421 
L 327.572809 462.604277 
L 328.385258 556.44469 
L 329.197707 414.206947 
L 330.010156 560.085069 
L 330.822604 391.364728 
L 331.635053 535.837332 
L 332.447502 550.422374 
L 333.259951 531.239232 
L 334.0724 326.491471 
L 334.884848 553.484548 
L 335.697297 533.000522 
L 336.509746 557.533481 
L 337.322195 529.640726 
L 338.134644 505.594794 
L 338.947093 530.894588 
L 339.759541 547.789445 
L 340.57199 509.944344 
L 341.384439 562.209543 
L 342.196888 532.095237 
L 343.009337 551.020754 
L 343.821785 562.446545 
L 344.634234 111.493087 
L 345.446683 554.342294 
L 346.259132 560.807828 
L 347.071581 431.32071 
L 347.884029 559.048481 
L 348.696478 548.857707 
L 349.508927 555.354925 
L 350.321376 550.576869 
L 351.133825 561.234506 
L 351.946274 523.638838 
L 352.758722 559.34466 
L 353.571171 561.32456 
L 354.38362 557.843035 
L 356.008518 507.493562 
L 356.820966 539.897817 
L 357.633415 562.044521 
L 358.445864 467.261977 
L 359.258313 555.397593 
L 360.070762 509.402797 
L 360.88321 560.620441 
L 361.695659 559.329666 
L 362.508108 475.149418 
L 363.320557 560.539396 
L 364.133006 530.591326 
L 364.945455 518.336833 
L 365.757903 550.306699 
L 366.570352 522.813234 
L 367.382801 517.055231 
L 368.19525 553.201195 
L 369.007699 550.316821 
L 369.820147 532.830661 
L 370.632596 530.82836 
L 371.445045 526.264119 
L 372.257494 544.76064 
L 373.069943 516.568259 
L 373.882391 562.691661 
L 374.69484 312.634914 
L 375.507289 543.442424 
L 376.319738 560.079993 
L 377.132187 559.564046 
L 377.944636 523.338654 
L 378.757084 547.901191 
L 379.569533 530.030569 
L 380.381982 562.11363 
L 381.194431 532.601183 
L 382.00688 523.287779 
L 382.819328 547.872381 
L 383.631777 514.910909 
L 384.444226 514.829231 
L 385.256675 509.600187 
L 386.069124 555.368222 
L 386.881572 562.392579 
L 387.694021 561.528395 
L 388.50647 539.927486 
L 389.318919 562.310429 
L 390.131368 562.605378 
L 390.943817 557.824257 
L 391.756265 527.570945 
L 392.568714 546.10677 
L 393.381163 502.769073 
L 394.193612 550.728208 
L 395.006061 561.824714 
L 395.818509 559.352686 
L 396.630958 540.519562 
L 397.443407 415.005282 
L 398.255856 490.640408 
L 399.068305 537.225483 
L 399.880753 554.258519 
L 400.693202 560.3075 
L 401.505651 553.362526 
L 403.130549 562.163999 
L 403.942998 523.687652 
L 404.755446 553.209774 
L 405.567895 491.925211 
L 406.380344 532.290331 
L 407.192793 382.581803 
L 408.005242 548.785377 
L 408.81769 542.687711 
L 409.630139 523.849037 
L 410.442588 563.71992 
L 411.255037 562.361088 
L 412.067486 524.410041 
L 412.879934 546.278547 
L 413.692383 544.686358 
L 414.504832 312.634914 
L 415.317281 563.37033 
L 416.12973 538.239949 
L 416.942179 538.709395 
L 417.754627 540.924178 
L 418.567076 560.711081 
L 419.379525 460.220344 
L 420.191974 563.822153 
L 421.004423 563.882901 
L 421.816871 561.072131 
L 422.62932 506.410953 
L 423.441769 552.499342 
L 424.254218 556.606847 
L 425.066667 554.986 
L 425.879115 549.078616 
L 426.691564 501.896935 
L 427.504013 492.411933 
L 428.316462 559.889707 
L 429.128911 564.248224 
L 429.94136 556.798921 
L 430.753808 561.803992 
L 431.566257 559.825074 
L 432.378706 564.377256 
L 433.191155 509.86265 
L 434.003604 551.849674 
L 434.816052 443.392978 
L 435.628501 521.239485 
L 436.44095 560.890509 
L 437.253399 400.880297 
L 438.065848 564.536465 
L 438.878296 564.292394 
L 439.690745 560.479143 
L 440.503194 550.884256 
L 441.315643 503.815588 
L 442.128092 525.463397 
L 442.940541 563.521981 
L 443.752989 563.873662 
L 444.565438 489.625653 
L 445.377887 448.097422 
L 446.190336 563.308129 
L 447.002785 458.727012 
L 447.815233 561.362676 
L 449.440131 555.871862 
L 450.25258 560.656943 
L 451.065029 541.029415 
L 451.877477 277.43156 
L 452.689926 562.373415 
L 453.502375 562.602484 
L 454.314824 525.599474 
L 455.127273 494.45187 
L 455.939722 515.032244 
L 456.75217 410.783266 
L 457.564619 563.104761 
L 458.377068 555.687592 
L 459.189517 530.731563 
L 460.001966 312.634914 
L 460.814414 545.432533 
L 461.626863 563.375805 
L 462.439312 512.815831 
L 463.251761 529.061378 
L 464.06421 525.985342 
L 464.876658 313.351989 
L 465.689107 563.537644 
L 466.501556 520.367458 
L 467.314005 563.117916 
L 468.126454 550.932118 
L 468.938903 514.121394 
L 469.751351 551.986147 
L 470.5638 561.444069 
L 471.376249 532.897336 
L 472.188698 524.81515 
L 473.001147 564.314419 
L 473.813595 560.577007 
L 474.626044 562.313115 
L 475.438493 522.219727 
L 476.250942 562.278749 
L 477.063391 540.545648 
L 477.875839 512.381886 
L 478.688288 497.521586 
L 479.500737 561.874758 
L 480.313186 543.42296 
L 481.125635 503.819347 
L 481.938084 543.704311 
L 482.750532 554.259127 
L 483.562981 543.060302 
L 484.37543 539.260889 
L 485.187879 564.368938 
L 486.000328 485.439005 
L 486.812776 517.41599 
L 487.625225 538.631025 
L 488.437674 525.659432 
L 489.250123 557.670897 
L 490.062572 557.771331 
L 490.87502 564.390588 
L 491.687469 564.933548 
L 492.499918 564.989743 
L 493.312367 562.985625 
L 494.124816 564.138724 
L 494.937265 553.018511 
L 495.749713 565.334856 
L 496.562162 564.880469 
L 497.374611 562.237151 
L 498.18706 556.126308 
L 498.999509 544.865121 
L 499.811957 560.50166 
L 500.624406 564.462634 
L 501.436855 559.983895 
L 502.249304 415.926388 
L 503.061753 561.956757 
L 503.874201 534.816362 
L 504.68665 540.503331 
L 505.499099 521.772736 
L 506.311548 565.572217 
L 507.123997 483.022955 
L 507.936446 557.334088 
L 508.748894 564.334021 
L 509.561343 564.467668 
L 510.373792 536.944464 
L 511.186241 534.081645 
L 511.99869 494.63533 
L 512.811138 559.74987 
L 513.623587 534.465396 
L 514.436036 565.770587 
L 515.248485 525.806417 
L 516.060934 563.360243 
L 516.873382 561.268483 
L 517.685831 538.623112 
L 518.49828 539.156855 
L 519.310729 562.933679 
L 520.123178 530.806126 
L 520.935627 535.986261 
L 521.748075 497.814507 
L 522.560524 563.986244 
L 523.372973 489.987498 
L 524.185422 545.703367 
L 524.997871 563.882778 
L 525.810319 564.945497 
L 526.622768 562.403214 
L 527.435217 562.391601 
L 528.247666 520.841345 
L 529.060115 558.96572 
L 529.872563 561.224376 
L 530.685012 553.92025 
L 531.497461 545.23325 
L 532.30991 557.953604 
L 533.122359 566.189558 
L 533.934808 487.338723 
L 534.747256 528.31264 
L 535.559705 447.133469 
L 536.372154 559.509014 
L 537.184603 565.990064 
L 537.997052 509.489643 
L 538.8095 565.71888 
L 539.621949 539.883184 
L 540.434398 540.280757 
L 541.246847 560.680956 
L 542.059296 565.529125 
L 542.871744 528.323122 
L 543.684193 563.200701 
L 544.496642 532.448244 
L 545.309091 566.015253 
L 546.12154 561.649647 
L 546.933989 565.91962 
L 547.746437 452.962711 
L 548.558886 563.415758 
L 549.371335 495.67817 
L 550.183784 563.412139 
L 550.996233 536.065525 
L 551.808681 550.806236 
L 552.62113 330.282053 
L 553.433579 562.003424 
L 554.246028 560.044101 
L 555.058477 507.252203 
L 555.870925 550.092459 
L 556.683374 522.766284 
L 557.495823 523.29934 
L 558.308272 488.805196 
L 559.120721 548.57539 
L 559.93317 560.853638 
L 560.745618 517.275336 
L 561.558067 559.907605 
L 562.370516 536.544477 
L 563.182965 447.98009 
L 563.995414 547.352211 
L 564.807862 565.92551 
L 565.620311 422.987361 
L 566.43276 566.133016 
L 567.245209 558.38072 
L 568.057658 506.431564 
L 568.870106 564.823686 
L 569.682555 565.666932 
L 570.495004 516.138679 
L 571.307453 563.579337 
L 572.119902 550.114256 
L 572.932351 565.899153 
L 573.744799 542.532442 
L 574.557248 444.965422 
L 575.369697 562.200546 
L 576.182146 560.797365 
L 576.994595 552.685532 
L 577.807043 510.281854 
L 578.619492 559.406852 
L 579.431941 512.090091 
L 580.24439 555.691082 
L 581.056839 554.709357 
L 581.869287 565.466462 
L 582.681736 486.604026 
L 583.494185 549.76015 
L 584.306634 471.594636 
L 585.119083 543.182214 
L 585.931532 564.886129 
L 586.74398 565.68605 
L 587.556429 543.39249 
L 588.368878 530.691218 
L 589.181327 565.078953 
L 589.993776 564.358616 
L 590.806224 557.70099 
L 591.618673 525.998191 
L 592.431122 564.276374 
L 593.243571 403.786978 
L 594.05602 549.445175 
L 594.868468 565.051845 
L 595.680917 525.3089 
L 596.493366 558.083099 
L 597.305815 560.125409 
L 598.118264 409.559721 
L 598.930713 529.451297 
L 599.743161 561.950863 
L 600.55561 530.188253 
L 601.368059 565.277384 
L 602.180508 548.727026 
L 602.992957 551.505532 
L 603.805405 558.225017 
L 604.617854 561.554239 
L 605.430303 564.131477 
L 606.242752 453.473331 
L 607.055201 314.524479 
L 607.867649 565.394707 
L 608.680098 556.580946 
L 609.492547 536.621657 
L 610.304996 546.414724 
L 611.117445 564.16557 
L 611.929894 528.781369 
L 612.742342 479.806894 
L 613.554791 550.716934 
L 614.36724 561.3945 
L 615.179689 543.584161 
L 615.992138 544.080036 
L 616.804586 562.654439 
L 617.617035 564.785929 
L 618.429484 566.042968 
L 619.241933 563.445752 
L 620.054382 537.276595 
L 620.86683 557.785914 
L 621.679279 528.418239 
L 622.491728 564.076804 
L 623.304177 489.364431 
L 624.116626 559.584822 
L 624.929075 563.290725 
L 625.741523 565.624437 
L 626.553972 489.278621 
L 627.366421 480.278444 
L 628.17887 524.620808 
L 628.991319 562.615285 
L 629.803767 555.701905 
L 630.616216 314.065793 
L 631.428665 561.051636 
L 632.241114 558.327305 
L 633.053563 342.623591 
L 633.866011 563.565199 
L 634.67846 563.364333 
L 635.490909 540.950517 
L 636.303358 503.224406 
L 637.115807 565.993292 
L 637.928256 397.253576 
L 638.740704 565.942376 
L 639.553153 563.975307 
L 640.365602 564.382713 
L 641.178051 526.33231 
L 641.9905 562.696942 
L 642.802948 562.904184 
L 643.615397 564.302619 
L 644.427846 553.142255 
L 645.240295 539.577381 
L 646.052744 562.882743 
L 646.865192 564.454607 
L 647.677641 547.88046 
L 648.49009 560.533197 
L 649.302539 564.718217 
L 650.114988 563.970968 
L 650.927437 563.056477 
L 651.739885 480.697336 
L 652.552334 557.041078 
L 653.364783 560.22804 
L 654.177232 561.786326 
L 654.989681 421.263042 
L 655.802129 394.96336 
L 656.614578 566.231413 
L 657.427027 565.815014 
L 658.239476 520.279456 
L 659.051925 561.883432 
L 659.864373 564.238384 
L 660.676822 565.16649 
L 661.489271 562.385192 
L 662.30172 564.773664 
L 663.114169 501.524961 
L 663.926618 560.907819 
L 664.739066 566.531681 
L 665.551515 556.195495 
L 666.363964 561.522053 
L 667.176413 553.86391 
L 667.988862 550.273389 
L 668.80131 565.312392 
L 669.613759 564.789959 
L 670.426208 564.515738 
L 671.238657 529.956464 
L 672.051106 566.141098 
L 672.863554 562.518678 
L 673.676003 484.599258 
L 674.488452 552.906279 
L 675.300901 563.655309 
L 676.11335 554.900902 
L 676.925799 564.430181 
L 677.738247 549.28216 
L 678.550696 558.839754 
L 679.363145 534.568747 
L 680.175594 531.357516 
L 680.988043 566.762608 
L 681.800491 532.806713 
L 682.61294 565.188522 
L 683.425389 312.634914 
L 684.237838 475.241986 
L 685.862735 566.294394 
L 686.675184 527.845028 
L 687.487633 564.268412 
L 688.300082 565.594058 
L 689.112531 565.614174 
L 689.92498 565.270025 
L 690.737428 566.152379 
L 692.362326 485.635086 
L 693.174775 556.011521 
L 693.987224 565.505486 
L 694.799672 564.979041 
L 695.612121 542.748778 
L 696.42457 544.865795 
L 697.237019 530.444732 
L 698.049468 565.519295 
L 698.861916 565.850749 
L 699.674365 499.95397 
L 700.486814 461.16467 
L 701.299263 566.436366 
L 702.111712 559.027438 
L 702.924161 526.699434 
L 703.736609 528.973295 
L 704.549058 556.536892 
L 705.361507 564.253272 
L 706.173956 341.443553 
L 706.986405 555.006154 
L 707.798853 529.510176 
L 708.611302 566.160901 
L 709.423751 554.117113 
L 710.2362 566.239216 
L 711.048649 564.995855 
L 711.861097 560.729399 
L 712.673546 559.76037 
L 713.485995 563.842451 
L 715.110893 556.900417 
L 715.923342 552.22922 
L 716.73579 565.153878 
L 717.548239 557.803092 
L 718.360688 434.060017 
L 719.173137 561.409474 
L 719.985586 561.562755 
L 720.798034 441.4776 
L 721.610483 559.147193 
L 722.422932 508.652291 
L 723.235381 563.097721 
L 724.04783 566.660237 
L 724.860278 566.503024 
L 725.672727 516.209386 
L 726.485176 564.589003 
L 727.297625 564.852558 
L 728.110074 566.280231 
L 728.922523 513.407957 
L 729.734971 562.189709 
L 730.54742 566.464187 
L 731.359869 534.801013 
L 732.172318 534.429415 
L 732.984767 566.617952 
L 734.609664 563.84125 
L 735.422113 561.597511 
L 736.234562 563.496945 
L 737.047011 515.485621 
L 737.859459 553.239512 
L 738.671908 566.152805 
L 740.296806 495.228511 
L 741.109255 560.130505 
L 741.921704 566.540811 
L 742.734152 552.025872 
L 743.546601 566.577414 
L 744.35905 501.143652 
L 745.171499 559.454258 
L 745.983948 516.614859 
L 746.796396 565.256368 
L 747.608845 565.286247 
L 748.421294 559.816874 
L 749.233743 565.446206 
L 750.046192 511.708827 
L 750.85864 546.660045 
L 751.671089 559.219978 
L 752.483538 551.103616 
L 753.295987 521.686329 
L 754.108436 426.417385 
L 754.920885 566.087442 
L 756.545782 566.68446 
L 757.358231 566.491969 
L 758.17068 558.000099 
L 758.983129 554.302039 
L 760.608026 564.919697 
L 761.420475 495.804393 
L 762.232924 562.473793 
L 763.045373 565.687944 
L 763.857821 560.872363 
L 764.67027 566.464819 
L 765.482719 566.488235 
L 766.295168 552.467457 
L 767.107617 553.643383 
L 767.920066 539.228271 
L 768.732514 566.41748 
L 769.544963 566.475049 
L 770.357412 559.157686 
L 771.169861 521.384725 
L 771.98231 566.472197 
L 772.794758 546.005629 
L 773.607207 481.068395 
L 774.419656 566.473046 
L 775.232105 532.18115 
L 776.044554 565.046305 
L 776.857002 514.845047 
L 777.669451 565.903851 
L 778.4819 540.736102 
L 779.294349 504.407626 
L 780.106798 565.328152 
L 780.919247 566.411896 
L 781.731695 549.245404 
L 782.544144 555.925665 
L 783.356593 559.610529 
L 784.169042 544.969653 
L 784.981491 487.690442 
L 785.793939 562.872972 
L 786.606388 501.702276 
L 787.418837 522.406881 
L 788.231286 562.478228 
L 789.043735 566.485502 
L 789.856183 561.240811 
L 791.481081 565.59455 
L 792.29353 550.838891 
L 793.105979 489.346687 
L 793.918428 542.322279 
L 794.730876 561.785666 
L 795.543325 566.27705 
L 796.355774 563.571558 
L 797.168223 563.799628 
L 797.980672 463.864851 
L 798.79312 565.120319 
L 799.605569 524.427993 
L 800.418018 565.685077 
L 801.230467 556.927793 
L 802.042916 566.369184 
L 802.855364 513.878698 
L 803.667813 541.164374 
L 804.480262 535.764136 
L 805.292711 522.329024 
L 806.10516 565.509577 
L 806.917609 565.026764 
L 807.730057 562.960628 
L 808.542506 521.551557 
L 809.354955 566.579745 
L 810.167404 557.927596 
L 810.979853 565.274216 
L 811.792301 320.673564 
L 812.60475 565.970124 
L 813.417199 566.4642 
L 814.229648 565.794609 
L 815.042097 566.78466 
L 815.854545 565.686202 
L 816.666994 484.433713 
L 817.479443 566.743239 
L 818.291892 556.954748 
L 819.104341 489.711314 
L 819.91679 503.304957 
L 820.729238 553.13662 
L 821.541687 563.647898 
L 822.354136 566.744852 
L 823.166585 566.317841 
L 823.979034 566.511054 
L 824.791482 566.839203 
L 825.603931 562.514588 
L 826.41638 566.159984 
L 827.228829 566.463023 
L 828.853726 521.792838 
L 829.666175 566.561372 
L 830.478624 565.962801 
L 831.291073 464.324854 
L 832.103522 501.620382 
L 832.915971 483.241251 
L 833.728419 527.755264 
L 834.540868 556.370337 
L 835.353317 540.487756 
L 836.165766 557.936086 
L 836.978215 566.381635 
L 837.790663 565.685078 
L 838.603112 499.7478 
L 839.415561 528.160673 
L 840.22801 517.366071 
L 841.040459 565.660537 
L 841.852907 565.735688 
L 842.665356 565.039823 
L 843.477805 497.572403 
L 844.290254 565.884374 
L 845.102703 551.091483 
L 845.915152 566.002127 
L 846.7276 564.123803 
L 847.540049 563.850641 
L 848.352498 561.287991 
L 849.164947 314.50078 
L 849.977396 551.424207 
L 850.789844 559.223192 
L 851.602293 316.331166 
L 852.414742 565.356343 
L 853.227191 562.371838 
L 854.03964 505.779917 
L 854.852088 531.109498 
L 855.664537 520.932799 
L 856.476986 315.718906 
L 857.289435 557.611182 
L 858.101884 544.965242 
L 858.914333 551.998901 
L 859.726781 455.428412 
L 860.53923 565.871328 
L 861.351679 543.540226 
L 862.164128 561.072653 
L 862.976577 565.360024 
L 863.789025 507.609414 
L 864.601474 474.213243 
L 865.413923 478.022649 
L 866.226372 560.486774 
L 867.038821 532.015226 
L 867.851269 551.606934 
L 868.663718 565.585123 
L 870.288616 501.670546 
L 871.101065 511.094218 
L 871.913514 561.012819 
L 872.725962 563.480685 
L 873.538411 524.198842 
L 874.35086 435.405174 
L 875.163309 564.64178 
L 875.975758 560.894915 
L 876.788206 539.810724 
L 877.600655 561.80457 
L 878.413104 565.973318 
L 879.225553 563.612673 
L 880.038002 566.286524 
L 880.85045 561.799403 
L 881.662899 532.295742 
L 882.475348 425.849461 
L 883.287797 532.653726 
L 884.100246 566.34053 
L 884.912695 564.65788 
L 885.725143 562.484028 
L 886.537592 558.603813 
L 887.350041 566.082065 
L 888.16249 557.032265 
L 888.974939 565.878149 
L 889.787387 565.946828 
L 890.599836 432.283997 
L 891.412285 531.325065 
L 892.224734 564.122033 
L 893.037183 564.053699 
L 893.849631 561.513272 
L 894.66208 565.341398 
L 895.474529 564.914567 
L 896.286978 566.252447 
L 897.099427 111.109091 
L 897.911876 561.52971 
L 898.724324 560.833792 
L 899.536773 558.929214 
L 900.349222 475.904064 
L 901.161671 563.776626 
L 901.97412 507.480909 
L 902.786568 565.769344 
L 903.599017 565.739225 
L 904.411466 560.800391 
L 905.223915 539.386474 
L 906.036364 565.625624 
L 906.848812 565.012744 
L 907.661261 559.395634 
L 908.47371 565.944283 
L 909.286159 559.729596 
L 910.098608 508.620421 
L 910.911057 493.718942 
L 911.723505 563.807596 
L 912.535954 526.002175 
L 913.348403 561.582043 
L 914.160852 537.852769 
L 914.973301 553.756416 
L 915.785749 472.410927 
L 916.598198 560.925054 
L 917.410647 566.136389 
L 918.223096 530.672843 
L 919.035545 558.152163 
L 919.847993 530.119827 
L 920.660442 530.253256 
L 921.472891 554.39032 
L 922.28534 566.607739 
L 923.097789 566.630806 
L 923.910238 477.288149 
L 924.722686 483.783483 
L 925.535135 549.520739 
L 926.347584 535.084682 
L 927.160033 564.859455 
L 927.972482 565.870448 
L 928.78493 564.136266 
L 929.597379 556.711503 
L 930.409828 563.873998 
L 931.222277 565.825583 
L 932.034726 562.523032 
L 932.847174 557.884025 
L 933.659623 537.958332 
L 934.472072 565.251524 
L 935.284521 554.335248 
L 936.09697 565.880583 
L 936.909419 562.504208 
L 937.721867 542.786913 
L 938.534316 561.754173 
L 939.346765 540.663744 
L 940.159214 558.733335 
L 940.971663 564.766945 
L 941.784111 545.506031 
L 942.59656 553.733781 
L 943.409009 533.657026 
L 944.221458 521.279143 
L 945.033907 563.675297 
L 945.846355 565.688016 
L 946.658804 565.783399 
L 947.471253 449.954148 
L 948.283702 547.416485 
L 949.096151 493.612168 
L 949.9086 550.389191 
L 950.721048 485.990573 
L 951.533497 563.543788 
L 952.345946 537.365032 
L 953.158395 565.606732 
L 953.970844 564.280552 
L 954.783292 564.303751 
L 955.595741 506.93268 
L 956.40819 562.277194 
L 957.220639 557.770736 
L 958.033088 561.238024 
L 958.845536 564.199932 
L 959.657985 561.406317 
L 960.470434 563.952805 
L 961.282883 541.829107 
L 962.095332 564.393463 
L 962.907781 552.03534 
L 963.720229 550.74178 
L 964.532678 547.258467 
L 965.345127 563.115265 
L 966.157576 565.28927 
L 966.970025 562.944704 
L 967.782473 563.119594 
L 968.594922 541.681434 
L 969.407371 565.902161 
L 970.21982 563.051263 
L 971.032269 500.901594 
L 971.844717 563.87121 
L 972.657166 468.640895 
L 973.469615 552.167133 
L 974.282064 564.99478 
L 975.094513 506.023707 
L 975.906962 548.386906 
L 976.71941 565.184326 
L 977.531859 500.048622 
L 978.344308 566.178075 
L 979.156757 565.031186 
L 979.969206 441.166367 
L 980.781654 565.094021 
L 981.594103 556.378202 
L 982.406552 555.801529 
L 983.219001 530.369419 
L 984.03145 555.668864 
L 984.843898 562.028093 
L 985.656347 556.350794 
L 986.468796 451.059007 
L 987.281245 493.826964 
L 988.093694 563.406536 
L 988.906143 561.179407 
L 989.718591 472.582243 
L 990.53104 559.929767 
L 991.343489 536.822203 
L 992.155938 565.400266 
L 992.968387 533.175624 
L 993.780835 542.509678 
L 994.593284 566.101741 
L 995.405733 429.056683 
L 996.218182 561.576642 
L 996.218182 561.576642 
" style="fill:none;stroke:#ff7f0e;stroke-linecap:square;stroke-width:1.5;"/>
   </g>
   <g id="line2d_14">
    <path clip-path="url(#p7750b1da4f)" d="M 184.581818 593.390639 
L 217.079771 594.625601 
L 256.889762 595.905972 
L 305.636691 597.239897 
L 363.320557 598.588483 
L 427.504013 599.86236 
L 498.18706 601.036732 
L 576.182146 602.106121 
L 663.114169 603.070725 
L 760.608026 603.924446 
L 871.913514 604.671348 
L 996.218182 605.290909 
L 996.218182 605.290909 
" style="fill:none;stroke:#2ca02c;stroke-linecap:square;stroke-width:1.5;"/>
   </g>
   <g id="line2d_15">
    <path clip-path="url(#p7750b1da4f)" d="M 184.581818 552.748537 
L 185.394267 569.825107 
L 186.206716 590.052733 
L 187.019165 597.454224 
L 187.831613 581.459832 
L 188.644062 586.689771 
L 189.456511 597.128032 
L 190.26896 599.204059 
L 191.081409 597.395065 
L 191.893857 595.246677 
L 192.706306 593.958188 
L 193.518755 593.792172 
L 194.331204 594.602494 
L 195.143653 596.065144 
L 196.76855 599.324263 
L 197.580999 600.30118 
L 198.393448 600.422813 
L 199.205897 599.689806 
L 200.018346 598.67395 
L 200.830794 598.265918 
L 201.643243 598.748852 
L 203.268141 600.488267 
L 204.08059 600.911017 
L 204.893038 600.942113 
L 208.142834 600.148133 
L 208.955283 600.273532 
L 212.205078 601.359948 
L 213.017527 601.388014 
L 215.454873 601.041933 
L 216.267322 601.102637 
L 218.704668 601.618624 
L 220.329566 601.636339 
L 222.766912 601.552763 
L 226.829156 601.898713 
L 229.266503 601.880161 
L 232.516298 602.086258 
L 235.766093 602.150235 
L 238.20344 602.243722 
L 241.453235 602.333788 
L 250.390172 602.547791 
L 271.513841 602.945719 
L 305.636691 603.426897 
L 347.884029 603.796719 
L 421.004423 604.212881 
L 522.560524 604.593738 
L 677.738247 604.94519 
L 917.410647 605.225293 
L 996.218182 605.279035 
L 996.218182 605.279035 
" style="fill:none;stroke:#d62728;stroke-linecap:square;stroke-width:1.5;"/>
   </g>
   <g id="patch_3">
    <path d="M 144 630 
L 144 86.4 
" style="fill:none;stroke:#000000;stroke-linecap:square;stroke-linejoin:miter;stroke-width:0.8;"/>
   </g>
   <g id="patch_4">
    <path d="M 1036.8 630 
L 1036.8 86.4 
" style="fill:none;stroke:#000000;stroke-linecap:square;stroke-linejoin:miter;stroke-width:0.8;"/>
   </g>
   <g id="patch_5">
    <path d="M 144 630 
L 1036.8 630 
" style="fill:none;stroke:#000000;stroke-linecap:square;stroke-linejoin:miter;stroke-width:0.8;"/>
   </g>
   <g id="patch_6">
    <path d="M 144 86.4 
L 1036.8 86.4 
" style="fill:none;stroke:#000000;stroke-linecap:square;stroke-linejoin:miter;stroke-width:0.8;"/>
   </g>
   <g id="text_14">
    <!-- WDBC: All 4 implementations for with best params -->
    <defs>
     <path d="M 3.328125 72.90625 
L 13.28125 72.90625 
L 28.609375 11.28125 
L 43.890625 72.90625 
L 54.984375 72.90625 
L 70.3125 11.28125 
L 85.59375 72.90625 
L 95.609375 72.90625 
L 77.296875 0 
L 64.890625 0 
L 49.515625 63.28125 
L 33.984375 0 
L 21.578125 0 
z
" id="DejaVuSans-57"/>
     <path d="M 19.671875 64.796875 
L 19.671875 8.109375 
L 31.59375 8.109375 
Q 46.6875 8.109375 53.6875 14.9375 
Q 60.6875 21.78125 60.6875 36.53125 
Q 60.6875 51.171875 53.6875 57.984375 
Q 46.6875 64.796875 31.59375 64.796875 
z
M 9.8125 72.90625 
L 30.078125 72.90625 
Q 51.265625 72.90625 61.171875 64.09375 
Q 71.09375 55.28125 71.09375 36.53125 
Q 71.09375 17.671875 61.125 8.828125 
Q 51.171875 0 30.078125 0 
L 9.8125 0 
z
" id="DejaVuSans-44"/>
     <path d="M 19.671875 34.8125 
L 19.671875 8.109375 
L 35.5 8.109375 
Q 43.453125 8.109375 47.28125 11.40625 
Q 51.125 14.703125 51.125 21.484375 
Q 51.125 28.328125 47.28125 31.5625 
Q 43.453125 34.8125 35.5 34.8125 
z
M 19.671875 64.796875 
L 19.671875 42.828125 
L 34.28125 42.828125 
Q 41.5 42.828125 45.03125 45.53125 
Q 48.578125 48.25 48.578125 53.8125 
Q 48.578125 59.328125 45.03125 62.0625 
Q 41.5 64.796875 34.28125 64.796875 
z
M 9.8125 72.90625 
L 35.015625 72.90625 
Q 46.296875 72.90625 52.390625 68.21875 
Q 58.5 63.53125 58.5 54.890625 
Q 58.5 48.1875 55.375 44.234375 
Q 52.25 40.28125 46.1875 39.3125 
Q 53.46875 37.75 57.5 32.78125 
Q 61.53125 27.828125 61.53125 20.40625 
Q 61.53125 10.640625 54.890625 5.3125 
Q 48.25 0 35.984375 0 
L 9.8125 0 
z
" id="DejaVuSans-42"/>
     <path d="M 64.40625 67.28125 
L 64.40625 56.890625 
Q 59.421875 61.53125 53.78125 63.8125 
Q 48.140625 66.109375 41.796875 66.109375 
Q 29.296875 66.109375 22.65625 58.46875 
Q 16.015625 50.828125 16.015625 36.375 
Q 16.015625 21.96875 22.65625 14.328125 
Q 29.296875 6.6875 41.796875 6.6875 
Q 48.140625 6.6875 53.78125 8.984375 
Q 59.421875 11.28125 64.40625 15.921875 
L 64.40625 5.609375 
Q 59.234375 2.09375 53.4375 0.328125 
Q 47.65625 -1.421875 41.21875 -1.421875 
Q 24.65625 -1.421875 15.125 8.703125 
Q 5.609375 18.84375 5.609375 36.375 
Q 5.609375 53.953125 15.125 64.078125 
Q 24.65625 74.21875 41.21875 74.21875 
Q 47.75 74.21875 53.53125 72.484375 
Q 59.328125 70.75 64.40625 67.28125 
z
" id="DejaVuSans-43"/>
     <path d="M 11.71875 12.40625 
L 22.015625 12.40625 
L 22.015625 0 
L 11.71875 0 
z
M 11.71875 51.703125 
L 22.015625 51.703125 
L 22.015625 39.3125 
L 11.71875 39.3125 
z
" id="DejaVuSans-3a"/>
     <path id="DejaVuSans-20"/>
     <path d="M 34.1875 63.1875 
L 20.796875 26.90625 
L 47.609375 26.90625 
z
M 28.609375 72.90625 
L 39.796875 72.90625 
L 67.578125 0 
L 57.328125 0 
L 50.6875 18.703125 
L 17.828125 18.703125 
L 11.1875 0 
L 0.78125 0 
z
" id="DejaVuSans-41"/>
     <path d="M 9.421875 75.984375 
L 18.40625 75.984375 
L 18.40625 0 
L 9.421875 0 
z
" id="DejaVuSans-6c"/>
     <path d="M 52 44.1875 
Q 55.375 50.25 60.0625 53.125 
Q 64.75 56 71.09375 56 
Q 79.640625 56 84.28125 50.015625 
Q 88.921875 44.046875 88.921875 33.015625 
L 88.921875 0 
L 79.890625 0 
L 79.890625 32.71875 
Q 79.890625 40.578125 77.09375 44.375 
Q 74.3125 48.1875 68.609375 48.1875 
Q 61.625 48.1875 57.5625 43.546875 
Q 53.515625 38.921875 53.515625 30.90625 
L 53.515625 0 
L 44.484375 0 
L 44.484375 32.71875 
Q 44.484375 40.625 41.703125 44.40625 
Q 38.921875 48.1875 33.109375 48.1875 
Q 26.21875 48.1875 22.15625 43.53125 
Q 18.109375 38.875 18.109375 30.90625 
L 18.109375 0 
L 9.078125 0 
L 9.078125 54.6875 
L 18.109375 54.6875 
L 18.109375 46.1875 
Q 21.1875 51.21875 25.484375 53.609375 
Q 29.78125 56 35.6875 56 
Q 41.65625 56 45.828125 52.96875 
Q 50 49.953125 52 44.1875 
z
" id="DejaVuSans-6d"/>
     <path d="M 18.109375 8.203125 
L 18.109375 -20.796875 
L 9.078125 -20.796875 
L 9.078125 54.6875 
L 18.109375 54.6875 
L 18.109375 46.390625 
Q 20.953125 51.265625 25.265625 53.625 
Q 29.59375 56 35.59375 56 
Q 45.5625 56 51.78125 48.09375 
Q 58.015625 40.1875 58.015625 27.296875 
Q 58.015625 14.40625 51.78125 6.484375 
Q 45.5625 -1.421875 35.59375 -1.421875 
Q 29.59375 -1.421875 25.265625 0.953125 
Q 20.953125 3.328125 18.109375 8.203125 
z
M 48.6875 27.296875 
Q 48.6875 37.203125 44.609375 42.84375 
Q 40.53125 48.484375 33.40625 48.484375 
Q 26.265625 48.484375 22.1875 42.84375 
Q 18.109375 37.203125 18.109375 27.296875 
Q 18.109375 17.390625 22.1875 11.75 
Q 26.265625 6.109375 33.40625 6.109375 
Q 40.53125 6.109375 44.609375 11.75 
Q 48.6875 17.390625 48.6875 27.296875 
z
" id="DejaVuSans-70"/>
     <path d="M 37.109375 75.984375 
L 37.109375 68.5 
L 28.515625 68.5 
Q 23.6875 68.5 21.796875 66.546875 
Q 19.921875 64.59375 19.921875 59.515625 
L 19.921875 54.6875 
L 34.71875 54.6875 
L 34.71875 47.703125 
L 19.921875 47.703125 
L 19.921875 0 
L 10.890625 0 
L 10.890625 47.703125 
L 2.296875 47.703125 
L 2.296875 54.6875 
L 10.890625 54.6875 
L 10.890625 58.5 
Q 10.890625 67.625 15.140625 71.796875 
Q 19.390625 75.984375 28.609375 75.984375 
z
" id="DejaVuSans-66"/>
     <path d="M 4.203125 54.6875 
L 13.1875 54.6875 
L 24.421875 12.015625 
L 35.59375 54.6875 
L 46.1875 54.6875 
L 57.421875 12.015625 
L 68.609375 54.6875 
L 77.59375 54.6875 
L 63.28125 0 
L 52.6875 0 
L 40.921875 44.828125 
L 29.109375 0 
L 18.5 0 
z
" id="DejaVuSans-77"/>
     <path d="M 54.890625 33.015625 
L 54.890625 0 
L 45.90625 0 
L 45.90625 32.71875 
Q 45.90625 40.484375 42.875 44.328125 
Q 39.84375 48.1875 33.796875 48.1875 
Q 26.515625 48.1875 22.3125 43.546875 
Q 18.109375 38.921875 18.109375 30.90625 
L 18.109375 0 
L 9.078125 0 
L 9.078125 75.984375 
L 18.109375 75.984375 
L 18.109375 46.1875 
Q 21.34375 51.125 25.703125 53.5625 
Q 30.078125 56 35.796875 56 
Q 45.21875 56 50.046875 50.171875 
Q 54.890625 44.34375 54.890625 33.015625 
z
" id="DejaVuSans-68"/>
     <path d="M 48.6875 27.296875 
Q 48.6875 37.203125 44.609375 42.84375 
Q 40.53125 48.484375 33.40625 48.484375 
Q 26.265625 48.484375 22.1875 42.84375 
Q 18.109375 37.203125 18.109375 27.296875 
Q 18.109375 17.390625 22.1875 11.75 
Q 26.265625 6.109375 33.40625 6.109375 
Q 40.53125 6.109375 44.609375 11.75 
Q 48.6875 17.390625 48.6875 27.296875 
z
M 18.109375 46.390625 
Q 20.953125 51.265625 25.265625 53.625 
Q 29.59375 56 35.59375 56 
Q 45.5625 56 51.78125 48.09375 
Q 58.015625 40.1875 58.015625 27.296875 
Q 58.015625 14.40625 51.78125 6.484375 
Q 45.5625 -1.421875 35.59375 -1.421875 
Q 29.59375 -1.421875 25.265625 0.953125 
Q 20.953125 3.328125 18.109375 8.203125 
L 18.109375 0 
L 9.078125 0 
L 9.078125 75.984375 
L 18.109375 75.984375 
z
" id="DejaVuSans-62"/>
    </defs>
    <g transform="translate(370.50525 80.4)scale(0.1728 -0.1728)">
     <use xlink:href="#DejaVuSans-57"/>
     <use x="98.876953" xlink:href="#DejaVuSans-44"/>
     <use x="175.878906" xlink:href="#DejaVuSans-42"/>
     <use x="244.466797" xlink:href="#DejaVuSans-43"/>
     <use x="314.291016" xlink:href="#DejaVuSans-3a"/>
     <use x="347.982422" xlink:href="#DejaVuSans-20"/>
     <use x="379.769531" xlink:href="#DejaVuSans-41"/>
     <use x="448.177734" xlink:href="#DejaVuSans-6c"/>
     <use x="475.960938" xlink:href="#DejaVuSans-6c"/>
     <use x="503.744141" xlink:href="#DejaVuSans-20"/>
     <use x="535.53125" xlink:href="#DejaVuSans-34"/>
     <use x="599.154297" xlink:href="#DejaVuSans-20"/>
     <use x="630.941406" xlink:href="#DejaVuSans-69"/>
     <use x="658.724609" xlink:href="#DejaVuSans-6d"/>
     <use x="756.136719" xlink:href="#DejaVuSans-70"/>
     <use x="819.613281" xlink:href="#DejaVuSans-6c"/>
     <use x="847.396484" xlink:href="#DejaVuSans-65"/>
     <use x="908.919922" xlink:href="#DejaVuSans-6d"/>
     <use x="1006.332031" xlink:href="#DejaVuSans-65"/>
     <use x="1067.855469" xlink:href="#DejaVuSans-6e"/>
     <use x="1131.234375" xlink:href="#DejaVuSans-74"/>
     <use x="1170.443359" xlink:href="#DejaVuSans-61"/>
     <use x="1231.722656" xlink:href="#DejaVuSans-74"/>
     <use x="1270.931641" xlink:href="#DejaVuSans-69"/>
     <use x="1298.714844" xlink:href="#DejaVuSans-6f"/>
     <use x="1359.896484" xlink:href="#DejaVuSans-6e"/>
     <use x="1423.275391" xlink:href="#DejaVuSans-73"/>
     <use x="1475.375" xlink:href="#DejaVuSans-20"/>
     <use x="1507.162109" xlink:href="#DejaVuSans-66"/>
     <use x="1542.367188" xlink:href="#DejaVuSans-6f"/>
     <use x="1603.548828" xlink:href="#DejaVuSans-72"/>
     <use x="1644.662109" xlink:href="#DejaVuSans-20"/>
     <use x="1676.449219" xlink:href="#DejaVuSans-77"/>
     <use x="1758.236328" xlink:href="#DejaVuSans-69"/>
     <use x="1786.019531" xlink:href="#DejaVuSans-74"/>
     <use x="1825.228516" xlink:href="#DejaVuSans-68"/>
     <use x="1888.607422" xlink:href="#DejaVuSans-20"/>
     <use x="1920.394531" xlink:href="#DejaVuSans-62"/>
     <use x="1983.871094" xlink:href="#DejaVuSans-65"/>
     <use x="2045.394531" xlink:href="#DejaVuSans-73"/>
     <use x="2097.494141" xlink:href="#DejaVuSans-74"/>
     <use x="2136.703125" xlink:href="#DejaVuSans-20"/>
     <use x="2168.490234" xlink:href="#DejaVuSans-70"/>
     <use x="2231.966797" xlink:href="#DejaVuSans-61"/>
     <use x="2293.246094" xlink:href="#DejaVuSans-72"/>
     <use x="2334.359375" xlink:href="#DejaVuSans-61"/>
     <use x="2395.638672" xlink:href="#DejaVuSans-6d"/>
     <use x="2493.050781" xlink:href="#DejaVuSans-73"/>
    </g>
   </g>
   <g id="legend_1">
    <g id="patch_7">
     <path d="M 967.792187 153.1125 
L 1029.8 153.1125 
Q 1031.8 153.1125 1031.8 151.1125 
L 1031.8 93.4 
Q 1031.8 91.4 1029.8 91.4 
L 967.792187 91.4 
Q 965.792187 91.4 965.792187 93.4 
L 965.792187 151.1125 
Q 965.792187 153.1125 967.792187 153.1125 
z
" style="fill:#ffffff;opacity:0.8;stroke:#cccccc;stroke-linejoin:miter;"/>
    </g>
    <g id="line2d_16">
     <path d="M 969.792187 99.498437 
L 989.792187 99.498437 
" style="fill:none;stroke:#1f77b4;stroke-linecap:square;stroke-width:1.5;"/>
    </g>
    <g id="line2d_17"/>
    <g id="text_15">
     <!-- GD -->
     <defs>
      <path d="M 59.515625 10.40625 
L 59.515625 29.984375 
L 43.40625 29.984375 
L 43.40625 38.09375 
L 69.28125 38.09375 
L 69.28125 6.78125 
Q 63.578125 2.734375 56.6875 0.65625 
Q 49.8125 -1.421875 42 -1.421875 
Q 24.90625 -1.421875 15.25 8.5625 
Q 5.609375 18.5625 5.609375 36.375 
Q 5.609375 54.25 15.25 64.234375 
Q 24.90625 74.21875 42 74.21875 
Q 49.125 74.21875 55.546875 72.453125 
Q 61.96875 70.703125 67.390625 67.28125 
L 67.390625 56.78125 
Q 61.921875 61.421875 55.765625 63.765625 
Q 49.609375 66.109375 42.828125 66.109375 
Q 29.4375 66.109375 22.71875 58.640625 
Q 16.015625 51.171875 16.015625 36.375 
Q 16.015625 21.625 22.71875 14.15625 
Q 29.4375 6.6875 42.828125 6.6875 
Q 48.046875 6.6875 52.140625 7.59375 
Q 56.25 8.5 59.515625 10.40625 
z
" id="DejaVuSans-47"/>
     </defs>
     <g transform="translate(997.792187 102.998437)scale(0.1 -0.1)">
      <use xlink:href="#DejaVuSans-47"/>
      <use x="77.490234" xlink:href="#DejaVuSans-44"/>
     </g>
    </g>
    <g id="line2d_18">
     <path d="M 969.792187 114.176562 
L 989.792187 114.176562 
" style="fill:none;stroke:#ff7f0e;stroke-linecap:square;stroke-width:1.5;"/>
    </g>
    <g id="line2d_19"/>
    <g id="text_16">
     <!-- SGD -->
     <defs>
      <path d="M 53.515625 70.515625 
L 53.515625 60.890625 
Q 47.90625 63.578125 42.921875 64.890625 
Q 37.9375 66.21875 33.296875 66.21875 
Q 25.25 66.21875 20.875 63.09375 
Q 16.5 59.96875 16.5 54.203125 
Q 16.5 49.359375 19.40625 46.890625 
Q 22.3125 44.4375 30.421875 42.921875 
L 36.375 41.703125 
Q 47.40625 39.59375 52.65625 34.296875 
Q 57.90625 29 57.90625 20.125 
Q 57.90625 9.515625 50.796875 4.046875 
Q 43.703125 -1.421875 29.984375 -1.421875 
Q 24.8125 -1.421875 18.96875 -0.25 
Q 13.140625 0.921875 6.890625 3.21875 
L 6.890625 13.375 
Q 12.890625 10.015625 18.65625 8.296875 
Q 24.421875 6.59375 29.984375 6.59375 
Q 38.421875 6.59375 43.015625 9.90625 
Q 47.609375 13.234375 47.609375 19.390625 
Q 47.609375 24.75 44.3125 27.78125 
Q 41.015625 30.8125 33.5 32.328125 
L 27.484375 33.5 
Q 16.453125 35.6875 11.515625 40.375 
Q 6.59375 45.0625 6.59375 53.421875 
Q 6.59375 63.09375 13.40625 68.65625 
Q 20.21875 74.21875 32.171875 74.21875 
Q 37.3125 74.21875 42.625 73.28125 
Q 47.953125 72.359375 53.515625 70.515625 
z
" id="DejaVuSans-53"/>
     </defs>
     <g transform="translate(997.792187 117.676562)scale(0.1 -0.1)">
      <use xlink:href="#DejaVuSans-53"/>
      <use x="63.476562" xlink:href="#DejaVuSans-47"/>
      <use x="140.966797" xlink:href="#DejaVuSans-44"/>
     </g>
    </g>
    <g id="line2d_20">
     <path d="M 969.792187 128.854687 
L 989.792187 128.854687 
" style="fill:none;stroke:#2ca02c;stroke-linecap:square;stroke-width:1.5;"/>
    </g>
    <g id="line2d_21"/>
    <g id="text_17">
     <!-- IRLS -->
     <defs>
      <path d="M 44.390625 34.1875 
Q 47.5625 33.109375 50.5625 29.59375 
Q 53.5625 26.078125 56.59375 19.921875 
L 66.609375 0 
L 56 0 
L 46.6875 18.703125 
Q 43.0625 26.03125 39.671875 28.421875 
Q 36.28125 30.8125 30.421875 30.8125 
L 19.671875 30.8125 
L 19.671875 0 
L 9.8125 0 
L 9.8125 72.90625 
L 32.078125 72.90625 
Q 44.578125 72.90625 50.734375 67.671875 
Q 56.890625 62.453125 56.890625 51.90625 
Q 56.890625 45.015625 53.6875 40.46875 
Q 50.484375 35.9375 44.390625 34.1875 
z
M 19.671875 64.796875 
L 19.671875 38.921875 
L 32.078125 38.921875 
Q 39.203125 38.921875 42.84375 42.21875 
Q 46.484375 45.515625 46.484375 51.90625 
Q 46.484375 58.296875 42.84375 61.546875 
Q 39.203125 64.796875 32.078125 64.796875 
z
" id="DejaVuSans-52"/>
     </defs>
     <g transform="translate(997.792187 132.354687)scale(0.1 -0.1)">
      <use xlink:href="#DejaVuSans-49"/>
      <use x="29.492188" xlink:href="#DejaVuSans-52"/>
      <use x="98.974609" xlink:href="#DejaVuSans-4c"/>
      <use x="154.6875" xlink:href="#DejaVuSans-53"/>
     </g>
    </g>
    <g id="line2d_22">
     <path d="M 969.792187 143.532812 
L 989.792187 143.532812 
" style="fill:none;stroke:#d62728;stroke-linecap:square;stroke-width:1.5;"/>
    </g>
    <g id="line2d_23"/>
    <g id="text_18">
     <!-- ADAM -->
     <defs>
      <path d="M 9.8125 72.90625 
L 24.515625 72.90625 
L 43.109375 23.296875 
L 61.8125 72.90625 
L 76.515625 72.90625 
L 76.515625 0 
L 66.890625 0 
L 66.890625 64.015625 
L 48.09375 14.015625 
L 38.1875 14.015625 
L 19.390625 64.015625 
L 19.390625 0 
L 9.8125 0 
z
" id="DejaVuSans-4d"/>
     </defs>
     <g transform="translate(997.792187 147.032812)scale(0.1 -0.1)">
      <use xlink:href="#DejaVuSans-41"/>
      <use x="68.408203" xlink:href="#DejaVuSans-44"/>
      <use x="145.394531" xlink:href="#DejaVuSans-41"/>
      <use x="213.802734" xlink:href="#DejaVuSans-4d"/>
     </g>
    </g>
   </g>
  </g>
 </g>
 <defs>
  <clipPath id="p7750b1da4f">
   <rect height="543.6" width="892.8" x="144" y="86.4"/>
  </clipPath>
 </defs>
</svg>
