<?xml version="1.0" encoding="utf-8" standalone="no"?>
<!DOCTYPE svg PUBLIC "-//W3C//DTD SVG 1.1//EN"
  "http://www.w3.org/Graphics/SVG/1.1/DTD/svg11.dtd">
<!-- Created with matplotlib (http://matplotlib.org/) -->
<svg height="720pt" version="1.1" viewBox="0 0 1152 720" width="1152pt" xmlns="http://www.w3.org/2000/svg" xmlns:xlink="http://www.w3.org/1999/xlink">
 <defs>
  <style type="text/css">
*{stroke-linecap:butt;stroke-linejoin:round;}
  </style>
 </defs>
 <g id="figure_1">
  <g id="patch_1">
   <path d="M 0 720 
L 1152 720 
L 1152 0 
L 0 0 
z
" style="fill:#ffffff;"/>
  </g>
  <g id="axes_1">
   <g id="patch_2">
    <path d="M 144 630 
L 1036.8 630 
L 1036.8 86.4 
L 144 86.4 
z
" style="fill:#ffffff;"/>
   </g>
   <g id="matplotlib.axis_1">
    <g id="xtick_1">
     <g id="line2d_1">
      <defs>
       <path d="M 0 0 
L 0 3.5 
" id="mf36a8aa7a1" style="stroke:#000000;stroke-width:0.8;"/>
      </defs>
      <g>
       <use style="stroke:#000000;stroke-width:0.8;" x="184.581818" xlink:href="#mf36a8aa7a1" y="630"/>
      </g>
     </g>
     <g id="text_1">
      <!-- 0 -->
      <defs>
       <path d="M 31.78125 66.40625 
Q 24.171875 66.40625 20.328125 58.90625 
Q 16.5 51.421875 16.5 36.375 
Q 16.5 21.390625 20.328125 13.890625 
Q 24.171875 6.390625 31.78125 6.390625 
Q 39.453125 6.390625 43.28125 13.890625 
Q 47.125 21.390625 47.125 36.375 
Q 47.125 51.421875 43.28125 58.90625 
Q 39.453125 66.40625 31.78125 66.40625 
z
M 31.78125 74.21875 
Q 44.046875 74.21875 50.515625 64.515625 
Q 56.984375 54.828125 56.984375 36.375 
Q 56.984375 17.96875 50.515625 8.265625 
Q 44.046875 -1.421875 31.78125 -1.421875 
Q 19.53125 -1.421875 13.0625 8.265625 
Q 6.59375 17.96875 6.59375 36.375 
Q 6.59375 54.828125 13.0625 64.515625 
Q 19.53125 74.21875 31.78125 74.21875 
z
" id="DejaVuSans-30"/>
      </defs>
      <g transform="translate(181.400568 644.598438)scale(0.1 -0.1)">
       <use xlink:href="#DejaVuSans-30"/>
      </g>
     </g>
    </g>
    <g id="xtick_2">
     <g id="line2d_2">
      <g>
       <use style="stroke:#000000;stroke-width:0.8;" x="347.071581" xlink:href="#mf36a8aa7a1" y="630"/>
      </g>
     </g>
     <g id="text_2">
      <!-- 200 -->
      <defs>
       <path d="M 19.1875 8.296875 
L 53.609375 8.296875 
L 53.609375 0 
L 7.328125 0 
L 7.328125 8.296875 
Q 12.9375 14.109375 22.625 23.890625 
Q 32.328125 33.6875 34.8125 36.53125 
Q 39.546875 41.84375 41.421875 45.53125 
Q 43.3125 49.21875 43.3125 52.78125 
Q 43.3125 58.59375 39.234375 62.25 
Q 35.15625 65.921875 28.609375 65.921875 
Q 23.96875 65.921875 18.8125 64.3125 
Q 13.671875 62.703125 7.8125 59.421875 
L 7.8125 69.390625 
Q 13.765625 71.78125 18.9375 73 
Q 24.125 74.21875 28.421875 74.21875 
Q 39.75 74.21875 46.484375 68.546875 
Q 53.21875 62.890625 53.21875 53.421875 
Q 53.21875 48.921875 51.53125 44.890625 
Q 49.859375 40.875 45.40625 35.40625 
Q 44.1875 33.984375 37.640625 27.21875 
Q 31.109375 20.453125 19.1875 8.296875 
z
" id="DejaVuSans-32"/>
      </defs>
      <g transform="translate(337.527831 644.598438)scale(0.1 -0.1)">
       <use xlink:href="#DejaVuSans-32"/>
       <use x="63.623047" xlink:href="#DejaVuSans-30"/>
       <use x="127.246094" xlink:href="#DejaVuSans-30"/>
      </g>
     </g>
    </g>
    <g id="xtick_3">
     <g id="line2d_3">
      <g>
       <use style="stroke:#000000;stroke-width:0.8;" x="509.561343" xlink:href="#mf36a8aa7a1" y="630"/>
      </g>
     </g>
     <g id="text_3">
      <!-- 400 -->
      <defs>
       <path d="M 37.796875 64.3125 
L 12.890625 25.390625 
L 37.796875 25.390625 
z
M 35.203125 72.90625 
L 47.609375 72.90625 
L 47.609375 25.390625 
L 58.015625 25.390625 
L 58.015625 17.1875 
L 47.609375 17.1875 
L 47.609375 0 
L 37.796875 0 
L 37.796875 17.1875 
L 4.890625 17.1875 
L 4.890625 26.703125 
z
" id="DejaVuSans-34"/>
      </defs>
      <g transform="translate(500.017593 644.598438)scale(0.1 -0.1)">
       <use xlink:href="#DejaVuSans-34"/>
       <use x="63.623047" xlink:href="#DejaVuSans-30"/>
       <use x="127.246094" xlink:href="#DejaVuSans-30"/>
      </g>
     </g>
    </g>
    <g id="xtick_4">
     <g id="line2d_4">
      <g>
       <use style="stroke:#000000;stroke-width:0.8;" x="672.051106" xlink:href="#mf36a8aa7a1" y="630"/>
      </g>
     </g>
     <g id="text_4">
      <!-- 600 -->
      <defs>
       <path d="M 33.015625 40.375 
Q 26.375 40.375 22.484375 35.828125 
Q 18.609375 31.296875 18.609375 23.390625 
Q 18.609375 15.53125 22.484375 10.953125 
Q 26.375 6.390625 33.015625 6.390625 
Q 39.65625 6.390625 43.53125 10.953125 
Q 47.40625 15.53125 47.40625 23.390625 
Q 47.40625 31.296875 43.53125 35.828125 
Q 39.65625 40.375 33.015625 40.375 
z
M 52.59375 71.296875 
L 52.59375 62.3125 
Q 48.875 64.0625 45.09375 64.984375 
Q 41.3125 65.921875 37.59375 65.921875 
Q 27.828125 65.921875 22.671875 59.328125 
Q 17.53125 52.734375 16.796875 39.40625 
Q 19.671875 43.65625 24.015625 45.921875 
Q 28.375 48.1875 33.59375 48.1875 
Q 44.578125 48.1875 50.953125 41.515625 
Q 57.328125 34.859375 57.328125 23.390625 
Q 57.328125 12.15625 50.6875 5.359375 
Q 44.046875 -1.421875 33.015625 -1.421875 
Q 20.359375 -1.421875 13.671875 8.265625 
Q 6.984375 17.96875 6.984375 36.375 
Q 6.984375 53.65625 15.1875 63.9375 
Q 23.390625 74.21875 37.203125 74.21875 
Q 40.921875 74.21875 44.703125 73.484375 
Q 48.484375 72.75 52.59375 71.296875 
z
" id="DejaVuSans-36"/>
      </defs>
      <g transform="translate(662.507356 644.598438)scale(0.1 -0.1)">
       <use xlink:href="#DejaVuSans-36"/>
       <use x="63.623047" xlink:href="#DejaVuSans-30"/>
       <use x="127.246094" xlink:href="#DejaVuSans-30"/>
      </g>
     </g>
    </g>
    <g id="xtick_5">
     <g id="line2d_5">
      <g>
       <use style="stroke:#000000;stroke-width:0.8;" x="834.540868" xlink:href="#mf36a8aa7a1" y="630"/>
      </g>
     </g>
     <g id="text_5">
      <!-- 800 -->
      <defs>
       <path d="M 31.78125 34.625 
Q 24.75 34.625 20.71875 30.859375 
Q 16.703125 27.09375 16.703125 20.515625 
Q 16.703125 13.921875 20.71875 10.15625 
Q 24.75 6.390625 31.78125 6.390625 
Q 38.8125 6.390625 42.859375 10.171875 
Q 46.921875 13.96875 46.921875 20.515625 
Q 46.921875 27.09375 42.890625 30.859375 
Q 38.875 34.625 31.78125 34.625 
z
M 21.921875 38.8125 
Q 15.578125 40.375 12.03125 44.71875 
Q 8.5 49.078125 8.5 55.328125 
Q 8.5 64.0625 14.71875 69.140625 
Q 20.953125 74.21875 31.78125 74.21875 
Q 42.671875 74.21875 48.875 69.140625 
Q 55.078125 64.0625 55.078125 55.328125 
Q 55.078125 49.078125 51.53125 44.71875 
Q 48 40.375 41.703125 38.8125 
Q 48.828125 37.15625 52.796875 32.3125 
Q 56.78125 27.484375 56.78125 20.515625 
Q 56.78125 9.90625 50.3125 4.234375 
Q 43.84375 -1.421875 31.78125 -1.421875 
Q 19.734375 -1.421875 13.25 4.234375 
Q 6.78125 9.90625 6.78125 20.515625 
Q 6.78125 27.484375 10.78125 32.3125 
Q 14.796875 37.15625 21.921875 38.8125 
z
M 18.3125 54.390625 
Q 18.3125 48.734375 21.84375 45.5625 
Q 25.390625 42.390625 31.78125 42.390625 
Q 38.140625 42.390625 41.71875 45.5625 
Q 45.3125 48.734375 45.3125 54.390625 
Q 45.3125 60.0625 41.71875 63.234375 
Q 38.140625 66.40625 31.78125 66.40625 
Q 25.390625 66.40625 21.84375 63.234375 
Q 18.3125 60.0625 18.3125 54.390625 
z
" id="DejaVuSans-38"/>
      </defs>
      <g transform="translate(824.997118 644.598438)scale(0.1 -0.1)">
       <use xlink:href="#DejaVuSans-38"/>
       <use x="63.623047" xlink:href="#DejaVuSans-30"/>
       <use x="127.246094" xlink:href="#DejaVuSans-30"/>
      </g>
     </g>
    </g>
    <g id="xtick_6">
     <g id="line2d_6">
      <g>
       <use style="stroke:#000000;stroke-width:0.8;" x="997.030631" xlink:href="#mf36a8aa7a1" y="630"/>
      </g>
     </g>
     <g id="text_6">
      <!-- 1000 -->
      <defs>
       <path d="M 12.40625 8.296875 
L 28.515625 8.296875 
L 28.515625 63.921875 
L 10.984375 60.40625 
L 10.984375 69.390625 
L 28.421875 72.90625 
L 38.28125 72.90625 
L 38.28125 8.296875 
L 54.390625 8.296875 
L 54.390625 0 
L 12.40625 0 
z
" id="DejaVuSans-31"/>
      </defs>
      <g transform="translate(984.305631 644.598438)scale(0.1 -0.1)">
       <use xlink:href="#DejaVuSans-31"/>
       <use x="63.623047" xlink:href="#DejaVuSans-30"/>
       <use x="127.246094" xlink:href="#DejaVuSans-30"/>
       <use x="190.869141" xlink:href="#DejaVuSans-30"/>
      </g>
     </g>
    </g>
    <g id="text_7">
     <!-- Iteration -->
     <defs>
      <path d="M 9.8125 72.90625 
L 19.671875 72.90625 
L 19.671875 0 
L 9.8125 0 
z
" id="DejaVuSans-49"/>
      <path d="M 18.3125 70.21875 
L 18.3125 54.6875 
L 36.8125 54.6875 
L 36.8125 47.703125 
L 18.3125 47.703125 
L 18.3125 18.015625 
Q 18.3125 11.328125 20.140625 9.421875 
Q 21.96875 7.515625 27.59375 7.515625 
L 36.8125 7.515625 
L 36.8125 0 
L 27.59375 0 
Q 17.1875 0 13.234375 3.875 
Q 9.28125 7.765625 9.28125 18.015625 
L 9.28125 47.703125 
L 2.6875 47.703125 
L 2.6875 54.6875 
L 9.28125 54.6875 
L 9.28125 70.21875 
z
" id="DejaVuSans-74"/>
      <path d="M 56.203125 29.59375 
L 56.203125 25.203125 
L 14.890625 25.203125 
Q 15.484375 15.921875 20.484375 11.0625 
Q 25.484375 6.203125 34.421875 6.203125 
Q 39.59375 6.203125 44.453125 7.46875 
Q 49.3125 8.734375 54.109375 11.28125 
L 54.109375 2.78125 
Q 49.265625 0.734375 44.1875 -0.34375 
Q 39.109375 -1.421875 33.890625 -1.421875 
Q 20.796875 -1.421875 13.15625 6.1875 
Q 5.515625 13.8125 5.515625 26.8125 
Q 5.515625 40.234375 12.765625 48.109375 
Q 20.015625 56 32.328125 56 
Q 43.359375 56 49.78125 48.890625 
Q 56.203125 41.796875 56.203125 29.59375 
z
M 47.21875 32.234375 
Q 47.125 39.59375 43.09375 43.984375 
Q 39.0625 48.390625 32.421875 48.390625 
Q 24.90625 48.390625 20.390625 44.140625 
Q 15.875 39.890625 15.1875 32.171875 
z
" id="DejaVuSans-65"/>
      <path d="M 41.109375 46.296875 
Q 39.59375 47.171875 37.8125 47.578125 
Q 36.03125 48 33.890625 48 
Q 26.265625 48 22.1875 43.046875 
Q 18.109375 38.09375 18.109375 28.8125 
L 18.109375 0 
L 9.078125 0 
L 9.078125 54.6875 
L 18.109375 54.6875 
L 18.109375 46.1875 
Q 20.953125 51.171875 25.484375 53.578125 
Q 30.03125 56 36.53125 56 
Q 37.453125 56 38.578125 55.875 
Q 39.703125 55.765625 41.0625 55.515625 
z
" id="DejaVuSans-72"/>
      <path d="M 34.28125 27.484375 
Q 23.390625 27.484375 19.1875 25 
Q 14.984375 22.515625 14.984375 16.5 
Q 14.984375 11.71875 18.140625 8.90625 
Q 21.296875 6.109375 26.703125 6.109375 
Q 34.1875 6.109375 38.703125 11.40625 
Q 43.21875 16.703125 43.21875 25.484375 
L 43.21875 27.484375 
z
M 52.203125 31.203125 
L 52.203125 0 
L 43.21875 0 
L 43.21875 8.296875 
Q 40.140625 3.328125 35.546875 0.953125 
Q 30.953125 -1.421875 24.3125 -1.421875 
Q 15.921875 -1.421875 10.953125 3.296875 
Q 6 8.015625 6 15.921875 
Q 6 25.140625 12.171875 29.828125 
Q 18.359375 34.515625 30.609375 34.515625 
L 43.21875 34.515625 
L 43.21875 35.40625 
Q 43.21875 41.609375 39.140625 45 
Q 35.0625 48.390625 27.6875 48.390625 
Q 23 48.390625 18.546875 47.265625 
Q 14.109375 46.140625 10.015625 43.890625 
L 10.015625 52.203125 
Q 14.9375 54.109375 19.578125 55.046875 
Q 24.21875 56 28.609375 56 
Q 40.484375 56 46.34375 49.84375 
Q 52.203125 43.703125 52.203125 31.203125 
z
" id="DejaVuSans-61"/>
      <path d="M 9.421875 54.6875 
L 18.40625 54.6875 
L 18.40625 0 
L 9.421875 0 
z
M 9.421875 75.984375 
L 18.40625 75.984375 
L 18.40625 64.59375 
L 9.421875 64.59375 
z
" id="DejaVuSans-69"/>
      <path d="M 30.609375 48.390625 
Q 23.390625 48.390625 19.1875 42.75 
Q 14.984375 37.109375 14.984375 27.296875 
Q 14.984375 17.484375 19.15625 11.84375 
Q 23.34375 6.203125 30.609375 6.203125 
Q 37.796875 6.203125 41.984375 11.859375 
Q 46.1875 17.53125 46.1875 27.296875 
Q 46.1875 37.015625 41.984375 42.703125 
Q 37.796875 48.390625 30.609375 48.390625 
z
M 30.609375 56 
Q 42.328125 56 49.015625 48.375 
Q 55.71875 40.765625 55.71875 27.296875 
Q 55.71875 13.875 49.015625 6.21875 
Q 42.328125 -1.421875 30.609375 -1.421875 
Q 18.84375 -1.421875 12.171875 6.21875 
Q 5.515625 13.875 5.515625 27.296875 
Q 5.515625 40.765625 12.171875 48.375 
Q 18.84375 56 30.609375 56 
z
" id="DejaVuSans-6f"/>
      <path d="M 54.890625 33.015625 
L 54.890625 0 
L 45.90625 0 
L 45.90625 32.71875 
Q 45.90625 40.484375 42.875 44.328125 
Q 39.84375 48.1875 33.796875 48.1875 
Q 26.515625 48.1875 22.3125 43.546875 
Q 18.109375 38.921875 18.109375 30.90625 
L 18.109375 0 
L 9.078125 0 
L 9.078125 54.6875 
L 18.109375 54.6875 
L 18.109375 46.1875 
Q 21.34375 51.125 25.703125 53.5625 
Q 30.078125 56 35.796875 56 
Q 45.21875 56 50.046875 50.171875 
Q 54.890625 44.34375 54.890625 33.015625 
z
" id="DejaVuSans-6e"/>
     </defs>
     <g transform="translate(553.75155 663.808225)scale(0.1728 -0.1728)">
      <use xlink:href="#DejaVuSans-49"/>
      <use x="29.492188" xlink:href="#DejaVuSans-74"/>
      <use x="68.701172" xlink:href="#DejaVuSans-65"/>
      <use x="130.224609" xlink:href="#DejaVuSans-72"/>
      <use x="171.337891" xlink:href="#DejaVuSans-61"/>
      <use x="232.617188" xlink:href="#DejaVuSans-74"/>
      <use x="271.826172" xlink:href="#DejaVuSans-69"/>
      <use x="299.609375" xlink:href="#DejaVuSans-6f"/>
      <use x="360.791016" xlink:href="#DejaVuSans-6e"/>
     </g>
    </g>
   </g>
   <g id="matplotlib.axis_2">
    <g id="ytick_1">
     <g id="line2d_7">
      <defs>
       <path d="M 0 0 
L -3.5 0 
" id="mae3cc661af" style="stroke:#000000;stroke-width:0.8;"/>
      </defs>
      <g>
       <use style="stroke:#000000;stroke-width:0.8;" x="144" xlink:href="#mae3cc661af" y="630"/>
      </g>
     </g>
     <g id="text_8">
      <!-- 0.0 -->
      <defs>
       <path d="M 10.6875 12.40625 
L 21 12.40625 
L 21 0 
L 10.6875 0 
z
" id="DejaVuSans-2e"/>
      </defs>
      <g transform="translate(121.096875 633.799219)scale(0.1 -0.1)">
       <use xlink:href="#DejaVuSans-30"/>
       <use x="63.623047" xlink:href="#DejaVuSans-2e"/>
       <use x="95.410156" xlink:href="#DejaVuSans-30"/>
      </g>
     </g>
    </g>
    <g id="ytick_2">
     <g id="line2d_8">
      <g>
       <use style="stroke:#000000;stroke-width:0.8;" x="144" xlink:href="#mae3cc661af" y="539.4"/>
      </g>
     </g>
     <g id="text_9">
      <!-- 0.5 -->
      <defs>
       <path d="M 10.796875 72.90625 
L 49.515625 72.90625 
L 49.515625 64.59375 
L 19.828125 64.59375 
L 19.828125 46.734375 
Q 21.96875 47.46875 24.109375 47.828125 
Q 26.265625 48.1875 28.421875 48.1875 
Q 40.625 48.1875 47.75 41.5 
Q 54.890625 34.8125 54.890625 23.390625 
Q 54.890625 11.625 47.5625 5.09375 
Q 40.234375 -1.421875 26.90625 -1.421875 
Q 22.3125 -1.421875 17.546875 -0.640625 
Q 12.796875 0.140625 7.71875 1.703125 
L 7.71875 11.625 
Q 12.109375 9.234375 16.796875 8.0625 
Q 21.484375 6.890625 26.703125 6.890625 
Q 35.15625 6.890625 40.078125 11.328125 
Q 45.015625 15.765625 45.015625 23.390625 
Q 45.015625 31 40.078125 35.4375 
Q 35.15625 39.890625 26.703125 39.890625 
Q 22.75 39.890625 18.8125 39.015625 
Q 14.890625 38.140625 10.796875 36.28125 
z
" id="DejaVuSans-35"/>
      </defs>
      <g transform="translate(121.096875 543.199219)scale(0.1 -0.1)">
       <use xlink:href="#DejaVuSans-30"/>
       <use x="63.623047" xlink:href="#DejaVuSans-2e"/>
       <use x="95.410156" xlink:href="#DejaVuSans-35"/>
      </g>
     </g>
    </g>
    <g id="ytick_3">
     <g id="line2d_9">
      <g>
       <use style="stroke:#000000;stroke-width:0.8;" x="144" xlink:href="#mae3cc661af" y="448.8"/>
      </g>
     </g>
     <g id="text_10">
      <!-- 1.0 -->
      <g transform="translate(121.096875 452.599219)scale(0.1 -0.1)">
       <use xlink:href="#DejaVuSans-31"/>
       <use x="63.623047" xlink:href="#DejaVuSans-2e"/>
       <use x="95.410156" xlink:href="#DejaVuSans-30"/>
      </g>
     </g>
    </g>
    <g id="ytick_4">
     <g id="line2d_10">
      <g>
       <use style="stroke:#000000;stroke-width:0.8;" x="144" xlink:href="#mae3cc661af" y="358.2"/>
      </g>
     </g>
     <g id="text_11">
      <!-- 1.5 -->
      <g transform="translate(121.096875 361.999219)scale(0.1 -0.1)">
       <use xlink:href="#DejaVuSans-31"/>
       <use x="63.623047" xlink:href="#DejaVuSans-2e"/>
       <use x="95.410156" xlink:href="#DejaVuSans-35"/>
      </g>
     </g>
    </g>
    <g id="ytick_5">
     <g id="line2d_11">
      <g>
       <use style="stroke:#000000;stroke-width:0.8;" x="144" xlink:href="#mae3cc661af" y="267.6"/>
      </g>
     </g>
     <g id="text_12">
      <!-- 2.0 -->
      <g transform="translate(121.096875 271.399219)scale(0.1 -0.1)">
       <use xlink:href="#DejaVuSans-32"/>
       <use x="63.623047" xlink:href="#DejaVuSans-2e"/>
       <use x="95.410156" xlink:href="#DejaVuSans-30"/>
      </g>
     </g>
    </g>
    <g id="ytick_6">
     <g id="line2d_12">
      <g>
       <use style="stroke:#000000;stroke-width:0.8;" x="144" xlink:href="#mae3cc661af" y="177"/>
      </g>
     </g>
     <g id="text_13">
      <!-- 2.5 -->
      <g transform="translate(121.096875 180.799219)scale(0.1 -0.1)">
       <use xlink:href="#DejaVuSans-32"/>
       <use x="63.623047" xlink:href="#DejaVuSans-2e"/>
       <use x="95.410156" xlink:href="#DejaVuSans-35"/>
      </g>
     </g>
    </g>
    <g id="ytick_7">
     <g id="line2d_13">
      <g>
       <use style="stroke:#000000;stroke-width:0.8;" x="144" xlink:href="#mae3cc661af" y="86.4"/>
      </g>
     </g>
     <g id="text_14">
      <!-- 3.0 -->
      <defs>
       <path d="M 40.578125 39.3125 
Q 47.65625 37.796875 51.625 33 
Q 55.609375 28.21875 55.609375 21.1875 
Q 55.609375 10.40625 48.1875 4.484375 
Q 40.765625 -1.421875 27.09375 -1.421875 
Q 22.515625 -1.421875 17.65625 -0.515625 
Q 12.796875 0.390625 7.625 2.203125 
L 7.625 11.71875 
Q 11.71875 9.328125 16.59375 8.109375 
Q 21.484375 6.890625 26.8125 6.890625 
Q 36.078125 6.890625 40.9375 10.546875 
Q 45.796875 14.203125 45.796875 21.1875 
Q 45.796875 27.640625 41.28125 31.265625 
Q 36.765625 34.90625 28.71875 34.90625 
L 20.21875 34.90625 
L 20.21875 43.015625 
L 29.109375 43.015625 
Q 36.375 43.015625 40.234375 45.921875 
Q 44.09375 48.828125 44.09375 54.296875 
Q 44.09375 59.90625 40.109375 62.90625 
Q 36.140625 65.921875 28.71875 65.921875 
Q 24.65625 65.921875 20.015625 65.03125 
Q 15.375 64.15625 9.8125 62.3125 
L 9.8125 71.09375 
Q 15.4375 72.65625 20.34375 73.4375 
Q 25.25 74.21875 29.59375 74.21875 
Q 40.828125 74.21875 47.359375 69.109375 
Q 53.90625 64.015625 53.90625 55.328125 
Q 53.90625 49.265625 50.4375 45.09375 
Q 46.96875 40.921875 40.578125 39.3125 
z
" id="DejaVuSans-33"/>
      </defs>
      <g transform="translate(121.096875 90.199219)scale(0.1 -0.1)">
       <use xlink:href="#DejaVuSans-33"/>
       <use x="63.623047" xlink:href="#DejaVuSans-2e"/>
       <use x="95.410156" xlink:href="#DejaVuSans-30"/>
      </g>
     </g>
    </g>
    <g id="text_15">
     <!-- Loss -->
     <defs>
      <path d="M 9.8125 72.90625 
L 19.671875 72.90625 
L 19.671875 8.296875 
L 55.171875 8.296875 
L 55.171875 0 
L 9.8125 0 
z
" id="DejaVuSans-4c"/>
      <path d="M 44.28125 53.078125 
L 44.28125 44.578125 
Q 40.484375 46.53125 36.375 47.5 
Q 32.28125 48.484375 27.875 48.484375 
Q 21.1875 48.484375 17.84375 46.4375 
Q 14.5 44.390625 14.5 40.28125 
Q 14.5 37.15625 16.890625 35.375 
Q 19.28125 33.59375 26.515625 31.984375 
L 29.59375 31.296875 
Q 39.15625 29.25 43.1875 25.515625 
Q 47.21875 21.78125 47.21875 15.09375 
Q 47.21875 7.46875 41.1875 3.015625 
Q 35.15625 -1.421875 24.609375 -1.421875 
Q 20.21875 -1.421875 15.453125 -0.5625 
Q 10.6875 0.296875 5.421875 2 
L 5.421875 11.28125 
Q 10.40625 8.6875 15.234375 7.390625 
Q 20.0625 6.109375 24.8125 6.109375 
Q 31.15625 6.109375 34.5625 8.28125 
Q 37.984375 10.453125 37.984375 14.40625 
Q 37.984375 18.0625 35.515625 20.015625 
Q 33.0625 21.96875 24.703125 23.78125 
L 21.578125 24.515625 
Q 13.234375 26.265625 9.515625 29.90625 
Q 5.8125 33.546875 5.8125 39.890625 
Q 5.8125 47.609375 11.28125 51.796875 
Q 16.75 56 26.8125 56 
Q 31.78125 56 36.171875 55.265625 
Q 40.578125 54.546875 44.28125 53.078125 
z
" id="DejaVuSans-73"/>
     </defs>
     <g transform="translate(113.503175 377.30115)rotate(-90)scale(0.1728 -0.1728)">
      <use xlink:href="#DejaVuSans-4c"/>
      <use x="55.697266" xlink:href="#DejaVuSans-6f"/>
      <use x="116.878906" xlink:href="#DejaVuSans-73"/>
      <use x="168.978516" xlink:href="#DejaVuSans-73"/>
     </g>
    </g>
   </g>
   <g id="line2d_14">
    <path clip-path="url(#p54f7fada20)" d="M 187.003678 -1 
L 187.019165 43.20132 
L 187.02993 -1 
M 189.391122 -1 
L 189.456511 159.728185 
L 190.26896 336.618123 
L 191.081409 366.838483 
L 191.271752 -1 
M 194.959606 -1 
L 195.143653 250.140077 
L 195.956102 299.070734 
L 196.025351 -1 
M 200.77806 -1 
L 200.830794 227.233262 
L 200.912035 -1 
M 203.985102 -1 
L 204.08059 23.555556 
L 204.893038 392.23213 
L 205.705487 376.588855 
L 206.517936 381.052948 
L 207.330385 356.868984 
L 207.570955 -1 
M 208.74832 -1 
L 208.955283 289.786281 
L 209.16428 -1 
M 211.305345 -1 
L 211.392629 138.318495 
L 212.205078 285.059653 
L 213.017527 233.083796 
L 213.829975 431.772715 
L 214.002296 -1 
M 215.28308 -1 
L 215.454873 430.091663 
L 216.267322 414.611773 
L 216.639605 -1 
M 221.025475 -1 
L 221.142015 281.715154 
L 221.817236 -1 
M 222.059718 -1 
L 222.766912 385.050211 
L 223.579361 327.691512 
L 223.74509 -1 
M 225.983937 -1 
L 226.016708 71.922081 
L 226.229012 -1 
M 227.219888 -1 
L 227.641605 221.484919 
L 228.454054 216.048324 
L 229.201391 -1 
M 229.302087 -1 
L 230.078952 411.851917 
L 230.8914 331.60081 
L 231.703849 362.285076 
L 232.516298 327.48504 
L 233.328747 408.662444 
L 234.141196 404.479504 
L 234.953645 191.929709 
L 235.766093 383.022121 
L 236.258504 -1 
M 236.887942 -1 
L 237.390991 404.809159 
L 238.20344 409.558865 
L 239.044959 -1 
M 240.27193 -1 
L 240.640786 276.406373 
L 240.754482 -1 
M 242.195197 -1 
L 242.265684 160.964582 
L 243.078133 8.887332 
L 243.890581 134.907966 
L 244.70303 407.66142 
L 245.515479 200.375984 
L 245.610833 -1 
M 247.697429 -1 
L 247.952826 376.954672 
L 248.765274 388.239207 
L 249.290347 -1 
M 249.93578 -1 
L 250.390172 269.349082 
L 251.202621 372.167656 
L 252.01507 155.595205 
L 252.827518 401.640721 
L 253.469631 -1 
M 253.811345 -1 
L 254.452416 398.54597 
L 255.264865 405.830736 
L 255.942848 -1 
M 256.247217 -1 
L 256.889762 304.147911 
L 257.702211 131.372138 
L 258.51466 317.179626 
L 259.327109 383.488218 
L 260.139558 401.975203 
L 260.289847 -1 
M 261.661603 -1 
L 261.764455 256.344046 
L 262.576904 404.096203 
L 263.259323 -1 
M 266.259045 -1 
L 266.639148 400.665329 
L 267.451597 254.041131 
L 268.264046 340.589615 
L 268.825676 -1 
M 269.300708 -1 
L 269.888943 399.223519 
L 270.701392 360.98004 
L 271.513841 383.090782 
L 271.862266 -1 
M 272.779228 -1 
L 273.138739 405.011622 
L 273.951188 389.142646 
L 274.139187 -1 
M 275.395541 -1 
L 275.576085 369.249903 
L 276.672986 -1 
M 277.471049 -1 
L 278.013432 342.769207 
L 278.780259 -1 
M 278.871183 -1 
L 279.638329 345.336952 
L 280.070594 -1 
M 281.129808 -1 
L 281.263227 58.851138 
L 282.075676 357.019414 
L 282.888124 391.812864 
L 283.700573 281.318682 
L 284.513022 372.607263 
L 285.325471 408.790836 
L 285.777935 -1 
M 286.575986 -1 
L 286.950369 277.636342 
L 287.762817 384.990386 
L 288.575266 354.615032 
L 288.887195 -1 
M 289.859928 -1 
L 290.200164 410.137333 
L 291.012613 138.858744 
L 291.074208 -1 
M 292.486684 -1 
L 292.63751 387.655723 
L 293.449959 392.073322 
L 293.602179 -1 
M 294.987784 -1 
L 295.074857 203.650446 
L 295.887305 323.796947 
L 296.699754 290.810513 
L 297.512203 163.249102 
L 297.874458 -1 
M 298.594446 -1 
L 299.137101 409.563248 
L 299.489042 -1 
M 300.564183 -1 
L 300.761998 171.897682 
L 301.574447 369.709303 
L 302.386896 367.307509 
L 303.199345 263.92779 
L 304.011794 403.7456 
L 304.824242 151.391414 
L 305.636691 301.404261 
L 306.090726 -1 
M 308.24134 -1 
L 308.886486 259.804191 
L 309.651144 -1 
M 310.576591 -1 
L 311.323833 306.832368 
L 312.136282 412.576299 
L 312.876192 -1 
M 313.023875 -1 
L 313.761179 396.830168 
L 314.573628 84.274218 
L 315.386077 416.067676 
L 316.198526 45.55466 
L 317.010975 246.60634 
L 317.823423 409.782313 
L 318.635872 416.88342 
L 319.448321 401.430137 
L 319.762964 -1 
M 321.840254 -1 
L 321.885667 132.365859 
L 322.698116 236.987086 
L 323.510565 372.455684 
L 324.323014 410.3576 
L 324.480938 -1 
M 327.337998 -1 
L 327.572809 214.652357 
L 328.385258 382.684701 
L 329.197707 415.070349 
L 330.001386 -1 
M 330.021485 -1 
L 330.822604 320.05125 
L 331.635053 415.865838 
L 332.447502 359.398028 
L 333.259951 254.296934 
L 333.544709 -1 
M 334.503678 -1 
L 334.884848 417.12985 
L 335.697297 401.225743 
L 336.509746 417.837341 
L 337.254792 -1 
M 339.071874 -1 
L 339.759541 372.139981 
L 339.946867 -1 
M 341.894093 -1 
L 342.196888 175.119407 
L 343.009337 383.053454 
L 343.821785 334.604226 
L 344.339982 -1 
M 344.921651 -1 
L 345.446683 347.118032 
L 345.584767 -1 
M 346.970565 -1 
L 347.071581 240.399643 
L 347.884029 422.203618 
L 348.696478 385.712845 
L 349.508927 400.134972 
L 350.321376 373.374456 
L 350.444983 -1 
M 351.872345 -1 
L 351.946274 207.848191 
L 352.758722 312.369665 
L 353.571171 328.323818 
L 353.7027 -1 
M 355.035001 -1 
L 355.196069 420.571584 
L 356.008518 16.999045 
L 356.820966 426.995304 
L 357.633415 395.112946 
L 358.445864 421.352793 
L 359.258313 250.967953 
L 360.070762 235.598244 
L 360.361798 -1 
M 361.344849 -1 
L 361.695659 321.120251 
L 361.834291 -1 
M 363.149119 -1 
L 363.320557 417.736375 
L 364.133006 425.020896 
L 364.945455 417.697581 
L 365.757903 422.650368 
L 366.570352 166.345831 
L 367.382801 425.517169 
L 368.19525 429.943208 
L 369.007699 325.798654 
L 369.838347 -1 
M 372.79295 -1 
L 373.069943 374.92423 
L 373.882391 92.909144 
L 373.982267 -1 
M 375.231705 -1 
L 375.507289 342.928196 
L 376.319738 425.959911 
L 377.132187 93.8012 
L 377.944636 355.51926 
L 378.757084 395.364315 
L 379.569533 337.033609 
L 380.381982 329.285573 
L 381.194431 402.357425 
L 382.00688 404.381964 
L 382.819328 342.386529 
L 383.631777 426.068221 
L 383.795622 -1 
M 385.090894 -1 
L 385.256675 432.409579 
L 386.069124 143.166367 
L 386.881572 408.091343 
L 387.162657 -1 
M 390.109439 -1 
L 390.131368 80.82589 
L 390.943817 306.162942 
L 391.756265 370.90409 
L 392.49672 -1 
M 392.637551 -1 
L 393.381163 389.622537 
L 393.526862 -1 
M 394.851771 -1 
L 395.006061 418.055935 
L 395.818509 352.92097 
L 396.630958 390.869301 
L 397.282947 -1 
M 398.898721 -1 
L 399.068305 382.453213 
L 399.880753 403.186095 
L 400.693202 73.725778 
L 401.505651 187.965902 
L 402.3181 130.855507 
L 403.130549 406.733014 
L 403.942998 420.736513 
L 404.104761 -1 
M 405.403225 -1 
L 405.567895 430.240946 
L 406.380344 356.95513 
L 407.192793 264.120985 
L 408.005242 144.865686 
L 408.81769 97.357941 
L 409.630139 144.986943 
L 410.442588 436.208201 
L 411.255037 424.452066 
L 412.053679 -1 
M 412.083644 -1 
L 412.879934 361.46084 
L 413.692383 361.620165 
L 414.297443 -1 
M 414.887393 -1 
L 416.12973 395.53308 
L 416.256969 -1 
M 417.625109 -1 
L 417.754627 403.98087 
L 418.567076 77.029657 
L 418.602633 -1 
M 420.043263 -1 
L 420.191974 380.980618 
L 421.004423 437.637386 
L 421.816871 402.402624 
L 422.62932 355.225726 
L 423.441769 437.699049 
L 424.254218 441.027684 
L 425.066667 441.197737 
L 425.234198 -1 
M 426.90643 -1 
L 427.504013 441.125187 
L 428.316462 258.284931 
L 428.68042 -1 
M 429.478117 -1 
L 429.94136 422.842802 
L 430.753808 335.173064 
L 431.566257 427.987575 
L 432.378706 314.714329 
L 433.191155 131.227903 
L 434.003604 405.805799 
L 434.816052 231.282815 
L 435.628501 432.510855 
L 436.44095 435.638354 
L 437.253399 340.783254 
L 438.065848 163.29278 
L 438.878296 445.246987 
L 439.8828 -1 
M 441.645268 -1 
L 442.128092 317.517794 
L 442.940541 147.363493 
L 442.985805 -1 
M 444.448313 -1 
L 444.565438 422.571602 
L 445.377887 41.525935 
L 445.58732 -1 
M 446.392614 -1 
L 447.002785 368.352782 
L 447.815233 426.238138 
L 448.627682 444.345754 
L 449.440131 335.430385 
L 450.25258 385.974477 
L 451.065029 47.901044 
L 451.877477 375.974456 
L 452.689926 148.402429 
L 453.502375 430.151737 
L 454.314824 448.698054 
L 455.127273 392.19093 
L 455.939722 441.282965 
L 456.724218 -1 
M 456.77955 -1 
L 457.564619 450.86253 
L 458.377068 445.304306 
L 459.189517 293.056252 
L 459.309032 -1 
M 460.757404 -1 
L 460.814414 127.663422 
L 460.879441 -1 
M 462.367106 -1 
L 462.439312 143.253292 
L 463.251761 363.935815 
L 464.06421 259.689851 
L 464.171971 -1 
M 465.58823 -1 
L 465.689107 240.676794 
L 466.501556 275.070807 
L 467.314005 446.736423 
L 468.126454 315.98791 
L 468.938903 232.210714 
L 469.751351 270.587287 
L 470.5638 319.766083 
L 471.376249 325.819121 
L 472.188698 446.039234 
L 472.37317 -1 
M 473.700089 -1 
L 473.813595 246.137443 
L 474.312362 -1 
M 474.882603 -1 
L 475.438493 335.770144 
L 476.250942 22.62756 
L 477.063391 118.822136 
L 477.875839 402.056991 
L 478.688288 123.85627 
L 479.500737 373.496272 
L 480.313186 353.667954 
L 480.741308 -1 
M 481.471318 -1 
L 481.938084 428.907091 
L 482.102858 -1 
M 483.394425 -1 
L 483.562981 441.357301 
L 483.738522 -1 
M 485.008748 -1 
L 485.187879 452.963348 
L 486.000328 247.819026 
L 486.812776 414.007292 
L 487.719914 -1 
M 489.836917 -1 
L 490.062572 415.242916 
L 490.87502 452.193565 
L 491.271713 -1 
M 492.102607 -1 
L 492.499918 453.576915 
L 492.835228 -1 
M 494.656423 -1 
L 494.937265 340.520378 
L 495.423714 -1 
M 496.029803 -1 
L 496.562162 434.013273 
L 497.374611 440.969853 
L 497.548606 -1 
M 498.930995 -1 
L 498.999509 148.356595 
L 499.199004 -1 
M 500.293944 -1 
L 500.624406 313.633823 
L 501.436855 336.371346 
L 502.249304 363.245408 
L 503.061753 96.150026 
L 503.874201 243.546816 
L 504.099412 -1 
M 505.164867 -1 
L 505.499099 444.668159 
L 506.311548 446.024669 
L 506.486425 -1 
M 508.051325 -1 
L 508.748894 447.870194 
L 509.561343 380.142461 
L 509.768661 -1 
M 511.828787 -1 
L 511.99869 448.218058 
L 512.811138 445.953608 
L 513.623587 344.53218 
L 514.436036 391.26102 
L 514.901187 -1 
M 516.284515 -1 
L 516.873382 449.413386 
L 517.685831 437.3047 
L 518.49828 45.980147 
L 519.310729 449.313659 
L 520.023049 -1 
M 521.189065 -1 
L 521.748075 280.60128 
L 522.560524 448.322136 
L 523.372973 308.976654 
L 524.997871 446.580677 
L 525.810319 448.905233 
L 526.622768 265.776739 
L 527.435217 118.29053 
L 527.934378 -1 
M 528.365409 -1 
L 529.060115 440.745009 
L 529.872563 361.283609 
L 530.685012 450.861611 
L 531.497461 424.60575 
L 532.30991 439.648678 
L 533.122359 399.260814 
L 533.290254 -1 
M 534.609777 -1 
L 534.747256 311.978966 
L 535.020716 -1 
M 536.04174 -1 
L 536.372154 421.846261 
L 537.184603 439.970468 
L 537.997052 70.959119 
L 538.8095 291.734325 
L 538.888989 -1 
M 540.364869 -1 
L 540.434398 251.621885 
L 541.246847 393.674304 
L 542.059296 452.042266 
L 542.871744 226.325505 
L 543.684193 423.387474 
L 544.496642 448.933995 
L 545.309091 454.141637 
L 546.12154 283.852634 
L 546.933989 158.851787 
L 547.746437 451.799427 
L 548.558886 452.630594 
L 549.371335 439.131122 
L 550.183784 453.174241 
L 550.996233 455.198959 
L 551.808681 450.489986 
L 552.62113 284.293524 
L 552.772418 -1 
M 554.071322 -1 
L 554.246028 340.553084 
L 555.058477 272.626342 
L 555.574322 -1 
M 556.171438 -1 
L 556.683374 267.019546 
L 557.495823 455.981075 
L 558.308272 428.228918 
L 559.120721 458.908863 
L 559.93317 349.231794 
L 560.745618 389.961137 
L 561.558067 457.705704 
L 562.370516 461.334471 
L 562.496982 -1 
M 563.869061 -1 
L 563.995414 460.843883 
L 564.807862 173.251724 
L 564.886996 -1 
M 566.270616 -1 
L 566.43276 401.612502 
L 567.245209 436.05897 
L 568.057658 317.54702 
L 568.870106 451.789188 
L 569.682555 134.923471 
L 570.495004 460.527761 
L 571.307453 433.278185 
L 572.119902 297.689843 
L 572.241726 -1 
M 573.569385 -1 
L 573.744799 465.263383 
L 574.557248 91.181875 
L 575.369697 331.282612 
L 576.182146 348.732783 
L 576.994595 458.916348 
L 577.807043 110.738687 
L 578.619492 466.455014 
L 579.39973 -1 
M 579.465341 -1 
L 580.24439 449.129706 
L 580.899638 -1 
M 581.210691 -1 
L 581.869287 461.27583 
L 582.681736 464.090734 
L 583.146207 -1 
M 584.777525 -1 
L 585.119083 409.702058 
L 585.931532 177.207797 
L 586.74398 425.021766 
L 587.556429 265.598796 
L 587.887538 -1 
M 588.738567 -1 
L 589.181327 463.162584 
L 590.114874 -1 
M 591.191224 -1 
L 591.618673 465.301825 
L 592.431122 462.887642 
L 592.757379 -1 
M 595.674817 -1 
L 595.680917 5.891207 
L 596.493366 403.237175 
L 597.305815 456.368226 
L 597.64972 -1 
M 598.609192 -1 
L 598.930713 407.101076 
L 599.743161 344.131275 
L 600.55561 336.096225 
L 600.673444 -1 
M 602.093952 -1 
L 602.180508 235.946403 
L 602.992957 199.750169 
L 603.805405 421.906759 
L 604.617854 426.716386 
L 605.430303 432.313681 
L 606.242752 105.777387 
L 607.055201 60.779552 
L 607.867649 462.097705 
L 608.680098 352.847217 
L 609.492547 372.300185 
L 610.304996 462.934637 
L 610.84364 -1 
M 611.463084 -1 
L 611.929894 317.501506 
L 612.742342 278.649237 
L 613.554791 212.871084 
L 614.36724 462.186073 
L 615.179689 127.267104 
L 615.35748 -1 
M 616.682877 -1 
L 616.804586 79.678407 
L 617.617035 113.404259 
L 617.756625 -1 
M 618.870919 -1 
L 619.241933 462.484981 
L 620.054382 465.90726 
L 620.86683 456.238126 
L 621.679279 387.379156 
L 622.491728 450.066772 
L 622.662627 -1 
M 623.93988 -1 
L 624.116626 469.788356 
L 624.929075 94.723929 
L 625.741523 450.038937 
L 626.553972 466.54065 
L 626.700244 -1 
M 628.031811 -1 
L 628.17887 469.612765 
L 628.991319 471.316534 
L 629.803767 374.750368 
L 630.032751 -1 
M 631.1642 -1 
L 631.428665 461.072503 
L 632.241114 386.992079 
L 632.433829 -1 
M 634.434024 -1 
L 634.67846 435.44326 
L 635.490909 454.547296 
L 636.303358 163.500281 
L 637.115807 470.488423 
L 637.928256 208.872303 
L 637.988677 -1 
M 639.449882 -1 
L 639.553153 379.385798 
L 640.365602 470.709491 
L 640.605555 -1 
M 641.777655 -1 
L 641.9905 398.500488 
L 642.802948 470.662392 
L 643.615397 462.155007 
L 643.790632 -1 
M 645.112022 -1 
L 645.240295 314.760425 
L 646.052744 433.834373 
L 646.795379 -1 
M 648.304376 -1 
L 648.49009 442.254359 
L 649.302539 378.739696 
L 650.114988 462.975721 
L 650.927437 464.64261 
L 651.739885 174.855517 
L 652.552334 446.788988 
L 653.025174 -1 
M 653.801648 -1 
L 654.177232 275.502476 
L 654.989681 399.286063 
L 655.802129 413.75387 
L 656.614578 468.505519 
L 657.427027 470.234588 
L 658.239476 470.981297 
L 659.051925 437.680022 
L 659.864373 186.8276 
L 660.676822 450.729645 
L 661.489271 220.232694 
L 662.30172 469.728757 
L 663.114169 395.836479 
L 663.926618 353.034753 
L 664.739066 428.435041 
L 665.551515 259.927416 
L 665.739371 -1 
M 666.909641 -1 
L 667.176413 423.125874 
L 667.988862 30.7791 
L 668.80131 472.398905 
L 669.613759 221.373769 
L 670.426208 413.989489 
L 671.238657 467.788549 
L 672.051106 452.325626 
L 672.863554 476.13842 
L 673.676003 377.179599 
L 674.488452 476.822382 
L 675.300901 451.096622 
L 676.11335 283.450971 
L 676.925799 463.309768 
L 677.738247 436.350036 
L 677.918007 -1 
M 679.249058 -1 
L 679.363145 250.468196 
L 680.175594 123.025238 
L 680.988043 379.675205 
L 681.800491 424.446081 
L 682.61294 182.991144 
L 682.692079 -1 
M 684.852789 -1 
L 685.050287 470.59547 
L 685.862735 336.825815 
L 686.237088 -1 
M 688.355114 -1 
L 689.112531 469.608201 
L 689.92498 463.659922 
L 690.280901 -1 
M 692.291101 -1 
L 692.362326 162.482505 
L 692.87052 -1 
M 695.465025 -1 
L 695.612121 204.235651 
L 696.42457 464.964375 
L 697.237019 391.937294 
L 698.049468 477.31145 
L 698.861916 471.002951 
L 699.674365 354.028001 
L 700.486814 112.864442 
L 700.541289 -1 
M 701.925813 -1 
L 702.111712 469.075611 
L 702.452169 -1 
M 703.411535 -1 
L 703.736609 433.669837 
L 704.549058 381.754152 
L 705.361507 391.383792 
L 705.63957 -1 
M 706.855687 -1 
L 706.986405 143.591255 
L 707.798853 388.248141 
L 708.611302 246.729101 
L 709.423751 474.328586 
L 710.2362 397.533563 
L 711.048649 380.864125 
L 711.861097 129.011206 
L 712.673546 469.835743 
L 713.485995 410.090947 
L 714.298444 22.210013 
L 715.110893 396.239636 
L 715.923342 316.489762 
L 716.73579 473.077867 
L 717.548239 287.82699 
L 717.972067 -1 
M 718.65105 -1 
L 719.173137 475.188119 
L 719.985586 477.405076 
L 720.798034 430.357163 
L 721.610483 454.306987 
L 722.422932 344.266144 
L 723.235381 476.957256 
L 724.04783 367.004538 
L 724.860278 468.639119 
L 725.667801 -1 
M 727.132605 -1 
L 727.297625 459.631901 
L 728.110074 472.918375 
L 728.922523 449.574804 
L 729.436813 -1 
M 730.086264 -1 
L 730.54742 341.913782 
L 731.359869 452.943512 
L 732.172318 353.196425 
L 732.984767 458.410097 
L 733.166211 -1 
M 734.471881 -1 
L 734.609664 325.285854 
L 735.422113 477.471872 
L 736.234562 457.206031 
L 737.047011 451.459967 
L 737.859459 53.751385 
L 738.671908 378.21028 
L 739.484357 8.349211 
L 740.296806 440.380189 
L 741.109255 481.552851 
L 741.921704 288.364397 
L 742.734152 457.917381 
L 743.546601 281.729221 
L 744.35905 479.318612 
L 745.171499 331.249975 
L 745.983948 153.757326 
L 746.796396 280.502437 
L 747.608845 473.410905 
L 747.789153 -1 
M 749.052415 -1 
L 749.233743 476.865377 
L 750.046192 291.126532 
L 750.85864 26.786377 
L 751.671089 128.550782 
L 751.807423 -1 
M 752.957892 -1 
L 753.295987 456.924042 
L 753.569324 -1 
M 754.700982 -1 
L 754.920885 334.181793 
L 755.733333 459.339483 
L 756.545782 389.942408 
L 757.358231 461.432249 
L 757.626842 -1 
M 758.812219 -1 
L 758.983129 248.423225 
L 759.795577 482.873798 
L 760.608026 475.83771 
L 761.420475 484.003622 
L 762.232924 475.566814 
L 763.045373 87.68365 
L 763.069038 -1 
M 764.590938 -1 
L 764.67027 318.862924 
L 765.482719 31.403445 
L 766.295168 344.046189 
L 767.107617 482.980448 
L 767.920066 466.296812 
L 768.732514 342.441255 
L 769.544963 463.295982 
L 770.357412 474.738313 
L 770.544674 -1 
M 772.421017 -1 
L 772.794758 483.098939 
L 773.607207 286.692569 
L 774.419656 396.66144 
L 775.232105 404.651027 
L 776.044554 484.468397 
L 776.857002 422.215818 
L 777.669451 477.260877 
L 778.4819 209.557098 
L 779.294349 380.215581 
L 779.553482 -1 
M 780.619251 -1 
L 780.919247 475.519754 
L 781.731695 57.758442 
L 782.544144 450.239025 
L 782.7723 -1 
M 784.034077 -1 
L 784.169042 229.212329 
L 784.981491 273.775184 
L 785.793939 455.561322 
L 786.606388 208.461731 
L 787.418837 447.558987 
L 788.231286 160.421752 
L 789.043735 483.714373 
L 789.856183 293.707319 
L 790.668632 456.160911 
L 790.840833 -1 
M 792.116784 -1 
L 792.29353 471.579387 
L 793.105979 188.446239 
L 793.918428 469.091505 
L 794.127015 -1 
M 795.357987 -1 
L 795.543325 401.207693 
L 796.032413 -1 
M 796.643354 -1 
L 797.168223 484.336578 
L 797.351567 -1 
M 798.643015 -1 
L 798.79312 376.406931 
L 799.015354 -1 
M 800.153433 -1 
L 800.418018 483.064673 
L 801.230467 483.285194 
L 802.042916 477.431463 
L 802.855364 456.20639 
L 803.667813 211.824889 
L 804.480262 223.769677 
L 805.292711 398.931887 
L 806.10516 475.121661 
L 806.283912 -1 
M 807.969078 -1 
L 808.542506 61.437919 
L 808.884918 -1 
M 809.479792 -1 
L 810.167404 471.096746 
L 810.979853 479.110422 
L 811.320766 -1 
M 812.312135 -1 
L 812.60475 372.80465 
L 813.417199 457.956558 
L 814.229648 479.544665 
L 815.042097 366.475546 
L 815.854545 318.594538 
L 816.666994 159.653168 
L 817.479443 407.417544 
L 818.291892 274.448182 
L 819.104341 345.897383 
L 819.91679 479.086247 
L 820.729238 340.996481 
L 821.541687 454.787496 
L 822.354136 481.00327 
L 823.166585 438.81963 
L 823.979034 481.457939 
L 824.791482 438.255597 
L 825.603931 471.636304 
L 826.41638 419.395414 
L 827.228829 1.649111 
L 828.041278 374.454792 
L 828.853726 474.215563 
L 829.459847 -1 
M 829.891915 -1 
L 830.478624 419.441313 
L 830.762337 -1 
M 831.834754 -1 
L 832.103522 386.344111 
L 832.915971 412.013856 
L 833.728419 479.951843 
L 834.540868 294.186936 
L 835.353317 297.263079 
L 836.165766 473.913471 
L 836.9289 -1 
M 837.038511 -1 
L 837.790663 381.82657 
L 838.151189 -1 
M 839.006647 -1 
L 839.415561 485.272952 
L 840.22801 477.059978 
L 840.976189 -1 
M 842.483619 -1 
L 842.665356 485.781657 
L 843.477805 454.614344 
L 844.290254 452.941232 
L 844.606317 -1 
M 845.612746 -1 
L 845.915152 421.6959 
L 846.7276 483.894411 
L 847.540049 488.148981 
L 848.352498 473.847137 
L 848.567191 -1 
M 849.758773 -1 
L 849.977396 485.738216 
L 850.789844 460.059393 
L 851.602293 321.321199 
L 851.759671 -1 
M 853.124214 -1 
L 853.227191 193.731932 
L 854.03964 465.859152 
L 854.852088 93.796924 
L 855.664537 484.02042 
L 855.960976 -1 
M 857.018699 -1 
L 857.289435 420.948892 
L 858.101884 472.934937 
L 858.914333 479.710515 
L 860.53923 394.951678 
L 861.351679 484.602002 
L 862.164128 450.415927 
L 862.976577 405.546078 
L 863.550747 -1 
M 864.228617 -1 
L 864.601474 142.102456 
L 865.413923 80.032913 
L 866.226372 487.107897 
L 867.038821 431.850258 
L 867.851269 345.996559 
L 868.663718 487.01666 
L 869.476167 374.645577 
L 870.288616 363.908086 
L 871.101065 271.310703 
L 871.214339 -1 
M 872.556654 -1 
L 872.725962 441.478442 
L 872.885412 -1 
M 874.195995 -1 
L 874.35086 425.75693 
L 875.163309 476.238025 
L 875.975758 489.123413 
L 876.788206 293.035152 
L 877.600655 377.424111 
L 877.861526 -1 
M 878.923885 -1 
L 879.225553 471.558275 
L 880.038002 323.525015 
L 880.190149 -1 
M 881.466375 -1 
L 881.662899 448.381807 
L 882.475348 219.110429 
L 883.287797 427.12355 
L 884.058275 -1 
M 884.139433 -1 
L 884.912695 459.190631 
L 885.725143 259.120177 
L 886.077709 -1 
M 886.880583 -1 
L 887.350041 463.402066 
L 888.16249 62.303776 
L 888.974939 484.557283 
L 890.599836 111.524313 
L 891.412285 487.117105 
L 892.224734 477.256184 
L 893.037183 487.169661 
L 893.849631 437.000381 
L 894.66208 417.705629 
L 895.474529 404.719079 
L 896.286978 487.348727 
L 896.468606 -1 
M 897.750929 -1 
L 897.911876 418.006364 
L 898.078342 -1 
M 899.349784 -1 
L 899.536773 485.106402 
L 900.349222 385.115226 
L 901.161671 409.74189 
L 901.332751 -1 
M 902.597209 -1 
L 902.786568 466.966287 
L 903.599017 317.223633 
L 904.411466 485.470537 
L 905.223915 208.184598 
L 906.036364 488.35774 
L 906.220203 -1 
M 907.576507 -1 
L 907.661261 193.887225 
L 908.47371 487.581641 
L 909.286159 470.464079 
L 910.098608 421.546744 
L 910.911057 120.751671 
L 911.723505 428.196275 
L 912.535954 375.881891 
L 913.252021 -1 
M 913.445168 -1 
L 914.160852 374.185934 
L 914.973301 465.399041 
L 915.785749 138.753332 
L 916.598198 447.441387 
L 917.410647 453.29864 
L 918.223096 483.096372 
L 919.035545 360.780338 
L 919.178333 -1 
M 920.499229 -1 
L 920.660442 419.020701 
L 921.264853 -1 
M 921.663695 -1 
L 922.28534 470.017581 
L 923.097789 465.638623 
L 923.910238 487.039131 
L 924.722686 162.751292 
L 925.255719 -1 
M 925.656376 -1 
L 926.347584 488.373207 
L 927.160033 455.201614 
L 927.972482 482.949813 
L 928.78493 443.388196 
L 929.597379 445.636601 
L 929.766814 -1 
M 931.03963 -1 
L 931.222277 490.56233 
L 932.034726 396.633495 
L 932.847174 455.144571 
L 933.659623 45.762942 
L 934.472072 184.138792 
L 935.284521 394.272502 
L 935.976462 -1 
M 937.401087 -1 
L 937.721867 196.818726 
L 938.534316 483.51113 
L 938.652122 -1 
M 940.043712 -1 
L 940.159214 472.462768 
L 940.971663 485.156853 
L 941.784111 480.260534 
L 942.59656 467.747824 
L 943.409009 404.237797 
L 944.246588 -1 
M 945.688418 -1 
L 945.846355 433.245415 
L 946.658804 298.613978 
L 947.061506 -1 
M 947.908309 -1 
L 948.283702 260.844448 
L 949.096151 467.375623 
L 949.9086 475.854225 
L 950.721048 488.394897 
L 951.533497 488.749429 
L 952.053175 -1 
M 953.525775 -1 
L 953.970844 486.495824 
L 954.783292 483.952105 
L 955.595741 64.194403 
L 956.40819 460.088796 
L 957.220639 363.493025 
L 958.033088 447.841927 
L 958.845536 418.098611 
L 959.657985 480.19385 
L 960.470434 491.55112 
L 961.282883 431.440376 
L 962.095332 307.422539 
L 962.907781 447.634329 
L 963.720229 209.897576 
L 964.532678 249.780064 
L 965.345127 192.405379 
L 966.157576 456.532854 
L 966.970025 55.751768 
L 967.782473 492.456118 
L 968.594922 339.646013 
L 969.407371 493.102193 
L 970.21982 238.202688 
L 971.032269 224.537705 
L 971.844717 479.945266 
L 972.555978 -1 
M 974.116296 -1 
L 974.282064 492.904129 
L 975.094513 376.448421 
L 975.906962 364.310677 
L 976.71941 361.794385 
L 977.531859 209.737517 
L 978.344308 479.692314 
L 979.156757 492.985545 
L 979.423146 -1 
M 980.549367 -1 
L 980.781654 404.428913 
L 981.594103 493.938676 
L 981.973972 -1 
M 982.919226 -1 
L 983.219001 328.561877 
L 984.03145 486.394524 
L 984.843898 291.886475 
L 985.153279 -1 
M 986.156743 -1 
L 986.468796 295.995126 
L 987.281245 314.458123 
L 988.093694 442.27754 
L 988.906143 489.428737 
L 989.125149 -1 
M 991.1767 -1 
L 991.343489 490.666575 
L 992.155938 244.993566 
L 992.968387 396.597396 
L 993.780835 473.979183 
L 994.593284 458.176687 
L 995.405733 296.844815 
L 996.218182 488.611925 
L 996.218182 488.611925 
" style="fill:none;opacity:0.3;stroke:#1f77b4;stroke-linecap:square;stroke-width:1.5;"/>
   </g>
   <g id="line2d_15">
    <path clip-path="url(#p54f7fada20)" d="M 196.711783 -1 
L 196.76855 127.072122 
L 197.580999 164.61335 
L 198.393448 162.825806 
L 198.442485 -1 
M 199.976544 -1 
L 200.018346 137.342416 
L 200.087262 -1 
M 201.567403 -1 
L 201.643243 152.67098 
L 202.021114 -1 
M 202.935577 -1 
L 203.268141 121.47708 
L 203.710171 -1 
M 205.428655 -1 
L 205.705487 36.269189 
L 206.518988 -1 
M 208.872571 -1 
L 208.955283 146.4815 
L 209.767731 99.467062 
L 210.024491 -1 
M 212.643305 -1 
L 213.017527 146.737176 
L 213.829975 85.91302 
L 213.996704 -1 
M 215.391626 -1 
L 215.454873 27.415604 
L 215.496334 -1 
M 217.748463 -1 
L 217.892219 112.687834 
L 217.945503 -1 
M 222.640829 -1 
L 222.766912 144.333916 
L 223.579361 159.19155 
L 224.39181 110.356689 
L 225.204259 153.775854 
L 225.309296 -1 
M 229.092577 -1 
L 229.266503 121.354368 
L 229.834208 -1 
M 230.318148 -1 
L 230.8914 125.415411 
L 231.703849 155.200974 
L 232.516298 163.034289 
L 233.107778 -1 
M 233.560371 -1 
L 234.141196 152.670285 
L 234.24402 -1 
M 235.652358 -1 
L 235.766093 171.632483 
L 236.578542 164.13772 
L 237.377205 -1 
M 237.410984 -1 
L 238.20344 111.983873 
L 238.329598 -1 
M 239.663642 -1 
L 239.828337 155.272242 
L 240.065388 -1 
M 242.824575 -1 
L 243.078133 171.907646 
L 243.315118 -1 
M 244.464964 -1 
L 244.70303 173.023209 
L 245.515479 120.184154 
L 245.569396 -1 
M 247.066794 -1 
L 247.140377 168.788269 
L 247.474403 -1 
M 249.209333 -1 
L 249.577723 57.058855 
L 249.744573 -1 
M 252.45407 -1 
L 252.827518 122.302012 
L 253.639967 178.147004 
L 253.791993 -1 
M 255.195926 -1 
L 255.264865 71.158642 
L 255.39976 -1 
M 257.010705 -1 
L 257.702211 175.877591 
L 258.145664 -1 
M 258.887206 -1 
L 259.327109 172.789856 
L 259.881384 -1 
M 260.467918 -1 
L 260.952007 118.339504 
L 261.381979 -1 
M 263.094263 -1 
L 263.389353 190.517315 
L 263.580192 -1 
M 266.431165 -1 
L 266.639148 182.3465 
L 267.038515 -1 
M 269.785063 -1 
L 269.888943 171.326617 
L 270.254425 -1 
M 271.509056 -1 
L 271.513841 0.248535 
L 271.56099 -1 
M 272.416502 -1 
L 273.138739 161.246761 
L 273.289928 -1 
M 275.029431 -1 
L 275.576085 180.665776 
L 275.980648 -1 
M 276.927096 -1 
L 277.200983 92.145508 
L 278.013432 114.172725 
L 278.120105 -1 
M 279.471475 -1 
L 279.638329 195.940965 
L 280.450778 197.719629 
L 280.608407 -1 
M 281.975436 -1 
L 282.075676 115.187438 
L 282.888124 109.295335 
L 283.157557 -1 
M 284.363814 -1 
L 284.513022 49.008021 
L 285.325471 152.167999 
L 286.13792 218.437302 
L 286.950369 190.642481 
L 287.762817 85.035422 
L 288.575266 218.850524 
L 289.112135 -1 
M 289.666428 -1 
L 290.200164 215.110795 
L 290.443344 -1 
M 292.298619 -1 
L 292.63751 168.154424 
L 293.082536 -1 
M 294.608273 -1 
L 295.074857 209.021145 
L 295.887305 102.103766 
L 296.121017 -1 
M 297.126633 -1 
L 297.512203 229.609077 
L 298.000774 -1 
M 298.66964 -1 
L 299.137101 206.143447 
L 299.408455 -1 
M 300.485834 -1 
L 300.761998 211.706103 
L 301.574447 214.505805 
L 301.981569 -1 
M 302.974998 -1 
L 303.199345 80.847778 
L 303.450767 -1 
M 304.383819 -1 
L 304.824242 215.214474 
L 305.419401 -1 
M 309.55671 -1 
L 309.698935 67.286692 
L 310.511384 -0.32689 
L 311.323833 217.872009 
L 312.136282 234.8318 
L 312.313381 -1 
M 313.587945 -1 
L 313.761179 228.289601 
L 314.573628 231.392334 
L 314.671088 -1 
M 317.622357 -1 
L 317.823423 209.583222 
L 318.635872 186.085952 
L 319.448321 124.137123 
L 319.749918 -1 
M 321.534944 -1 
L 321.885667 55.220978 
L 322.698116 230.185497 
L 323.510565 200.68658 
L 323.782756 -1 
M 324.819958 -1 
L 325.135463 253.157537 
L 325.650866 -1 
M 328.149098 -1 
L 328.385258 213.769606 
L 328.541063 -1 
M 329.837964 -1 
L 330.010156 242.432505 
L 330.159035 -1 
M 331.597545 -1 
L 331.635053 51.515475 
L 332.447502 166.35229 
L 333.268172 -1 
M 334.797813 -1 
L 334.884848 190.462627 
L 335.697297 29.179562 
L 336.509746 222.342311 
L 337.338183 -1 
M 338.891631 -1 
L 338.947093 12.598277 
L 339.759541 145.621657 
L 340.159312 -1 
M 340.870809 -1 
L 341.384439 259.159768 
L 342.196888 22.051709 
L 343.009337 171.063692 
L 343.821785 261.02582 
L 343.881742 -1 
M 345.400498 -1 
L 345.446683 197.216181 
L 346.259132 248.123217 
L 346.457655 -1 
M 347.693963 -1 
L 347.884029 234.270822 
L 348.696478 154.032727 
L 349.508927 205.189232 
L 350.321376 167.568722 
L 351.133825 251.482714 
L 351.826798 -1 
M 352.072073 -1 
L 352.758722 236.60282 
L 353.571171 252.19176 
L 354.38362 224.779623 
L 355.289834 -1 
M 356.551933 -1 
L 356.820966 83.48612 
L 357.633415 257.860444 
L 357.915227 -1 
M 359.01652 -1 
L 359.258313 205.52518 
L 359.721639 -1 
M 360.384283 -1 
L 360.88321 246.647811 
L 361.695659 236.484763 
L 361.986763 -1 
M 363.022067 -1 
L 363.320557 246.009691 
L 364.227402 -1 
M 365.220694 -1 
L 365.757903 165.44151 
L 366.382579 -1 
M 367.655047 -1 
L 368.19525 188.231617 
L 369.007699 165.521204 
L 369.820147 27.842146 
L 370.632596 12.07682 
L 370.928231 -1 
M 371.572575 -1 
L 372.257494 121.774049 
L 372.706857 -1 
M 373.291875 -1 
L 373.882391 262.955766 
L 373.991313 -1 
M 375.457041 -1 
L 375.507289 111.394937 
L 376.319738 242.392536 
L 377.132187 238.330176 
L 377.813908 -1 
M 378.137435 -1 
L 378.757084 146.501499 
L 379.569533 5.795332 
L 380.381982 258.404583 
L 381.194431 26.03533 
L 381.493965 -1 
M 382.201188 -1 
L 382.819328 146.274656 
L 383.280374 -1 
M 385.604023 -1 
L 386.069124 205.293924 
L 386.881572 260.60092 
L 387.694021 253.79668 
L 388.50647 83.719716 
L 389.318919 259.954104 
L 390.131368 262.276408 
L 390.943817 224.631766 
L 391.71339 -1 
M 391.826245 -1 
L 392.568714 132.372945 
L 392.886273 -1 
M 393.828364 -1 
L 394.193612 168.760306 
L 395.006061 256.129775 
L 395.818509 236.666006 
L 396.630958 88.381492 
L 396.70444 -1 
M 398.927773 -1 
L 399.068305 62.445223 
L 399.880753 196.556569 
L 400.693202 244.183839 
L 401.505651 189.501878 
L 403.130549 258.801172 
L 403.827287 -1 
M 404.093803 -1 
L 404.755446 188.299163 
L 405.074174 -1 
M 406.31749 -1 
L 406.380344 23.587803 
L 406.397291 -1 
M 407.909344 -1 
L 408.005242 153.463222 
L 408.81769 105.452628 
L 409.400771 -1 
M 409.738514 -1 
L 410.442588 271.05187 
L 411.255037 260.352967 
L 411.965639 -1 
M 412.244233 -1 
L 412.879934 133.725447 
L 413.692383 121.189183 
L 413.746717 -1 
M 415.206455 -1 
L 415.317281 268.299337 
L 416.12973 70.432722 
L 416.942179 74.128953 
L 417.754627 91.567272 
L 418.567076 247.361473 
L 418.8221 -1 
M 419.920211 -1 
L 420.191974 271.85681 
L 421.004423 272.335116 
L 421.816871 250.204231 
L 422.291081 -1 
M 423.030474 -1 
L 423.441769 182.705507 
L 424.254218 215.046363 
L 425.066667 202.284461 
L 425.879115 155.77207 
L 426.221976 -1 
M 427.946559 -1 
L 428.316462 240.894297 
L 429.128911 275.211523 
L 429.94136 216.558682 
L 430.753808 255.966619 
L 431.566257 240.385408 
L 432.378706 276.227475 
L 432.903448 -1 
M 433.564704 -1 
L 434.003604 177.59028 
L 434.173516 -1 
M 435.790946 -1 
L 436.44095 248.774212 
L 436.602023 -1 
M 437.890263 -1 
L 438.065848 277.481024 
L 438.878296 275.559303 
L 439.690745 245.535284 
L 440.503194 169.988966 
L 440.878045 -1 
M 442.207165 -1 
L 442.940541 269.493378 
L 443.752989 272.262374 
L 444.132757 -1 
M 445.949581 -1 
L 446.190336 267.809592 
L 446.455561 -1 
M 447.560381 -1 
L 447.815233 252.491873 
L 449.440131 209.259386 
L 450.25258 246.935212 
L 451.065029 92.395871 
L 451.101589 -1 
M 452.595247 -1 
L 452.689926 260.450025 
L 453.502375 262.253621 
L 454.236483 -1 
M 457.383605 -1 
L 457.564619 266.208354 
L 458.377068 207.808519 
L 459.195343 -1 
M 460.757651 -1 
L 460.814414 127.064267 
L 461.626863 268.342446 
L 462.176557 -1 
M 465.577494 -1 
L 465.689107 269.616704 
L 466.335942 -1 
M 466.668796 -1 
L 467.314005 266.311928 
L 468.126454 170.365814 
L 468.60682 -1 
M 469.261741 -1 
L 469.751351 178.664812 
L 470.5638 253.132729 
L 471.376249 28.36712 
L 471.751183 -1 
M 472.27822 -1 
L 473.001147 275.732718 
L 473.813595 246.305825 
L 474.626044 259.975249 
L 475.297704 -1 
M 475.579403 -1 
L 476.250942 259.704666 
L 477.391619 -1 
M 479.087813 -1 
L 479.500737 256.523802 
L 480.313186 111.241689 
L 480.605629 -1 
M 481.641972 -1 
L 481.938084 113.456935 
L 482.750532 196.561357 
L 483.562981 108.386262 
L 484.37543 78.471198 
L 485.187879 276.161978 
L 485.550217 -1 
M 487.262812 -1 
L 487.625225 73.5119 
L 488.217952 -1 
M 488.526709 -1 
L 489.250123 223.42427 
L 490.062572 224.215054 
L 490.87502 276.332444 
L 491.687469 280.607495 
L 492.499918 281.049955 
L 493.312367 265.270323 
L 494.124816 274.349366 
L 494.937265 186.793238 
L 495.749713 283.767238 
L 496.562162 280.189574 
L 497.374611 259.37714 
L 498.18706 211.262795 
L 498.999509 122.596694 
L 499.811957 245.712571 
L 500.624406 276.899704 
L 501.436855 241.635896 
L 501.610652 -1 
M 502.879328 -1 
L 503.061753 257.169425 
L 503.874201 43.476766 
L 504.68665 88.253693 
L 505.178347 -1 
M 505.636267 -1 
L 506.311548 285.636121 
L 506.669843 -1 
M 507.628498 -1 
L 507.936446 220.772376 
L 508.748894 275.887056 
L 509.561343 276.939344 
L 510.373792 60.232592 
L 511.186241 37.691898 
L 511.287454 -1 
M 512.429555 -1 
L 512.811138 239.793281 
L 513.623587 40.713397 
L 514.436036 287.198005 
L 515.180156 -1 
M 515.3212 -1 
L 516.060934 268.21992 
L 516.873382 251.750233 
L 517.685831 73.449601 
L 518.49828 77.652078 
L 519.310729 264.861321 
L 520.123178 11.90176 
L 520.935627 52.688082 
L 521.080757 -1 
M 522.133024 -1 
L 522.560524 273.148802 
L 522.942807 -1 
M 523.944296 -1 
L 524.185422 129.196705 
L 524.997871 272.334153 
L 525.810319 280.701575 
L 526.622768 260.684649 
L 527.435217 260.593215 
L 528.084861 -1 
M 528.425101 -1 
L 529.060115 233.619192 
L 529.872563 251.402955 
L 530.685012 193.893168 
L 531.497461 125.495191 
L 532.30991 225.650195 
L 533.122359 290.496821 
L 533.50382 -1 
M 536.152792 -1 
L 536.372154 237.896876 
L 537.184603 288.926084 
L 537.714093 -1 
M 538.281375 -1 
L 538.8095 286.790886 
L 539.621949 83.370904 
L 540.434398 86.501237 
L 541.246847 247.124277 
L 542.059296 285.296828 
L 542.853306 -1 
M 542.891414 -1 
L 543.684193 266.963752 
L 544.496642 24.831146 
L 545.309091 289.124409 
L 546.12154 254.751366 
L 546.933989 288.371436 
L 547.19833 -1 
M 548.30697 -1 
L 548.558886 268.65702 
L 548.969662 -1 
M 549.77303 -1 
L 550.183784 268.628525 
L 550.996233 53.312178 
L 551.808681 169.374665 
L 551.888402 -1 
M 553.318452 -1 
L 553.433579 257.536865 
L 554.246028 242.109934 
L 554.721208 -1 
M 555.474092 -1 
L 555.870925 163.754673 
L 556.493056 -1 
M 558.856912 -1 
L 559.120721 151.80987 
L 559.93317 248.483906 
L 560.523907 -1 
M 560.972249 -1 
L 561.558067 241.035219 
L 562.370516 57.083252 
L 562.438189 -1 
M 563.846739 -1 
L 563.995414 142.179044 
L 564.807862 288.41781 
L 565.016792 -1 
M 566.222956 -1 
L 566.43276 290.051631 
L 567.245209 229.013139 
L 567.702083 -1 
M 568.373998 -1 
L 568.870106 279.742483 
L 569.682555 286.38187 
L 570.281282 -1 
M 570.718131 -1 
L 571.307453 269.944973 
L 572.119902 163.926288 
L 572.932351 288.210284 
L 573.744799 104.230107 
L 573.85609 -1 
M 575.140775 -1 
L 575.369697 259.088928 
L 576.182146 248.040839 
L 576.994595 184.171494 
L 577.445197 -1 
M 578.119382 -1 
L 578.619492 237.092491 
L 579.138714 -1 
M 579.750157 -1 
L 580.24439 207.836001 
L 581.056839 200.106288 
L 581.869287 284.803447 
L 582.243243 -1 
M 583.229279 -1 
L 583.494185 161.138197 
L 583.708224 -1 
M 584.96003 -1 
L 585.119083 109.346151 
L 585.931532 280.234134 
L 586.74398 286.5324 
L 587.556429 111.001784 
L 588.368878 10.997019 
L 589.181327 281.752355 
L 589.993776 276.080713 
L 590.806224 223.661214 
L 591.537453 -1 
M 591.685942 -1 
L 592.431122 275.43317 
L 592.608854 -1 
M 593.942915 -1 
L 594.05602 158.658212 
L 594.868468 281.53892 
L 595.602037 -1 
M 595.77657 -1 
L 596.493366 226.669785 
L 597.305815 242.750121 
L 597.472863 -1 
M 598.928789 -1 
L 598.930713 1.234378 
L 599.743161 257.123018 
L 600.55561 7.036875 
L 601.368059 283.314719 
L 602.180508 153.003796 
L 602.992957 174.880644 
L 603.805405 227.787194 
L 604.617854 254.000162 
L 605.430303 274.292305 
L 605.687007 -1 
M 607.750327 -1 
L 607.867649 284.238478 
L 608.680098 214.842432 
L 609.492547 57.690936 
L 610.304996 134.797648 
L 611.117445 274.560739 
L 611.921027 -1 
M 613.30789 -1 
L 613.554791 168.671538 
L 614.36724 252.74244 
L 615.179689 112.510924 
L 615.992138 116.415247 
L 616.804586 262.662701 
L 617.617035 279.445205 
L 618.429484 289.342629 
L 619.241933 268.893184 
L 620.054382 62.847659 
L 620.86683 224.329873 
L 621.658551 -1 
M 621.696351 -1 
L 622.491728 273.861832 
L 622.871344 -1 
M 623.764698 -1 
L 624.116626 238.493754 
L 624.929075 267.672558 
L 625.741523 286.047283 
L 626.129487 -1 
M 628.276094 -1 
L 628.991319 262.354417 
L 629.803767 207.921213 
L 629.892984 -1 
M 631.323784 -1 
L 631.428665 250.042865 
L 632.241114 228.592565 
L 632.350944 -1 
M 633.739524 -1 
L 633.866011 269.833658 
L 634.67846 268.252118 
L 635.490909 91.77466 
L 635.744661 -1 
M 636.639152 -1 
L 637.115807 288.951494 
L 637.293116 -1 
M 638.563587 -1 
L 638.740704 288.550604 
L 639.553153 273.062684 
L 640.365602 276.270438 
L 641.117514 -1 
M 641.241394 -1 
L 641.9905 262.997347 
L 642.802948 264.629088 
L 643.615397 275.639809 
L 644.427846 187.76755 
L 645.240295 80.963131 
L 646.052744 264.46027 
L 646.865192 276.836502 
L 647.677641 146.338273 
L 648.49009 245.960885 
L 649.302539 278.912067 
L 650.114988 273.028525 
L 650.927437 265.828184 
L 651.261741 -1 
M 652.255704 -1 
L 652.552334 218.465328 
L 653.364783 243.558195 
L 654.177232 255.827521 
L 654.365821 -1 
M 656.438757 -1 
L 656.614578 290.826364 
L 657.427027 287.547806 
L 658.080894 -1 
M 658.413043 -1 
L 659.051925 256.592093 
L 659.864373 275.134052 
L 660.676822 282.44159 
L 661.489271 260.542758 
L 662.30172 279.348635 
L 662.759092 -1 
M 663.492361 -1 
L 663.926618 248.910512 
L 664.739066 293.190557 
L 665.551515 211.807542 
L 666.363964 253.746745 
L 667.176413 193.449576 
L 667.988862 165.179238 
L 668.80131 283.590361 
L 669.613759 279.476929 
L 670.426208 277.317829 
L 671.238657 5.211863 
L 672.051106 290.115265 
L 672.863554 261.593767 
L 673.2113 -1 
M 674.206101 -1 
L 674.488452 185.90957 
L 675.300901 270.543146 
L 676.11335 201.614437 
L 676.925799 276.644186 
L 677.738247 157.374696 
L 678.550696 232.627387 
L 679.363145 41.527145 
L 680.175594 16.243183 
L 680.988043 295.008785 
L 681.800491 27.653584 
L 682.61294 282.615055 
L 682.728817 -1 
M 685.19861 -1 
L 685.862735 291.322255 
L 686.64724 -1 
M 686.704683 -1 
L 687.487633 275.370479 
L 688.300082 285.80809 
L 689.112531 285.966471 
L 689.92498 283.256778 
L 690.737428 290.204083 
L 691.475173 -1 
M 692.864879 -1 
L 693.174775 210.359005 
L 693.987224 285.110709 
L 694.799672 280.965689 
L 695.612121 105.933449 
L 696.42457 122.601999 
L 697.237019 9.056291 
L 698.049468 285.219436 
L 698.861916 287.829174 
L 699.314188 -1 
M 701.011635 -1 
L 701.299263 292.440084 
L 702.111712 234.105136 
L 702.862134 -1 
M 703.742334 -1 
L 704.549058 214.495567 
L 705.361507 275.25127 
L 705.489443 -1 
M 706.888108 -1 
L 706.986405 202.443151 
L 707.798853 1.697965 
L 708.611302 290.271186 
L 709.423751 195.443193 
L 710.2362 290.887803 
L 711.048649 281.098073 
L 711.861097 247.505702 
L 712.673546 239.875948 
L 713.485995 272.01663 
L 715.110893 217.357822 
L 715.923342 180.578672 
L 716.73579 282.342285 
L 717.548239 224.465125 
L 717.736249 -1 
M 718.967443 -1 
L 719.173137 252.860338 
L 719.985586 254.06721 
L 720.204759 -1 
M 721.403489 -1 
L 721.610483 235.048043 
L 722.092848 -1 
M 722.729066 -1 
L 723.235381 266.152923 
L 724.04783 294.20276 
L 724.860278 292.964926 
L 725.4634 -1 
M 725.890336 -1 
L 726.485176 277.894683 
L 727.297625 279.969809 
L 728.110074 291.210744 
L 728.680357 -1 
M 729.184994 -1 
L 729.734971 259.003597 
L 730.54742 292.659134 
L 731.359869 43.355914 
L 732.172318 40.430095 
L 732.984767 293.869823 
L 734.609664 272.007175 
L 735.422113 254.340867 
L 736.234562 269.296259 
L 736.815485 -1 
M 737.34144 -1 
L 737.859459 188.53331 
L 738.671908 290.207442 
L 739.490443 -1 
M 740.721657 -1 
L 741.109255 242.790245 
L 741.921704 293.262442 
L 742.734152 178.977593 
L 743.546601 293.550643 
L 744.011096 -1 
M 744.74951 -1 
L 745.171499 237.465748 
L 745.745887 -1 
M 746.193612 -1 
L 746.796396 283.149249 
L 747.608845 283.384504 
L 748.421294 240.320842 
L 749.233743 284.64396 
L 749.782236 -1 
M 750.452023 -1 
L 750.85864 136.72921 
L 751.671089 235.621116 
L 752.483538 171.716116 
L 753.089371 -1 
M 754.706124 -1 
L 754.920885 289.692797 
L 756.545782 294.393476 
L 757.358231 292.877883 
L 758.17068 226.016281 
L 758.983129 196.899227 
L 760.608026 280.498438 
L 761.028292 -1 
M 761.827046 -1 
L 762.232924 261.240362 
L 763.045373 286.54731 
L 763.857821 248.63134 
L 764.67027 292.664115 
L 765.482719 292.848478 
L 766.295168 182.454457 
L 767.107617 191.713229 
L 767.920066 78.214376 
L 768.732514 292.291384 
L 769.544963 292.744659 
L 770.357412 235.130657 
L 771.002463 -1 
M 771.310102 -1 
L 771.98231 292.722201 
L 772.794758 131.576598 
L 773.005425 -1 
M 774.064771 -1 
L 774.419656 292.728892 
L 775.232105 22.728153 
L 776.044554 281.495298 
L 776.62521 -1 
M 777.084902 -1 
L 777.669451 288.247272 
L 778.4819 90.086441 
L 778.74062 -1 
M 779.624552 -1 
L 780.106798 283.714449 
L 780.919247 292.247416 
L 781.731695 157.085295 
L 782.544144 209.683012 
L 783.356593 238.696166 
L 784.169042 123.419732 
L 784.393179 -1 
M 785.429706 -1 
L 785.793939 264.383344 
L 786.241604 -1 
M 787.555909 -1 
L 788.231286 261.275281 
L 789.043735 292.82696 
L 789.856183 251.532358 
L 791.481081 285.811961 
L 792.29353 169.631781 
L 792.579857 -1 
M 793.716682 -1 
L 793.918428 102.575363 
L 794.730876 255.822322 
L 795.543325 291.185696 
L 796.355774 269.883727 
L 797.168223 271.679457 
L 797.449775 -1 
M 798.504644 -1 
L 798.79312 282.078054 
L 799.510942 -1 
M 799.698902 -1 
L 800.418018 286.524734 
L 801.230467 217.573364 
L 802.042916 291.911119 
L 802.618724 -1 
M 803.310599 -1 
L 803.667813 93.45848 
L 804.480262 50.939156 
L 804.879173 -1 
M 805.421378 -1 
L 806.10516 285.142917 
L 806.917609 281.341445 
L 807.730057 265.07351 
L 808.393081 -1 
M 808.679922 -1 
L 809.354955 293.568993 
L 810.167404 225.445415 
L 810.979853 283.289776 
L 811.099782 -1 
M 812.482856 -1 
L 812.60475 288.769079 
L 813.417199 292.659241 
L 814.229648 287.387147 
L 815.042097 295.182417 
L 815.854545 286.533593 
L 816.219698 -1 
M 817.108546 -1 
L 817.479443 294.856284 
L 818.291892 217.7856 
L 818.627623 -1 
M 820.338449 -1 
L 820.729238 187.723183 
L 821.541687 270.484799 
L 822.354136 294.868981 
L 823.166585 291.506868 
L 823.979034 293.028148 
L 824.791482 295.611865 
L 825.603931 261.561567 
L 826.41638 290.263962 
L 827.228829 292.649974 
L 828.564812 -1 
M 828.98756 -1 
L 829.666175 293.424333 
L 830.478624 288.711423 
L 830.772749 -1 
M 833.768516 -1 
L 834.540868 213.18418 
L 835.353317 88.131061 
L 836.165766 225.512265 
L 836.978215 292.009153 
L 837.790663 286.524746 
L 838.240616 -1 
M 840.426543 -1 
L 841.040459 286.331518 
L 841.852907 286.923224 
L 842.665356 281.444263 
L 843.097334 -1 
M 843.853572 -1 
L 844.290254 288.093922 
L 845.102703 171.620588 
L 845.915152 289.021062 
L 846.7276 274.231882 
L 847.540049 272.081113 
L 848.352498 251.903827 
L 848.458242 -1 
M 849.901074 -1 
L 849.977396 174.240324 
L 850.789844 235.646424 
L 850.890378 -1 
M 852.296675 -1 
L 852.414742 283.936415 
L 853.227191 260.437613 
L 853.703881 -1 
M 854.789799 -1 
L 854.852088 14.290395 
L 855.007125 -1 
M 857.193901 -1 
L 857.289435 222.954101 
L 858.101884 123.385001 
L 858.914333 178.765235 
L 859.106413 -1 
M 860.269227 -1 
L 860.53923 287.991199 
L 861.351679 112.164997 
L 862.164128 250.208347 
L 862.976577 283.965397 
L 863.485741 -1 
M 865.91781 -1 
L 866.226372 245.595367 
L 867.038821 21.421731 
L 867.851269 175.679042 
L 868.663718 285.73774 
L 869.543133 -1 
M 871.395216 -1 
L 871.913514 249.737233 
L 872.725962 269.168229 
L 873.435646 -1 
M 874.940299 -1 
L 875.163309 278.310231 
L 875.975758 248.808907 
L 876.788206 82.800378 
L 877.600655 255.97117 
L 878.413104 288.794227 
L 879.225553 270.207454 
L 880.038002 291.260288 
L 880.85045 255.930484 
L 881.686775 -1 
M 883.261278 -1 
L 883.287797 26.449025 
L 884.100246 291.685509 
L 884.912695 278.436992 
L 885.725143 261.320949 
L 886.537592 230.76968 
L 887.350041 289.650464 
L 888.16249 218.395935 
L 888.974939 288.044911 
L 889.787387 288.585659 
L 890.010945 -1 
M 891.394586 -1 
L 891.412285 15.987678 
L 892.224734 274.217953 
L 893.037183 273.679912 
L 893.849631 253.677603 
L 894.66208 283.818741 
L 895.474529 280.458043 
L 896.286978 290.991981 
L 896.353176 -1 
M 897.853502 -1 
L 897.911876 253.807028 
L 898.724324 248.327646 
L 899.536773 233.331757 
L 899.828008 -1 
M 900.841683 -1 
L 901.161671 271.498348 
L 901.661143 -1 
M 902.276397 -1 
L 902.786568 287.188219 
L 903.599017 286.951075 
L 904.411466 248.064659 
L 905.223915 79.460009 
L 906.036364 286.056627 
L 906.848812 281.231051 
L 907.661261 237.004164 
L 908.47371 288.565616 
L 909.286159 239.633646 
L 909.771984 -1 
M 911.321967 -1 
L 911.723505 271.742197 
L 912.46793 -1 
M 912.608233 -1 
L 913.348403 254.219077 
L 914.160852 67.384222 
L 914.973301 192.603211 
L 915.218885 -1 
M 916.306704 -1 
L 916.598198 249.046209 
L 917.410647 290.078186 
L 918.223096 10.852348 
L 919.035545 227.213571 
L 919.847993 6.498116 
L 920.660442 7.548684 
L 921.472891 197.594315 
L 922.28534 293.789405 
L 923.097789 293.971026 
L 923.438466 -1 
M 925.283589 -1 
L 925.535135 159.253174 
L 926.347584 45.589405 
L 927.160033 280.024114 
L 927.972482 287.984275 
L 928.78493 274.330013 
L 929.597379 215.870384 
L 930.409828 272.265016 
L 931.222277 287.631025 
L 932.034726 261.62805 
L 932.847174 225.102361 
L 933.659623 68.215388 
L 934.472072 283.111108 
L 935.284521 197.1607 
L 936.09697 288.064074 
L 936.909419 261.479841 
L 937.721867 106.23371 
L 938.534316 255.574363 
L 939.346765 89.516723 
L 940.159214 231.789483 
L 940.971663 279.295731 
L 941.784111 127.642964 
L 942.59656 192.424987 
L 943.409009 34.348615 
L 943.703688 -1 
M 944.372625 -1 
L 945.033907 270.700528 
L 945.846355 286.547878 
L 946.658804 287.298881 
L 946.915635 -1 
M 948.131578 -1 
L 948.283702 142.685117 
L 948.559263 -1 
M 949.604929 -1 
L 949.9086 166.09102 
L 950.176331 -1 
M 951.173371 -1 
L 951.533497 269.665081 
L 952.345946 63.543976 
L 953.158395 285.907878 
L 953.970844 275.466061 
L 954.783292 275.648726 
L 955.280867 -1 
M 955.922145 -1 
L 956.40819 259.69242 
L 957.220639 224.210362 
L 958.033088 251.510406 
L 958.845536 274.831292 
L 959.657985 252.83548 
L 960.470434 272.885514 
L 961.282883 98.692329 
L 962.095332 276.355078 
L 962.907781 179.052138 
L 963.720229 168.867165 
L 964.532678 141.440947 
L 965.345127 266.291057 
L 966.157576 283.408311 
L 966.970025 264.948133 
L 967.782473 266.325143 
L 968.594922 97.529607 
L 969.407371 288.23397 
L 970.21982 265.787129 
L 970.662764 -1 
M 971.396962 -1 
L 971.844717 272.243068 
L 972.140789 -1 
M 973.245901 -1 
L 973.469615 180.089827 
L 974.282064 281.089611 
L 974.775659 -1 
M 975.538369 -1 
L 975.906962 150.325822 
L 976.71941 282.582022 
L 977.168654 -1 
M 977.889606 -1 
L 978.344308 290.406404 
L 979.156757 281.376258 
L 979.391992 -1 
M 980.546126 -1 
L 980.781654 281.870995 
L 981.594103 213.246108 
L 982.406552 208.705616 
L 983.219001 8.463301 
L 984.03145 207.661066 
L 984.843898 257.731099 
L 985.656347 213.030311 
L 985.866098 -1 
M 987.6939 -1 
L 988.093694 268.584411 
L 988.906143 251.048886 
L 989.199696 -1 
M 990.24491 -1 
L 990.53104 241.209715 
L 991.343489 59.269955 
L 992.155938 284.282245 
L 992.968387 30.558242 
L 993.780835 104.050872 
L 994.593284 289.80538 
L 994.812243 -1 
M 996.019489 -1 
L 996.218182 254.176556 
L 996.218182 254.176556 
" style="fill:none;opacity:0.3;stroke:#ff7f0e;stroke-linecap:square;stroke-width:1.5;"/>
   </g>
   <g id="line2d_16">
    <path clip-path="url(#p54f7fada20)" d="M 184.581818 504.667302 
L 195.956102 508.260407 
L 208.142834 511.875552 
L 221.142015 515.499733 
L 234.953645 519.123332 
L 250.390172 522.934352 
L 266.639148 526.711221 
L 284.513022 530.626354 
L 303.199345 534.487144 
L 323.510565 538.44802 
L 344.634234 542.33515 
L 366.570352 546.143178 
L 389.318919 549.863352 
L 412.879934 553.485961 
L 437.253399 557.002516 
L 462.439312 560.406531 
L 488.437674 563.693148 
L 515.248485 566.858423 
L 542.871744 569.898855 
L 572.119902 572.8914 
L 602.180508 575.741487 
L 633.053563 578.448013 
L 665.551515 581.073844 
L 699.674365 583.604377 
L 735.422113 586.027662 
L 772.794758 588.334391 
L 811.792301 590.517756 
L 853.227191 592.612165 
L 897.099427 594.602869 
L 943.409009 596.478166 
L 992.155938 598.228922 
L 996.218182 598.365288 
L 996.218182 598.365288 
" style="fill:none;stroke:#2ca02c;stroke-linecap:square;stroke-width:1.5;"/>
   </g>
   <g id="line2d_17">
    <path clip-path="url(#p54f7fada20)" d="M 184.581818 184.667567 
L 185.394267 319.121686 
L 186.206716 478.385958 
L 187.019165 536.662348 
L 187.831613 410.728872 
L 188.644062 451.907335 
L 189.456511 534.094046 
L 190.26896 550.439854 
L 191.081409 536.196556 
L 191.893857 519.281004 
L 192.706306 509.135951 
L 193.518755 507.82881 
L 194.331204 514.208962 
L 195.143653 525.725289 
L 196.76855 551.386295 
L 197.580999 559.078149 
L 198.393448 560.035838 
L 199.205897 554.26443 
L 200.018346 546.265988 
L 200.830794 543.053304 
L 201.643243 546.855732 
L 203.268141 560.551194 
L 204.08059 563.879758 
L 204.893038 564.124599 
L 205.705487 562.388156 
L 206.517936 560.060866 
L 207.330385 558.323048 
L 208.142834 557.873119 
L 208.955283 558.86046 
L 209.767731 560.969 
L 211.392629 565.944337 
L 212.205078 567.414463 
L 213.017527 567.635443 
L 213.829975 566.769666 
L 214.642424 565.545263 
L 215.454873 564.910546 
L 216.267322 565.388505 
L 218.704668 569.451181 
L 219.517117 569.837879 
L 220.329566 569.590657 
L 221.142015 569.093578 
L 221.954464 568.782789 
L 222.766912 568.932612 
L 223.579361 569.553822 
L 225.204259 571.221693 
L 226.016708 571.658655 
L 226.829156 571.656483 
L 228.454054 571.276307 
L 229.266503 571.51042 
L 231.703849 573.049547 
L 232.516298 573.133141 
L 234.141196 573.034345 
L 234.953645 573.239712 
L 237.390991 574.317261 
L 239.828337 574.462737 
L 242.265684 575.308854 
L 244.70303 575.550965 
L 247.140377 576.208529 
L 248.765274 576.352659 
L 251.202621 576.920281 
L 252.827518 577.08858 
L 255.264865 577.573899 
L 256.889762 577.768978 
L 259.327109 578.174865 
L 263.389353 578.759469 
L 267.451597 579.365093 
L 284.513022 581.542168 
L 303.199345 583.47193 
L 316.198526 584.556339 
L 331.635053 585.642385 
L 351.946274 586.821578 
L 379.569533 588.181056 
L 421.004423 589.877322 
L 450.25258 590.884005 
L 497.374611 592.249603 
L 546.12154 593.406566 
L 604.617854 594.532729 
L 665.551515 595.477055 
L 723.235381 596.205228 
L 799.605569 596.976421 
L 875.163309 597.57312 
L 996.218182 598.271795 
L 996.218182 598.271795 
" style="fill:none;stroke:#d62728;stroke-linecap:square;stroke-width:1.5;"/>
   </g>
   <g id="patch_3">
    <path d="M 144 630 
L 144 86.4 
" style="fill:none;stroke:#000000;stroke-linecap:square;stroke-linejoin:miter;stroke-width:0.8;"/>
   </g>
   <g id="patch_4">
    <path d="M 1036.8 630 
L 1036.8 86.4 
" style="fill:none;stroke:#000000;stroke-linecap:square;stroke-linejoin:miter;stroke-width:0.8;"/>
   </g>
   <g id="patch_5">
    <path d="M 144 630 
L 1036.8 630 
" style="fill:none;stroke:#000000;stroke-linecap:square;stroke-linejoin:miter;stroke-width:0.8;"/>
   </g>
   <g id="patch_6">
    <path d="M 144 86.4 
L 1036.8 86.4 
" style="fill:none;stroke:#000000;stroke-linecap:square;stroke-linejoin:miter;stroke-width:0.8;"/>
   </g>
   <g id="text_16">
    <!-- WDBC: All 4 implementations for the best params -->
    <defs>
     <path d="M 3.328125 72.90625 
L 13.28125 72.90625 
L 28.609375 11.28125 
L 43.890625 72.90625 
L 54.984375 72.90625 
L 70.3125 11.28125 
L 85.59375 72.90625 
L 95.609375 72.90625 
L 77.296875 0 
L 64.890625 0 
L 49.515625 63.28125 
L 33.984375 0 
L 21.578125 0 
z
" id="DejaVuSans-57"/>
     <path d="M 19.671875 64.796875 
L 19.671875 8.109375 
L 31.59375 8.109375 
Q 46.6875 8.109375 53.6875 14.9375 
Q 60.6875 21.78125 60.6875 36.53125 
Q 60.6875 51.171875 53.6875 57.984375 
Q 46.6875 64.796875 31.59375 64.796875 
z
M 9.8125 72.90625 
L 30.078125 72.90625 
Q 51.265625 72.90625 61.171875 64.09375 
Q 71.09375 55.28125 71.09375 36.53125 
Q 71.09375 17.671875 61.125 8.828125 
Q 51.171875 0 30.078125 0 
L 9.8125 0 
z
" id="DejaVuSans-44"/>
     <path d="M 19.671875 34.8125 
L 19.671875 8.109375 
L 35.5 8.109375 
Q 43.453125 8.109375 47.28125 11.40625 
Q 51.125 14.703125 51.125 21.484375 
Q 51.125 28.328125 47.28125 31.5625 
Q 43.453125 34.8125 35.5 34.8125 
z
M 19.671875 64.796875 
L 19.671875 42.828125 
L 34.28125 42.828125 
Q 41.5 42.828125 45.03125 45.53125 
Q 48.578125 48.25 48.578125 53.8125 
Q 48.578125 59.328125 45.03125 62.0625 
Q 41.5 64.796875 34.28125 64.796875 
z
M 9.8125 72.90625 
L 35.015625 72.90625 
Q 46.296875 72.90625 52.390625 68.21875 
Q 58.5 63.53125 58.5 54.890625 
Q 58.5 48.1875 55.375 44.234375 
Q 52.25 40.28125 46.1875 39.3125 
Q 53.46875 37.75 57.5 32.78125 
Q 61.53125 27.828125 61.53125 20.40625 
Q 61.53125 10.640625 54.890625 5.3125 
Q 48.25 0 35.984375 0 
L 9.8125 0 
z
" id="DejaVuSans-42"/>
     <path d="M 64.40625 67.28125 
L 64.40625 56.890625 
Q 59.421875 61.53125 53.78125 63.8125 
Q 48.140625 66.109375 41.796875 66.109375 
Q 29.296875 66.109375 22.65625 58.46875 
Q 16.015625 50.828125 16.015625 36.375 
Q 16.015625 21.96875 22.65625 14.328125 
Q 29.296875 6.6875 41.796875 6.6875 
Q 48.140625 6.6875 53.78125 8.984375 
Q 59.421875 11.28125 64.40625 15.921875 
L 64.40625 5.609375 
Q 59.234375 2.09375 53.4375 0.328125 
Q 47.65625 -1.421875 41.21875 -1.421875 
Q 24.65625 -1.421875 15.125 8.703125 
Q 5.609375 18.84375 5.609375 36.375 
Q 5.609375 53.953125 15.125 64.078125 
Q 24.65625 74.21875 41.21875 74.21875 
Q 47.75 74.21875 53.53125 72.484375 
Q 59.328125 70.75 64.40625 67.28125 
z
" id="DejaVuSans-43"/>
     <path d="M 11.71875 12.40625 
L 22.015625 12.40625 
L 22.015625 0 
L 11.71875 0 
z
M 11.71875 51.703125 
L 22.015625 51.703125 
L 22.015625 39.3125 
L 11.71875 39.3125 
z
" id="DejaVuSans-3a"/>
     <path id="DejaVuSans-20"/>
     <path d="M 34.1875 63.1875 
L 20.796875 26.90625 
L 47.609375 26.90625 
z
M 28.609375 72.90625 
L 39.796875 72.90625 
L 67.578125 0 
L 57.328125 0 
L 50.6875 18.703125 
L 17.828125 18.703125 
L 11.1875 0 
L 0.78125 0 
z
" id="DejaVuSans-41"/>
     <path d="M 9.421875 75.984375 
L 18.40625 75.984375 
L 18.40625 0 
L 9.421875 0 
z
" id="DejaVuSans-6c"/>
     <path d="M 52 44.1875 
Q 55.375 50.25 60.0625 53.125 
Q 64.75 56 71.09375 56 
Q 79.640625 56 84.28125 50.015625 
Q 88.921875 44.046875 88.921875 33.015625 
L 88.921875 0 
L 79.890625 0 
L 79.890625 32.71875 
Q 79.890625 40.578125 77.09375 44.375 
Q 74.3125 48.1875 68.609375 48.1875 
Q 61.625 48.1875 57.5625 43.546875 
Q 53.515625 38.921875 53.515625 30.90625 
L 53.515625 0 
L 44.484375 0 
L 44.484375 32.71875 
Q 44.484375 40.625 41.703125 44.40625 
Q 38.921875 48.1875 33.109375 48.1875 
Q 26.21875 48.1875 22.15625 43.53125 
Q 18.109375 38.875 18.109375 30.90625 
L 18.109375 0 
L 9.078125 0 
L 9.078125 54.6875 
L 18.109375 54.6875 
L 18.109375 46.1875 
Q 21.1875 51.21875 25.484375 53.609375 
Q 29.78125 56 35.6875 56 
Q 41.65625 56 45.828125 52.96875 
Q 50 49.953125 52 44.1875 
z
" id="DejaVuSans-6d"/>
     <path d="M 18.109375 8.203125 
L 18.109375 -20.796875 
L 9.078125 -20.796875 
L 9.078125 54.6875 
L 18.109375 54.6875 
L 18.109375 46.390625 
Q 20.953125 51.265625 25.265625 53.625 
Q 29.59375 56 35.59375 56 
Q 45.5625 56 51.78125 48.09375 
Q 58.015625 40.1875 58.015625 27.296875 
Q 58.015625 14.40625 51.78125 6.484375 
Q 45.5625 -1.421875 35.59375 -1.421875 
Q 29.59375 -1.421875 25.265625 0.953125 
Q 20.953125 3.328125 18.109375 8.203125 
z
M 48.6875 27.296875 
Q 48.6875 37.203125 44.609375 42.84375 
Q 40.53125 48.484375 33.40625 48.484375 
Q 26.265625 48.484375 22.1875 42.84375 
Q 18.109375 37.203125 18.109375 27.296875 
Q 18.109375 17.390625 22.1875 11.75 
Q 26.265625 6.109375 33.40625 6.109375 
Q 40.53125 6.109375 44.609375 11.75 
Q 48.6875 17.390625 48.6875 27.296875 
z
" id="DejaVuSans-70"/>
     <path d="M 37.109375 75.984375 
L 37.109375 68.5 
L 28.515625 68.5 
Q 23.6875 68.5 21.796875 66.546875 
Q 19.921875 64.59375 19.921875 59.515625 
L 19.921875 54.6875 
L 34.71875 54.6875 
L 34.71875 47.703125 
L 19.921875 47.703125 
L 19.921875 0 
L 10.890625 0 
L 10.890625 47.703125 
L 2.296875 47.703125 
L 2.296875 54.6875 
L 10.890625 54.6875 
L 10.890625 58.5 
Q 10.890625 67.625 15.140625 71.796875 
Q 19.390625 75.984375 28.609375 75.984375 
z
" id="DejaVuSans-66"/>
     <path d="M 54.890625 33.015625 
L 54.890625 0 
L 45.90625 0 
L 45.90625 32.71875 
Q 45.90625 40.484375 42.875 44.328125 
Q 39.84375 48.1875 33.796875 48.1875 
Q 26.515625 48.1875 22.3125 43.546875 
Q 18.109375 38.921875 18.109375 30.90625 
L 18.109375 0 
L 9.078125 0 
L 9.078125 75.984375 
L 18.109375 75.984375 
L 18.109375 46.1875 
Q 21.34375 51.125 25.703125 53.5625 
Q 30.078125 56 35.796875 56 
Q 45.21875 56 50.046875 50.171875 
Q 54.890625 44.34375 54.890625 33.015625 
z
" id="DejaVuSans-68"/>
     <path d="M 48.6875 27.296875 
Q 48.6875 37.203125 44.609375 42.84375 
Q 40.53125 48.484375 33.40625 48.484375 
Q 26.265625 48.484375 22.1875 42.84375 
Q 18.109375 37.203125 18.109375 27.296875 
Q 18.109375 17.390625 22.1875 11.75 
Q 26.265625 6.109375 33.40625 6.109375 
Q 40.53125 6.109375 44.609375 11.75 
Q 48.6875 17.390625 48.6875 27.296875 
z
M 18.109375 46.390625 
Q 20.953125 51.265625 25.265625 53.625 
Q 29.59375 56 35.59375 56 
Q 45.5625 56 51.78125 48.09375 
Q 58.015625 40.1875 58.015625 27.296875 
Q 58.015625 14.40625 51.78125 6.484375 
Q 45.5625 -1.421875 35.59375 -1.421875 
Q 29.59375 -1.421875 25.265625 0.953125 
Q 20.953125 3.328125 18.109375 8.203125 
L 18.109375 0 
L 9.078125 0 
L 9.078125 75.984375 
L 18.109375 75.984375 
z
" id="DejaVuSans-62"/>
    </defs>
    <g transform="translate(374.65515 80.4)scale(0.1728 -0.1728)">
     <use xlink:href="#DejaVuSans-57"/>
     <use x="98.876953" xlink:href="#DejaVuSans-44"/>
     <use x="175.878906" xlink:href="#DejaVuSans-42"/>
     <use x="244.466797" xlink:href="#DejaVuSans-43"/>
     <use x="314.291016" xlink:href="#DejaVuSans-3a"/>
     <use x="347.982422" xlink:href="#DejaVuSans-20"/>
     <use x="379.769531" xlink:href="#DejaVuSans-41"/>
     <use x="448.177734" xlink:href="#DejaVuSans-6c"/>
     <use x="475.960938" xlink:href="#DejaVuSans-6c"/>
     <use x="503.744141" xlink:href="#DejaVuSans-20"/>
     <use x="535.53125" xlink:href="#DejaVuSans-34"/>
     <use x="599.154297" xlink:href="#DejaVuSans-20"/>
     <use x="630.941406" xlink:href="#DejaVuSans-69"/>
     <use x="658.724609" xlink:href="#DejaVuSans-6d"/>
     <use x="756.136719" xlink:href="#DejaVuSans-70"/>
     <use x="819.613281" xlink:href="#DejaVuSans-6c"/>
     <use x="847.396484" xlink:href="#DejaVuSans-65"/>
     <use x="908.919922" xlink:href="#DejaVuSans-6d"/>
     <use x="1006.332031" xlink:href="#DejaVuSans-65"/>
     <use x="1067.855469" xlink:href="#DejaVuSans-6e"/>
     <use x="1131.234375" xlink:href="#DejaVuSans-74"/>
     <use x="1170.443359" xlink:href="#DejaVuSans-61"/>
     <use x="1231.722656" xlink:href="#DejaVuSans-74"/>
     <use x="1270.931641" xlink:href="#DejaVuSans-69"/>
     <use x="1298.714844" xlink:href="#DejaVuSans-6f"/>
     <use x="1359.896484" xlink:href="#DejaVuSans-6e"/>
     <use x="1423.275391" xlink:href="#DejaVuSans-73"/>
     <use x="1475.375" xlink:href="#DejaVuSans-20"/>
     <use x="1507.162109" xlink:href="#DejaVuSans-66"/>
     <use x="1542.367188" xlink:href="#DejaVuSans-6f"/>
     <use x="1603.548828" xlink:href="#DejaVuSans-72"/>
     <use x="1644.662109" xlink:href="#DejaVuSans-20"/>
     <use x="1676.449219" xlink:href="#DejaVuSans-74"/>
     <use x="1715.658203" xlink:href="#DejaVuSans-68"/>
     <use x="1779.037109" xlink:href="#DejaVuSans-65"/>
     <use x="1840.560547" xlink:href="#DejaVuSans-20"/>
     <use x="1872.347656" xlink:href="#DejaVuSans-62"/>
     <use x="1935.824219" xlink:href="#DejaVuSans-65"/>
     <use x="1997.347656" xlink:href="#DejaVuSans-73"/>
     <use x="2049.447266" xlink:href="#DejaVuSans-74"/>
     <use x="2088.65625" xlink:href="#DejaVuSans-20"/>
     <use x="2120.443359" xlink:href="#DejaVuSans-70"/>
     <use x="2183.919922" xlink:href="#DejaVuSans-61"/>
     <use x="2245.199219" xlink:href="#DejaVuSans-72"/>
     <use x="2286.3125" xlink:href="#DejaVuSans-61"/>
     <use x="2347.591797" xlink:href="#DejaVuSans-6d"/>
     <use x="2445.003906" xlink:href="#DejaVuSans-73"/>
    </g>
   </g>
   <g id="legend_1">
    <g id="patch_7">
     <path d="M 967.792187 153.1125 
L 1029.8 153.1125 
Q 1031.8 153.1125 1031.8 151.1125 
L 1031.8 93.4 
Q 1031.8 91.4 1029.8 91.4 
L 967.792187 91.4 
Q 965.792187 91.4 965.792187 93.4 
L 965.792187 151.1125 
Q 965.792187 153.1125 967.792187 153.1125 
z
" style="fill:#ffffff;opacity:0.8;stroke:#cccccc;stroke-linejoin:miter;"/>
    </g>
    <g id="line2d_18">
     <path d="M 969.792187 99.498437 
L 989.792187 99.498437 
" style="fill:none;opacity:0.3;stroke:#1f77b4;stroke-linecap:square;stroke-width:1.5;"/>
    </g>
    <g id="line2d_19"/>
    <g id="text_17">
     <!-- GD -->
     <defs>
      <path d="M 59.515625 10.40625 
L 59.515625 29.984375 
L 43.40625 29.984375 
L 43.40625 38.09375 
L 69.28125 38.09375 
L 69.28125 6.78125 
Q 63.578125 2.734375 56.6875 0.65625 
Q 49.8125 -1.421875 42 -1.421875 
Q 24.90625 -1.421875 15.25 8.5625 
Q 5.609375 18.5625 5.609375 36.375 
Q 5.609375 54.25 15.25 64.234375 
Q 24.90625 74.21875 42 74.21875 
Q 49.125 74.21875 55.546875 72.453125 
Q 61.96875 70.703125 67.390625 67.28125 
L 67.390625 56.78125 
Q 61.921875 61.421875 55.765625 63.765625 
Q 49.609375 66.109375 42.828125 66.109375 
Q 29.4375 66.109375 22.71875 58.640625 
Q 16.015625 51.171875 16.015625 36.375 
Q 16.015625 21.625 22.71875 14.15625 
Q 29.4375 6.6875 42.828125 6.6875 
Q 48.046875 6.6875 52.140625 7.59375 
Q 56.25 8.5 59.515625 10.40625 
z
" id="DejaVuSans-47"/>
     </defs>
     <g transform="translate(997.792187 102.998437)scale(0.1 -0.1)">
      <use xlink:href="#DejaVuSans-47"/>
      <use x="77.490234" xlink:href="#DejaVuSans-44"/>
     </g>
    </g>
    <g id="line2d_20">
     <path d="M 969.792187 114.176562 
L 989.792187 114.176562 
" style="fill:none;opacity:0.3;stroke:#ff7f0e;stroke-linecap:square;stroke-width:1.5;"/>
    </g>
    <g id="line2d_21"/>
    <g id="text_18">
     <!-- SGD -->
     <defs>
      <path d="M 53.515625 70.515625 
L 53.515625 60.890625 
Q 47.90625 63.578125 42.921875 64.890625 
Q 37.9375 66.21875 33.296875 66.21875 
Q 25.25 66.21875 20.875 63.09375 
Q 16.5 59.96875 16.5 54.203125 
Q 16.5 49.359375 19.40625 46.890625 
Q 22.3125 44.4375 30.421875 42.921875 
L 36.375 41.703125 
Q 47.40625 39.59375 52.65625 34.296875 
Q 57.90625 29 57.90625 20.125 
Q 57.90625 9.515625 50.796875 4.046875 
Q 43.703125 -1.421875 29.984375 -1.421875 
Q 24.8125 -1.421875 18.96875 -0.25 
Q 13.140625 0.921875 6.890625 3.21875 
L 6.890625 13.375 
Q 12.890625 10.015625 18.65625 8.296875 
Q 24.421875 6.59375 29.984375 6.59375 
Q 38.421875 6.59375 43.015625 9.90625 
Q 47.609375 13.234375 47.609375 19.390625 
Q 47.609375 24.75 44.3125 27.78125 
Q 41.015625 30.8125 33.5 32.328125 
L 27.484375 33.5 
Q 16.453125 35.6875 11.515625 40.375 
Q 6.59375 45.0625 6.59375 53.421875 
Q 6.59375 63.09375 13.40625 68.65625 
Q 20.21875 74.21875 32.171875 74.21875 
Q 37.3125 74.21875 42.625 73.28125 
Q 47.953125 72.359375 53.515625 70.515625 
z
" id="DejaVuSans-53"/>
     </defs>
     <g transform="translate(997.792187 117.676562)scale(0.1 -0.1)">
      <use xlink:href="#DejaVuSans-53"/>
      <use x="63.476562" xlink:href="#DejaVuSans-47"/>
      <use x="140.966797" xlink:href="#DejaVuSans-44"/>
     </g>
    </g>
    <g id="line2d_22">
     <path d="M 969.792187 128.854687 
L 989.792187 128.854687 
" style="fill:none;stroke:#2ca02c;stroke-linecap:square;stroke-width:1.5;"/>
    </g>
    <g id="line2d_23"/>
    <g id="text_19">
     <!-- IRLS -->
     <defs>
      <path d="M 44.390625 34.1875 
Q 47.5625 33.109375 50.5625 29.59375 
Q 53.5625 26.078125 56.59375 19.921875 
L 66.609375 0 
L 56 0 
L 46.6875 18.703125 
Q 43.0625 26.03125 39.671875 28.421875 
Q 36.28125 30.8125 30.421875 30.8125 
L 19.671875 30.8125 
L 19.671875 0 
L 9.8125 0 
L 9.8125 72.90625 
L 32.078125 72.90625 
Q 44.578125 72.90625 50.734375 67.671875 
Q 56.890625 62.453125 56.890625 51.90625 
Q 56.890625 45.015625 53.6875 40.46875 
Q 50.484375 35.9375 44.390625 34.1875 
z
M 19.671875 64.796875 
L 19.671875 38.921875 
L 32.078125 38.921875 
Q 39.203125 38.921875 42.84375 42.21875 
Q 46.484375 45.515625 46.484375 51.90625 
Q 46.484375 58.296875 42.84375 61.546875 
Q 39.203125 64.796875 32.078125 64.796875 
z
" id="DejaVuSans-52"/>
     </defs>
     <g transform="translate(997.792187 132.354687)scale(0.1 -0.1)">
      <use xlink:href="#DejaVuSans-49"/>
      <use x="29.492188" xlink:href="#DejaVuSans-52"/>
      <use x="98.974609" xlink:href="#DejaVuSans-4c"/>
      <use x="154.6875" xlink:href="#DejaVuSans-53"/>
     </g>
    </g>
    <g id="line2d_24">
     <path d="M 969.792187 143.532812 
L 989.792187 143.532812 
" style="fill:none;stroke:#d62728;stroke-linecap:square;stroke-width:1.5;"/>
    </g>
    <g id="line2d_25"/>
    <g id="text_20">
     <!-- ADAM -->
     <defs>
      <path d="M 9.8125 72.90625 
L 24.515625 72.90625 
L 43.109375 23.296875 
L 61.8125 72.90625 
L 76.515625 72.90625 
L 76.515625 0 
L 66.890625 0 
L 66.890625 64.015625 
L 48.09375 14.015625 
L 38.1875 14.015625 
L 19.390625 64.015625 
L 19.390625 0 
L 9.8125 0 
z
" id="DejaVuSans-4d"/>
     </defs>
     <g transform="translate(997.792187 147.032812)scale(0.1 -0.1)">
      <use xlink:href="#DejaVuSans-41"/>
      <use x="68.408203" xlink:href="#DejaVuSans-44"/>
      <use x="145.394531" xlink:href="#DejaVuSans-41"/>
      <use x="213.802734" xlink:href="#DejaVuSans-4d"/>
     </g>
    </g>
   </g>
  </g>
 </g>
 <defs>
  <clipPath id="p54f7fada20">
   <rect height="543.6" width="892.8" x="144" y="86.4"/>
  </clipPath>
 </defs>
</svg>
